%TF.GenerationSoftware,KiCad,Pcbnew,6.0.4-6f826c9f35~116~ubuntu20.04.1*%
%TF.CreationDate,2022-06-04T11:43:05+03:00*%
%TF.ProjectId,metronome,6d657472-6f6e-46f6-9d65-2e6b69636164,rev?*%
%TF.SameCoordinates,Original*%
%TF.FileFunction,Legend,Top*%
%TF.FilePolarity,Positive*%
%FSLAX46Y46*%
G04 Gerber Fmt 4.6, Leading zero omitted, Abs format (unit mm)*
G04 Created by KiCad (PCBNEW 6.0.4-6f826c9f35~116~ubuntu20.04.1) date 2022-06-04 11:43:05*
%MOMM*%
%LPD*%
G01*
G04 APERTURE LIST*
%ADD10C,0.300000*%
%ADD11C,0.150000*%
%ADD12C,0.120000*%
G04 APERTURE END LIST*
D10*
X262480714Y-61542857D02*
X262480714Y-60742857D01*
X262480714Y-60342857D02*
X262423571Y-60400000D01*
X262480714Y-60457142D01*
X262537857Y-60400000D01*
X262480714Y-60342857D01*
X262480714Y-60457142D01*
X263052142Y-61542857D02*
X263052142Y-60742857D01*
X263052142Y-60342857D02*
X262995000Y-60400000D01*
X263052142Y-60457142D01*
X263109285Y-60400000D01*
X263052142Y-60342857D01*
X263052142Y-60457142D01*
X263623571Y-61085714D02*
X264537857Y-61085714D01*
X264937857Y-60742857D02*
X265395000Y-60742857D01*
X265109285Y-61542857D02*
X265109285Y-60514285D01*
X265166428Y-60400000D01*
X265280714Y-60342857D01*
X265395000Y-60342857D01*
X265795000Y-61542857D02*
X265795000Y-60742857D01*
X265795000Y-60971428D02*
X265852142Y-60857142D01*
X265909285Y-60800000D01*
X266023571Y-60742857D01*
X266137857Y-60742857D01*
X266995000Y-61485714D02*
X266880714Y-61542857D01*
X266652142Y-61542857D01*
X266537857Y-61485714D01*
X266480714Y-61371428D01*
X266480714Y-60914285D01*
X266537857Y-60800000D01*
X266652142Y-60742857D01*
X266880714Y-60742857D01*
X266995000Y-60800000D01*
X267052142Y-60914285D01*
X267052142Y-61028571D01*
X266480714Y-61142857D01*
X268080714Y-60742857D02*
X268080714Y-61942857D01*
X268080714Y-61485714D02*
X267966428Y-61542857D01*
X267737857Y-61542857D01*
X267623571Y-61485714D01*
X267566428Y-61428571D01*
X267509285Y-61314285D01*
X267509285Y-60971428D01*
X267566428Y-60857142D01*
X267623571Y-60800000D01*
X267737857Y-60742857D01*
X267966428Y-60742857D01*
X268080714Y-60800000D01*
X268652142Y-60742857D02*
X268652142Y-61942857D01*
X268652142Y-60800000D02*
X268766428Y-60742857D01*
X268995000Y-60742857D01*
X269109285Y-60800000D01*
X269166428Y-60857142D01*
X269223571Y-60971428D01*
X269223571Y-61314285D01*
X269166428Y-61428571D01*
X269109285Y-61485714D01*
X268995000Y-61542857D01*
X268766428Y-61542857D01*
X268652142Y-61485714D01*
X269909285Y-61542857D02*
X269795000Y-61485714D01*
X269737857Y-61428571D01*
X269680714Y-61314285D01*
X269680714Y-60971428D01*
X269737857Y-60857142D01*
X269795000Y-60800000D01*
X269909285Y-60742857D01*
X270080714Y-60742857D01*
X270195000Y-60800000D01*
X270252142Y-60857142D01*
X270309285Y-60971428D01*
X270309285Y-61314285D01*
X270252142Y-61428571D01*
X270195000Y-61485714D01*
X270080714Y-61542857D01*
X269909285Y-61542857D01*
X270652142Y-60742857D02*
X271109285Y-60742857D01*
X270823571Y-60342857D02*
X270823571Y-61371428D01*
X270880714Y-61485714D01*
X270995000Y-61542857D01*
X271109285Y-61542857D01*
X271509285Y-61085714D02*
X272423571Y-61085714D01*
X273166428Y-61542857D02*
X273052142Y-61485714D01*
X272995000Y-61428571D01*
X272937857Y-61314285D01*
X272937857Y-60971428D01*
X272995000Y-60857142D01*
X273052142Y-60800000D01*
X273166428Y-60742857D01*
X273337857Y-60742857D01*
X273452142Y-60800000D01*
X273509285Y-60857142D01*
X273566428Y-60971428D01*
X273566428Y-61314285D01*
X273509285Y-61428571D01*
X273452142Y-61485714D01*
X273337857Y-61542857D01*
X273166428Y-61542857D01*
X254742857Y-74505000D02*
X255542857Y-74505000D01*
X254285714Y-74790714D02*
X255142857Y-75076428D01*
X255142857Y-74333571D01*
X254342857Y-73990714D02*
X254342857Y-73190714D01*
X255542857Y-73705000D01*
X254342857Y-72505000D02*
X254342857Y-72390714D01*
X254400000Y-72276428D01*
X254457142Y-72219285D01*
X254571428Y-72162142D01*
X254800000Y-72105000D01*
X255085714Y-72105000D01*
X255314285Y-72162142D01*
X255428571Y-72219285D01*
X255485714Y-72276428D01*
X255542857Y-72390714D01*
X255542857Y-72505000D01*
X255485714Y-72619285D01*
X255428571Y-72676428D01*
X255314285Y-72733571D01*
X255085714Y-72790714D01*
X254800000Y-72790714D01*
X254571428Y-72733571D01*
X254457142Y-72676428D01*
X254400000Y-72619285D01*
X254342857Y-72505000D01*
X256109285Y-67042857D02*
X255423571Y-67042857D01*
X255766428Y-67042857D02*
X255766428Y-65842857D01*
X255652142Y-66014285D01*
X255537857Y-66128571D01*
X255423571Y-66185714D01*
X256852142Y-65842857D02*
X256966428Y-65842857D01*
X257080714Y-65900000D01*
X257137857Y-65957142D01*
X257195000Y-66071428D01*
X257252142Y-66300000D01*
X257252142Y-66585714D01*
X257195000Y-66814285D01*
X257137857Y-66928571D01*
X257080714Y-66985714D01*
X256966428Y-67042857D01*
X256852142Y-67042857D01*
X256737857Y-66985714D01*
X256680714Y-66928571D01*
X256623571Y-66814285D01*
X256566428Y-66585714D01*
X256566428Y-66300000D01*
X256623571Y-66071428D01*
X256680714Y-65957142D01*
X256737857Y-65900000D01*
X256852142Y-65842857D01*
X258280714Y-66242857D02*
X258280714Y-67042857D01*
X257766428Y-66242857D02*
X257766428Y-66871428D01*
X257823571Y-66985714D01*
X257937857Y-67042857D01*
X258109285Y-67042857D01*
X258223571Y-66985714D01*
X258280714Y-66928571D01*
X268995000Y-86742857D02*
X268995000Y-87542857D01*
X268709285Y-86285714D02*
X268423571Y-87142857D01*
X269166428Y-87142857D01*
X269509285Y-86342857D02*
X270309285Y-86342857D01*
X269795000Y-87542857D01*
X271280714Y-86742857D02*
X271280714Y-87542857D01*
X270766428Y-86742857D02*
X270766428Y-87371428D01*
X270823571Y-87485714D01*
X270937857Y-87542857D01*
X271109285Y-87542857D01*
X271223571Y-87485714D01*
X271280714Y-87428571D01*
X254995000Y-60742857D02*
X254995000Y-61714285D01*
X254937857Y-61828571D01*
X254880714Y-61885714D01*
X254766428Y-61942857D01*
X254595000Y-61942857D01*
X254480714Y-61885714D01*
X254995000Y-61485714D02*
X254880714Y-61542857D01*
X254652142Y-61542857D01*
X254537857Y-61485714D01*
X254480714Y-61428571D01*
X254423571Y-61314285D01*
X254423571Y-60971428D01*
X254480714Y-60857142D01*
X254537857Y-60800000D01*
X254652142Y-60742857D01*
X254880714Y-60742857D01*
X254995000Y-60800000D01*
X255566428Y-60742857D02*
X255566428Y-61542857D01*
X255566428Y-60857142D02*
X255623571Y-60800000D01*
X255737857Y-60742857D01*
X255909285Y-60742857D01*
X256023571Y-60800000D01*
X256080714Y-60914285D01*
X256080714Y-61542857D01*
X257166428Y-61542857D02*
X257166428Y-60342857D01*
X257166428Y-61485714D02*
X257052142Y-61542857D01*
X256823571Y-61542857D01*
X256709285Y-61485714D01*
X256652142Y-61428571D01*
X256595000Y-61314285D01*
X256595000Y-60971428D01*
X256652142Y-60857142D01*
X256709285Y-60800000D01*
X256823571Y-60742857D01*
X257052142Y-60742857D01*
X257166428Y-60800000D01*
X253542857Y-71847857D02*
X253485714Y-71962142D01*
X253428571Y-72019285D01*
X253314285Y-72076428D01*
X252971428Y-72076428D01*
X252857142Y-72019285D01*
X252800000Y-71962142D01*
X252742857Y-71847857D01*
X252742857Y-71676428D01*
X252800000Y-71562142D01*
X252857142Y-71505000D01*
X252971428Y-71447857D01*
X253314285Y-71447857D01*
X253428571Y-71505000D01*
X253485714Y-71562142D01*
X253542857Y-71676428D01*
X253542857Y-71847857D01*
X253085714Y-70933571D02*
X253085714Y-70019285D01*
X252742857Y-69562142D02*
X253542857Y-69276428D01*
X252742857Y-68990714D01*
X253542857Y-68362142D02*
X253485714Y-68476428D01*
X253428571Y-68533571D01*
X253314285Y-68590714D01*
X252971428Y-68590714D01*
X252857142Y-68533571D01*
X252800000Y-68476428D01*
X252742857Y-68362142D01*
X252742857Y-68190714D01*
X252800000Y-68076428D01*
X252857142Y-68019285D01*
X252971428Y-67962142D01*
X253314285Y-67962142D01*
X253428571Y-68019285D01*
X253485714Y-68076428D01*
X253542857Y-68190714D01*
X253542857Y-68362142D01*
X253542857Y-67276428D02*
X253485714Y-67390714D01*
X253371428Y-67447857D01*
X252342857Y-67447857D01*
X252742857Y-66819285D02*
X253942857Y-66819285D01*
X252800000Y-66819285D02*
X252742857Y-66705000D01*
X252742857Y-66476428D01*
X252800000Y-66362142D01*
X252857142Y-66305000D01*
X252971428Y-66247857D01*
X253314285Y-66247857D01*
X253428571Y-66305000D01*
X253485714Y-66362142D01*
X253542857Y-66476428D01*
X253542857Y-66705000D01*
X253485714Y-66819285D01*
X253542857Y-65562142D02*
X253485714Y-65676428D01*
X253428571Y-65733571D01*
X253314285Y-65790714D01*
X252971428Y-65790714D01*
X252857142Y-65733571D01*
X252800000Y-65676428D01*
X252742857Y-65562142D01*
X252742857Y-65390714D01*
X252800000Y-65276428D01*
X252857142Y-65219285D01*
X252971428Y-65162142D01*
X253314285Y-65162142D01*
X253428571Y-65219285D01*
X253485714Y-65276428D01*
X253542857Y-65390714D01*
X253542857Y-65562142D01*
X252742857Y-64819285D02*
X252742857Y-64362142D01*
X252342857Y-64647857D02*
X253371428Y-64647857D01*
X253485714Y-64590714D01*
X253542857Y-64476428D01*
X253542857Y-64362142D01*
X253085714Y-63962142D02*
X253085714Y-63047857D01*
X253542857Y-62476428D02*
X252742857Y-62476428D01*
X252342857Y-62476428D02*
X252400000Y-62533571D01*
X252457142Y-62476428D01*
X252400000Y-62419285D01*
X252342857Y-62476428D01*
X252457142Y-62476428D01*
X253542857Y-61905000D02*
X252742857Y-61905000D01*
X252342857Y-61905000D02*
X252400000Y-61962142D01*
X252457142Y-61905000D01*
X252400000Y-61847857D01*
X252342857Y-61905000D01*
X252457142Y-61905000D01*
X277342857Y-69947857D02*
X277342857Y-70519285D01*
X277914285Y-70576428D01*
X277857142Y-70519285D01*
X277800000Y-70405000D01*
X277800000Y-70119285D01*
X277857142Y-70005000D01*
X277914285Y-69947857D01*
X278028571Y-69890714D01*
X278314285Y-69890714D01*
X278428571Y-69947857D01*
X278485714Y-70005000D01*
X278542857Y-70119285D01*
X278542857Y-70405000D01*
X278485714Y-70519285D01*
X278428571Y-70576428D01*
X278542857Y-69376428D02*
X277342857Y-69376428D01*
X278085714Y-69262142D02*
X278542857Y-68919285D01*
X277742857Y-68919285D02*
X278200000Y-69376428D01*
X258342857Y-75133571D02*
X258342857Y-74390714D01*
X258800000Y-74790714D01*
X258800000Y-74619285D01*
X258857142Y-74505000D01*
X258914285Y-74447857D01*
X259028571Y-74390714D01*
X259314285Y-74390714D01*
X259428571Y-74447857D01*
X259485714Y-74505000D01*
X259542857Y-74619285D01*
X259542857Y-74962142D01*
X259485714Y-75076428D01*
X259428571Y-75133571D01*
X259428571Y-73876428D02*
X259485714Y-73819285D01*
X259542857Y-73876428D01*
X259485714Y-73933571D01*
X259428571Y-73876428D01*
X259542857Y-73876428D01*
X259542857Y-73247857D02*
X259542857Y-73019285D01*
X259485714Y-72905000D01*
X259428571Y-72847857D01*
X259257142Y-72733571D01*
X259028571Y-72676428D01*
X258571428Y-72676428D01*
X258457142Y-72733571D01*
X258400000Y-72790714D01*
X258342857Y-72905000D01*
X258342857Y-73133571D01*
X258400000Y-73247857D01*
X258457142Y-73305000D01*
X258571428Y-73362142D01*
X258857142Y-73362142D01*
X258971428Y-73305000D01*
X259028571Y-73247857D01*
X259085714Y-73133571D01*
X259085714Y-72905000D01*
X259028571Y-72790714D01*
X258971428Y-72733571D01*
X258857142Y-72676428D01*
X259542857Y-72162142D02*
X258342857Y-72162142D01*
X259085714Y-72047857D02*
X259542857Y-71705000D01*
X258742857Y-71705000D02*
X259200000Y-72162142D01*
X258866428Y-60742857D02*
X259152142Y-61542857D01*
X259437857Y-60742857D01*
X259895000Y-61542857D02*
X259895000Y-60742857D01*
X259895000Y-60342857D02*
X259837857Y-60400000D01*
X259895000Y-60457142D01*
X259952142Y-60400000D01*
X259895000Y-60342857D01*
X259895000Y-60457142D01*
X260466428Y-60742857D02*
X260466428Y-61542857D01*
X260466428Y-60857142D02*
X260523571Y-60800000D01*
X260637857Y-60742857D01*
X260809285Y-60742857D01*
X260923571Y-60800000D01*
X260980714Y-60914285D01*
X260980714Y-61542857D01*
X261495000Y-86742857D02*
X261495000Y-87542857D01*
X261209285Y-86285714D02*
X260923571Y-87142857D01*
X261666428Y-87142857D01*
X262009285Y-86342857D02*
X262809285Y-86342857D01*
X262295000Y-87542857D01*
X263495000Y-86342857D02*
X263609285Y-86342857D01*
X263723571Y-86400000D01*
X263780714Y-86457142D01*
X263837857Y-86571428D01*
X263895000Y-86800000D01*
X263895000Y-87085714D01*
X263837857Y-87314285D01*
X263780714Y-87428571D01*
X263723571Y-87485714D01*
X263609285Y-87542857D01*
X263495000Y-87542857D01*
X263380714Y-87485714D01*
X263323571Y-87428571D01*
X263266428Y-87314285D01*
X263209285Y-87085714D01*
X263209285Y-86800000D01*
X263266428Y-86571428D01*
X263323571Y-86457142D01*
X263380714Y-86400000D01*
X263495000Y-86342857D01*
X264409285Y-86742857D02*
X264409285Y-87542857D01*
X264409285Y-86857142D02*
X264466428Y-86800000D01*
X264580714Y-86742857D01*
X264752142Y-86742857D01*
X264866428Y-86800000D01*
X264923571Y-86914285D01*
X264923571Y-87542857D01*
X253085714Y-82019285D02*
X253085714Y-81105000D01*
X253542857Y-81562142D02*
X252628571Y-81562142D01*
X253485714Y-80590714D02*
X253542857Y-80476428D01*
X253542857Y-80247857D01*
X253485714Y-80133571D01*
X253371428Y-80076428D01*
X253314285Y-80076428D01*
X253200000Y-80133571D01*
X253142857Y-80247857D01*
X253142857Y-80419285D01*
X253085714Y-80533571D01*
X252971428Y-80590714D01*
X252914285Y-80590714D01*
X252800000Y-80533571D01*
X252742857Y-80419285D01*
X252742857Y-80247857D01*
X252800000Y-80133571D01*
X252742857Y-79562142D02*
X253942857Y-79562142D01*
X252800000Y-79562142D02*
X252742857Y-79447857D01*
X252742857Y-79219285D01*
X252800000Y-79105000D01*
X252857142Y-79047857D01*
X252971428Y-78990714D01*
X253314285Y-78990714D01*
X253428571Y-79047857D01*
X253485714Y-79105000D01*
X253542857Y-79219285D01*
X253542857Y-79447857D01*
X253485714Y-79562142D01*
X253485714Y-78019285D02*
X253542857Y-78133571D01*
X253542857Y-78362142D01*
X253485714Y-78476428D01*
X253371428Y-78533571D01*
X252914285Y-78533571D01*
X252800000Y-78476428D01*
X252742857Y-78362142D01*
X252742857Y-78133571D01*
X252800000Y-78019285D01*
X252914285Y-77962142D01*
X253028571Y-77962142D01*
X253142857Y-78533571D01*
X253542857Y-76933571D02*
X252914285Y-76933571D01*
X252800000Y-76990714D01*
X252742857Y-77105000D01*
X252742857Y-77333571D01*
X252800000Y-77447857D01*
X253485714Y-76933571D02*
X253542857Y-77047857D01*
X253542857Y-77333571D01*
X253485714Y-77447857D01*
X253371428Y-77505000D01*
X253257142Y-77505000D01*
X253142857Y-77447857D01*
X253085714Y-77333571D01*
X253085714Y-77047857D01*
X253028571Y-76933571D01*
X253542857Y-76362142D02*
X252342857Y-76362142D01*
X253085714Y-76247857D02*
X253542857Y-75905000D01*
X252742857Y-75905000D02*
X253200000Y-76362142D01*
X253485714Y-74933571D02*
X253542857Y-75047857D01*
X253542857Y-75276428D01*
X253485714Y-75390714D01*
X253371428Y-75447857D01*
X252914285Y-75447857D01*
X252800000Y-75390714D01*
X252742857Y-75276428D01*
X252742857Y-75047857D01*
X252800000Y-74933571D01*
X252914285Y-74876428D01*
X253028571Y-74876428D01*
X253142857Y-75447857D01*
X253542857Y-74362142D02*
X252742857Y-74362142D01*
X252971428Y-74362142D02*
X252857142Y-74305000D01*
X252800000Y-74247857D01*
X252742857Y-74133571D01*
X252742857Y-74019285D01*
X253085714Y-73619285D02*
X253085714Y-72705000D01*
X273342857Y-69947857D02*
X273342857Y-70519285D01*
X273914285Y-70576428D01*
X273857142Y-70519285D01*
X273800000Y-70405000D01*
X273800000Y-70119285D01*
X273857142Y-70005000D01*
X273914285Y-69947857D01*
X274028571Y-69890714D01*
X274314285Y-69890714D01*
X274428571Y-69947857D01*
X274485714Y-70005000D01*
X274542857Y-70119285D01*
X274542857Y-70405000D01*
X274485714Y-70519285D01*
X274428571Y-70576428D01*
X273342857Y-69147857D02*
X273342857Y-69033571D01*
X273400000Y-68919285D01*
X273457142Y-68862142D01*
X273571428Y-68805000D01*
X273800000Y-68747857D01*
X274085714Y-68747857D01*
X274314285Y-68805000D01*
X274428571Y-68862142D01*
X274485714Y-68919285D01*
X274542857Y-69033571D01*
X274542857Y-69147857D01*
X274485714Y-69262142D01*
X274428571Y-69319285D01*
X274314285Y-69376428D01*
X274085714Y-69433571D01*
X273800000Y-69433571D01*
X273571428Y-69376428D01*
X273457142Y-69319285D01*
X273400000Y-69262142D01*
X273342857Y-69147857D01*
X273342857Y-68005000D02*
X273342857Y-67890714D01*
X273400000Y-67776428D01*
X273457142Y-67719285D01*
X273571428Y-67662142D01*
X273800000Y-67605000D01*
X274085714Y-67605000D01*
X274314285Y-67662142D01*
X274428571Y-67719285D01*
X274485714Y-67776428D01*
X274542857Y-67890714D01*
X274542857Y-68005000D01*
X274485714Y-68119285D01*
X274428571Y-68176428D01*
X274314285Y-68233571D01*
X274085714Y-68290714D01*
X273800000Y-68290714D01*
X273571428Y-68233571D01*
X273457142Y-68176428D01*
X273400000Y-68119285D01*
X273342857Y-68005000D01*
X273542857Y-79890714D02*
X273542857Y-80576428D01*
X273542857Y-80233571D02*
X272342857Y-80233571D01*
X272514285Y-80347857D01*
X272628571Y-80462142D01*
X272685714Y-80576428D01*
X272342857Y-79147857D02*
X272342857Y-79033571D01*
X272400000Y-78919285D01*
X272457142Y-78862142D01*
X272571428Y-78805000D01*
X272800000Y-78747857D01*
X273085714Y-78747857D01*
X273314285Y-78805000D01*
X273428571Y-78862142D01*
X273485714Y-78919285D01*
X273542857Y-79033571D01*
X273542857Y-79147857D01*
X273485714Y-79262142D01*
X273428571Y-79319285D01*
X273314285Y-79376428D01*
X273085714Y-79433571D01*
X272800000Y-79433571D01*
X272571428Y-79376428D01*
X272457142Y-79319285D01*
X272400000Y-79262142D01*
X272342857Y-79147857D01*
X272342857Y-78005000D02*
X272342857Y-77890714D01*
X272400000Y-77776428D01*
X272457142Y-77719285D01*
X272571428Y-77662142D01*
X272800000Y-77605000D01*
X273085714Y-77605000D01*
X273314285Y-77662142D01*
X273428571Y-77719285D01*
X273485714Y-77776428D01*
X273542857Y-77890714D01*
X273542857Y-78005000D01*
X273485714Y-78119285D01*
X273428571Y-78176428D01*
X273314285Y-78233571D01*
X273085714Y-78290714D01*
X272800000Y-78290714D01*
X272571428Y-78233571D01*
X272457142Y-78176428D01*
X272400000Y-78119285D01*
X272342857Y-78005000D01*
X272742857Y-77090714D02*
X273542857Y-77090714D01*
X272857142Y-77090714D02*
X272800000Y-77033571D01*
X272742857Y-76919285D01*
X272742857Y-76747857D01*
X272800000Y-76633571D01*
X272914285Y-76576428D01*
X273542857Y-76576428D01*
D11*
%TO.C,R1*%
X140572380Y-79666666D02*
X140096190Y-80000000D01*
X140572380Y-80238095D02*
X139572380Y-80238095D01*
X139572380Y-79857142D01*
X139620000Y-79761904D01*
X139667619Y-79714285D01*
X139762857Y-79666666D01*
X139905714Y-79666666D01*
X140000952Y-79714285D01*
X140048571Y-79761904D01*
X140096190Y-79857142D01*
X140096190Y-80238095D01*
X140572380Y-78714285D02*
X140572380Y-79285714D01*
X140572380Y-79000000D02*
X139572380Y-79000000D01*
X139715238Y-79095238D01*
X139810476Y-79190476D01*
X139858095Y-79285714D01*
%TO.C,R10*%
X119582380Y-107642857D02*
X119106190Y-107976190D01*
X119582380Y-108214285D02*
X118582380Y-108214285D01*
X118582380Y-107833333D01*
X118630000Y-107738095D01*
X118677619Y-107690476D01*
X118772857Y-107642857D01*
X118915714Y-107642857D01*
X119010952Y-107690476D01*
X119058571Y-107738095D01*
X119106190Y-107833333D01*
X119106190Y-108214285D01*
X119582380Y-106690476D02*
X119582380Y-107261904D01*
X119582380Y-106976190D02*
X118582380Y-106976190D01*
X118725238Y-107071428D01*
X118820476Y-107166666D01*
X118868095Y-107261904D01*
X118582380Y-106071428D02*
X118582380Y-105976190D01*
X118630000Y-105880952D01*
X118677619Y-105833333D01*
X118772857Y-105785714D01*
X118963333Y-105738095D01*
X119201428Y-105738095D01*
X119391904Y-105785714D01*
X119487142Y-105833333D01*
X119534761Y-105880952D01*
X119582380Y-105976190D01*
X119582380Y-106071428D01*
X119534761Y-106166666D01*
X119487142Y-106214285D01*
X119391904Y-106261904D01*
X119201428Y-106309523D01*
X118963333Y-106309523D01*
X118772857Y-106261904D01*
X118677619Y-106214285D01*
X118630000Y-106166666D01*
X118582380Y-106071428D01*
%TO.C,C3*%
X137607142Y-83166666D02*
X137654761Y-83214285D01*
X137702380Y-83357142D01*
X137702380Y-83452380D01*
X137654761Y-83595238D01*
X137559523Y-83690476D01*
X137464285Y-83738095D01*
X137273809Y-83785714D01*
X137130952Y-83785714D01*
X136940476Y-83738095D01*
X136845238Y-83690476D01*
X136750000Y-83595238D01*
X136702380Y-83452380D01*
X136702380Y-83357142D01*
X136750000Y-83214285D01*
X136797619Y-83166666D01*
X136702380Y-82833333D02*
X136702380Y-82214285D01*
X137083333Y-82547619D01*
X137083333Y-82404761D01*
X137130952Y-82309523D01*
X137178571Y-82261904D01*
X137273809Y-82214285D01*
X137511904Y-82214285D01*
X137607142Y-82261904D01*
X137654761Y-82309523D01*
X137702380Y-82404761D01*
X137702380Y-82690476D01*
X137654761Y-82785714D01*
X137607142Y-82833333D01*
%TO.C,C4*%
X116083333Y-71857142D02*
X116035714Y-71904761D01*
X115892857Y-71952380D01*
X115797619Y-71952380D01*
X115654761Y-71904761D01*
X115559523Y-71809523D01*
X115511904Y-71714285D01*
X115464285Y-71523809D01*
X115464285Y-71380952D01*
X115511904Y-71190476D01*
X115559523Y-71095238D01*
X115654761Y-71000000D01*
X115797619Y-70952380D01*
X115892857Y-70952380D01*
X116035714Y-71000000D01*
X116083333Y-71047619D01*
X116940476Y-71285714D02*
X116940476Y-71952380D01*
X116702380Y-70904761D02*
X116464285Y-71619047D01*
X117083333Y-71619047D01*
%TO.C,D5*%
X127332380Y-102428095D02*
X126332380Y-102428095D01*
X126332380Y-102190000D01*
X126380000Y-102047142D01*
X126475238Y-101951904D01*
X126570476Y-101904285D01*
X126760952Y-101856666D01*
X126903809Y-101856666D01*
X127094285Y-101904285D01*
X127189523Y-101951904D01*
X127284761Y-102047142D01*
X127332380Y-102190000D01*
X127332380Y-102428095D01*
X126332380Y-100951904D02*
X126332380Y-101428095D01*
X126808571Y-101475714D01*
X126760952Y-101428095D01*
X126713333Y-101332857D01*
X126713333Y-101094761D01*
X126760952Y-100999523D01*
X126808571Y-100951904D01*
X126903809Y-100904285D01*
X127141904Y-100904285D01*
X127237142Y-100951904D01*
X127284761Y-100999523D01*
X127332380Y-101094761D01*
X127332380Y-101332857D01*
X127284761Y-101428095D01*
X127237142Y-101475714D01*
X127652380Y-105761904D02*
X126652380Y-105761904D01*
X127652380Y-105190476D02*
X127080952Y-105619047D01*
X126652380Y-105190476D02*
X127223809Y-105761904D01*
%TO.C,D3*%
X133332380Y-102428095D02*
X132332380Y-102428095D01*
X132332380Y-102190000D01*
X132380000Y-102047142D01*
X132475238Y-101951904D01*
X132570476Y-101904285D01*
X132760952Y-101856666D01*
X132903809Y-101856666D01*
X133094285Y-101904285D01*
X133189523Y-101951904D01*
X133284761Y-102047142D01*
X133332380Y-102190000D01*
X133332380Y-102428095D01*
X132332380Y-101523333D02*
X132332380Y-100904285D01*
X132713333Y-101237619D01*
X132713333Y-101094761D01*
X132760952Y-100999523D01*
X132808571Y-100951904D01*
X132903809Y-100904285D01*
X133141904Y-100904285D01*
X133237142Y-100951904D01*
X133284761Y-100999523D01*
X133332380Y-101094761D01*
X133332380Y-101380476D01*
X133284761Y-101475714D01*
X133237142Y-101523333D01*
X133652380Y-105761904D02*
X132652380Y-105761904D01*
X133652380Y-105190476D02*
X133080952Y-105619047D01*
X132652380Y-105190476D02*
X133223809Y-105761904D01*
%TO.C,RV2*%
X139902380Y-78095238D02*
X139426190Y-78428571D01*
X139902380Y-78666666D02*
X138902380Y-78666666D01*
X138902380Y-78285714D01*
X138950000Y-78190476D01*
X138997619Y-78142857D01*
X139092857Y-78095238D01*
X139235714Y-78095238D01*
X139330952Y-78142857D01*
X139378571Y-78190476D01*
X139426190Y-78285714D01*
X139426190Y-78666666D01*
X138902380Y-77809523D02*
X139902380Y-77476190D01*
X138902380Y-77142857D01*
X138997619Y-76857142D02*
X138950000Y-76809523D01*
X138902380Y-76714285D01*
X138902380Y-76476190D01*
X138950000Y-76380952D01*
X138997619Y-76333333D01*
X139092857Y-76285714D01*
X139188095Y-76285714D01*
X139330952Y-76333333D01*
X139902380Y-76904761D01*
X139902380Y-76285714D01*
%TO.C,Q1*%
X116174761Y-79487619D02*
X116079523Y-79440000D01*
X115984285Y-79344761D01*
X115841428Y-79201904D01*
X115746190Y-79154285D01*
X115650952Y-79154285D01*
X115698571Y-79392380D02*
X115603333Y-79344761D01*
X115508095Y-79249523D01*
X115460476Y-79059047D01*
X115460476Y-78725714D01*
X115508095Y-78535238D01*
X115603333Y-78440000D01*
X115698571Y-78392380D01*
X115889047Y-78392380D01*
X115984285Y-78440000D01*
X116079523Y-78535238D01*
X116127142Y-78725714D01*
X116127142Y-79059047D01*
X116079523Y-79249523D01*
X115984285Y-79344761D01*
X115889047Y-79392380D01*
X115698571Y-79392380D01*
X117079523Y-79392380D02*
X116508095Y-79392380D01*
X116793809Y-79392380D02*
X116793809Y-78392380D01*
X116698571Y-78535238D01*
X116603333Y-78630476D01*
X116508095Y-78678095D01*
%TO.C,D7*%
X125766904Y-114332380D02*
X125766904Y-113332380D01*
X126005000Y-113332380D01*
X126147857Y-113380000D01*
X126243095Y-113475238D01*
X126290714Y-113570476D01*
X126338333Y-113760952D01*
X126338333Y-113903809D01*
X126290714Y-114094285D01*
X126243095Y-114189523D01*
X126147857Y-114284761D01*
X126005000Y-114332380D01*
X125766904Y-114332380D01*
X126671666Y-113332380D02*
X127338333Y-113332380D01*
X126909761Y-114332380D01*
%TO.C,SW1*%
X139854761Y-100583333D02*
X139902380Y-100440476D01*
X139902380Y-100202380D01*
X139854761Y-100107142D01*
X139807142Y-100059523D01*
X139711904Y-100011904D01*
X139616666Y-100011904D01*
X139521428Y-100059523D01*
X139473809Y-100107142D01*
X139426190Y-100202380D01*
X139378571Y-100392857D01*
X139330952Y-100488095D01*
X139283333Y-100535714D01*
X139188095Y-100583333D01*
X139092857Y-100583333D01*
X138997619Y-100535714D01*
X138950000Y-100488095D01*
X138902380Y-100392857D01*
X138902380Y-100154761D01*
X138950000Y-100011904D01*
X138902380Y-99678571D02*
X139902380Y-99440476D01*
X139188095Y-99250000D01*
X139902380Y-99059523D01*
X138902380Y-98821428D01*
X139902380Y-97916666D02*
X139902380Y-98488095D01*
X139902380Y-98202380D02*
X138902380Y-98202380D01*
X139045238Y-98297619D01*
X139140476Y-98392857D01*
X139188095Y-98488095D01*
%TO.C,U2*%
X117247380Y-92251904D02*
X118056904Y-92251904D01*
X118152142Y-92204285D01*
X118199761Y-92156666D01*
X118247380Y-92061428D01*
X118247380Y-91870952D01*
X118199761Y-91775714D01*
X118152142Y-91728095D01*
X118056904Y-91680476D01*
X117247380Y-91680476D01*
X117342619Y-91251904D02*
X117295000Y-91204285D01*
X117247380Y-91109047D01*
X117247380Y-90870952D01*
X117295000Y-90775714D01*
X117342619Y-90728095D01*
X117437857Y-90680476D01*
X117533095Y-90680476D01*
X117675952Y-90728095D01*
X118247380Y-91299523D01*
X118247380Y-90680476D01*
%TO.C,D4*%
X130332380Y-102428095D02*
X129332380Y-102428095D01*
X129332380Y-102190000D01*
X129380000Y-102047142D01*
X129475238Y-101951904D01*
X129570476Y-101904285D01*
X129760952Y-101856666D01*
X129903809Y-101856666D01*
X130094285Y-101904285D01*
X130189523Y-101951904D01*
X130284761Y-102047142D01*
X130332380Y-102190000D01*
X130332380Y-102428095D01*
X129665714Y-100999523D02*
X130332380Y-100999523D01*
X129284761Y-101237619D02*
X129999047Y-101475714D01*
X129999047Y-100856666D01*
X130652380Y-105761904D02*
X129652380Y-105761904D01*
X130652380Y-105190476D02*
X130080952Y-105619047D01*
X129652380Y-105190476D02*
X130223809Y-105761904D01*
%TO.C,R9*%
X136082380Y-107086666D02*
X135606190Y-107420000D01*
X136082380Y-107658095D02*
X135082380Y-107658095D01*
X135082380Y-107277142D01*
X135130000Y-107181904D01*
X135177619Y-107134285D01*
X135272857Y-107086666D01*
X135415714Y-107086666D01*
X135510952Y-107134285D01*
X135558571Y-107181904D01*
X135606190Y-107277142D01*
X135606190Y-107658095D01*
X136082380Y-106610476D02*
X136082380Y-106420000D01*
X136034761Y-106324761D01*
X135987142Y-106277142D01*
X135844285Y-106181904D01*
X135653809Y-106134285D01*
X135272857Y-106134285D01*
X135177619Y-106181904D01*
X135130000Y-106229523D01*
X135082380Y-106324761D01*
X135082380Y-106515238D01*
X135130000Y-106610476D01*
X135177619Y-106658095D01*
X135272857Y-106705714D01*
X135510952Y-106705714D01*
X135606190Y-106658095D01*
X135653809Y-106610476D01*
X135701428Y-106515238D01*
X135701428Y-106324761D01*
X135653809Y-106229523D01*
X135606190Y-106181904D01*
X135510952Y-106134285D01*
%TO.C,D6*%
X122832380Y-102428095D02*
X121832380Y-102428095D01*
X121832380Y-102190000D01*
X121880000Y-102047142D01*
X121975238Y-101951904D01*
X122070476Y-101904285D01*
X122260952Y-101856666D01*
X122403809Y-101856666D01*
X122594285Y-101904285D01*
X122689523Y-101951904D01*
X122784761Y-102047142D01*
X122832380Y-102190000D01*
X122832380Y-102428095D01*
X121832380Y-100999523D02*
X121832380Y-101190000D01*
X121880000Y-101285238D01*
X121927619Y-101332857D01*
X122070476Y-101428095D01*
X122260952Y-101475714D01*
X122641904Y-101475714D01*
X122737142Y-101428095D01*
X122784761Y-101380476D01*
X122832380Y-101285238D01*
X122832380Y-101094761D01*
X122784761Y-100999523D01*
X122737142Y-100951904D01*
X122641904Y-100904285D01*
X122403809Y-100904285D01*
X122308571Y-100951904D01*
X122260952Y-100999523D01*
X122213333Y-101094761D01*
X122213333Y-101285238D01*
X122260952Y-101380476D01*
X122308571Y-101428095D01*
X122403809Y-101475714D01*
X123152380Y-105761904D02*
X122152380Y-105761904D01*
X123152380Y-105190476D02*
X122580952Y-105619047D01*
X122152380Y-105190476D02*
X122723809Y-105761904D01*
%TO.C,D2*%
X132256904Y-106412380D02*
X132256904Y-105412380D01*
X132495000Y-105412380D01*
X132637857Y-105460000D01*
X132733095Y-105555238D01*
X132780714Y-105650476D01*
X132828333Y-105840952D01*
X132828333Y-105983809D01*
X132780714Y-106174285D01*
X132733095Y-106269523D01*
X132637857Y-106364761D01*
X132495000Y-106412380D01*
X132256904Y-106412380D01*
X133209285Y-105507619D02*
X133256904Y-105460000D01*
X133352142Y-105412380D01*
X133590238Y-105412380D01*
X133685476Y-105460000D01*
X133733095Y-105507619D01*
X133780714Y-105602857D01*
X133780714Y-105698095D01*
X133733095Y-105840952D01*
X133161666Y-106412380D01*
X133780714Y-106412380D01*
%TO.C,R4*%
X117822380Y-91416666D02*
X117346190Y-91750000D01*
X117822380Y-91988095D02*
X116822380Y-91988095D01*
X116822380Y-91607142D01*
X116870000Y-91511904D01*
X116917619Y-91464285D01*
X117012857Y-91416666D01*
X117155714Y-91416666D01*
X117250952Y-91464285D01*
X117298571Y-91511904D01*
X117346190Y-91607142D01*
X117346190Y-91988095D01*
X117155714Y-90559523D02*
X117822380Y-90559523D01*
X116774761Y-90797619D02*
X117489047Y-91035714D01*
X117489047Y-90416666D01*
D12*
%TO.C,R3*%
X130270000Y-69630000D02*
X123730000Y-69630000D01*
X122960000Y-71000000D02*
X123730000Y-71000000D01*
X123730000Y-69630000D02*
X123730000Y-72370000D01*
X123730000Y-72370000D02*
X130270000Y-72370000D01*
X131040000Y-71000000D02*
X130270000Y-71000000D01*
X130270000Y-72370000D02*
X130270000Y-69630000D01*
%TO.C,J1*%
X145750000Y-84700000D02*
X145750000Y-87750000D01*
X140550000Y-91550000D02*
X141300000Y-91550000D01*
X141300000Y-88250000D02*
X141300000Y-87250000D01*
X140550000Y-85750000D02*
X141300000Y-85750000D01*
X142800000Y-91550000D02*
X142800000Y-90800000D01*
X140550000Y-89750000D02*
X140550000Y-91550000D01*
X141300000Y-87250000D02*
X140550000Y-87250000D01*
X142800000Y-90800000D02*
X145750000Y-90800000D01*
X140250000Y-91850000D02*
X141500000Y-91850000D01*
X141300000Y-91550000D02*
X141300000Y-89750000D01*
X140550000Y-83950000D02*
X140550000Y-85750000D01*
X141300000Y-89750000D02*
X140550000Y-89750000D01*
X140250000Y-90600000D02*
X140250000Y-91850000D01*
X140550000Y-87250000D02*
X140550000Y-88250000D01*
X146510000Y-83940000D02*
X140540000Y-83940000D01*
X141300000Y-85750000D02*
X141300000Y-83950000D01*
X146510000Y-91560000D02*
X146510000Y-83940000D01*
X140550000Y-88250000D02*
X141300000Y-88250000D01*
X141300000Y-83950000D02*
X140550000Y-83950000D01*
X142800000Y-83950000D02*
X142800000Y-84700000D01*
X145750000Y-90800000D02*
X145750000Y-87750000D01*
X140540000Y-83940000D02*
X140540000Y-91560000D01*
X142800000Y-84700000D02*
X145750000Y-84700000D01*
X140540000Y-91560000D02*
X146510000Y-91560000D01*
%TO.C,R1*%
X137750000Y-83540000D02*
X137750000Y-82770000D01*
X136380000Y-76230000D02*
X136380000Y-82770000D01*
X139120000Y-76230000D02*
X136380000Y-76230000D01*
X136380000Y-82770000D02*
X139120000Y-82770000D01*
X139120000Y-82770000D02*
X139120000Y-76230000D01*
X137750000Y-75460000D02*
X137750000Y-76230000D01*
%TO.C,J2*%
X118450000Y-105800000D02*
X119200000Y-105800000D01*
X114000000Y-98950000D02*
X114000000Y-102000000D01*
X118450000Y-98200000D02*
X118450000Y-100000000D01*
X113240000Y-98190000D02*
X113240000Y-105810000D01*
X119500000Y-97900000D02*
X118250000Y-97900000D01*
X119200000Y-100000000D02*
X119200000Y-98200000D01*
X116950000Y-105050000D02*
X114000000Y-105050000D01*
X119200000Y-98200000D02*
X118450000Y-98200000D01*
X119200000Y-104000000D02*
X118450000Y-104000000D01*
X116950000Y-98200000D02*
X116950000Y-98950000D01*
X119500000Y-99150000D02*
X119500000Y-97900000D01*
X118450000Y-100000000D02*
X119200000Y-100000000D01*
X119210000Y-98190000D02*
X113240000Y-98190000D01*
X114000000Y-105050000D02*
X114000000Y-102000000D01*
X113240000Y-105810000D02*
X119210000Y-105810000D01*
X118450000Y-104000000D02*
X118450000Y-105800000D01*
X119200000Y-101500000D02*
X118450000Y-101500000D01*
X119200000Y-105800000D02*
X119200000Y-104000000D01*
X116950000Y-105800000D02*
X116950000Y-105050000D01*
X119210000Y-105810000D02*
X119210000Y-98190000D01*
X116950000Y-98950000D02*
X114000000Y-98950000D01*
X119200000Y-102500000D02*
X119200000Y-101500000D01*
X118450000Y-101500000D02*
X118450000Y-102500000D01*
X118450000Y-102500000D02*
X119200000Y-102500000D01*
%TO.C,R10*%
X121500000Y-102960000D02*
X121500000Y-103730000D01*
X121500000Y-111040000D02*
X121500000Y-110270000D01*
X122870000Y-110270000D02*
X122870000Y-103730000D01*
X120130000Y-110270000D02*
X122870000Y-110270000D01*
X120130000Y-103730000D02*
X120130000Y-110270000D01*
X122870000Y-103730000D02*
X120130000Y-103730000D01*
%TO.C,C2*%
X139370000Y-70250000D02*
G75*
G03*
X139370000Y-70250000I-2620000J0D01*
G01*
%TO.C,C3*%
X135870000Y-83000000D02*
G75*
G03*
X135870000Y-83000000I-2620000J0D01*
G01*
%TO.C,C4*%
X119770000Y-75750000D02*
G75*
G03*
X119770000Y-75750000I-3270000J0D01*
G01*
%TO.C,D5*%
X127880000Y-103090000D02*
X130120000Y-103090000D01*
X127880000Y-103210000D02*
X130120000Y-103210000D01*
X130120000Y-99570000D02*
X127880000Y-99570000D01*
X127880000Y-103810000D02*
X130120000Y-103810000D01*
X127880000Y-102970000D02*
X130120000Y-102970000D01*
X129000000Y-104460000D02*
X129000000Y-103810000D01*
X129000000Y-98920000D02*
X129000000Y-99570000D01*
X130120000Y-103810000D02*
X130120000Y-99570000D01*
X127880000Y-99570000D02*
X127880000Y-103810000D01*
%TO.C,D3*%
X133880000Y-103210000D02*
X136120000Y-103210000D01*
X133880000Y-99570000D02*
X133880000Y-103810000D01*
X136120000Y-103810000D02*
X136120000Y-99570000D01*
X136120000Y-99570000D02*
X133880000Y-99570000D01*
X133880000Y-103810000D02*
X136120000Y-103810000D01*
X135000000Y-104460000D02*
X135000000Y-103810000D01*
X133880000Y-102970000D02*
X136120000Y-102970000D01*
X135000000Y-98920000D02*
X135000000Y-99570000D01*
X133880000Y-103090000D02*
X136120000Y-103090000D01*
%TO.C,RV2*%
X141300000Y-72450000D02*
X140550000Y-72450000D01*
X141300000Y-79250000D02*
X141300000Y-75750000D01*
X141300000Y-75750000D02*
X140550000Y-75750000D01*
X145750000Y-81800000D02*
X145750000Y-77500000D01*
X140250000Y-81600000D02*
X140250000Y-82850000D01*
X145750000Y-73200000D02*
X145750000Y-77500000D01*
X140550000Y-74250000D02*
X141300000Y-74250000D01*
X146510000Y-82560000D02*
X146510000Y-72440000D01*
X140550000Y-80750000D02*
X140550000Y-82550000D01*
X142800000Y-72450000D02*
X142800000Y-73200000D01*
X140250000Y-82850000D02*
X141500000Y-82850000D01*
X142800000Y-73200000D02*
X145750000Y-73200000D01*
X140550000Y-82550000D02*
X141300000Y-82550000D01*
X140550000Y-72450000D02*
X140550000Y-74250000D01*
X140540000Y-82560000D02*
X146510000Y-82560000D01*
X140550000Y-75750000D02*
X140550000Y-79250000D01*
X142800000Y-81800000D02*
X145750000Y-81800000D01*
X146510000Y-72440000D02*
X140540000Y-72440000D01*
X140550000Y-79250000D02*
X141300000Y-79250000D01*
X141300000Y-74250000D02*
X141300000Y-72450000D01*
X142800000Y-82550000D02*
X142800000Y-81800000D01*
X141300000Y-80750000D02*
X140550000Y-80750000D01*
X141300000Y-82550000D02*
X141300000Y-80750000D01*
X140540000Y-72440000D02*
X140540000Y-82560000D01*
%TO.C,Q1*%
X114470000Y-84350000D02*
X118070000Y-84350000D01*
X118108478Y-84338478D02*
G75*
G03*
X116270000Y-79900000I-1838478J1838478D01*
G01*
X116270000Y-79899999D02*
G75*
G03*
X114431522Y-84338478I0J-2600001D01*
G01*
%TO.C,D7*%
X129065000Y-111465000D02*
X129065000Y-108375000D01*
X123515000Y-109919538D02*
G75*
G03*
X129065000Y-111464830I2990000J-462D01*
G01*
X129065000Y-108375170D02*
G75*
G03*
X123515000Y-109920462I-2560000J-1544830D01*
G01*
X129005000Y-109920000D02*
G75*
G03*
X129005000Y-109920000I-2500000J0D01*
G01*
%TO.C,SW1*%
X142800000Y-93700000D02*
X145750000Y-93700000D01*
X145750000Y-104800000D02*
X145750000Y-99250000D01*
X146510000Y-105560000D02*
X146510000Y-92940000D01*
X141300000Y-94750000D02*
X141300000Y-92950000D01*
X140550000Y-103750000D02*
X140550000Y-105550000D01*
X140550000Y-94750000D02*
X141300000Y-94750000D01*
X140550000Y-96250000D02*
X140550000Y-102250000D01*
X141300000Y-105550000D02*
X141300000Y-103750000D01*
X142800000Y-105550000D02*
X142800000Y-104800000D01*
X140550000Y-105550000D02*
X141300000Y-105550000D01*
X141300000Y-96250000D02*
X140550000Y-96250000D01*
X146510000Y-92940000D02*
X140540000Y-92940000D01*
X140550000Y-102250000D02*
X141300000Y-102250000D01*
X145750000Y-93700000D02*
X145750000Y-99250000D01*
X141300000Y-92950000D02*
X140550000Y-92950000D01*
X140540000Y-105560000D02*
X146510000Y-105560000D01*
X140250000Y-105850000D02*
X141500000Y-105850000D01*
X140540000Y-92940000D02*
X140540000Y-105560000D01*
X140250000Y-104600000D02*
X140250000Y-105850000D01*
X141300000Y-102250000D02*
X141300000Y-96250000D01*
X140550000Y-92950000D02*
X140550000Y-94750000D01*
X142800000Y-104800000D02*
X145750000Y-104800000D01*
X141300000Y-103750000D02*
X140550000Y-103750000D01*
X142800000Y-92950000D02*
X142800000Y-93700000D01*
%TO.C,U2*%
X118795000Y-92490000D02*
X118795000Y-94140000D01*
X118795000Y-94140000D02*
X139235000Y-94140000D01*
X139235000Y-94140000D02*
X139235000Y-88840000D01*
X139235000Y-88840000D02*
X118795000Y-88840000D01*
X118795000Y-88840000D02*
X118795000Y-90490000D01*
X118795000Y-92490000D02*
G75*
G03*
X118795000Y-90490000I0J1000000D01*
G01*
%TO.C,D4*%
X130880000Y-99570000D02*
X130880000Y-103810000D01*
X130880000Y-103090000D02*
X133120000Y-103090000D01*
X130880000Y-103810000D02*
X133120000Y-103810000D01*
X132000000Y-98920000D02*
X132000000Y-99570000D01*
X132000000Y-104460000D02*
X132000000Y-103810000D01*
X130880000Y-102970000D02*
X133120000Y-102970000D01*
X133120000Y-99570000D02*
X130880000Y-99570000D01*
X133120000Y-103810000D02*
X133120000Y-99570000D01*
X130880000Y-103210000D02*
X133120000Y-103210000D01*
%TO.C,R9*%
X139370000Y-103650000D02*
X136630000Y-103650000D01*
X138000000Y-102880000D02*
X138000000Y-103650000D01*
X139370000Y-110190000D02*
X139370000Y-103650000D01*
X138000000Y-110960000D02*
X138000000Y-110190000D01*
X136630000Y-103650000D02*
X136630000Y-110190000D01*
X136630000Y-110190000D02*
X139370000Y-110190000D01*
%TO.C,U1*%
X127910000Y-85400000D02*
X127910000Y-75120000D01*
X124260000Y-75120000D02*
X122610000Y-75120000D01*
X122610000Y-75120000D02*
X122610000Y-85400000D01*
X127910000Y-75120000D02*
X126260000Y-75120000D01*
X122610000Y-85400000D02*
X127910000Y-85400000D01*
X124260000Y-75120000D02*
G75*
G03*
X126260000Y-75120000I1000000J0D01*
G01*
%TO.C,R2*%
X123650000Y-66380000D02*
X123650000Y-69120000D01*
X130190000Y-69120000D02*
X130190000Y-66380000D01*
X122880000Y-67750000D02*
X123650000Y-67750000D01*
X130190000Y-66380000D02*
X123650000Y-66380000D01*
X130960000Y-67750000D02*
X130190000Y-67750000D01*
X123650000Y-69120000D02*
X130190000Y-69120000D01*
%TO.C,D6*%
X125620000Y-99570000D02*
X123380000Y-99570000D01*
X124500000Y-98920000D02*
X124500000Y-99570000D01*
X123380000Y-103210000D02*
X125620000Y-103210000D01*
X123380000Y-99570000D02*
X123380000Y-103810000D01*
X123380000Y-103810000D02*
X125620000Y-103810000D01*
X123380000Y-102970000D02*
X125620000Y-102970000D01*
X123380000Y-103090000D02*
X125620000Y-103090000D01*
X124500000Y-104460000D02*
X124500000Y-103810000D01*
X125620000Y-103810000D02*
X125620000Y-99570000D01*
%TO.C,D2*%
X130435000Y-108375000D02*
X130435000Y-111465000D01*
X135985000Y-109920462D02*
G75*
G03*
X130435000Y-108375170I-2990000J462D01*
G01*
X130435000Y-111464830D02*
G75*
G03*
X135985000Y-109919538I2560000J1544830D01*
G01*
X135495000Y-109920000D02*
G75*
G03*
X135495000Y-109920000I-2500000J0D01*
G01*
%TO.C,R4*%
X113630000Y-87980000D02*
X113630000Y-94520000D01*
X115000000Y-87210000D02*
X115000000Y-87980000D01*
X116370000Y-87980000D02*
X113630000Y-87980000D01*
X115000000Y-95290000D02*
X115000000Y-94520000D01*
X113630000Y-94520000D02*
X116370000Y-94520000D01*
X116370000Y-94520000D02*
X116370000Y-87980000D01*
%TD*%
M02*
