%TF.GenerationSoftware,KiCad,Pcbnew,(6.0.4)*%
%TF.CreationDate,2023-05-23T22:41:31+03:00*%
%TF.ProjectId,metronome,6d657472-6f6e-46f6-9d65-2e6b69636164,rev?*%
%TF.SameCoordinates,Original*%
%TF.FileFunction,Legend,Bot*%
%TF.FilePolarity,Positive*%
%FSLAX46Y46*%
G04 Gerber Fmt 4.6, Leading zero omitted, Abs format (unit mm)*
G04 Created by KiCad (PCBNEW (6.0.4)) date 2023-05-23 22:41:31*
%MOMM*%
%LPD*%
G01*
G04 APERTURE LIST*
%ADD10C,0.225000*%
G04 APERTURE END LIST*
D10*
X143139464Y-93407142D02*
X143139464Y-92507142D01*
X143139464Y-92850000D02*
X143053750Y-92807142D01*
X142882321Y-92807142D01*
X142796607Y-92850000D01*
X142753750Y-92892857D01*
X142710892Y-92978571D01*
X142710892Y-93235714D01*
X142753750Y-93321428D01*
X142796607Y-93364285D01*
X142882321Y-93407142D01*
X143053750Y-93407142D01*
X143139464Y-93364285D01*
X142325178Y-92807142D02*
X142325178Y-93707142D01*
X142325178Y-92850000D02*
X142239464Y-92807142D01*
X142068035Y-92807142D01*
X141982321Y-92850000D01*
X141939464Y-92892857D01*
X141896607Y-92978571D01*
X141896607Y-93235714D01*
X141939464Y-93321428D01*
X141982321Y-93364285D01*
X142068035Y-93407142D01*
X142239464Y-93407142D01*
X142325178Y-93364285D01*
X141510892Y-93407142D02*
X141510892Y-92807142D01*
X141510892Y-92892857D02*
X141468035Y-92850000D01*
X141382321Y-92807142D01*
X141253750Y-92807142D01*
X141168035Y-92850000D01*
X141125178Y-92935714D01*
X141125178Y-93407142D01*
X141125178Y-92935714D02*
X141082321Y-92850000D01*
X140996607Y-92807142D01*
X140868035Y-92807142D01*
X140782321Y-92850000D01*
X140739464Y-92935714D01*
X140739464Y-93407142D01*
X139625178Y-92935714D02*
X138939464Y-92935714D01*
X138939464Y-93192857D02*
X139625178Y-93192857D01*
X137439464Y-92507142D02*
X137610892Y-92507142D01*
X137696607Y-92550000D01*
X137739464Y-92592857D01*
X137825178Y-92721428D01*
X137868035Y-92892857D01*
X137868035Y-93235714D01*
X137825178Y-93321428D01*
X137782321Y-93364285D01*
X137696607Y-93407142D01*
X137525178Y-93407142D01*
X137439464Y-93364285D01*
X137396607Y-93321428D01*
X137353750Y-93235714D01*
X137353750Y-93021428D01*
X137396607Y-92935714D01*
X137439464Y-92892857D01*
X137525178Y-92850000D01*
X137696607Y-92850000D01*
X137782321Y-92892857D01*
X137825178Y-92935714D01*
X137868035Y-93021428D01*
X136796607Y-92507142D02*
X136710892Y-92507142D01*
X136625178Y-92550000D01*
X136582321Y-92592857D01*
X136539464Y-92678571D01*
X136496607Y-92850000D01*
X136496607Y-93064285D01*
X136539464Y-93235714D01*
X136582321Y-93321428D01*
X136625178Y-93364285D01*
X136710892Y-93407142D01*
X136796607Y-93407142D01*
X136882321Y-93364285D01*
X136925178Y-93321428D01*
X136968035Y-93235714D01*
X137010892Y-93064285D01*
X137010892Y-92850000D01*
X136968035Y-92678571D01*
X136925178Y-92592857D01*
X136882321Y-92550000D01*
X136796607Y-92507142D01*
X135468035Y-92464285D02*
X136239464Y-93621428D01*
X134910892Y-93750000D02*
X134953750Y-93707142D01*
X135039464Y-93578571D01*
X135082321Y-93492857D01*
X135125178Y-93364285D01*
X135168035Y-93150000D01*
X135168035Y-92978571D01*
X135125178Y-92764285D01*
X135082321Y-92635714D01*
X135039464Y-92550000D01*
X134953750Y-92421428D01*
X134910892Y-92378571D01*
X134396607Y-92507142D02*
X134310892Y-92507142D01*
X134225178Y-92550000D01*
X134182321Y-92592857D01*
X134139464Y-92678571D01*
X134096607Y-92850000D01*
X134096607Y-93064285D01*
X134139464Y-93235714D01*
X134182321Y-93321428D01*
X134225178Y-93364285D01*
X134310892Y-93407142D01*
X134396607Y-93407142D01*
X134482321Y-93364285D01*
X134525178Y-93321428D01*
X134568035Y-93235714D01*
X134610892Y-93064285D01*
X134610892Y-92850000D01*
X134568035Y-92678571D01*
X134525178Y-92592857D01*
X134482321Y-92550000D01*
X134396607Y-92507142D01*
X133710892Y-93321428D02*
X133668035Y-93364285D01*
X133710892Y-93407142D01*
X133753750Y-93364285D01*
X133710892Y-93321428D01*
X133710892Y-93407142D01*
X132896607Y-92507142D02*
X133068035Y-92507142D01*
X133153750Y-92550000D01*
X133196607Y-92592857D01*
X133282321Y-92721428D01*
X133325178Y-92892857D01*
X133325178Y-93235714D01*
X133282321Y-93321428D01*
X133239464Y-93364285D01*
X133153750Y-93407142D01*
X132982321Y-93407142D01*
X132896607Y-93364285D01*
X132853750Y-93321428D01*
X132810892Y-93235714D01*
X132810892Y-93021428D01*
X132853750Y-92935714D01*
X132896607Y-92892857D01*
X132982321Y-92850000D01*
X133153750Y-92850000D01*
X133239464Y-92892857D01*
X133282321Y-92935714D01*
X133325178Y-93021428D01*
X132382321Y-93407142D02*
X132210892Y-93407142D01*
X132125178Y-93364285D01*
X132082321Y-93321428D01*
X131996607Y-93192857D01*
X131953750Y-93021428D01*
X131953750Y-92678571D01*
X131996607Y-92592857D01*
X132039464Y-92550000D01*
X132125178Y-92507142D01*
X132296607Y-92507142D01*
X132382321Y-92550000D01*
X132425178Y-92592857D01*
X132468035Y-92678571D01*
X132468035Y-92892857D01*
X132425178Y-92978571D01*
X132382321Y-93021428D01*
X132296607Y-93064285D01*
X132125178Y-93064285D01*
X132039464Y-93021428D01*
X131996607Y-92978571D01*
X131953750Y-92892857D01*
X131653750Y-92507142D02*
X131096607Y-92507142D01*
X131396607Y-92850000D01*
X131268035Y-92850000D01*
X131182321Y-92892857D01*
X131139464Y-92935714D01*
X131096607Y-93021428D01*
X131096607Y-93235714D01*
X131139464Y-93321428D01*
X131182321Y-93364285D01*
X131268035Y-93407142D01*
X131525178Y-93407142D01*
X131610892Y-93364285D01*
X131653750Y-93321428D01*
X130453750Y-93750000D02*
X130496607Y-93707142D01*
X130582321Y-93578571D01*
X130625178Y-93492857D01*
X130668035Y-93364285D01*
X130710892Y-93150000D01*
X130710892Y-92978571D01*
X130668035Y-92764285D01*
X130625178Y-92635714D01*
X130582321Y-92550000D01*
X130496607Y-92421428D01*
X130453750Y-92378571D01*
X130153750Y-92592857D02*
X130110892Y-92550000D01*
X130025178Y-92507142D01*
X129810892Y-92507142D01*
X129725178Y-92550000D01*
X129682321Y-92592857D01*
X129639464Y-92678571D01*
X129639464Y-92764285D01*
X129682321Y-92892857D01*
X130196607Y-93407142D01*
X129639464Y-93407142D01*
X128739464Y-93407142D02*
X129039464Y-92978571D01*
X129253750Y-93407142D02*
X129253750Y-92507142D01*
X128910892Y-92507142D01*
X128825178Y-92550000D01*
X128782321Y-92592857D01*
X128739464Y-92678571D01*
X128739464Y-92807142D01*
X128782321Y-92892857D01*
X128825178Y-92935714D01*
X128910892Y-92978571D01*
X129253750Y-92978571D01*
X127968035Y-93407142D02*
X127968035Y-92935714D01*
X128010892Y-92850000D01*
X128096607Y-92807142D01*
X128268035Y-92807142D01*
X128353750Y-92850000D01*
X127968035Y-93364285D02*
X128053750Y-93407142D01*
X128268035Y-93407142D01*
X128353750Y-93364285D01*
X128396607Y-93278571D01*
X128396607Y-93192857D01*
X128353750Y-93107142D01*
X128268035Y-93064285D01*
X128053750Y-93064285D01*
X127968035Y-93021428D01*
X127539464Y-93064285D02*
X126853750Y-93064285D01*
X127196607Y-93407142D02*
X127196607Y-92721428D01*
X125910892Y-93407142D02*
X126210892Y-92978571D01*
X126425178Y-93407142D02*
X126425178Y-92507142D01*
X126082321Y-92507142D01*
X125996607Y-92550000D01*
X125953750Y-92592857D01*
X125910892Y-92678571D01*
X125910892Y-92807142D01*
X125953750Y-92892857D01*
X125996607Y-92935714D01*
X126082321Y-92978571D01*
X126425178Y-92978571D01*
X125525178Y-93407142D02*
X125525178Y-92507142D01*
X125525178Y-92850000D02*
X125439464Y-92807142D01*
X125268035Y-92807142D01*
X125182321Y-92850000D01*
X125139464Y-92892857D01*
X125096607Y-92978571D01*
X125096607Y-93235714D01*
X125139464Y-93321428D01*
X125182321Y-93364285D01*
X125268035Y-93407142D01*
X125439464Y-93407142D01*
X125525178Y-93364285D01*
X124710892Y-93064285D02*
X124025178Y-93064285D01*
X124368035Y-93407142D02*
X124368035Y-92721428D01*
X123082321Y-93407142D02*
X123382321Y-92978571D01*
X123596607Y-93407142D02*
X123596607Y-92507142D01*
X123253750Y-92507142D01*
X123168035Y-92550000D01*
X123125178Y-92592857D01*
X123082321Y-92678571D01*
X123082321Y-92807142D01*
X123125178Y-92892857D01*
X123168035Y-92935714D01*
X123253750Y-92978571D01*
X123596607Y-92978571D01*
X122910892Y-93492857D02*
X122225178Y-93492857D01*
X122139464Y-92807142D02*
X121796607Y-92807142D01*
X122010892Y-93407142D02*
X122010892Y-92635714D01*
X121968035Y-92550000D01*
X121882321Y-92507142D01*
X121796607Y-92507142D01*
X121496607Y-93407142D02*
X121496607Y-92807142D01*
X121496607Y-92978571D02*
X121453750Y-92892857D01*
X121410892Y-92850000D01*
X121325178Y-92807142D01*
X121239464Y-92807142D01*
X120596607Y-93364285D02*
X120682321Y-93407142D01*
X120853750Y-93407142D01*
X120939464Y-93364285D01*
X120982321Y-93278571D01*
X120982321Y-92935714D01*
X120939464Y-92850000D01*
X120853750Y-92807142D01*
X120682321Y-92807142D01*
X120596607Y-92850000D01*
X120553750Y-92935714D01*
X120553750Y-93021428D01*
X120982321Y-93107142D01*
X119782321Y-92807142D02*
X119782321Y-93707142D01*
X119782321Y-93364285D02*
X119868035Y-93407142D01*
X120039464Y-93407142D01*
X120125178Y-93364285D01*
X120168035Y-93321428D01*
X120210892Y-93235714D01*
X120210892Y-92978571D01*
X120168035Y-92892857D01*
X120125178Y-92850000D01*
X120039464Y-92807142D01*
X119868035Y-92807142D01*
X119782321Y-92850000D01*
X119353750Y-92807142D02*
X119353750Y-93707142D01*
X119353750Y-92850000D02*
X119268035Y-92807142D01*
X119096607Y-92807142D01*
X119010892Y-92850000D01*
X118968035Y-92892857D01*
X118925178Y-92978571D01*
X118925178Y-93235714D01*
X118968035Y-93321428D01*
X119010892Y-93364285D01*
X119096607Y-93407142D01*
X119268035Y-93407142D01*
X119353750Y-93364285D01*
X118410892Y-93407142D02*
X118496607Y-93364285D01*
X118539464Y-93321428D01*
X118582321Y-93235714D01*
X118582321Y-92978571D01*
X118539464Y-92892857D01*
X118496607Y-92850000D01*
X118410892Y-92807142D01*
X118282321Y-92807142D01*
X118196607Y-92850000D01*
X118153750Y-92892857D01*
X118110892Y-92978571D01*
X118110892Y-93235714D01*
X118153750Y-93321428D01*
X118196607Y-93364285D01*
X118282321Y-93407142D01*
X118410892Y-93407142D01*
X117853750Y-92807142D02*
X117510892Y-92807142D01*
X117725178Y-92507142D02*
X117725178Y-93278571D01*
X117682321Y-93364285D01*
X117596607Y-93407142D01*
X117510892Y-93407142D01*
X117296607Y-93750000D02*
X117253750Y-93707142D01*
X117168035Y-93578571D01*
X117125178Y-93492857D01*
X117082321Y-93364285D01*
X117039464Y-93150000D01*
X117039464Y-92978571D01*
X117082321Y-92764285D01*
X117125178Y-92635714D01*
X117168035Y-92550000D01*
X117253750Y-92421428D01*
X117296607Y-92378571D01*
X116096607Y-93321428D02*
X116139464Y-93364285D01*
X116268035Y-93407142D01*
X116353750Y-93407142D01*
X116482321Y-93364285D01*
X116568035Y-93278571D01*
X116610892Y-93192857D01*
X116653750Y-93021428D01*
X116653750Y-92892857D01*
X116610892Y-92721428D01*
X116568035Y-92635714D01*
X116482321Y-92550000D01*
X116353750Y-92507142D01*
X116268035Y-92507142D01*
X116139464Y-92550000D01*
X116096607Y-92592857D01*
X115796607Y-93750000D02*
X115753750Y-93707142D01*
X115668035Y-93578571D01*
X115625178Y-93492857D01*
X115582321Y-93364285D01*
X115539464Y-93150000D01*
X115539464Y-92978571D01*
X115582321Y-92764285D01*
X115625178Y-92635714D01*
X115668035Y-92550000D01*
X115753750Y-92421428D01*
X115796607Y-92378571D01*
X139639464Y-90182642D02*
X139639464Y-89282642D01*
X139339464Y-89925500D01*
X139039464Y-89282642D01*
X139039464Y-90182642D01*
X138268035Y-90139785D02*
X138353750Y-90182642D01*
X138525178Y-90182642D01*
X138610892Y-90139785D01*
X138653750Y-90054071D01*
X138653750Y-89711214D01*
X138610892Y-89625500D01*
X138525178Y-89582642D01*
X138353750Y-89582642D01*
X138268035Y-89625500D01*
X138225178Y-89711214D01*
X138225178Y-89796928D01*
X138653750Y-89882642D01*
X137968035Y-89582642D02*
X137625178Y-89582642D01*
X137839464Y-89282642D02*
X137839464Y-90054071D01*
X137796607Y-90139785D01*
X137710892Y-90182642D01*
X137625178Y-90182642D01*
X137325178Y-90182642D02*
X137325178Y-89582642D01*
X137325178Y-89754071D02*
X137282321Y-89668357D01*
X137239464Y-89625500D01*
X137153750Y-89582642D01*
X137068035Y-89582642D01*
X136639464Y-90182642D02*
X136725178Y-90139785D01*
X136768035Y-90096928D01*
X136810892Y-90011214D01*
X136810892Y-89754071D01*
X136768035Y-89668357D01*
X136725178Y-89625500D01*
X136639464Y-89582642D01*
X136510892Y-89582642D01*
X136425178Y-89625500D01*
X136382321Y-89668357D01*
X136339464Y-89754071D01*
X136339464Y-90011214D01*
X136382321Y-90096928D01*
X136425178Y-90139785D01*
X136510892Y-90182642D01*
X136639464Y-90182642D01*
X135953750Y-89582642D02*
X135953750Y-90182642D01*
X135953750Y-89668357D02*
X135910892Y-89625500D01*
X135825178Y-89582642D01*
X135696607Y-89582642D01*
X135610892Y-89625500D01*
X135568035Y-89711214D01*
X135568035Y-90182642D01*
X135010892Y-90182642D02*
X135096607Y-90139785D01*
X135139464Y-90096928D01*
X135182321Y-90011214D01*
X135182321Y-89754071D01*
X135139464Y-89668357D01*
X135096607Y-89625500D01*
X135010892Y-89582642D01*
X134882321Y-89582642D01*
X134796607Y-89625500D01*
X134753750Y-89668357D01*
X134710892Y-89754071D01*
X134710892Y-90011214D01*
X134753750Y-90096928D01*
X134796607Y-90139785D01*
X134882321Y-90182642D01*
X135010892Y-90182642D01*
X134325178Y-90182642D02*
X134325178Y-89582642D01*
X134325178Y-89668357D02*
X134282321Y-89625500D01*
X134196607Y-89582642D01*
X134068035Y-89582642D01*
X133982321Y-89625500D01*
X133939464Y-89711214D01*
X133939464Y-90182642D01*
X133939464Y-89711214D02*
X133896607Y-89625500D01*
X133810892Y-89582642D01*
X133682321Y-89582642D01*
X133596607Y-89625500D01*
X133553750Y-89711214D01*
X133553750Y-90182642D01*
X132782321Y-90139785D02*
X132868035Y-90182642D01*
X133039464Y-90182642D01*
X133125178Y-90139785D01*
X133168035Y-90054071D01*
X133168035Y-89711214D01*
X133125178Y-89625500D01*
X133039464Y-89582642D01*
X132868035Y-89582642D01*
X132782321Y-89625500D01*
X132739464Y-89711214D01*
X132739464Y-89796928D01*
X133168035Y-89882642D01*
X131796607Y-89282642D02*
X131496607Y-90182642D01*
X131196607Y-89282642D01*
X130425178Y-90182642D02*
X130939464Y-90182642D01*
X130682321Y-90182642D02*
X130682321Y-89282642D01*
X130768035Y-89411214D01*
X130853750Y-89496928D01*
X130939464Y-89539785D01*
X130039464Y-90096928D02*
X129996607Y-90139785D01*
X130039464Y-90182642D01*
X130082321Y-90139785D01*
X130039464Y-90096928D01*
X130039464Y-90182642D01*
X129439464Y-89282642D02*
X129353750Y-89282642D01*
X129268035Y-89325500D01*
X129225178Y-89368357D01*
X129182321Y-89454071D01*
X129139464Y-89625500D01*
X129139464Y-89839785D01*
X129182321Y-90011214D01*
X129225178Y-90096928D01*
X129268035Y-90139785D01*
X129353750Y-90182642D01*
X129439464Y-90182642D01*
X129525178Y-90139785D01*
X129568035Y-90096928D01*
X129610892Y-90011214D01*
X129653750Y-89839785D01*
X129653750Y-89625500D01*
X129610892Y-89454071D01*
X129568035Y-89368357D01*
X129525178Y-89325500D01*
X129439464Y-89282642D01*
X128710892Y-90139785D02*
X128710892Y-90182642D01*
X128753750Y-90268357D01*
X128796607Y-90311214D01*
X127682321Y-89368357D02*
X127639464Y-89325500D01*
X127553750Y-89282642D01*
X127339464Y-89282642D01*
X127253750Y-89325500D01*
X127210892Y-89368357D01*
X127168035Y-89454071D01*
X127168035Y-89539785D01*
X127210892Y-89668357D01*
X127725178Y-90182642D01*
X127168035Y-90182642D01*
X126610892Y-89282642D02*
X126525178Y-89282642D01*
X126439464Y-89325500D01*
X126396607Y-89368357D01*
X126353750Y-89454071D01*
X126310892Y-89625500D01*
X126310892Y-89839785D01*
X126353750Y-90011214D01*
X126396607Y-90096928D01*
X126439464Y-90139785D01*
X126525178Y-90182642D01*
X126610892Y-90182642D01*
X126696607Y-90139785D01*
X126739464Y-90096928D01*
X126782321Y-90011214D01*
X126825178Y-89839785D01*
X126825178Y-89625500D01*
X126782321Y-89454071D01*
X126739464Y-89368357D01*
X126696607Y-89325500D01*
X126610892Y-89282642D01*
X125925178Y-89839785D02*
X125239464Y-89839785D01*
X124853750Y-89368357D02*
X124810892Y-89325500D01*
X124725178Y-89282642D01*
X124510892Y-89282642D01*
X124425178Y-89325500D01*
X124382321Y-89368357D01*
X124339464Y-89454071D01*
X124339464Y-89539785D01*
X124382321Y-89668357D01*
X124896607Y-90182642D01*
X124339464Y-90182642D01*
X123568035Y-89582642D02*
X123568035Y-90182642D01*
X123782321Y-89239785D02*
X123996607Y-89882642D01*
X123439464Y-89882642D01*
X122925178Y-89282642D02*
X122839464Y-89282642D01*
X122753750Y-89325500D01*
X122710892Y-89368357D01*
X122668035Y-89454071D01*
X122625178Y-89625500D01*
X122625178Y-89839785D01*
X122668035Y-90011214D01*
X122710892Y-90096928D01*
X122753750Y-90139785D01*
X122839464Y-90182642D01*
X122925178Y-90182642D01*
X123010892Y-90139785D01*
X123053750Y-90096928D01*
X123096607Y-90011214D01*
X123139464Y-89839785D01*
X123139464Y-89625500D01*
X123096607Y-89454071D01*
X123053750Y-89368357D01*
X123010892Y-89325500D01*
X122925178Y-89282642D01*
X121553750Y-90182642D02*
X121553750Y-89282642D01*
X121553750Y-89625500D02*
X121468035Y-89582642D01*
X121296607Y-89582642D01*
X121210892Y-89625500D01*
X121168035Y-89668357D01*
X121125178Y-89754071D01*
X121125178Y-90011214D01*
X121168035Y-90096928D01*
X121210892Y-90139785D01*
X121296607Y-90182642D01*
X121468035Y-90182642D01*
X121553750Y-90139785D01*
X120739464Y-89582642D02*
X120739464Y-90482642D01*
X120739464Y-89625500D02*
X120653750Y-89582642D01*
X120482321Y-89582642D01*
X120396607Y-89625500D01*
X120353750Y-89668357D01*
X120310892Y-89754071D01*
X120310892Y-90011214D01*
X120353750Y-90096928D01*
X120396607Y-90139785D01*
X120482321Y-90182642D01*
X120653750Y-90182642D01*
X120739464Y-90139785D01*
X119925178Y-90182642D02*
X119925178Y-89582642D01*
X119925178Y-89668357D02*
X119882321Y-89625500D01*
X119796607Y-89582642D01*
X119668035Y-89582642D01*
X119582321Y-89625500D01*
X119539464Y-89711214D01*
X119539464Y-90182642D01*
X119539464Y-89711214D02*
X119496607Y-89625500D01*
X119410892Y-89582642D01*
X119282321Y-89582642D01*
X119196607Y-89625500D01*
X119153750Y-89711214D01*
X119153750Y-90182642D01*
X139639464Y-91631642D02*
X139639464Y-90731642D01*
X139639464Y-91074500D02*
X139553750Y-91031642D01*
X139382321Y-91031642D01*
X139296607Y-91074500D01*
X139253750Y-91117357D01*
X139210892Y-91203071D01*
X139210892Y-91460214D01*
X139253750Y-91545928D01*
X139296607Y-91588785D01*
X139382321Y-91631642D01*
X139553750Y-91631642D01*
X139639464Y-91588785D01*
X138910892Y-91031642D02*
X138696607Y-91631642D01*
X138482321Y-91031642D02*
X138696607Y-91631642D01*
X138782321Y-91845928D01*
X138825178Y-91888785D01*
X138910892Y-91931642D01*
X137453750Y-91631642D02*
X137453750Y-90731642D01*
X137110892Y-90731642D01*
X137025178Y-90774500D01*
X136982321Y-90817357D01*
X136939464Y-90903071D01*
X136939464Y-91031642D01*
X136982321Y-91117357D01*
X137025178Y-91160214D01*
X137110892Y-91203071D01*
X137453750Y-91203071D01*
X136168035Y-91631642D02*
X136168035Y-91160214D01*
X136210892Y-91074500D01*
X136296607Y-91031642D01*
X136468035Y-91031642D01*
X136553750Y-91074500D01*
X136168035Y-91588785D02*
X136253750Y-91631642D01*
X136468035Y-91631642D01*
X136553750Y-91588785D01*
X136596607Y-91503071D01*
X136596607Y-91417357D01*
X136553750Y-91331642D01*
X136468035Y-91288785D01*
X136253750Y-91288785D01*
X136168035Y-91245928D01*
X135353750Y-91631642D02*
X135353750Y-91160214D01*
X135396607Y-91074500D01*
X135482321Y-91031642D01*
X135653750Y-91031642D01*
X135739464Y-91074500D01*
X135353750Y-91588785D02*
X135439464Y-91631642D01*
X135653750Y-91631642D01*
X135739464Y-91588785D01*
X135782321Y-91503071D01*
X135782321Y-91417357D01*
X135739464Y-91331642D01*
X135653750Y-91288785D01*
X135439464Y-91288785D01*
X135353750Y-91245928D01*
X135010892Y-91031642D02*
X134796607Y-91631642D01*
X134582321Y-91031642D01*
X134110892Y-91631642D02*
X134196607Y-91588785D01*
X134239464Y-91545928D01*
X134282321Y-91460214D01*
X134282321Y-91203071D01*
X134239464Y-91117357D01*
X134196607Y-91074500D01*
X134110892Y-91031642D01*
X133982321Y-91031642D01*
X133896607Y-91074500D01*
X133853750Y-91117357D01*
X133810892Y-91203071D01*
X133810892Y-91460214D01*
X133853750Y-91545928D01*
X133896607Y-91588785D01*
X133982321Y-91631642D01*
X134110892Y-91631642D01*
X132739464Y-91631642D02*
X132739464Y-90731642D01*
X132396607Y-90731642D01*
X132310892Y-90774500D01*
X132268035Y-90817357D01*
X132225178Y-90903071D01*
X132225178Y-91031642D01*
X132268035Y-91117357D01*
X132310892Y-91160214D01*
X132396607Y-91203071D01*
X132739464Y-91203071D01*
X131453750Y-91631642D02*
X131453750Y-91160214D01*
X131496607Y-91074500D01*
X131582321Y-91031642D01*
X131753750Y-91031642D01*
X131839464Y-91074500D01*
X131453750Y-91588785D02*
X131539464Y-91631642D01*
X131753750Y-91631642D01*
X131839464Y-91588785D01*
X131882321Y-91503071D01*
X131882321Y-91417357D01*
X131839464Y-91331642D01*
X131753750Y-91288785D01*
X131539464Y-91288785D01*
X131453750Y-91245928D01*
X130896607Y-91631642D02*
X130982321Y-91588785D01*
X131025178Y-91503071D01*
X131025178Y-90731642D01*
X130425178Y-91631642D02*
X130510892Y-91588785D01*
X130553750Y-91545928D01*
X130596607Y-91460214D01*
X130596607Y-91203071D01*
X130553750Y-91117357D01*
X130510892Y-91074500D01*
X130425178Y-91031642D01*
X130296607Y-91031642D01*
X130210892Y-91074500D01*
X130168035Y-91117357D01*
X130125178Y-91203071D01*
X130125178Y-91460214D01*
X130168035Y-91545928D01*
X130210892Y-91588785D01*
X130296607Y-91631642D01*
X130425178Y-91631642D01*
X129739464Y-91631642D02*
X129739464Y-91031642D01*
X129739464Y-91117357D02*
X129696607Y-91074500D01*
X129610892Y-91031642D01*
X129482321Y-91031642D01*
X129396607Y-91074500D01*
X129353750Y-91160214D01*
X129353750Y-91631642D01*
X129353750Y-91160214D02*
X129310892Y-91074500D01*
X129225178Y-91031642D01*
X129096607Y-91031642D01*
X129010892Y-91074500D01*
X128968035Y-91160214D01*
X128968035Y-91631642D01*
X128153750Y-91631642D02*
X128153750Y-91160214D01*
X128196607Y-91074500D01*
X128282321Y-91031642D01*
X128453750Y-91031642D01*
X128539464Y-91074500D01*
X128153750Y-91588785D02*
X128239464Y-91631642D01*
X128453750Y-91631642D01*
X128539464Y-91588785D01*
X128582321Y-91503071D01*
X128582321Y-91417357D01*
X128539464Y-91331642D01*
X128453750Y-91288785D01*
X128239464Y-91288785D01*
X128153750Y-91245928D01*
X128539464Y-90731642D02*
X128496607Y-90774500D01*
X128539464Y-90817357D01*
X128582321Y-90774500D01*
X128539464Y-90731642D01*
X128539464Y-90817357D01*
X128196607Y-90731642D02*
X128153750Y-90774500D01*
X128196607Y-90817357D01*
X128239464Y-90774500D01*
X128196607Y-90731642D01*
X128196607Y-90817357D01*
X127725178Y-91631642D02*
X127725178Y-90731642D01*
X127639464Y-91288785D02*
X127382321Y-91631642D01*
X127382321Y-91031642D02*
X127725178Y-91374500D01*
X126996607Y-91631642D02*
X126996607Y-91031642D01*
X126996607Y-90731642D02*
X127039464Y-90774500D01*
X126996607Y-90817357D01*
X126953750Y-90774500D01*
X126996607Y-90731642D01*
X126996607Y-90817357D01*
X125710892Y-90731642D02*
X125625178Y-90731642D01*
X125539464Y-90774500D01*
X125496607Y-90817357D01*
X125453750Y-90903071D01*
X125410892Y-91074500D01*
X125410892Y-91288785D01*
X125453750Y-91460214D01*
X125496607Y-91545928D01*
X125539464Y-91588785D01*
X125625178Y-91631642D01*
X125710892Y-91631642D01*
X125796607Y-91588785D01*
X125839464Y-91545928D01*
X125882321Y-91460214D01*
X125925178Y-91288785D01*
X125925178Y-91074500D01*
X125882321Y-90903071D01*
X125839464Y-90817357D01*
X125796607Y-90774500D01*
X125710892Y-90731642D01*
X124639464Y-91031642D02*
X124639464Y-91631642D01*
X124853750Y-90688785D02*
X125068035Y-91331642D01*
X124510892Y-91331642D01*
X123525178Y-90688785D02*
X124296607Y-91845928D01*
X123268035Y-90817357D02*
X123225178Y-90774500D01*
X123139464Y-90731642D01*
X122925178Y-90731642D01*
X122839464Y-90774500D01*
X122796607Y-90817357D01*
X122753750Y-90903071D01*
X122753750Y-90988785D01*
X122796607Y-91117357D01*
X123310892Y-91631642D01*
X122753750Y-91631642D01*
X122196607Y-90731642D02*
X122110892Y-90731642D01*
X122025178Y-90774500D01*
X121982321Y-90817357D01*
X121939464Y-90903071D01*
X121896607Y-91074500D01*
X121896607Y-91288785D01*
X121939464Y-91460214D01*
X121982321Y-91545928D01*
X122025178Y-91588785D01*
X122110892Y-91631642D01*
X122196607Y-91631642D01*
X122282321Y-91588785D01*
X122325178Y-91545928D01*
X122368035Y-91460214D01*
X122410892Y-91288785D01*
X122410892Y-91074500D01*
X122368035Y-90903071D01*
X122325178Y-90817357D01*
X122282321Y-90774500D01*
X122196607Y-90731642D01*
X121553750Y-90817357D02*
X121510892Y-90774500D01*
X121425178Y-90731642D01*
X121210892Y-90731642D01*
X121125178Y-90774500D01*
X121082321Y-90817357D01*
X121039464Y-90903071D01*
X121039464Y-90988785D01*
X121082321Y-91117357D01*
X121596607Y-91631642D01*
X121039464Y-91631642D01*
X120696607Y-90817357D02*
X120653750Y-90774500D01*
X120568035Y-90731642D01*
X120353750Y-90731642D01*
X120268035Y-90774500D01*
X120225178Y-90817357D01*
X120182321Y-90903071D01*
X120182321Y-90988785D01*
X120225178Y-91117357D01*
X120739464Y-91631642D01*
X120182321Y-91631642D01*
M02*
