%TF.GenerationSoftware,KiCad,Pcbnew,(6.0.4)*%
%TF.CreationDate,2023-05-23T22:41:31+03:00*%
%TF.ProjectId,metronome,6d657472-6f6e-46f6-9d65-2e6b69636164,rev?*%
%TF.SameCoordinates,Original*%
%TF.FileFunction,Copper,L1,Top*%
%TF.FilePolarity,Positive*%
%FSLAX46Y46*%
G04 Gerber Fmt 4.6, Leading zero omitted, Abs format (unit mm)*
G04 Created by KiCad (PCBNEW (6.0.4)) date 2023-05-23 22:41:31*
%MOMM*%
%LPD*%
G01*
G04 APERTURE LIST*
G04 Aperture macros list*
%AMRoundRect*
0 Rectangle with rounded corners*
0 $1 Rounding radius*
0 $2 $3 $4 $5 $6 $7 $8 $9 X,Y pos of 4 corners*
0 Add a 4 corners polygon primitive as box body*
4,1,4,$2,$3,$4,$5,$6,$7,$8,$9,$2,$3,0*
0 Add four circle primitives for the rounded corners*
1,1,$1+$1,$2,$3*
1,1,$1+$1,$4,$5*
1,1,$1+$1,$6,$7*
1,1,$1+$1,$8,$9*
0 Add four rect primitives between the rounded corners*
20,1,$1+$1,$2,$3,$4,$5,0*
20,1,$1+$1,$4,$5,$6,$7,0*
20,1,$1+$1,$6,$7,$8,$9,0*
20,1,$1+$1,$8,$9,$2,$3,0*%
G04 Aperture macros list end*
%TA.AperFunction,ComponentPad*%
%ADD10C,1.600000*%
%TD*%
%TA.AperFunction,ComponentPad*%
%ADD11O,1.600000X1.600000*%
%TD*%
%TA.AperFunction,ComponentPad*%
%ADD12RoundRect,0.250000X-0.750000X0.600000X-0.750000X-0.600000X0.750000X-0.600000X0.750000X0.600000X0*%
%TD*%
%TA.AperFunction,ComponentPad*%
%ADD13O,2.000000X1.700000*%
%TD*%
%TA.AperFunction,ComponentPad*%
%ADD14RoundRect,0.250000X0.750000X-0.600000X0.750000X0.600000X-0.750000X0.600000X-0.750000X-0.600000X0*%
%TD*%
%TA.AperFunction,ComponentPad*%
%ADD15C,5.700000*%
%TD*%
%TA.AperFunction,ComponentPad*%
%ADD16R,1.600000X1.600000*%
%TD*%
%TA.AperFunction,ComponentPad*%
%ADD17O,1.950000X1.700000*%
%TD*%
%TA.AperFunction,ComponentPad*%
%ADD18RoundRect,0.250000X-0.725000X0.600000X-0.725000X-0.600000X0.725000X-0.600000X0.725000X0.600000X0*%
%TD*%
%TA.AperFunction,ComponentPad*%
%ADD19R,1.050000X1.500000*%
%TD*%
%TA.AperFunction,ComponentPad*%
%ADD20O,1.050000X1.500000*%
%TD*%
%TA.AperFunction,ComponentPad*%
%ADD21R,1.800000X1.800000*%
%TD*%
%TA.AperFunction,ComponentPad*%
%ADD22C,1.800000*%
%TD*%
%TA.AperFunction,Conductor*%
%ADD23C,0.700000*%
%TD*%
G04 APERTURE END LIST*
D10*
%TO.P,R3,1*%
%TO.N,Net-(R2-Pad2)*%
X132080000Y-71000000D03*
D11*
%TO.P,R3,2*%
%TO.N,Net-(C4-Pad2)*%
X121920000Y-71000000D03*
%TD*%
D12*
%TO.P,J1,1,Pin_1*%
%TO.N,VCC*%
X144000000Y-86500000D03*
D13*
%TO.P,J1,2,Pin_2*%
%TO.N,Net-(J1-Pad2)*%
X144000000Y-89000000D03*
%TD*%
D10*
%TO.P,R1,1*%
%TO.N,Net-(C2-Pad2)*%
X137750000Y-74420000D03*
D11*
%TO.P,R1,2*%
%TO.N,Net-(J1-Pad2)*%
X137750000Y-84580000D03*
%TD*%
D14*
%TO.P,J2,1,Pin_1*%
%TO.N,GND*%
X115500000Y-103250000D03*
D13*
%TO.P,J2,2,Pin_2*%
%TO.N,VCC*%
X115500000Y-100750000D03*
%TD*%
D10*
%TO.P,R10,1*%
%TO.N,Net-(D7-Pad2)*%
X121500000Y-112080000D03*
D11*
%TO.P,R10,2*%
%TO.N,Net-(D6-Pad1)*%
X121500000Y-101920000D03*
%TD*%
D15*
%TO.P,H2,1,1*%
%TO.N,unconnected-(H2-Pad1)*%
X116000000Y-110000000D03*
%TD*%
D10*
%TO.P,C2,1*%
%TO.N,Output*%
X136750000Y-69250000D03*
%TO.P,C2,2*%
%TO.N,Net-(C2-Pad2)*%
X136750000Y-71250000D03*
%TD*%
%TO.P,C3,1*%
%TO.N,GND*%
X133250000Y-82000000D03*
%TO.P,C3,2*%
%TO.N,Net-(C3-Pad2)*%
X133250000Y-84000000D03*
%TD*%
%TO.P,C4,1*%
%TO.N,GND*%
X117750000Y-75250000D03*
%TO.P,C4,2*%
%TO.N,Net-(C4-Pad2)*%
X115250000Y-75250000D03*
%TD*%
D15*
%TO.P,H3,1,1*%
%TO.N,unconnected-(H3-Pad1)*%
X143500000Y-68250000D03*
%TD*%
D16*
%TO.P,D5,1,K*%
%TO.N,Net-(D3-Pad1)*%
X129000000Y-105500000D03*
D11*
%TO.P,D5,2,A*%
%TO.N,Net-(D5-Pad2)*%
X129000000Y-97880000D03*
%TD*%
D17*
%TO.P,J3,4,Pin_4*%
%TO.N,Net-(D4-Pad2)*%
X144000000Y-103000000D03*
%TO.P,J3,3,Pin_3*%
%TO.N,Net-(D3-Pad2)*%
X144000000Y-100500000D03*
%TO.P,J3,2,Pin_2*%
%TO.N,Net-(U2-Pad10)*%
X144000000Y-98000000D03*
D18*
%TO.P,J3,1,Pin_1*%
%TO.N,Net-(U2-Pad15)*%
X144000000Y-95500000D03*
%TD*%
D15*
%TO.P,H4,1,1*%
%TO.N,unconnected-(H4-Pad1)*%
X116000000Y-68250000D03*
%TD*%
%TO.P,H1,1,1*%
%TO.N,unconnected-(H1-Pad1)*%
X143500000Y-110000000D03*
%TD*%
D16*
%TO.P,D3,1,K*%
%TO.N,Net-(D3-Pad1)*%
X135000000Y-105500000D03*
D11*
%TO.P,D3,2,A*%
%TO.N,Net-(D3-Pad2)*%
X135000000Y-97880000D03*
%TD*%
D18*
%TO.P,RV2,1,1*%
%TO.N,VCC*%
X144000000Y-75000000D03*
D17*
%TO.P,RV2,2,2*%
X144000000Y-77500000D03*
%TO.P,RV2,3,3*%
%TO.N,Net-(R2-Pad1)*%
X144000000Y-80000000D03*
%TD*%
D19*
%TO.P,Q1,1,D*%
%TO.N,Net-(Q1-Pad1)*%
X115000000Y-82500000D03*
D20*
%TO.P,Q1,2,G*%
%TO.N,Output*%
X116270000Y-82500000D03*
%TO.P,Q1,3,S*%
%TO.N,GND*%
X117540000Y-82500000D03*
%TD*%
D21*
%TO.P,D7,1,K*%
%TO.N,Output*%
X127775000Y-109920000D03*
D22*
%TO.P,D7,2,A*%
%TO.N,Net-(D7-Pad2)*%
X125235000Y-109920000D03*
%TD*%
D16*
%TO.P,U2,1,Q5*%
%TO.N,unconnected-(U2-Pad1)*%
X120125000Y-95300000D03*
D11*
%TO.P,U2,2,Q1*%
%TO.N,Net-(D5-Pad2)*%
X122665000Y-95300000D03*
%TO.P,U2,3,Q0*%
%TO.N,Net-(D6-Pad2)*%
X125205000Y-95300000D03*
%TO.P,U2,4,Q2*%
%TO.N,Net-(D4-Pad2)*%
X127745000Y-95300000D03*
%TO.P,U2,5,Q6*%
%TO.N,unconnected-(U2-Pad5)*%
X130285000Y-95300000D03*
%TO.P,U2,6,Q7*%
%TO.N,unconnected-(U2-Pad6)*%
X132825000Y-95300000D03*
%TO.P,U2,7,Q3*%
%TO.N,Net-(D3-Pad2)*%
X135365000Y-95300000D03*
%TO.P,U2,8,VSS*%
%TO.N,GND*%
X137905000Y-95300000D03*
%TO.P,U2,9,Q8*%
%TO.N,unconnected-(U2-Pad9)*%
X137905000Y-87680000D03*
%TO.P,U2,10,Q4*%
%TO.N,Net-(U2-Pad10)*%
X135365000Y-87680000D03*
%TO.P,U2,11,Q9*%
%TO.N,unconnected-(U2-Pad11)*%
X132825000Y-87680000D03*
%TO.P,U2,12,Cout*%
%TO.N,unconnected-(U2-Pad12)*%
X130285000Y-87680000D03*
%TO.P,U2,13,CKEN*%
%TO.N,GND*%
X127745000Y-87680000D03*
%TO.P,U2,14,CLK*%
%TO.N,Net-(Q1-Pad1)*%
X125205000Y-87680000D03*
%TO.P,U2,15,Reset*%
%TO.N,Net-(U2-Pad15)*%
X122665000Y-87680000D03*
%TO.P,U2,16,VDD*%
%TO.N,VCC*%
X120125000Y-87680000D03*
%TD*%
D16*
%TO.P,D4,1,K*%
%TO.N,Net-(D3-Pad1)*%
X132000000Y-105500000D03*
D11*
%TO.P,D4,2,A*%
%TO.N,Net-(D4-Pad2)*%
X132000000Y-97880000D03*
%TD*%
D10*
%TO.P,R9,1*%
%TO.N,Net-(D2-Pad2)*%
X138000000Y-112000000D03*
D11*
%TO.P,R9,2*%
%TO.N,Net-(D3-Pad1)*%
X138000000Y-101840000D03*
%TD*%
D16*
%TO.P,U1,1,GND*%
%TO.N,GND*%
X121450000Y-76450000D03*
D11*
%TO.P,U1,2,TR*%
%TO.N,Net-(C4-Pad2)*%
X121450000Y-78990000D03*
%TO.P,U1,3,Q*%
%TO.N,Output*%
X121450000Y-81530000D03*
%TO.P,U1,4,R*%
%TO.N,VCC*%
X121450000Y-84070000D03*
%TO.P,U1,5,CV*%
%TO.N,Net-(C3-Pad2)*%
X129070000Y-84070000D03*
%TO.P,U1,6,THR*%
%TO.N,Net-(C4-Pad2)*%
X129070000Y-81530000D03*
%TO.P,U1,7,DIS*%
%TO.N,Net-(R2-Pad2)*%
X129070000Y-78990000D03*
%TO.P,U1,8,VCC*%
%TO.N,VCC*%
X129070000Y-76450000D03*
%TD*%
D10*
%TO.P,R2,1*%
%TO.N,Net-(R2-Pad1)*%
X132000000Y-67750000D03*
D11*
%TO.P,R2,2*%
%TO.N,Net-(R2-Pad2)*%
X121840000Y-67750000D03*
%TD*%
D16*
%TO.P,D6,1,K*%
%TO.N,Net-(D6-Pad1)*%
X124500000Y-105500000D03*
D11*
%TO.P,D6,2,A*%
%TO.N,Net-(D6-Pad2)*%
X124500000Y-97880000D03*
%TD*%
D21*
%TO.P,D2,1,K*%
%TO.N,Output*%
X131725000Y-109920000D03*
D22*
%TO.P,D2,2,A*%
%TO.N,Net-(D2-Pad2)*%
X134265000Y-109920000D03*
%TD*%
D10*
%TO.P,R4,1*%
%TO.N,Net-(Q1-Pad1)*%
X115000000Y-86170000D03*
D11*
%TO.P,R4,2*%
%TO.N,VCC*%
X115000000Y-96330000D03*
%TD*%
D23*
%TO.N,Net-(D2-Pad2)*%
X135920000Y-109920000D02*
X138000000Y-112000000D01*
X134265000Y-109920000D02*
X135920000Y-109920000D01*
%TO.N,Output*%
X119500000Y-80750000D02*
X120280000Y-81530000D01*
X127000000Y-108000000D02*
X127775000Y-108775000D01*
X119500000Y-98500000D02*
X119500000Y-105500000D01*
X116270000Y-82500000D02*
X116270000Y-81480000D01*
X120280000Y-81530000D02*
X121450000Y-81530000D01*
X119500000Y-105500000D02*
X122000000Y-108000000D01*
X127000000Y-108000000D02*
X131000000Y-108000000D01*
X131000000Y-108000000D02*
X131725000Y-108725000D01*
X118250000Y-97250000D02*
X119500000Y-98500000D01*
X116270000Y-81480000D02*
X117000000Y-80750000D01*
X122000000Y-108000000D02*
X127000000Y-108000000D01*
X127775000Y-108775000D02*
X127775000Y-109920000D01*
X117000000Y-80750000D02*
X119500000Y-80750000D01*
X116270000Y-82500000D02*
X116270000Y-84020000D01*
X116270000Y-84020000D02*
X118250000Y-86000000D01*
X118250000Y-86000000D02*
X118250000Y-97250000D01*
X131725000Y-108725000D02*
X131725000Y-109920000D01*
%TO.N,Net-(C2-Pad2)*%
X136750000Y-71250000D02*
X136750000Y-73420000D01*
X136750000Y-73420000D02*
X137750000Y-74420000D01*
%TO.N,Net-(C3-Pad2)*%
X133250000Y-84000000D02*
X129140000Y-84000000D01*
X129140000Y-84000000D02*
X129070000Y-84070000D01*
%TO.N,Net-(C4-Pad2)*%
X115250000Y-77750000D02*
X116490000Y-78990000D01*
X123750000Y-80000000D02*
X123875000Y-80125000D01*
X123750000Y-72830000D02*
X123750000Y-80000000D01*
X121450000Y-78990000D02*
X122740000Y-78990000D01*
X125280000Y-81530000D02*
X129070000Y-81530000D01*
X122740000Y-78990000D02*
X123875000Y-80125000D01*
X121920000Y-71000000D02*
X123750000Y-72830000D01*
X116490000Y-78990000D02*
X121450000Y-78990000D01*
X123875000Y-80125000D02*
X125280000Y-81530000D01*
X115250000Y-77750000D02*
X115250000Y-75250000D01*
%TO.N,Net-(D3-Pad1)*%
X132000000Y-105500000D02*
X135000000Y-105500000D01*
X135000000Y-104840000D02*
X138000000Y-101840000D01*
X129000000Y-105500000D02*
X132000000Y-105500000D01*
X135000000Y-105500000D02*
X135000000Y-104840000D01*
%TO.N,Net-(D3-Pad2)*%
X138130000Y-97880000D02*
X140750000Y-100500000D01*
X140750000Y-100500000D02*
X144000000Y-100500000D01*
X135000000Y-97880000D02*
X135000000Y-95665000D01*
X135000000Y-97880000D02*
X138130000Y-97880000D01*
X135000000Y-95665000D02*
X135365000Y-95300000D01*
%TO.N,Net-(J1-Pad2)*%
X141000000Y-86000000D02*
X141000000Y-88000000D01*
X141000000Y-88000000D02*
X142000000Y-89000000D01*
X137750000Y-84580000D02*
X139580000Y-84580000D01*
X139580000Y-84580000D02*
X141000000Y-86000000D01*
X142000000Y-89000000D02*
X144000000Y-89000000D01*
%TO.N,Net-(R2-Pad1)*%
X134500000Y-70250000D02*
X134500000Y-76250000D01*
X132000000Y-67750000D02*
X134500000Y-70250000D01*
X138250000Y-80000000D02*
X144000000Y-80000000D01*
X134500000Y-76250000D02*
X138250000Y-80000000D01*
%TO.N,Net-(R2-Pad2)*%
X127250000Y-71000000D02*
X132080000Y-71000000D01*
X127250000Y-77170000D02*
X129070000Y-78990000D01*
X121840000Y-67750000D02*
X124000000Y-67750000D01*
X127250000Y-71000000D02*
X127250000Y-77170000D01*
X124000000Y-67750000D02*
X127250000Y-71000000D01*
%TO.N,Net-(D5-Pad2)*%
X122665000Y-98665000D02*
X124000000Y-100000000D01*
X124000000Y-100000000D02*
X128000000Y-100000000D01*
X129000000Y-99000000D02*
X128000000Y-100000000D01*
X122665000Y-95300000D02*
X122665000Y-98665000D01*
X129000000Y-97880000D02*
X129000000Y-99000000D01*
%TO.N,Net-(D6-Pad1)*%
X124500000Y-105500000D02*
X124500000Y-104920000D01*
X124500000Y-104920000D02*
X121500000Y-101920000D01*
%TO.N,Net-(D6-Pad2)*%
X124500000Y-97880000D02*
X124500000Y-96005000D01*
X124500000Y-96005000D02*
X125205000Y-95300000D01*
%TO.N,Net-(D7-Pad2)*%
X123075000Y-112080000D02*
X125235000Y-109920000D01*
X121500000Y-112080000D02*
X123075000Y-112080000D01*
%TO.N,Net-(U2-Pad10)*%
X135365000Y-89865000D02*
X137000000Y-91500000D01*
X137000000Y-91500000D02*
X140000000Y-91500000D01*
X141000000Y-92500000D02*
X141000000Y-97250000D01*
X140000000Y-91500000D02*
X141000000Y-92500000D01*
X141000000Y-97250000D02*
X141750000Y-98000000D01*
X141750000Y-98000000D02*
X144000000Y-98000000D01*
X135365000Y-87680000D02*
X135365000Y-89865000D01*
%TO.N,Net-(Q1-Pad1)*%
X115000000Y-82500000D02*
X115000000Y-86170000D01*
%TD*%
%TA.AperFunction,Conductor*%
%TO.N,GND*%
G36*
X141580358Y-65278502D02*
G01*
X141626851Y-65332158D01*
X141636955Y-65402432D01*
X141607461Y-65467012D01*
X141588241Y-65484996D01*
X141329046Y-65681023D01*
X141064296Y-65930511D01*
X140828040Y-66207132D01*
X140623040Y-66507651D01*
X140616060Y-66520723D01*
X140496947Y-66743802D01*
X140451694Y-66828552D01*
X140450419Y-66831724D01*
X140450417Y-66831728D01*
X140321730Y-67151850D01*
X140316009Y-67166081D01*
X140217569Y-67516290D01*
X140217007Y-67519647D01*
X140217007Y-67519648D01*
X140163165Y-67841399D01*
X140157528Y-67875082D01*
X140136587Y-68238259D01*
X140136759Y-68241654D01*
X140136759Y-68241655D01*
X140154820Y-68598179D01*
X140154992Y-68601574D01*
X140155529Y-68604929D01*
X140155530Y-68604935D01*
X140179759Y-68756198D01*
X140212527Y-68960777D01*
X140308519Y-69311664D01*
X140441845Y-69650133D01*
X140443428Y-69653148D01*
X140609362Y-69969206D01*
X140609367Y-69969214D01*
X140610946Y-69972222D01*
X140612840Y-69975040D01*
X140612845Y-69975049D01*
X140778883Y-70222139D01*
X140813843Y-70274165D01*
X141048163Y-70552428D01*
X141132381Y-70632908D01*
X141308702Y-70801405D01*
X141308709Y-70801411D01*
X141311165Y-70803758D01*
X141599771Y-71025214D01*
X141602689Y-71026988D01*
X141907692Y-71212433D01*
X141907697Y-71212436D01*
X141910607Y-71214205D01*
X141913695Y-71215651D01*
X141913694Y-71215651D01*
X142236952Y-71367077D01*
X142236962Y-71367081D01*
X142240036Y-71368521D01*
X142243254Y-71369623D01*
X142243257Y-71369624D01*
X142580981Y-71485253D01*
X142580989Y-71485255D01*
X142584204Y-71486356D01*
X142939084Y-71566332D01*
X142992123Y-71572375D01*
X143297144Y-71607128D01*
X143297152Y-71607128D01*
X143300527Y-71607513D01*
X143303931Y-71607531D01*
X143303934Y-71607531D01*
X143502058Y-71608568D01*
X143664303Y-71609418D01*
X143667689Y-71609068D01*
X143667691Y-71609068D01*
X144022765Y-71572375D01*
X144022774Y-71572374D01*
X144026157Y-71572024D01*
X144029490Y-71571310D01*
X144029493Y-71571309D01*
X144139895Y-71547641D01*
X144381856Y-71495768D01*
X144727239Y-71381544D01*
X144730323Y-71380138D01*
X144730332Y-71380135D01*
X145055171Y-71232096D01*
X145058265Y-71230686D01*
X145102276Y-71204554D01*
X145368128Y-71046704D01*
X145368132Y-71046701D01*
X145371063Y-71044961D01*
X145661973Y-70826539D01*
X145927592Y-70577977D01*
X146164813Y-70302182D01*
X146261660Y-70161269D01*
X146316728Y-70116458D01*
X146387281Y-70108533D01*
X146450919Y-70140010D01*
X146487436Y-70200895D01*
X146491500Y-70232636D01*
X146491500Y-108017076D01*
X146471498Y-108085197D01*
X146417842Y-108131690D01*
X146347568Y-108141794D01*
X146282988Y-108112300D01*
X146261164Y-108087716D01*
X146180985Y-107969292D01*
X146179075Y-107966471D01*
X145943785Y-107689027D01*
X145679908Y-107438617D01*
X145455647Y-107267776D01*
X145393237Y-107220232D01*
X145393235Y-107220230D01*
X145390530Y-107218170D01*
X145387618Y-107216413D01*
X145387613Y-107216410D01*
X145081951Y-107032023D01*
X145081945Y-107032020D01*
X145079036Y-107030265D01*
X144749071Y-106877100D01*
X144404494Y-106760467D01*
X144395234Y-106758414D01*
X144320485Y-106741843D01*
X144049336Y-106681731D01*
X143882040Y-106663261D01*
X143691133Y-106642184D01*
X143691128Y-106642184D01*
X143687752Y-106641811D01*
X143684353Y-106641805D01*
X143684352Y-106641805D01*
X143512763Y-106641506D01*
X143323972Y-106641176D01*
X143188831Y-106655618D01*
X142965634Y-106679471D01*
X142965628Y-106679472D01*
X142962250Y-106679833D01*
X142606820Y-106757330D01*
X142261838Y-106872759D01*
X141931340Y-107024771D01*
X141619192Y-107211588D01*
X141329046Y-107431023D01*
X141064296Y-107680511D01*
X140828040Y-107957132D01*
X140623040Y-108257651D01*
X140621439Y-108260650D01*
X140456589Y-108569385D01*
X140451694Y-108578552D01*
X140450419Y-108581724D01*
X140450417Y-108581728D01*
X140318581Y-108909684D01*
X140316009Y-108916081D01*
X140315090Y-108919349D01*
X140315088Y-108919356D01*
X140218490Y-109263012D01*
X140217569Y-109266290D01*
X140217007Y-109269647D01*
X140217007Y-109269648D01*
X140211954Y-109299847D01*
X140157528Y-109625082D01*
X140136587Y-109988259D01*
X140154992Y-110351574D01*
X140155529Y-110354929D01*
X140155530Y-110354935D01*
X140195211Y-110602670D01*
X140212527Y-110710777D01*
X140308519Y-111061664D01*
X140441845Y-111400133D01*
X140456955Y-111428914D01*
X140609362Y-111719206D01*
X140609367Y-111719214D01*
X140610946Y-111722222D01*
X140612840Y-111725040D01*
X140612845Y-111725049D01*
X140750141Y-111929366D01*
X140813843Y-112024165D01*
X141048163Y-112302428D01*
X141074899Y-112327977D01*
X141308702Y-112551405D01*
X141308709Y-112551411D01*
X141311165Y-112553758D01*
X141549643Y-112736749D01*
X141587161Y-112765538D01*
X141629028Y-112822876D01*
X141633250Y-112893747D01*
X141598486Y-112955650D01*
X141535773Y-112988931D01*
X141510457Y-112991500D01*
X139145171Y-112991500D01*
X139077050Y-112971498D01*
X139030557Y-112917842D01*
X139020453Y-112847568D01*
X139041958Y-112793229D01*
X139049129Y-112782988D01*
X139137523Y-112656749D01*
X139139846Y-112651767D01*
X139139849Y-112651762D01*
X139231961Y-112454225D01*
X139231961Y-112454224D01*
X139234284Y-112449243D01*
X139266153Y-112330309D01*
X139292119Y-112233402D01*
X139292119Y-112233400D01*
X139293543Y-112228087D01*
X139313498Y-112000000D01*
X139293543Y-111771913D01*
X139289062Y-111755190D01*
X139235707Y-111556067D01*
X139235706Y-111556065D01*
X139234284Y-111550757D01*
X139180349Y-111435092D01*
X139139849Y-111348238D01*
X139139846Y-111348233D01*
X139137523Y-111343251D01*
X139038266Y-111201498D01*
X139009357Y-111160211D01*
X139009355Y-111160208D01*
X139006198Y-111155700D01*
X138844300Y-110993802D01*
X138839792Y-110990645D01*
X138839789Y-110990643D01*
X138742413Y-110922460D01*
X138656749Y-110862477D01*
X138651767Y-110860154D01*
X138651762Y-110860151D01*
X138454225Y-110768039D01*
X138454224Y-110768039D01*
X138449243Y-110765716D01*
X138443935Y-110764294D01*
X138443933Y-110764293D01*
X138233402Y-110707881D01*
X138233400Y-110707881D01*
X138228087Y-110706457D01*
X138000000Y-110686502D01*
X137994525Y-110686981D01*
X137994516Y-110686981D01*
X137967133Y-110689377D01*
X137897528Y-110675389D01*
X137867055Y-110652952D01*
X136556320Y-109342217D01*
X136549177Y-109334450D01*
X136519935Y-109299847D01*
X136515529Y-109294633D01*
X136497862Y-109281125D01*
X136451038Y-109245326D01*
X136448615Y-109243427D01*
X136390583Y-109196768D01*
X136390582Y-109196767D01*
X136385262Y-109192490D01*
X136379143Y-109189453D01*
X136376348Y-109187665D01*
X136375987Y-109187412D01*
X136375620Y-109187210D01*
X136372762Y-109185479D01*
X136367348Y-109181340D01*
X136293736Y-109147014D01*
X136290964Y-109145680D01*
X136224296Y-109112586D01*
X136218186Y-109109553D01*
X136211565Y-109107902D01*
X136208437Y-109106751D01*
X136208044Y-109106587D01*
X136207639Y-109106468D01*
X136204475Y-109105391D01*
X136198296Y-109102510D01*
X136119000Y-109084785D01*
X136116002Y-109084076D01*
X136043821Y-109066079D01*
X136043820Y-109066079D01*
X136037199Y-109064428D01*
X136030378Y-109064237D01*
X136027075Y-109063785D01*
X136026191Y-109063626D01*
X136021308Y-109062948D01*
X136016260Y-109061820D01*
X136010537Y-109061500D01*
X135934156Y-109061500D01*
X135930637Y-109061451D01*
X135850743Y-109059219D01*
X135844039Y-109060498D01*
X135837238Y-109061045D01*
X135837196Y-109060525D01*
X135826875Y-109061500D01*
X135443958Y-109061500D01*
X135375837Y-109041498D01*
X135350765Y-109020300D01*
X135232366Y-108890181D01*
X135232364Y-108890179D01*
X135228887Y-108886358D01*
X135224836Y-108883159D01*
X135224832Y-108883155D01*
X135051177Y-108746011D01*
X135051172Y-108746008D01*
X135047123Y-108742810D01*
X135042607Y-108740317D01*
X135042604Y-108740315D01*
X134848879Y-108633373D01*
X134848875Y-108633371D01*
X134844355Y-108630876D01*
X134839486Y-108629152D01*
X134839482Y-108629150D01*
X134630903Y-108555288D01*
X134630899Y-108555287D01*
X134626028Y-108553562D01*
X134620935Y-108552655D01*
X134620932Y-108552654D01*
X134403095Y-108513851D01*
X134403089Y-108513850D01*
X134398006Y-108512945D01*
X134325096Y-108512054D01*
X134171581Y-108510179D01*
X134171579Y-108510179D01*
X134166411Y-108510116D01*
X133937464Y-108545150D01*
X133717314Y-108617106D01*
X133712726Y-108619494D01*
X133712722Y-108619496D01*
X133516461Y-108721663D01*
X133511872Y-108724052D01*
X133507739Y-108727155D01*
X133507736Y-108727157D01*
X133330790Y-108860012D01*
X133326655Y-108863117D01*
X133311953Y-108878502D01*
X133309170Y-108881414D01*
X133247646Y-108916844D01*
X133176733Y-108913387D01*
X133118947Y-108872141D01*
X133100094Y-108838592D01*
X133078768Y-108781705D01*
X133078767Y-108781704D01*
X133075615Y-108773295D01*
X132988261Y-108656739D01*
X132871705Y-108569385D01*
X132735316Y-108518255D01*
X132673134Y-108511500D01*
X132649513Y-108511500D01*
X132581392Y-108491498D01*
X132534899Y-108437842D01*
X132530094Y-108425688D01*
X132511101Y-108369250D01*
X132511099Y-108369245D01*
X132508922Y-108362777D01*
X132505405Y-108356924D01*
X132504015Y-108353916D01*
X132503848Y-108353511D01*
X132503643Y-108353135D01*
X132502173Y-108350148D01*
X132499838Y-108343732D01*
X132456270Y-108275080D01*
X132454745Y-108272611D01*
X132412853Y-108202891D01*
X132408166Y-108197934D01*
X132406149Y-108195277D01*
X132405639Y-108194543D01*
X132402661Y-108190605D01*
X132399891Y-108186241D01*
X132396071Y-108181968D01*
X132342075Y-108127972D01*
X132339621Y-108125450D01*
X132303938Y-108087716D01*
X132284692Y-108067364D01*
X132279044Y-108063526D01*
X132273852Y-108059107D01*
X132274192Y-108058707D01*
X132266203Y-108052100D01*
X131636320Y-107422217D01*
X131629177Y-107414450D01*
X131599935Y-107379847D01*
X131595529Y-107374633D01*
X131531031Y-107325321D01*
X131528615Y-107323427D01*
X131470583Y-107276768D01*
X131470582Y-107276767D01*
X131465262Y-107272490D01*
X131459143Y-107269453D01*
X131456348Y-107267665D01*
X131455987Y-107267412D01*
X131455620Y-107267210D01*
X131452762Y-107265479D01*
X131447348Y-107261340D01*
X131373736Y-107227014D01*
X131370964Y-107225680D01*
X131304296Y-107192586D01*
X131298186Y-107189553D01*
X131291565Y-107187902D01*
X131288437Y-107186751D01*
X131288044Y-107186587D01*
X131287639Y-107186468D01*
X131284475Y-107185391D01*
X131278296Y-107182510D01*
X131199000Y-107164785D01*
X131196002Y-107164076D01*
X131123821Y-107146079D01*
X131123820Y-107146079D01*
X131117199Y-107144428D01*
X131110378Y-107144237D01*
X131107075Y-107143785D01*
X131106191Y-107143626D01*
X131101308Y-107142948D01*
X131096260Y-107141820D01*
X131090537Y-107141500D01*
X131014156Y-107141500D01*
X131010637Y-107141451D01*
X130930743Y-107139219D01*
X130924039Y-107140498D01*
X130917238Y-107141045D01*
X130917196Y-107140525D01*
X130906875Y-107141500D01*
X127014156Y-107141500D01*
X127010637Y-107141451D01*
X126930743Y-107139219D01*
X126924039Y-107140498D01*
X126917238Y-107141045D01*
X126917196Y-107140525D01*
X126906875Y-107141500D01*
X122407793Y-107141500D01*
X122339672Y-107121498D01*
X122318698Y-107104595D01*
X120395405Y-105181302D01*
X120361379Y-105118990D01*
X120358500Y-105092207D01*
X120358500Y-102933188D01*
X120378502Y-102865067D01*
X120432158Y-102818574D01*
X120502432Y-102808470D01*
X120567012Y-102837964D01*
X120573595Y-102844093D01*
X120655700Y-102926198D01*
X120660208Y-102929355D01*
X120660211Y-102929357D01*
X120676989Y-102941105D01*
X120843251Y-103057523D01*
X120848233Y-103059846D01*
X120848238Y-103059849D01*
X121042906Y-103150623D01*
X121050757Y-103154284D01*
X121056065Y-103155706D01*
X121056067Y-103155707D01*
X121266598Y-103212119D01*
X121266600Y-103212119D01*
X121271913Y-103213543D01*
X121500000Y-103233498D01*
X121505475Y-103233019D01*
X121505484Y-103233019D01*
X121532867Y-103230623D01*
X121602472Y-103244611D01*
X121632945Y-103267048D01*
X123154595Y-104788698D01*
X123188621Y-104851010D01*
X123191500Y-104877793D01*
X123191500Y-106348134D01*
X123198255Y-106410316D01*
X123249385Y-106546705D01*
X123336739Y-106663261D01*
X123453295Y-106750615D01*
X123589684Y-106801745D01*
X123651866Y-106808500D01*
X125348134Y-106808500D01*
X125410316Y-106801745D01*
X125546705Y-106750615D01*
X125663261Y-106663261D01*
X125750615Y-106546705D01*
X125801745Y-106410316D01*
X125808500Y-106348134D01*
X127691500Y-106348134D01*
X127698255Y-106410316D01*
X127749385Y-106546705D01*
X127836739Y-106663261D01*
X127953295Y-106750615D01*
X128089684Y-106801745D01*
X128151866Y-106808500D01*
X129848134Y-106808500D01*
X129910316Y-106801745D01*
X130046705Y-106750615D01*
X130163261Y-106663261D01*
X130250615Y-106546705D01*
X130290516Y-106440270D01*
X130333158Y-106383506D01*
X130399719Y-106358806D01*
X130408498Y-106358500D01*
X130591502Y-106358500D01*
X130659623Y-106378502D01*
X130706116Y-106432158D01*
X130709484Y-106440270D01*
X130749385Y-106546705D01*
X130836739Y-106663261D01*
X130953295Y-106750615D01*
X131089684Y-106801745D01*
X131151866Y-106808500D01*
X132848134Y-106808500D01*
X132910316Y-106801745D01*
X133046705Y-106750615D01*
X133163261Y-106663261D01*
X133250615Y-106546705D01*
X133290516Y-106440270D01*
X133333158Y-106383506D01*
X133399719Y-106358806D01*
X133408498Y-106358500D01*
X133591502Y-106358500D01*
X133659623Y-106378502D01*
X133706116Y-106432158D01*
X133709484Y-106440270D01*
X133749385Y-106546705D01*
X133836739Y-106663261D01*
X133953295Y-106750615D01*
X134089684Y-106801745D01*
X134151866Y-106808500D01*
X135848134Y-106808500D01*
X135910316Y-106801745D01*
X136046705Y-106750615D01*
X136163261Y-106663261D01*
X136250615Y-106546705D01*
X136301745Y-106410316D01*
X136308500Y-106348134D01*
X136308500Y-104797792D01*
X136328502Y-104729671D01*
X136345405Y-104708697D01*
X137867055Y-103187048D01*
X137929367Y-103153022D01*
X137967133Y-103150623D01*
X137994516Y-103153019D01*
X137994525Y-103153019D01*
X138000000Y-103153498D01*
X138228087Y-103133543D01*
X138233400Y-103132119D01*
X138233402Y-103132119D01*
X138443933Y-103075707D01*
X138443935Y-103075706D01*
X138449243Y-103074284D01*
X138470813Y-103064226D01*
X138651762Y-102979849D01*
X138651767Y-102979846D01*
X138656749Y-102977523D01*
X138761611Y-102904098D01*
X138839789Y-102849357D01*
X138839792Y-102849355D01*
X138844300Y-102846198D01*
X139006198Y-102684300D01*
X139137523Y-102496749D01*
X139139846Y-102491767D01*
X139139849Y-102491762D01*
X139231961Y-102294225D01*
X139231961Y-102294224D01*
X139234284Y-102289243D01*
X139236348Y-102281542D01*
X139292119Y-102073402D01*
X139292119Y-102073400D01*
X139293543Y-102068087D01*
X139313498Y-101840000D01*
X139293543Y-101611913D01*
X139256432Y-101473412D01*
X139235707Y-101396067D01*
X139235706Y-101396065D01*
X139234284Y-101390757D01*
X139231961Y-101385775D01*
X139139849Y-101188238D01*
X139139846Y-101188233D01*
X139137523Y-101183251D01*
X139026622Y-101024868D01*
X139009357Y-101000211D01*
X139009355Y-101000208D01*
X139006198Y-100995700D01*
X138844300Y-100833802D01*
X138839792Y-100830645D01*
X138839789Y-100830643D01*
X138712538Y-100741541D01*
X138656749Y-100702477D01*
X138651767Y-100700154D01*
X138651762Y-100700151D01*
X138454225Y-100608039D01*
X138454224Y-100608039D01*
X138449243Y-100605716D01*
X138443935Y-100604294D01*
X138443933Y-100604293D01*
X138233402Y-100547881D01*
X138233400Y-100547881D01*
X138228087Y-100546457D01*
X138000000Y-100526502D01*
X137771913Y-100546457D01*
X137766600Y-100547881D01*
X137766598Y-100547881D01*
X137556067Y-100604293D01*
X137556065Y-100604294D01*
X137550757Y-100605716D01*
X137545776Y-100608039D01*
X137545775Y-100608039D01*
X137348238Y-100700151D01*
X137348233Y-100700154D01*
X137343251Y-100702477D01*
X137287462Y-100741541D01*
X137160211Y-100830643D01*
X137160208Y-100830645D01*
X137155700Y-100833802D01*
X136993802Y-100995700D01*
X136990645Y-101000208D01*
X136990643Y-101000211D01*
X136973378Y-101024868D01*
X136862477Y-101183251D01*
X136860154Y-101188233D01*
X136860151Y-101188238D01*
X136768039Y-101385775D01*
X136765716Y-101390757D01*
X136764294Y-101396065D01*
X136764293Y-101396067D01*
X136743568Y-101473412D01*
X136706457Y-101611913D01*
X136686502Y-101840000D01*
X136686981Y-101845475D01*
X136686981Y-101845484D01*
X136689377Y-101872867D01*
X136675389Y-101942472D01*
X136652952Y-101972945D01*
X134471302Y-104154595D01*
X134408990Y-104188621D01*
X134382207Y-104191500D01*
X134151866Y-104191500D01*
X134089684Y-104198255D01*
X133953295Y-104249385D01*
X133836739Y-104336739D01*
X133749385Y-104453295D01*
X133746233Y-104461703D01*
X133709484Y-104559730D01*
X133666842Y-104616494D01*
X133600281Y-104641194D01*
X133591502Y-104641500D01*
X133408498Y-104641500D01*
X133340377Y-104621498D01*
X133293884Y-104567842D01*
X133290516Y-104559730D01*
X133253767Y-104461703D01*
X133250615Y-104453295D01*
X133163261Y-104336739D01*
X133046705Y-104249385D01*
X132910316Y-104198255D01*
X132848134Y-104191500D01*
X131151866Y-104191500D01*
X131089684Y-104198255D01*
X130953295Y-104249385D01*
X130836739Y-104336739D01*
X130749385Y-104453295D01*
X130746233Y-104461703D01*
X130709484Y-104559730D01*
X130666842Y-104616494D01*
X130600281Y-104641194D01*
X130591502Y-104641500D01*
X130408498Y-104641500D01*
X130340377Y-104621498D01*
X130293884Y-104567842D01*
X130290516Y-104559730D01*
X130253767Y-104461703D01*
X130250615Y-104453295D01*
X130163261Y-104336739D01*
X130046705Y-104249385D01*
X129910316Y-104198255D01*
X129848134Y-104191500D01*
X128151866Y-104191500D01*
X128089684Y-104198255D01*
X127953295Y-104249385D01*
X127836739Y-104336739D01*
X127749385Y-104453295D01*
X127698255Y-104589684D01*
X127691500Y-104651866D01*
X127691500Y-106348134D01*
X125808500Y-106348134D01*
X125808500Y-104651866D01*
X125801745Y-104589684D01*
X125750615Y-104453295D01*
X125663261Y-104336739D01*
X125546705Y-104249385D01*
X125410316Y-104198255D01*
X125348134Y-104191500D01*
X125037793Y-104191500D01*
X124969672Y-104171498D01*
X124948698Y-104154595D01*
X122847048Y-102052945D01*
X122813022Y-101990633D01*
X122810623Y-101952867D01*
X122813019Y-101925484D01*
X122813019Y-101925475D01*
X122813498Y-101920000D01*
X122793543Y-101691913D01*
X122759681Y-101565539D01*
X122735707Y-101476067D01*
X122735706Y-101476065D01*
X122734284Y-101470757D01*
X122704602Y-101407103D01*
X122639849Y-101268238D01*
X122639846Y-101268233D01*
X122637523Y-101263251D01*
X122540975Y-101125367D01*
X122509357Y-101080211D01*
X122509355Y-101080208D01*
X122506198Y-101075700D01*
X122344300Y-100913802D01*
X122339792Y-100910645D01*
X122339789Y-100910643D01*
X122243780Y-100843417D01*
X122156749Y-100782477D01*
X122151767Y-100780154D01*
X122151762Y-100780151D01*
X121954225Y-100688039D01*
X121954224Y-100688039D01*
X121949243Y-100685716D01*
X121943935Y-100684294D01*
X121943933Y-100684293D01*
X121733402Y-100627881D01*
X121733400Y-100627881D01*
X121728087Y-100626457D01*
X121500000Y-100606502D01*
X121271913Y-100626457D01*
X121266600Y-100627881D01*
X121266598Y-100627881D01*
X121056067Y-100684293D01*
X121056065Y-100684294D01*
X121050757Y-100685716D01*
X121045776Y-100688039D01*
X121045775Y-100688039D01*
X120848238Y-100780151D01*
X120848233Y-100780154D01*
X120843251Y-100782477D01*
X120756220Y-100843417D01*
X120660211Y-100910643D01*
X120660208Y-100910645D01*
X120655700Y-100913802D01*
X120573595Y-100995907D01*
X120511283Y-101029933D01*
X120440468Y-101024868D01*
X120383632Y-100982321D01*
X120358821Y-100915801D01*
X120358500Y-100906812D01*
X120358500Y-98541390D01*
X120358942Y-98530847D01*
X120362733Y-98485699D01*
X120363304Y-98478901D01*
X120352563Y-98398398D01*
X120352193Y-98395343D01*
X120345553Y-98334225D01*
X120343417Y-98314563D01*
X120341242Y-98308099D01*
X120340522Y-98304824D01*
X120340452Y-98304428D01*
X120340329Y-98304004D01*
X120339538Y-98300784D01*
X120338634Y-98294011D01*
X120310851Y-98217677D01*
X120309844Y-98214802D01*
X120303593Y-98196227D01*
X120283922Y-98137777D01*
X120280404Y-98131923D01*
X120279015Y-98128916D01*
X120278848Y-98128511D01*
X120278643Y-98128135D01*
X120277173Y-98125148D01*
X120274838Y-98118732D01*
X120231270Y-98050080D01*
X120229745Y-98047611D01*
X120187853Y-97977891D01*
X120183166Y-97972934D01*
X120181149Y-97970277D01*
X120180639Y-97969543D01*
X120177661Y-97965605D01*
X120174891Y-97961241D01*
X120171071Y-97956968D01*
X120117075Y-97902972D01*
X120114621Y-97900450D01*
X120064381Y-97847323D01*
X120059692Y-97842364D01*
X120054044Y-97838526D01*
X120048852Y-97834107D01*
X120049192Y-97833707D01*
X120041203Y-97827100D01*
X119145405Y-96931302D01*
X119111379Y-96868990D01*
X119108500Y-96842207D01*
X119108500Y-96730639D01*
X119128502Y-96662518D01*
X119182158Y-96616025D01*
X119248107Y-96605376D01*
X119273467Y-96608131D01*
X119273471Y-96608131D01*
X119276866Y-96608500D01*
X120973134Y-96608500D01*
X121035316Y-96601745D01*
X121171705Y-96550615D01*
X121288261Y-96463261D01*
X121375615Y-96346705D01*
X121426745Y-96210316D01*
X121427917Y-96199526D01*
X121428803Y-96197394D01*
X121429425Y-96194778D01*
X121429848Y-96194879D01*
X121455155Y-96133965D01*
X121513517Y-96093537D01*
X121584471Y-96091078D01*
X121645490Y-96127371D01*
X121652489Y-96136031D01*
X121655643Y-96139789D01*
X121658802Y-96144300D01*
X121769595Y-96255093D01*
X121803621Y-96317405D01*
X121806500Y-96344188D01*
X121806500Y-98623610D01*
X121806058Y-98634152D01*
X121801696Y-98686099D01*
X121802598Y-98692859D01*
X121802598Y-98692861D01*
X121812437Y-98766602D01*
X121812807Y-98769657D01*
X121813314Y-98774320D01*
X121821583Y-98850437D01*
X121823758Y-98856901D01*
X121824478Y-98860176D01*
X121824548Y-98860572D01*
X121824671Y-98860996D01*
X121825462Y-98864216D01*
X121826366Y-98870989D01*
X121848932Y-98932988D01*
X121854139Y-98947294D01*
X121855156Y-98950198D01*
X121881078Y-99027223D01*
X121884596Y-99033077D01*
X121885985Y-99036084D01*
X121886152Y-99036489D01*
X121886357Y-99036865D01*
X121887827Y-99039852D01*
X121890162Y-99046268D01*
X121933730Y-99114920D01*
X121935255Y-99117389D01*
X121977147Y-99187109D01*
X121981834Y-99192066D01*
X121983851Y-99194723D01*
X121984369Y-99195469D01*
X121987344Y-99199402D01*
X121990109Y-99203759D01*
X121993930Y-99208032D01*
X122047908Y-99262010D01*
X122050362Y-99264532D01*
X122105308Y-99322636D01*
X122110950Y-99326471D01*
X122116148Y-99330894D01*
X122115811Y-99331290D01*
X122123802Y-99337904D01*
X123363674Y-100577776D01*
X123370816Y-100585542D01*
X123404471Y-100625367D01*
X123469017Y-100674717D01*
X123471419Y-100676601D01*
X123529411Y-100723228D01*
X123529417Y-100723232D01*
X123534738Y-100727510D01*
X123540857Y-100730547D01*
X123543652Y-100732335D01*
X123544013Y-100732588D01*
X123544380Y-100732790D01*
X123547238Y-100734521D01*
X123552652Y-100738660D01*
X123622391Y-100771180D01*
X123626262Y-100772985D01*
X123629033Y-100774319D01*
X123701814Y-100810447D01*
X123708435Y-100812098D01*
X123711563Y-100813249D01*
X123711956Y-100813413D01*
X123712361Y-100813532D01*
X123715525Y-100814609D01*
X123721704Y-100817490D01*
X123780548Y-100830643D01*
X123801002Y-100835215D01*
X123803998Y-100835924D01*
X123870733Y-100852563D01*
X123882801Y-100855572D01*
X123889622Y-100855763D01*
X123892925Y-100856215D01*
X123893809Y-100856374D01*
X123898692Y-100857052D01*
X123903740Y-100858180D01*
X123909463Y-100858500D01*
X123985844Y-100858500D01*
X123989363Y-100858549D01*
X124069257Y-100860781D01*
X124075961Y-100859502D01*
X124082762Y-100858955D01*
X124082804Y-100859475D01*
X124093125Y-100858500D01*
X127958610Y-100858500D01*
X127969152Y-100858942D01*
X128021099Y-100863304D01*
X128027859Y-100862402D01*
X128027861Y-100862402D01*
X128101602Y-100852563D01*
X128104657Y-100852193D01*
X128136889Y-100848691D01*
X128185437Y-100843417D01*
X128191901Y-100841242D01*
X128195176Y-100840522D01*
X128195572Y-100840452D01*
X128195996Y-100840329D01*
X128199216Y-100839538D01*
X128205989Y-100838634D01*
X128282323Y-100810851D01*
X128285198Y-100809844D01*
X128320774Y-100797871D01*
X128362223Y-100783922D01*
X128368077Y-100780404D01*
X128371084Y-100779015D01*
X128371489Y-100778848D01*
X128371865Y-100778643D01*
X128374852Y-100777173D01*
X128381268Y-100774838D01*
X128449920Y-100731270D01*
X128452389Y-100729745D01*
X128522109Y-100687853D01*
X128527066Y-100683166D01*
X128529723Y-100681149D01*
X128530469Y-100680631D01*
X128534402Y-100677656D01*
X128538759Y-100674891D01*
X128543032Y-100671070D01*
X128597011Y-100617091D01*
X128599533Y-100614637D01*
X128607629Y-100606981D01*
X128657636Y-100559692D01*
X128661474Y-100554044D01*
X128665893Y-100548852D01*
X128666292Y-100549192D01*
X128672900Y-100541202D01*
X129577789Y-99636314D01*
X129585556Y-99629172D01*
X129620153Y-99599936D01*
X129620157Y-99599932D01*
X129625367Y-99595529D01*
X129674679Y-99531031D01*
X129676573Y-99528615D01*
X129687546Y-99514968D01*
X129727510Y-99465262D01*
X129730547Y-99459143D01*
X129732335Y-99456348D01*
X129732588Y-99455987D01*
X129732790Y-99455620D01*
X129734521Y-99452762D01*
X129738660Y-99447348D01*
X129772986Y-99373736D01*
X129774320Y-99370964D01*
X129807414Y-99304296D01*
X129810447Y-99298186D01*
X129812098Y-99291565D01*
X129813249Y-99288437D01*
X129813413Y-99288043D01*
X129813532Y-99287639D01*
X129814609Y-99284476D01*
X129817490Y-99278296D01*
X129835206Y-99199042D01*
X129835913Y-99196048D01*
X129836058Y-99195469D01*
X129855573Y-99117198D01*
X129855763Y-99110377D01*
X129856216Y-99107074D01*
X129856375Y-99106192D01*
X129857054Y-99101299D01*
X129858180Y-99096260D01*
X129858500Y-99090537D01*
X129858500Y-99014171D01*
X129858549Y-99010653D01*
X129860591Y-98937557D01*
X129860591Y-98937554D01*
X129860781Y-98930743D01*
X129860736Y-98930506D01*
X129874698Y-98863468D01*
X129896721Y-98833777D01*
X130006198Y-98724300D01*
X130038920Y-98677569D01*
X130106177Y-98581515D01*
X130137523Y-98536749D01*
X130139846Y-98531767D01*
X130139849Y-98531762D01*
X130231961Y-98334225D01*
X130231961Y-98334224D01*
X130234284Y-98329243D01*
X130243725Y-98294011D01*
X130292119Y-98113402D01*
X130292119Y-98113400D01*
X130293543Y-98108087D01*
X130313498Y-97880000D01*
X130293543Y-97651913D01*
X130291160Y-97643019D01*
X130235707Y-97436067D01*
X130235706Y-97436065D01*
X130234284Y-97430757D01*
X130188374Y-97332301D01*
X130139849Y-97228238D01*
X130139846Y-97228233D01*
X130137523Y-97223251D01*
X130027940Y-97066751D01*
X130009357Y-97040211D01*
X130009355Y-97040208D01*
X130006198Y-97035700D01*
X129844300Y-96873802D01*
X129839792Y-96870645D01*
X129839789Y-96870643D01*
X129709256Y-96779243D01*
X129656749Y-96742477D01*
X129651767Y-96740154D01*
X129651762Y-96740151D01*
X129454225Y-96648039D01*
X129454224Y-96648039D01*
X129449243Y-96645716D01*
X129443935Y-96644294D01*
X129443933Y-96644293D01*
X129233402Y-96587881D01*
X129233400Y-96587881D01*
X129228087Y-96586457D01*
X129000000Y-96566502D01*
X128771913Y-96586457D01*
X128766600Y-96587881D01*
X128766598Y-96587881D01*
X128556067Y-96644293D01*
X128556065Y-96644294D01*
X128550757Y-96645716D01*
X128545775Y-96648039D01*
X128545770Y-96648041D01*
X128511630Y-96663961D01*
X128441438Y-96674623D01*
X128407754Y-96659562D01*
X128407795Y-96664770D01*
X128369887Y-96724799D01*
X128349624Y-96739350D01*
X128348227Y-96740157D01*
X128343251Y-96742477D01*
X128338751Y-96745628D01*
X128160211Y-96870643D01*
X128160208Y-96870645D01*
X128155700Y-96873802D01*
X127993802Y-97035700D01*
X127990645Y-97040208D01*
X127990643Y-97040211D01*
X127972060Y-97066751D01*
X127862477Y-97223251D01*
X127860154Y-97228233D01*
X127860151Y-97228238D01*
X127811626Y-97332301D01*
X127765716Y-97430757D01*
X127764294Y-97436065D01*
X127764293Y-97436067D01*
X127708840Y-97643019D01*
X127706457Y-97651913D01*
X127686502Y-97880000D01*
X127706457Y-98108087D01*
X127707881Y-98113400D01*
X127707881Y-98113402D01*
X127756276Y-98294011D01*
X127765716Y-98329243D01*
X127768039Y-98334224D01*
X127768039Y-98334225D01*
X127860151Y-98531762D01*
X127860154Y-98531767D01*
X127862477Y-98536749D01*
X127865633Y-98541256D01*
X127865634Y-98541258D01*
X127961080Y-98677569D01*
X127983768Y-98744843D01*
X127966483Y-98813704D01*
X127946963Y-98838935D01*
X127812485Y-98973412D01*
X127681301Y-99104596D01*
X127618989Y-99138621D01*
X127592206Y-99141500D01*
X125379312Y-99141500D01*
X125311191Y-99121498D01*
X125264698Y-99067842D01*
X125254594Y-98997568D01*
X125284088Y-98932988D01*
X125307041Y-98912287D01*
X125339789Y-98889357D01*
X125339792Y-98889355D01*
X125344300Y-98886198D01*
X125506198Y-98724300D01*
X125538920Y-98677569D01*
X125606177Y-98581515D01*
X125637523Y-98536749D01*
X125639846Y-98531767D01*
X125639849Y-98531762D01*
X125731961Y-98334225D01*
X125731961Y-98334224D01*
X125734284Y-98329243D01*
X125743725Y-98294011D01*
X125792119Y-98113402D01*
X125792119Y-98113400D01*
X125793543Y-98108087D01*
X125813498Y-97880000D01*
X125793543Y-97651913D01*
X125791160Y-97643019D01*
X125735707Y-97436067D01*
X125735706Y-97436065D01*
X125734284Y-97430757D01*
X125688374Y-97332301D01*
X125639849Y-97228238D01*
X125639846Y-97228233D01*
X125637523Y-97223251D01*
X125527940Y-97066751D01*
X125509357Y-97040211D01*
X125509355Y-97040208D01*
X125506198Y-97035700D01*
X125395405Y-96924907D01*
X125361379Y-96862595D01*
X125358500Y-96835812D01*
X125358500Y-96710212D01*
X125378502Y-96642091D01*
X125432158Y-96595598D01*
X125451889Y-96588505D01*
X125648933Y-96535707D01*
X125648935Y-96535706D01*
X125654243Y-96534284D01*
X125695105Y-96515230D01*
X125856762Y-96439849D01*
X125856767Y-96439846D01*
X125861749Y-96437523D01*
X125995045Y-96344188D01*
X126044789Y-96309357D01*
X126044792Y-96309355D01*
X126049300Y-96306198D01*
X126211198Y-96144300D01*
X126241683Y-96100764D01*
X126339366Y-95961257D01*
X126342523Y-95956749D01*
X126344846Y-95951767D01*
X126344849Y-95951762D01*
X126360805Y-95917543D01*
X126407722Y-95864258D01*
X126475999Y-95844797D01*
X126543959Y-95865339D01*
X126589195Y-95917543D01*
X126605151Y-95951762D01*
X126605154Y-95951767D01*
X126607477Y-95956749D01*
X126610634Y-95961257D01*
X126708318Y-96100764D01*
X126738802Y-96144300D01*
X126900700Y-96306198D01*
X126905208Y-96309355D01*
X126905211Y-96309357D01*
X126954955Y-96344188D01*
X127088251Y-96437523D01*
X127093233Y-96439846D01*
X127093238Y-96439849D01*
X127254895Y-96515230D01*
X127295757Y-96534284D01*
X127301065Y-96535706D01*
X127301067Y-96535707D01*
X127511598Y-96592119D01*
X127511600Y-96592119D01*
X127516913Y-96593543D01*
X127745000Y-96613498D01*
X127973087Y-96593543D01*
X127978400Y-96592119D01*
X127978402Y-96592119D01*
X128188933Y-96535707D01*
X128188935Y-96535706D01*
X128194243Y-96534284D01*
X128199225Y-96531961D01*
X128199230Y-96531959D01*
X128233370Y-96516039D01*
X128303562Y-96505377D01*
X128337246Y-96520438D01*
X128337205Y-96515230D01*
X128375113Y-96455201D01*
X128395376Y-96440650D01*
X128396773Y-96439843D01*
X128401749Y-96437523D01*
X128521188Y-96353891D01*
X128584789Y-96309357D01*
X128584792Y-96309355D01*
X128589300Y-96306198D01*
X128751198Y-96144300D01*
X128781683Y-96100764D01*
X128879366Y-95961257D01*
X128882523Y-95956749D01*
X128884846Y-95951767D01*
X128884849Y-95951762D01*
X128900805Y-95917543D01*
X128947722Y-95864258D01*
X129015999Y-95844797D01*
X129083959Y-95865339D01*
X129129195Y-95917543D01*
X129145151Y-95951762D01*
X129145154Y-95951767D01*
X129147477Y-95956749D01*
X129150634Y-95961257D01*
X129248318Y-96100764D01*
X129278802Y-96144300D01*
X129440700Y-96306198D01*
X129445208Y-96309355D01*
X129445211Y-96309357D01*
X129494955Y-96344188D01*
X129628251Y-96437523D01*
X129633233Y-96439846D01*
X129633238Y-96439849D01*
X129794895Y-96515230D01*
X129835757Y-96534284D01*
X129841065Y-96535706D01*
X129841067Y-96535707D01*
X130051598Y-96592119D01*
X130051600Y-96592119D01*
X130056913Y-96593543D01*
X130285000Y-96613498D01*
X130513087Y-96593543D01*
X130518400Y-96592119D01*
X130518402Y-96592119D01*
X130728933Y-96535707D01*
X130728935Y-96535706D01*
X130734243Y-96534284D01*
X130775105Y-96515230D01*
X130936762Y-96439849D01*
X130936767Y-96439846D01*
X130941749Y-96437523D01*
X131075045Y-96344188D01*
X131124789Y-96309357D01*
X131124792Y-96309355D01*
X131129300Y-96306198D01*
X131291198Y-96144300D01*
X131321683Y-96100764D01*
X131419366Y-95961257D01*
X131422523Y-95956749D01*
X131424846Y-95951767D01*
X131424849Y-95951762D01*
X131440805Y-95917543D01*
X131487722Y-95864258D01*
X131555999Y-95844797D01*
X131623959Y-95865339D01*
X131669195Y-95917543D01*
X131685151Y-95951762D01*
X131685154Y-95951767D01*
X131687477Y-95956749D01*
X131690634Y-95961257D01*
X131788318Y-96100764D01*
X131818802Y-96144300D01*
X131980700Y-96306198D01*
X131985210Y-96309356D01*
X131985216Y-96309361D01*
X132029729Y-96340529D01*
X132074058Y-96395986D01*
X132081367Y-96466605D01*
X132049337Y-96529966D01*
X131988135Y-96565951D01*
X131968441Y-96569263D01*
X131948476Y-96571010D01*
X131771913Y-96586457D01*
X131766600Y-96587881D01*
X131766598Y-96587881D01*
X131556067Y-96644293D01*
X131556065Y-96644294D01*
X131550757Y-96645716D01*
X131545776Y-96648039D01*
X131545775Y-96648039D01*
X131348238Y-96740151D01*
X131348233Y-96740154D01*
X131343251Y-96742477D01*
X131290744Y-96779243D01*
X131160211Y-96870643D01*
X131160208Y-96870645D01*
X131155700Y-96873802D01*
X130993802Y-97035700D01*
X130990645Y-97040208D01*
X130990643Y-97040211D01*
X130972060Y-97066751D01*
X130862477Y-97223251D01*
X130860154Y-97228233D01*
X130860151Y-97228238D01*
X130811626Y-97332301D01*
X130765716Y-97430757D01*
X130764294Y-97436065D01*
X130764293Y-97436067D01*
X130708840Y-97643019D01*
X130706457Y-97651913D01*
X130686502Y-97880000D01*
X130706457Y-98108087D01*
X130707881Y-98113400D01*
X130707881Y-98113402D01*
X130756276Y-98294011D01*
X130765716Y-98329243D01*
X130768039Y-98334224D01*
X130768039Y-98334225D01*
X130860151Y-98531762D01*
X130860154Y-98531767D01*
X130862477Y-98536749D01*
X130893823Y-98581515D01*
X130961081Y-98677569D01*
X130993802Y-98724300D01*
X131155700Y-98886198D01*
X131160208Y-98889355D01*
X131160211Y-98889357D01*
X131178153Y-98901920D01*
X131343251Y-99017523D01*
X131348233Y-99019846D01*
X131348238Y-99019849D01*
X131534276Y-99106599D01*
X131550757Y-99114284D01*
X131556065Y-99115706D01*
X131556067Y-99115707D01*
X131766598Y-99172119D01*
X131766600Y-99172119D01*
X131771913Y-99173543D01*
X132000000Y-99193498D01*
X132228087Y-99173543D01*
X132233400Y-99172119D01*
X132233402Y-99172119D01*
X132443933Y-99115707D01*
X132443935Y-99115706D01*
X132449243Y-99114284D01*
X132465724Y-99106599D01*
X132651762Y-99019849D01*
X132651767Y-99019846D01*
X132656749Y-99017523D01*
X132821847Y-98901920D01*
X132839789Y-98889357D01*
X132839792Y-98889355D01*
X132844300Y-98886198D01*
X133006198Y-98724300D01*
X133038920Y-98677569D01*
X133106177Y-98581515D01*
X133137523Y-98536749D01*
X133139846Y-98531767D01*
X133139849Y-98531762D01*
X133231961Y-98334225D01*
X133231961Y-98334224D01*
X133234284Y-98329243D01*
X133243725Y-98294011D01*
X133292119Y-98113402D01*
X133292119Y-98113400D01*
X133293543Y-98108087D01*
X133313498Y-97880000D01*
X133293543Y-97651913D01*
X133291160Y-97643019D01*
X133235707Y-97436067D01*
X133235706Y-97436065D01*
X133234284Y-97430757D01*
X133188374Y-97332301D01*
X133139849Y-97228238D01*
X133139846Y-97228233D01*
X133137523Y-97223251D01*
X133027940Y-97066751D01*
X133009357Y-97040211D01*
X133009355Y-97040208D01*
X133006198Y-97035700D01*
X132844300Y-96873802D01*
X132839790Y-96870644D01*
X132839784Y-96870639D01*
X132795271Y-96839471D01*
X132750942Y-96784014D01*
X132743633Y-96713395D01*
X132775663Y-96650034D01*
X132836865Y-96614049D01*
X132856559Y-96610737D01*
X132886345Y-96608131D01*
X133053087Y-96593543D01*
X133058400Y-96592119D01*
X133058402Y-96592119D01*
X133268933Y-96535707D01*
X133268935Y-96535706D01*
X133274243Y-96534284D01*
X133315105Y-96515230D01*
X133476762Y-96439849D01*
X133476767Y-96439846D01*
X133481749Y-96437523D01*
X133615045Y-96344188D01*
X133664789Y-96309357D01*
X133664792Y-96309355D01*
X133669300Y-96306198D01*
X133831198Y-96144300D01*
X133864600Y-96096598D01*
X133912287Y-96028493D01*
X133967744Y-95984165D01*
X134038363Y-95976856D01*
X134101724Y-96008887D01*
X134137709Y-96070088D01*
X134141500Y-96100764D01*
X134141500Y-96835812D01*
X134121498Y-96903933D01*
X134104595Y-96924907D01*
X133993802Y-97035700D01*
X133990645Y-97040208D01*
X133990643Y-97040211D01*
X133972060Y-97066751D01*
X133862477Y-97223251D01*
X133860154Y-97228233D01*
X133860151Y-97228238D01*
X133811626Y-97332301D01*
X133765716Y-97430757D01*
X133764294Y-97436065D01*
X133764293Y-97436067D01*
X133708840Y-97643019D01*
X133706457Y-97651913D01*
X133686502Y-97880000D01*
X133706457Y-98108087D01*
X133707881Y-98113400D01*
X133707881Y-98113402D01*
X133756276Y-98294011D01*
X133765716Y-98329243D01*
X133768039Y-98334224D01*
X133768039Y-98334225D01*
X133860151Y-98531762D01*
X133860154Y-98531767D01*
X133862477Y-98536749D01*
X133893823Y-98581515D01*
X133961081Y-98677569D01*
X133993802Y-98724300D01*
X134155700Y-98886198D01*
X134160208Y-98889355D01*
X134160211Y-98889357D01*
X134178153Y-98901920D01*
X134343251Y-99017523D01*
X134348233Y-99019846D01*
X134348238Y-99019849D01*
X134534276Y-99106599D01*
X134550757Y-99114284D01*
X134556065Y-99115706D01*
X134556067Y-99115707D01*
X134766598Y-99172119D01*
X134766600Y-99172119D01*
X134771913Y-99173543D01*
X135000000Y-99193498D01*
X135228087Y-99173543D01*
X135233400Y-99172119D01*
X135233402Y-99172119D01*
X135443933Y-99115707D01*
X135443935Y-99115706D01*
X135449243Y-99114284D01*
X135465724Y-99106599D01*
X135651762Y-99019849D01*
X135651767Y-99019846D01*
X135656749Y-99017523D01*
X135821847Y-98901920D01*
X135839789Y-98889357D01*
X135839792Y-98889355D01*
X135844300Y-98886198D01*
X135955093Y-98775405D01*
X136017405Y-98741379D01*
X136044188Y-98738500D01*
X137722208Y-98738500D01*
X137790329Y-98758502D01*
X137811303Y-98775405D01*
X140113674Y-101077776D01*
X140120817Y-101085543D01*
X140150064Y-101120153D01*
X140150068Y-101120157D01*
X140154471Y-101125367D01*
X140219062Y-101174750D01*
X140221370Y-101176560D01*
X140284738Y-101227510D01*
X140290853Y-101230546D01*
X140293654Y-101232337D01*
X140294011Y-101232587D01*
X140294380Y-101232790D01*
X140297238Y-101234521D01*
X140302652Y-101238660D01*
X140364937Y-101267704D01*
X140376262Y-101272985D01*
X140379033Y-101274319D01*
X140451814Y-101310447D01*
X140458435Y-101312098D01*
X140461563Y-101313249D01*
X140461957Y-101313413D01*
X140462361Y-101313532D01*
X140465524Y-101314609D01*
X140471704Y-101317490D01*
X140550955Y-101335205D01*
X140553914Y-101335904D01*
X140632802Y-101355573D01*
X140639623Y-101355763D01*
X140642926Y-101356216D01*
X140643808Y-101356375D01*
X140648701Y-101357054D01*
X140653740Y-101358180D01*
X140659463Y-101358500D01*
X140735829Y-101358500D01*
X140739347Y-101358549D01*
X140812437Y-101360591D01*
X140812442Y-101360591D01*
X140819257Y-101360781D01*
X140825958Y-101359503D01*
X140832762Y-101358955D01*
X140832804Y-101359475D01*
X140843125Y-101358500D01*
X142763774Y-101358500D01*
X142831895Y-101378502D01*
X142858940Y-101401920D01*
X142924477Y-101477445D01*
X142928608Y-101480832D01*
X143098627Y-101620240D01*
X143098633Y-101620244D01*
X143102755Y-101623624D01*
X143134250Y-101641552D01*
X143183555Y-101692632D01*
X143197417Y-101762262D01*
X143171434Y-101828333D01*
X143142284Y-101855573D01*
X143020681Y-101937441D01*
X143016824Y-101941120D01*
X143016822Y-101941122D01*
X142947464Y-102007287D01*
X142853865Y-102096576D01*
X142716246Y-102281542D01*
X142713830Y-102286293D01*
X142713828Y-102286297D01*
X142689359Y-102334424D01*
X142611760Y-102487051D01*
X142610178Y-102492145D01*
X142610177Y-102492148D01*
X142551913Y-102679789D01*
X142543393Y-102707227D01*
X142542692Y-102712516D01*
X142514888Y-102922301D01*
X142513102Y-102935774D01*
X142521751Y-103166158D01*
X142569093Y-103391791D01*
X142571051Y-103396750D01*
X142571052Y-103396752D01*
X142614543Y-103506876D01*
X142653776Y-103606221D01*
X142773377Y-103803317D01*
X142776874Y-103807347D01*
X142863438Y-103907103D01*
X142924477Y-103977445D01*
X142965754Y-104011290D01*
X143098627Y-104120240D01*
X143098633Y-104120244D01*
X143102755Y-104123624D01*
X143107391Y-104126263D01*
X143107394Y-104126265D01*
X143216422Y-104188327D01*
X143303114Y-104237675D01*
X143519825Y-104316337D01*
X143525074Y-104317286D01*
X143525077Y-104317287D01*
X143742608Y-104356623D01*
X143742615Y-104356624D01*
X143746692Y-104357361D01*
X143764414Y-104358197D01*
X143769356Y-104358430D01*
X143769363Y-104358430D01*
X143770844Y-104358500D01*
X144182890Y-104358500D01*
X144249809Y-104352822D01*
X144349409Y-104344371D01*
X144349413Y-104344370D01*
X144354720Y-104343920D01*
X144359875Y-104342582D01*
X144359881Y-104342581D01*
X144572703Y-104287343D01*
X144572707Y-104287342D01*
X144577872Y-104286001D01*
X144582738Y-104283809D01*
X144582741Y-104283808D01*
X144772662Y-104198255D01*
X144788075Y-104191312D01*
X144979319Y-104062559D01*
X145146135Y-103903424D01*
X145283754Y-103718458D01*
X145388240Y-103512949D01*
X145424321Y-103396752D01*
X145455024Y-103297871D01*
X145456607Y-103292773D01*
X145465523Y-103225502D01*
X145486198Y-103069511D01*
X145486198Y-103069506D01*
X145486898Y-103064226D01*
X145478249Y-102833842D01*
X145475046Y-102818574D01*
X145432002Y-102613428D01*
X145430907Y-102608209D01*
X145428948Y-102603248D01*
X145348185Y-102398744D01*
X145348184Y-102398742D01*
X145346224Y-102393779D01*
X145310207Y-102334424D01*
X145229390Y-102201243D01*
X145226623Y-102196683D01*
X145137450Y-102093920D01*
X145079023Y-102026588D01*
X145079021Y-102026586D01*
X145075523Y-102022555D01*
X145000789Y-101961277D01*
X144901373Y-101879760D01*
X144901367Y-101879756D01*
X144897245Y-101876376D01*
X144865750Y-101858448D01*
X144816445Y-101807368D01*
X144802583Y-101737738D01*
X144828566Y-101671667D01*
X144857716Y-101644427D01*
X144913905Y-101606598D01*
X144979319Y-101562559D01*
X145146135Y-101403424D01*
X145179560Y-101358500D01*
X145244081Y-101271780D01*
X145283754Y-101218458D01*
X145305527Y-101175635D01*
X145358317Y-101071803D01*
X145388240Y-101012949D01*
X145392196Y-101000211D01*
X145455024Y-100797871D01*
X145456607Y-100792773D01*
X145470513Y-100687853D01*
X145486198Y-100569511D01*
X145486198Y-100569506D01*
X145486898Y-100564226D01*
X145486285Y-100547881D01*
X145479164Y-100358209D01*
X145478249Y-100333842D01*
X145430907Y-100108209D01*
X145428948Y-100103248D01*
X145348185Y-99898744D01*
X145348184Y-99898742D01*
X145346224Y-99893779D01*
X145320177Y-99850854D01*
X145229390Y-99701243D01*
X145226623Y-99696683D01*
X145170998Y-99632581D01*
X145079023Y-99526588D01*
X145079021Y-99526586D01*
X145075523Y-99522555D01*
X145012139Y-99470583D01*
X144901373Y-99379760D01*
X144901367Y-99379756D01*
X144897245Y-99376376D01*
X144865750Y-99358448D01*
X144816445Y-99307368D01*
X144802583Y-99237738D01*
X144828566Y-99171667D01*
X144857716Y-99144427D01*
X144897748Y-99117476D01*
X144979319Y-99062559D01*
X144996397Y-99046268D01*
X145097103Y-98950198D01*
X145146135Y-98903424D01*
X145178005Y-98860590D01*
X145253960Y-98758502D01*
X145283754Y-98718458D01*
X145296769Y-98692861D01*
X145376139Y-98536749D01*
X145388240Y-98512949D01*
X145396702Y-98485699D01*
X145455024Y-98297871D01*
X145456607Y-98292773D01*
X145466941Y-98214802D01*
X145486198Y-98069511D01*
X145486198Y-98069506D01*
X145486898Y-98064226D01*
X145478249Y-97833842D01*
X145430907Y-97608209D01*
X145412643Y-97561961D01*
X145348185Y-97398744D01*
X145348184Y-97398742D01*
X145346224Y-97393779D01*
X145320631Y-97351602D01*
X145229390Y-97201243D01*
X145226623Y-97196683D01*
X145191987Y-97156768D01*
X145079023Y-97026588D01*
X145079021Y-97026586D01*
X145075523Y-97022555D01*
X145039880Y-96993330D01*
X144999886Y-96934671D01*
X144997954Y-96863701D01*
X145034698Y-96802952D01*
X145053468Y-96788752D01*
X145193120Y-96702332D01*
X145199348Y-96698478D01*
X145324305Y-96573303D01*
X145350079Y-96531490D01*
X145413275Y-96428968D01*
X145413276Y-96428966D01*
X145417115Y-96422738D01*
X145472797Y-96254861D01*
X145483500Y-96150400D01*
X145483500Y-94849600D01*
X145472526Y-94743834D01*
X145469827Y-94735742D01*
X145418868Y-94583002D01*
X145416550Y-94576054D01*
X145323478Y-94425652D01*
X145198303Y-94300695D01*
X145187121Y-94293802D01*
X145053968Y-94211725D01*
X145053966Y-94211724D01*
X145047738Y-94207885D01*
X144921666Y-94166069D01*
X144886389Y-94154368D01*
X144886387Y-94154368D01*
X144879861Y-94152203D01*
X144873025Y-94151503D01*
X144873022Y-94151502D01*
X144829969Y-94147091D01*
X144775400Y-94141500D01*
X143224600Y-94141500D01*
X143221354Y-94141837D01*
X143221350Y-94141837D01*
X143125692Y-94151762D01*
X143125688Y-94151763D01*
X143118834Y-94152474D01*
X143112298Y-94154655D01*
X143112296Y-94154655D01*
X142980194Y-94198728D01*
X142951054Y-94208450D01*
X142800652Y-94301522D01*
X142675695Y-94426697D01*
X142671855Y-94432927D01*
X142671854Y-94432928D01*
X142628371Y-94503471D01*
X142582885Y-94577262D01*
X142527203Y-94745139D01*
X142516500Y-94849600D01*
X142516500Y-96150400D01*
X142516837Y-96153646D01*
X142516837Y-96153650D01*
X142522717Y-96210316D01*
X142527474Y-96256166D01*
X142529655Y-96262702D01*
X142529655Y-96262704D01*
X142557680Y-96346705D01*
X142583450Y-96423946D01*
X142676522Y-96574348D01*
X142801697Y-96699305D01*
X142947340Y-96789081D01*
X142994832Y-96841852D01*
X143006256Y-96911924D01*
X142977982Y-96977048D01*
X142968195Y-96987510D01*
X142933587Y-97020525D01*
X142853865Y-97096576D01*
X142851840Y-97099298D01*
X142792215Y-97136755D01*
X142757963Y-97141500D01*
X142157793Y-97141500D01*
X142089672Y-97121498D01*
X142068697Y-97104595D01*
X141895404Y-96931301D01*
X141861379Y-96868989D01*
X141858500Y-96842206D01*
X141858500Y-92541391D01*
X141858942Y-92530848D01*
X141862733Y-92485700D01*
X141863304Y-92478902D01*
X141852563Y-92398395D01*
X141852193Y-92395341D01*
X141845696Y-92335544D01*
X141843417Y-92314563D01*
X141841239Y-92308092D01*
X141840527Y-92304852D01*
X141840450Y-92304417D01*
X141840334Y-92304017D01*
X141839537Y-92300774D01*
X141838635Y-92294012D01*
X141810839Y-92217644D01*
X141809841Y-92214794D01*
X141786098Y-92144243D01*
X141783922Y-92137777D01*
X141780409Y-92131930D01*
X141779007Y-92128896D01*
X141778847Y-92128508D01*
X141778636Y-92128121D01*
X141777172Y-92125146D01*
X141774838Y-92118733D01*
X141731333Y-92050180D01*
X141729715Y-92047561D01*
X141691369Y-91983743D01*
X141687853Y-91977891D01*
X141683160Y-91972928D01*
X141681150Y-91970280D01*
X141680627Y-91969527D01*
X141677654Y-91965596D01*
X141674891Y-91961242D01*
X141671071Y-91956968D01*
X141617075Y-91902972D01*
X141614621Y-91900450D01*
X141564381Y-91847323D01*
X141559692Y-91842364D01*
X141554044Y-91838526D01*
X141548852Y-91834107D01*
X141549192Y-91833707D01*
X141541203Y-91827100D01*
X140636320Y-90922217D01*
X140629177Y-90914450D01*
X140599935Y-90879847D01*
X140595529Y-90874633D01*
X140531031Y-90825321D01*
X140528615Y-90823427D01*
X140470583Y-90776768D01*
X140470582Y-90776767D01*
X140465262Y-90772490D01*
X140459143Y-90769453D01*
X140456348Y-90767665D01*
X140455987Y-90767412D01*
X140455620Y-90767210D01*
X140452762Y-90765479D01*
X140447348Y-90761340D01*
X140373736Y-90727014D01*
X140370964Y-90725680D01*
X140304296Y-90692586D01*
X140298186Y-90689553D01*
X140291565Y-90687902D01*
X140288437Y-90686751D01*
X140288044Y-90686587D01*
X140287639Y-90686468D01*
X140284475Y-90685391D01*
X140278296Y-90682510D01*
X140199000Y-90664785D01*
X140196002Y-90664076D01*
X140123821Y-90646079D01*
X140123820Y-90646079D01*
X140117199Y-90644428D01*
X140110378Y-90644237D01*
X140107075Y-90643785D01*
X140106191Y-90643626D01*
X140101308Y-90642948D01*
X140096260Y-90641820D01*
X140090537Y-90641500D01*
X140014156Y-90641500D01*
X140010637Y-90641451D01*
X139930743Y-90639219D01*
X139924039Y-90640498D01*
X139917238Y-90641045D01*
X139917196Y-90640525D01*
X139906875Y-90641500D01*
X137407792Y-90641500D01*
X137339671Y-90621498D01*
X137318697Y-90604595D01*
X136260405Y-89546302D01*
X136226379Y-89483990D01*
X136223500Y-89457207D01*
X136223500Y-88724188D01*
X136243502Y-88656067D01*
X136260405Y-88635093D01*
X136371198Y-88524300D01*
X136502523Y-88336749D01*
X136504846Y-88331767D01*
X136504849Y-88331762D01*
X136520805Y-88297543D01*
X136567722Y-88244258D01*
X136635999Y-88224797D01*
X136703959Y-88245339D01*
X136749195Y-88297543D01*
X136765151Y-88331762D01*
X136765154Y-88331767D01*
X136767477Y-88336749D01*
X136898802Y-88524300D01*
X137060700Y-88686198D01*
X137065208Y-88689355D01*
X137065211Y-88689357D01*
X137114955Y-88724188D01*
X137248251Y-88817523D01*
X137253233Y-88819846D01*
X137253238Y-88819849D01*
X137449765Y-88911490D01*
X137455757Y-88914284D01*
X137461065Y-88915706D01*
X137461067Y-88915707D01*
X137671598Y-88972119D01*
X137671600Y-88972119D01*
X137676913Y-88973543D01*
X137905000Y-88993498D01*
X138133087Y-88973543D01*
X138138400Y-88972119D01*
X138138402Y-88972119D01*
X138348933Y-88915707D01*
X138348935Y-88915706D01*
X138354243Y-88914284D01*
X138360235Y-88911490D01*
X138556762Y-88819849D01*
X138556767Y-88819846D01*
X138561749Y-88817523D01*
X138695045Y-88724188D01*
X138744789Y-88689357D01*
X138744792Y-88689355D01*
X138749300Y-88686198D01*
X138911198Y-88524300D01*
X139042523Y-88336749D01*
X139044846Y-88331767D01*
X139044849Y-88331762D01*
X139136961Y-88134225D01*
X139136961Y-88134224D01*
X139139284Y-88129243D01*
X139145889Y-88104595D01*
X139197119Y-87913402D01*
X139197119Y-87913400D01*
X139198543Y-87908087D01*
X139218498Y-87680000D01*
X139198543Y-87451913D01*
X139190726Y-87422738D01*
X139140707Y-87236067D01*
X139140706Y-87236065D01*
X139139284Y-87230757D01*
X139103329Y-87153650D01*
X139044849Y-87028238D01*
X139044846Y-87028233D01*
X139042523Y-87023251D01*
X138911198Y-86835700D01*
X138749300Y-86673802D01*
X138744792Y-86670645D01*
X138744789Y-86670643D01*
X138575826Y-86552334D01*
X138561749Y-86542477D01*
X138556767Y-86540154D01*
X138556762Y-86540151D01*
X138359225Y-86448039D01*
X138359224Y-86448039D01*
X138354243Y-86445716D01*
X138348935Y-86444294D01*
X138348933Y-86444293D01*
X138138402Y-86387881D01*
X138138400Y-86387881D01*
X138133087Y-86386457D01*
X137905000Y-86366502D01*
X137676913Y-86386457D01*
X137671600Y-86387881D01*
X137671598Y-86387881D01*
X137461067Y-86444293D01*
X137461065Y-86444294D01*
X137455757Y-86445716D01*
X137450776Y-86448039D01*
X137450775Y-86448039D01*
X137253238Y-86540151D01*
X137253233Y-86540154D01*
X137248251Y-86542477D01*
X137234174Y-86552334D01*
X137065211Y-86670643D01*
X137065208Y-86670645D01*
X137060700Y-86673802D01*
X136898802Y-86835700D01*
X136767477Y-87023251D01*
X136765154Y-87028233D01*
X136765151Y-87028238D01*
X136749195Y-87062457D01*
X136702278Y-87115742D01*
X136634001Y-87135203D01*
X136566041Y-87114661D01*
X136520805Y-87062457D01*
X136504849Y-87028238D01*
X136504846Y-87028233D01*
X136502523Y-87023251D01*
X136371198Y-86835700D01*
X136209300Y-86673802D01*
X136204792Y-86670645D01*
X136204789Y-86670643D01*
X136035826Y-86552334D01*
X136021749Y-86542477D01*
X136016767Y-86540154D01*
X136016762Y-86540151D01*
X135819225Y-86448039D01*
X135819224Y-86448039D01*
X135814243Y-86445716D01*
X135808935Y-86444294D01*
X135808933Y-86444293D01*
X135598402Y-86387881D01*
X135598400Y-86387881D01*
X135593087Y-86386457D01*
X135365000Y-86366502D01*
X135136913Y-86386457D01*
X135131600Y-86387881D01*
X135131598Y-86387881D01*
X134921067Y-86444293D01*
X134921065Y-86444294D01*
X134915757Y-86445716D01*
X134910776Y-86448039D01*
X134910775Y-86448039D01*
X134713238Y-86540151D01*
X134713233Y-86540154D01*
X134708251Y-86542477D01*
X134694174Y-86552334D01*
X134525211Y-86670643D01*
X134525208Y-86670645D01*
X134520700Y-86673802D01*
X134358802Y-86835700D01*
X134227477Y-87023251D01*
X134225154Y-87028233D01*
X134225151Y-87028238D01*
X134209195Y-87062457D01*
X134162278Y-87115742D01*
X134094001Y-87135203D01*
X134026041Y-87114661D01*
X133980805Y-87062457D01*
X133964849Y-87028238D01*
X133964846Y-87028233D01*
X133962523Y-87023251D01*
X133831198Y-86835700D01*
X133669300Y-86673802D01*
X133664792Y-86670645D01*
X133664789Y-86670643D01*
X133495826Y-86552334D01*
X133481749Y-86542477D01*
X133476767Y-86540154D01*
X133476762Y-86540151D01*
X133279225Y-86448039D01*
X133279224Y-86448039D01*
X133274243Y-86445716D01*
X133268935Y-86444294D01*
X133268933Y-86444293D01*
X133058402Y-86387881D01*
X133058400Y-86387881D01*
X133053087Y-86386457D01*
X132825000Y-86366502D01*
X132596913Y-86386457D01*
X132591600Y-86387881D01*
X132591598Y-86387881D01*
X132381067Y-86444293D01*
X132381065Y-86444294D01*
X132375757Y-86445716D01*
X132370776Y-86448039D01*
X132370775Y-86448039D01*
X132173238Y-86540151D01*
X132173233Y-86540154D01*
X132168251Y-86542477D01*
X132154174Y-86552334D01*
X131985211Y-86670643D01*
X131985208Y-86670645D01*
X131980700Y-86673802D01*
X131818802Y-86835700D01*
X131687477Y-87023251D01*
X131685154Y-87028233D01*
X131685151Y-87028238D01*
X131669195Y-87062457D01*
X131622278Y-87115742D01*
X131554001Y-87135203D01*
X131486041Y-87114661D01*
X131440805Y-87062457D01*
X131424849Y-87028238D01*
X131424846Y-87028233D01*
X131422523Y-87023251D01*
X131291198Y-86835700D01*
X131129300Y-86673802D01*
X131124792Y-86670645D01*
X131124789Y-86670643D01*
X130955826Y-86552334D01*
X130941749Y-86542477D01*
X130936767Y-86540154D01*
X130936762Y-86540151D01*
X130739225Y-86448039D01*
X130739224Y-86448039D01*
X130734243Y-86445716D01*
X130728935Y-86444294D01*
X130728933Y-86444293D01*
X130518402Y-86387881D01*
X130518400Y-86387881D01*
X130513087Y-86386457D01*
X130285000Y-86366502D01*
X130056913Y-86386457D01*
X130051600Y-86387881D01*
X130051598Y-86387881D01*
X129841067Y-86444293D01*
X129841065Y-86444294D01*
X129835757Y-86445716D01*
X129830776Y-86448039D01*
X129830775Y-86448039D01*
X129633238Y-86540151D01*
X129633233Y-86540154D01*
X129628251Y-86542477D01*
X129614174Y-86552334D01*
X129445211Y-86670643D01*
X129445208Y-86670645D01*
X129440700Y-86673802D01*
X129278802Y-86835700D01*
X129147477Y-87023251D01*
X129145154Y-87028233D01*
X129145151Y-87028238D01*
X129128919Y-87063049D01*
X129082002Y-87116334D01*
X129013725Y-87135795D01*
X128945765Y-87115253D01*
X128900529Y-87063049D01*
X128884414Y-87028489D01*
X128878931Y-87018993D01*
X128753972Y-86840533D01*
X128746916Y-86832125D01*
X128592875Y-86678084D01*
X128584467Y-86671028D01*
X128406007Y-86546069D01*
X128396511Y-86540586D01*
X128199053Y-86448510D01*
X128188761Y-86444764D01*
X128016497Y-86398606D01*
X128002401Y-86398942D01*
X127999000Y-86406884D01*
X127999000Y-88947967D01*
X128002973Y-88961498D01*
X128011522Y-88962727D01*
X128188761Y-88915236D01*
X128199053Y-88911490D01*
X128396511Y-88819414D01*
X128406007Y-88813931D01*
X128584467Y-88688972D01*
X128592875Y-88681916D01*
X128746916Y-88527875D01*
X128753972Y-88519467D01*
X128878931Y-88341007D01*
X128884414Y-88331511D01*
X128900529Y-88296951D01*
X128947446Y-88243666D01*
X129015723Y-88224205D01*
X129083683Y-88244747D01*
X129128919Y-88296951D01*
X129145151Y-88331762D01*
X129145154Y-88331767D01*
X129147477Y-88336749D01*
X129278802Y-88524300D01*
X129440700Y-88686198D01*
X129445208Y-88689355D01*
X129445211Y-88689357D01*
X129494955Y-88724188D01*
X129628251Y-88817523D01*
X129633233Y-88819846D01*
X129633238Y-88819849D01*
X129829765Y-88911490D01*
X129835757Y-88914284D01*
X129841065Y-88915706D01*
X129841067Y-88915707D01*
X130051598Y-88972119D01*
X130051600Y-88972119D01*
X130056913Y-88973543D01*
X130285000Y-88993498D01*
X130513087Y-88973543D01*
X130518400Y-88972119D01*
X130518402Y-88972119D01*
X130728933Y-88915707D01*
X130728935Y-88915706D01*
X130734243Y-88914284D01*
X130740235Y-88911490D01*
X130936762Y-88819849D01*
X130936767Y-88819846D01*
X130941749Y-88817523D01*
X131075045Y-88724188D01*
X131124789Y-88689357D01*
X131124792Y-88689355D01*
X131129300Y-88686198D01*
X131291198Y-88524300D01*
X131422523Y-88336749D01*
X131424846Y-88331767D01*
X131424849Y-88331762D01*
X131440805Y-88297543D01*
X131487722Y-88244258D01*
X131555999Y-88224797D01*
X131623959Y-88245339D01*
X131669195Y-88297543D01*
X131685151Y-88331762D01*
X131685154Y-88331767D01*
X131687477Y-88336749D01*
X131818802Y-88524300D01*
X131980700Y-88686198D01*
X131985208Y-88689355D01*
X131985211Y-88689357D01*
X132034955Y-88724188D01*
X132168251Y-88817523D01*
X132173233Y-88819846D01*
X132173238Y-88819849D01*
X132369765Y-88911490D01*
X132375757Y-88914284D01*
X132381065Y-88915706D01*
X132381067Y-88915707D01*
X132591598Y-88972119D01*
X132591600Y-88972119D01*
X132596913Y-88973543D01*
X132825000Y-88993498D01*
X133053087Y-88973543D01*
X133058400Y-88972119D01*
X133058402Y-88972119D01*
X133268933Y-88915707D01*
X133268935Y-88915706D01*
X133274243Y-88914284D01*
X133280235Y-88911490D01*
X133476762Y-88819849D01*
X133476767Y-88819846D01*
X133481749Y-88817523D01*
X133615045Y-88724188D01*
X133664789Y-88689357D01*
X133664792Y-88689355D01*
X133669300Y-88686198D01*
X133831198Y-88524300D01*
X133962523Y-88336749D01*
X133964846Y-88331767D01*
X133964849Y-88331762D01*
X133980805Y-88297543D01*
X134027722Y-88244258D01*
X134095999Y-88224797D01*
X134163959Y-88245339D01*
X134209195Y-88297543D01*
X134225151Y-88331762D01*
X134225154Y-88331767D01*
X134227477Y-88336749D01*
X134358802Y-88524300D01*
X134469595Y-88635093D01*
X134503621Y-88697405D01*
X134506500Y-88724188D01*
X134506500Y-89823610D01*
X134506058Y-89834152D01*
X134501696Y-89886099D01*
X134502598Y-89892859D01*
X134502598Y-89892861D01*
X134512437Y-89966602D01*
X134512807Y-89969657D01*
X134521583Y-90050437D01*
X134523758Y-90056901D01*
X134524478Y-90060176D01*
X134524548Y-90060572D01*
X134524671Y-90060996D01*
X134525462Y-90064216D01*
X134526366Y-90070989D01*
X134546485Y-90126265D01*
X134554139Y-90147294D01*
X134555156Y-90150198D01*
X134581078Y-90227223D01*
X134584596Y-90233077D01*
X134585985Y-90236084D01*
X134586152Y-90236489D01*
X134586357Y-90236865D01*
X134587827Y-90239852D01*
X134590162Y-90246268D01*
X134633730Y-90314920D01*
X134635255Y-90317389D01*
X134677147Y-90387109D01*
X134681834Y-90392066D01*
X134683851Y-90394723D01*
X134684369Y-90395469D01*
X134687344Y-90399402D01*
X134690109Y-90403759D01*
X134693930Y-90408032D01*
X134747908Y-90462010D01*
X134750362Y-90464532D01*
X134805308Y-90522636D01*
X134810950Y-90526471D01*
X134816148Y-90530894D01*
X134815811Y-90531290D01*
X134823802Y-90537904D01*
X136363674Y-92077776D01*
X136370816Y-92085542D01*
X136404471Y-92125367D01*
X136409890Y-92129511D01*
X136409892Y-92129512D01*
X136434310Y-92148181D01*
X136469017Y-92174717D01*
X136471419Y-92176601D01*
X136529411Y-92223228D01*
X136529417Y-92223232D01*
X136534738Y-92227510D01*
X136540857Y-92230547D01*
X136543652Y-92232335D01*
X136544013Y-92232588D01*
X136544380Y-92232790D01*
X136547238Y-92234521D01*
X136552652Y-92238660D01*
X136626262Y-92272985D01*
X136629033Y-92274319D01*
X136701814Y-92310447D01*
X136708435Y-92312098D01*
X136711563Y-92313249D01*
X136711956Y-92313413D01*
X136712361Y-92313532D01*
X136715525Y-92314609D01*
X136721704Y-92317490D01*
X136795498Y-92333985D01*
X136801002Y-92335215D01*
X136804000Y-92335924D01*
X136882801Y-92355572D01*
X136889622Y-92355763D01*
X136892925Y-92356215D01*
X136893809Y-92356374D01*
X136898692Y-92357052D01*
X136903740Y-92358180D01*
X136909463Y-92358500D01*
X136985844Y-92358500D01*
X136989363Y-92358549D01*
X137069257Y-92360781D01*
X137075961Y-92359502D01*
X137082762Y-92358955D01*
X137082804Y-92359475D01*
X137093125Y-92358500D01*
X139592207Y-92358500D01*
X139660328Y-92378502D01*
X139681303Y-92395405D01*
X140104596Y-92818699D01*
X140138621Y-92881011D01*
X140141500Y-92907794D01*
X140141500Y-97208610D01*
X140141058Y-97219152D01*
X140136696Y-97271099D01*
X140137598Y-97277859D01*
X140137598Y-97277861D01*
X140147437Y-97351602D01*
X140147807Y-97354657D01*
X140156583Y-97435437D01*
X140158758Y-97441901D01*
X140159478Y-97445176D01*
X140159548Y-97445572D01*
X140159671Y-97445996D01*
X140160462Y-97449216D01*
X140161366Y-97455989D01*
X140189139Y-97532294D01*
X140190156Y-97535198D01*
X140216078Y-97612223D01*
X140219596Y-97618077D01*
X140220985Y-97621084D01*
X140221152Y-97621489D01*
X140221357Y-97621865D01*
X140222827Y-97624852D01*
X140225162Y-97631268D01*
X140268730Y-97699920D01*
X140270255Y-97702389D01*
X140312147Y-97772109D01*
X140316834Y-97777066D01*
X140318851Y-97779723D01*
X140319369Y-97780469D01*
X140322344Y-97784402D01*
X140325109Y-97788759D01*
X140328930Y-97793032D01*
X140382908Y-97847010D01*
X140385362Y-97849532D01*
X140435619Y-97902677D01*
X140440308Y-97907636D01*
X140445950Y-97911471D01*
X140451148Y-97915894D01*
X140450811Y-97916290D01*
X140458802Y-97922904D01*
X141113674Y-98577776D01*
X141120816Y-98585542D01*
X141154471Y-98625367D01*
X141219017Y-98674717D01*
X141221419Y-98676601D01*
X141279411Y-98723228D01*
X141279417Y-98723232D01*
X141284738Y-98727510D01*
X141290857Y-98730547D01*
X141293652Y-98732335D01*
X141294013Y-98732588D01*
X141294380Y-98732790D01*
X141297238Y-98734521D01*
X141302652Y-98738660D01*
X141362574Y-98766602D01*
X141376262Y-98772985D01*
X141379033Y-98774319D01*
X141451814Y-98810447D01*
X141458435Y-98812098D01*
X141461563Y-98813249D01*
X141461956Y-98813413D01*
X141462361Y-98813532D01*
X141465525Y-98814609D01*
X141471704Y-98817490D01*
X141544569Y-98833777D01*
X141551002Y-98835215D01*
X141554000Y-98835924D01*
X141632801Y-98855572D01*
X141639622Y-98855763D01*
X141642925Y-98856215D01*
X141643809Y-98856374D01*
X141648692Y-98857052D01*
X141653740Y-98858180D01*
X141659463Y-98858500D01*
X141735844Y-98858500D01*
X141739363Y-98858549D01*
X141819257Y-98860781D01*
X141825961Y-98859502D01*
X141832762Y-98858955D01*
X141832804Y-98859475D01*
X141843125Y-98858500D01*
X142763774Y-98858500D01*
X142831895Y-98878502D01*
X142858940Y-98901920D01*
X142924477Y-98977445D01*
X142928608Y-98980832D01*
X143098627Y-99120240D01*
X143098633Y-99120244D01*
X143102755Y-99123624D01*
X143134250Y-99141552D01*
X143183555Y-99192632D01*
X143197417Y-99262262D01*
X143171434Y-99328333D01*
X143142284Y-99355573D01*
X143020681Y-99437441D01*
X143016824Y-99441120D01*
X143016822Y-99441122D01*
X143001240Y-99455987D01*
X142853865Y-99596576D01*
X142851840Y-99599298D01*
X142792215Y-99636755D01*
X142757963Y-99641500D01*
X141157793Y-99641500D01*
X141089672Y-99621498D01*
X141068698Y-99604595D01*
X138766320Y-97302217D01*
X138759177Y-97294450D01*
X138729935Y-97259847D01*
X138725529Y-97254633D01*
X138661031Y-97205321D01*
X138658615Y-97203427D01*
X138600583Y-97156768D01*
X138600582Y-97156767D01*
X138595262Y-97152490D01*
X138589143Y-97149453D01*
X138586348Y-97147665D01*
X138585987Y-97147412D01*
X138585620Y-97147210D01*
X138582762Y-97145479D01*
X138577348Y-97141340D01*
X138503736Y-97107014D01*
X138500964Y-97105680D01*
X138434296Y-97072586D01*
X138428186Y-97069553D01*
X138421565Y-97067902D01*
X138418437Y-97066751D01*
X138418044Y-97066587D01*
X138417639Y-97066468D01*
X138414475Y-97065391D01*
X138408296Y-97062510D01*
X138329000Y-97044785D01*
X138326002Y-97044076D01*
X138253821Y-97026079D01*
X138253820Y-97026079D01*
X138247199Y-97024428D01*
X138240378Y-97024237D01*
X138237075Y-97023785D01*
X138236191Y-97023626D01*
X138231308Y-97022948D01*
X138226260Y-97021820D01*
X138220537Y-97021500D01*
X138144156Y-97021500D01*
X138140637Y-97021451D01*
X138060743Y-97019219D01*
X138054039Y-97020498D01*
X138047238Y-97021045D01*
X138047196Y-97020525D01*
X138036875Y-97021500D01*
X136044188Y-97021500D01*
X135976067Y-97001498D01*
X135955093Y-96984595D01*
X135895405Y-96924907D01*
X135861379Y-96862595D01*
X135858500Y-96835812D01*
X135858500Y-96593918D01*
X135878502Y-96525797D01*
X135931249Y-96479724D01*
X136021749Y-96437523D01*
X136155045Y-96344188D01*
X136204789Y-96309357D01*
X136204792Y-96309355D01*
X136209300Y-96306198D01*
X136371198Y-96144300D01*
X136401683Y-96100764D01*
X136499366Y-95961257D01*
X136502523Y-95956749D01*
X136504846Y-95951767D01*
X136504849Y-95951762D01*
X136521081Y-95916951D01*
X136567998Y-95863666D01*
X136636275Y-95844205D01*
X136704235Y-95864747D01*
X136749471Y-95916951D01*
X136765586Y-95951511D01*
X136771069Y-95961007D01*
X136896028Y-96139467D01*
X136903084Y-96147875D01*
X137057125Y-96301916D01*
X137065533Y-96308972D01*
X137243993Y-96433931D01*
X137253489Y-96439414D01*
X137450947Y-96531490D01*
X137461239Y-96535236D01*
X137633503Y-96581394D01*
X137647599Y-96581058D01*
X137651000Y-96573116D01*
X137651000Y-96567967D01*
X138159000Y-96567967D01*
X138162973Y-96581498D01*
X138171522Y-96582727D01*
X138348761Y-96535236D01*
X138359053Y-96531490D01*
X138556511Y-96439414D01*
X138566007Y-96433931D01*
X138744467Y-96308972D01*
X138752875Y-96301916D01*
X138906916Y-96147875D01*
X138913972Y-96139467D01*
X139038931Y-95961007D01*
X139044414Y-95951511D01*
X139136490Y-95754053D01*
X139140236Y-95743761D01*
X139186394Y-95571497D01*
X139186058Y-95557401D01*
X139178116Y-95554000D01*
X138177115Y-95554000D01*
X138161876Y-95558475D01*
X138160671Y-95559865D01*
X138159000Y-95567548D01*
X138159000Y-96567967D01*
X137651000Y-96567967D01*
X137651000Y-95027885D01*
X138159000Y-95027885D01*
X138163475Y-95043124D01*
X138164865Y-95044329D01*
X138172548Y-95046000D01*
X139172967Y-95046000D01*
X139186498Y-95042027D01*
X139187727Y-95033478D01*
X139140236Y-94856239D01*
X139136490Y-94845947D01*
X139044414Y-94648489D01*
X139038931Y-94638993D01*
X138913972Y-94460533D01*
X138906916Y-94452125D01*
X138752875Y-94298084D01*
X138744467Y-94291028D01*
X138566007Y-94166069D01*
X138556511Y-94160586D01*
X138359053Y-94068510D01*
X138348761Y-94064764D01*
X138176497Y-94018606D01*
X138162401Y-94018942D01*
X138159000Y-94026884D01*
X138159000Y-95027885D01*
X137651000Y-95027885D01*
X137651000Y-94032033D01*
X137647027Y-94018502D01*
X137638478Y-94017273D01*
X137461239Y-94064764D01*
X137450947Y-94068510D01*
X137253489Y-94160586D01*
X137243993Y-94166069D01*
X137065533Y-94291028D01*
X137057125Y-94298084D01*
X136903084Y-94452125D01*
X136896028Y-94460533D01*
X136771069Y-94638993D01*
X136765586Y-94648489D01*
X136749471Y-94683049D01*
X136702554Y-94736334D01*
X136634277Y-94755795D01*
X136566317Y-94735253D01*
X136521081Y-94683049D01*
X136504849Y-94648238D01*
X136504846Y-94648233D01*
X136502523Y-94643251D01*
X136371198Y-94455700D01*
X136209300Y-94293802D01*
X136204792Y-94290645D01*
X136204789Y-94290643D01*
X136086598Y-94207885D01*
X136021749Y-94162477D01*
X136016767Y-94160154D01*
X136016762Y-94160151D01*
X135819225Y-94068039D01*
X135819224Y-94068039D01*
X135814243Y-94065716D01*
X135808935Y-94064294D01*
X135808933Y-94064293D01*
X135598402Y-94007881D01*
X135598400Y-94007881D01*
X135593087Y-94006457D01*
X135365000Y-93986502D01*
X135136913Y-94006457D01*
X135131600Y-94007881D01*
X135131598Y-94007881D01*
X134921067Y-94064293D01*
X134921065Y-94064294D01*
X134915757Y-94065716D01*
X134910776Y-94068039D01*
X134910775Y-94068039D01*
X134713238Y-94160151D01*
X134713233Y-94160154D01*
X134708251Y-94162477D01*
X134643402Y-94207885D01*
X134525211Y-94290643D01*
X134525208Y-94290645D01*
X134520700Y-94293802D01*
X134358802Y-94455700D01*
X134227477Y-94643251D01*
X134225154Y-94648233D01*
X134225151Y-94648238D01*
X134209195Y-94682457D01*
X134162278Y-94735742D01*
X134094001Y-94755203D01*
X134026041Y-94734661D01*
X133980805Y-94682457D01*
X133964849Y-94648238D01*
X133964846Y-94648233D01*
X133962523Y-94643251D01*
X133831198Y-94455700D01*
X133669300Y-94293802D01*
X133664792Y-94290645D01*
X133664789Y-94290643D01*
X133546598Y-94207885D01*
X133481749Y-94162477D01*
X133476767Y-94160154D01*
X133476762Y-94160151D01*
X133279225Y-94068039D01*
X133279224Y-94068039D01*
X133274243Y-94065716D01*
X133268935Y-94064294D01*
X133268933Y-94064293D01*
X133058402Y-94007881D01*
X133058400Y-94007881D01*
X133053087Y-94006457D01*
X132825000Y-93986502D01*
X132596913Y-94006457D01*
X132591600Y-94007881D01*
X132591598Y-94007881D01*
X132381067Y-94064293D01*
X132381065Y-94064294D01*
X132375757Y-94065716D01*
X132370776Y-94068039D01*
X132370775Y-94068039D01*
X132173238Y-94160151D01*
X132173233Y-94160154D01*
X132168251Y-94162477D01*
X132103402Y-94207885D01*
X131985211Y-94290643D01*
X131985208Y-94290645D01*
X131980700Y-94293802D01*
X131818802Y-94455700D01*
X131687477Y-94643251D01*
X131685154Y-94648233D01*
X131685151Y-94648238D01*
X131669195Y-94682457D01*
X131622278Y-94735742D01*
X131554001Y-94755203D01*
X131486041Y-94734661D01*
X131440805Y-94682457D01*
X131424849Y-94648238D01*
X131424846Y-94648233D01*
X131422523Y-94643251D01*
X131291198Y-94455700D01*
X131129300Y-94293802D01*
X131124792Y-94290645D01*
X131124789Y-94290643D01*
X131006598Y-94207885D01*
X130941749Y-94162477D01*
X130936767Y-94160154D01*
X130936762Y-94160151D01*
X130739225Y-94068039D01*
X130739224Y-94068039D01*
X130734243Y-94065716D01*
X130728935Y-94064294D01*
X130728933Y-94064293D01*
X130518402Y-94007881D01*
X130518400Y-94007881D01*
X130513087Y-94006457D01*
X130285000Y-93986502D01*
X130056913Y-94006457D01*
X130051600Y-94007881D01*
X130051598Y-94007881D01*
X129841067Y-94064293D01*
X129841065Y-94064294D01*
X129835757Y-94065716D01*
X129830776Y-94068039D01*
X129830775Y-94068039D01*
X129633238Y-94160151D01*
X129633233Y-94160154D01*
X129628251Y-94162477D01*
X129563402Y-94207885D01*
X129445211Y-94290643D01*
X129445208Y-94290645D01*
X129440700Y-94293802D01*
X129278802Y-94455700D01*
X129147477Y-94643251D01*
X129145154Y-94648233D01*
X129145151Y-94648238D01*
X129129195Y-94682457D01*
X129082278Y-94735742D01*
X129014001Y-94755203D01*
X128946041Y-94734661D01*
X128900805Y-94682457D01*
X128884849Y-94648238D01*
X128884846Y-94648233D01*
X128882523Y-94643251D01*
X128751198Y-94455700D01*
X128589300Y-94293802D01*
X128584792Y-94290645D01*
X128584789Y-94290643D01*
X128466598Y-94207885D01*
X128401749Y-94162477D01*
X128396767Y-94160154D01*
X128396762Y-94160151D01*
X128199225Y-94068039D01*
X128199224Y-94068039D01*
X128194243Y-94065716D01*
X128188935Y-94064294D01*
X128188933Y-94064293D01*
X127978402Y-94007881D01*
X127978400Y-94007881D01*
X127973087Y-94006457D01*
X127745000Y-93986502D01*
X127516913Y-94006457D01*
X127511600Y-94007881D01*
X127511598Y-94007881D01*
X127301067Y-94064293D01*
X127301065Y-94064294D01*
X127295757Y-94065716D01*
X127290776Y-94068039D01*
X127290775Y-94068039D01*
X127093238Y-94160151D01*
X127093233Y-94160154D01*
X127088251Y-94162477D01*
X127023402Y-94207885D01*
X126905211Y-94290643D01*
X126905208Y-94290645D01*
X126900700Y-94293802D01*
X126738802Y-94455700D01*
X126607477Y-94643251D01*
X126605154Y-94648233D01*
X126605151Y-94648238D01*
X126589195Y-94682457D01*
X126542278Y-94735742D01*
X126474001Y-94755203D01*
X126406041Y-94734661D01*
X126360805Y-94682457D01*
X126344849Y-94648238D01*
X126344846Y-94648233D01*
X126342523Y-94643251D01*
X126211198Y-94455700D01*
X126049300Y-94293802D01*
X126044792Y-94290645D01*
X126044789Y-94290643D01*
X125926598Y-94207885D01*
X125861749Y-94162477D01*
X125856767Y-94160154D01*
X125856762Y-94160151D01*
X125659225Y-94068039D01*
X125659224Y-94068039D01*
X125654243Y-94065716D01*
X125648935Y-94064294D01*
X125648933Y-94064293D01*
X125438402Y-94007881D01*
X125438400Y-94007881D01*
X125433087Y-94006457D01*
X125205000Y-93986502D01*
X124976913Y-94006457D01*
X124971600Y-94007881D01*
X124971598Y-94007881D01*
X124761067Y-94064293D01*
X124761065Y-94064294D01*
X124755757Y-94065716D01*
X124750776Y-94068039D01*
X124750775Y-94068039D01*
X124553238Y-94160151D01*
X124553233Y-94160154D01*
X124548251Y-94162477D01*
X124483402Y-94207885D01*
X124365211Y-94290643D01*
X124365208Y-94290645D01*
X124360700Y-94293802D01*
X124198802Y-94455700D01*
X124067477Y-94643251D01*
X124065154Y-94648233D01*
X124065151Y-94648238D01*
X124049195Y-94682457D01*
X124002278Y-94735742D01*
X123934001Y-94755203D01*
X123866041Y-94734661D01*
X123820805Y-94682457D01*
X123804849Y-94648238D01*
X123804846Y-94648233D01*
X123802523Y-94643251D01*
X123671198Y-94455700D01*
X123509300Y-94293802D01*
X123504792Y-94290645D01*
X123504789Y-94290643D01*
X123386598Y-94207885D01*
X123321749Y-94162477D01*
X123316767Y-94160154D01*
X123316762Y-94160151D01*
X123119225Y-94068039D01*
X123119224Y-94068039D01*
X123114243Y-94065716D01*
X123108935Y-94064294D01*
X123108933Y-94064293D01*
X122898402Y-94007881D01*
X122898400Y-94007881D01*
X122893087Y-94006457D01*
X122665000Y-93986502D01*
X122436913Y-94006457D01*
X122431600Y-94007881D01*
X122431598Y-94007881D01*
X122221067Y-94064293D01*
X122221065Y-94064294D01*
X122215757Y-94065716D01*
X122210776Y-94068039D01*
X122210775Y-94068039D01*
X122013238Y-94160151D01*
X122013233Y-94160154D01*
X122008251Y-94162477D01*
X121943402Y-94207885D01*
X121825211Y-94290643D01*
X121825208Y-94290645D01*
X121820700Y-94293802D01*
X121658802Y-94455700D01*
X121655643Y-94460211D01*
X121652108Y-94464424D01*
X121650974Y-94463473D01*
X121600929Y-94503471D01*
X121530310Y-94510776D01*
X121466951Y-94478742D01*
X121430970Y-94417538D01*
X121427918Y-94400483D01*
X121426745Y-94389684D01*
X121375615Y-94253295D01*
X121288261Y-94136739D01*
X121171705Y-94049385D01*
X121035316Y-93998255D01*
X120973134Y-93991500D01*
X119276866Y-93991500D01*
X119273471Y-93991869D01*
X119273467Y-93991869D01*
X119248107Y-93994624D01*
X119178225Y-93982096D01*
X119126209Y-93933775D01*
X119108500Y-93869361D01*
X119108500Y-88807666D01*
X119128502Y-88739545D01*
X119182158Y-88693052D01*
X119252432Y-88682948D01*
X119306770Y-88704453D01*
X119468251Y-88817523D01*
X119473233Y-88819846D01*
X119473238Y-88819849D01*
X119669765Y-88911490D01*
X119675757Y-88914284D01*
X119681065Y-88915706D01*
X119681067Y-88915707D01*
X119891598Y-88972119D01*
X119891600Y-88972119D01*
X119896913Y-88973543D01*
X120125000Y-88993498D01*
X120353087Y-88973543D01*
X120358400Y-88972119D01*
X120358402Y-88972119D01*
X120568933Y-88915707D01*
X120568935Y-88915706D01*
X120574243Y-88914284D01*
X120580235Y-88911490D01*
X120776762Y-88819849D01*
X120776767Y-88819846D01*
X120781749Y-88817523D01*
X120915045Y-88724188D01*
X120964789Y-88689357D01*
X120964792Y-88689355D01*
X120969300Y-88686198D01*
X121131198Y-88524300D01*
X121262523Y-88336749D01*
X121264846Y-88331767D01*
X121264849Y-88331762D01*
X121280805Y-88297543D01*
X121327722Y-88244258D01*
X121395999Y-88224797D01*
X121463959Y-88245339D01*
X121509195Y-88297543D01*
X121525151Y-88331762D01*
X121525154Y-88331767D01*
X121527477Y-88336749D01*
X121658802Y-88524300D01*
X121820700Y-88686198D01*
X121825208Y-88689355D01*
X121825211Y-88689357D01*
X121874955Y-88724188D01*
X122008251Y-88817523D01*
X122013233Y-88819846D01*
X122013238Y-88819849D01*
X122209765Y-88911490D01*
X122215757Y-88914284D01*
X122221065Y-88915706D01*
X122221067Y-88915707D01*
X122431598Y-88972119D01*
X122431600Y-88972119D01*
X122436913Y-88973543D01*
X122665000Y-88993498D01*
X122893087Y-88973543D01*
X122898400Y-88972119D01*
X122898402Y-88972119D01*
X123108933Y-88915707D01*
X123108935Y-88915706D01*
X123114243Y-88914284D01*
X123120235Y-88911490D01*
X123316762Y-88819849D01*
X123316767Y-88819846D01*
X123321749Y-88817523D01*
X123455045Y-88724188D01*
X123504789Y-88689357D01*
X123504792Y-88689355D01*
X123509300Y-88686198D01*
X123671198Y-88524300D01*
X123802523Y-88336749D01*
X123804846Y-88331767D01*
X123804849Y-88331762D01*
X123820805Y-88297543D01*
X123867722Y-88244258D01*
X123935999Y-88224797D01*
X124003959Y-88245339D01*
X124049195Y-88297543D01*
X124065151Y-88331762D01*
X124065154Y-88331767D01*
X124067477Y-88336749D01*
X124198802Y-88524300D01*
X124360700Y-88686198D01*
X124365208Y-88689355D01*
X124365211Y-88689357D01*
X124414955Y-88724188D01*
X124548251Y-88817523D01*
X124553233Y-88819846D01*
X124553238Y-88819849D01*
X124749765Y-88911490D01*
X124755757Y-88914284D01*
X124761065Y-88915706D01*
X124761067Y-88915707D01*
X124971598Y-88972119D01*
X124971600Y-88972119D01*
X124976913Y-88973543D01*
X125205000Y-88993498D01*
X125433087Y-88973543D01*
X125438400Y-88972119D01*
X125438402Y-88972119D01*
X125648933Y-88915707D01*
X125648935Y-88915706D01*
X125654243Y-88914284D01*
X125660235Y-88911490D01*
X125856762Y-88819849D01*
X125856767Y-88819846D01*
X125861749Y-88817523D01*
X125995045Y-88724188D01*
X126044789Y-88689357D01*
X126044792Y-88689355D01*
X126049300Y-88686198D01*
X126211198Y-88524300D01*
X126342523Y-88336749D01*
X126344846Y-88331767D01*
X126344849Y-88331762D01*
X126361081Y-88296951D01*
X126407998Y-88243666D01*
X126476275Y-88224205D01*
X126544235Y-88244747D01*
X126589471Y-88296951D01*
X126605586Y-88331511D01*
X126611069Y-88341007D01*
X126736028Y-88519467D01*
X126743084Y-88527875D01*
X126897125Y-88681916D01*
X126905533Y-88688972D01*
X127083993Y-88813931D01*
X127093489Y-88819414D01*
X127290947Y-88911490D01*
X127301239Y-88915236D01*
X127473503Y-88961394D01*
X127487599Y-88961058D01*
X127491000Y-88953116D01*
X127491000Y-86412033D01*
X127487027Y-86398502D01*
X127478478Y-86397273D01*
X127301239Y-86444764D01*
X127290947Y-86448510D01*
X127093489Y-86540586D01*
X127083993Y-86546069D01*
X126905533Y-86671028D01*
X126897125Y-86678084D01*
X126743084Y-86832125D01*
X126736028Y-86840533D01*
X126611069Y-87018993D01*
X126605586Y-87028489D01*
X126589471Y-87063049D01*
X126542554Y-87116334D01*
X126474277Y-87135795D01*
X126406317Y-87115253D01*
X126361081Y-87063049D01*
X126344849Y-87028238D01*
X126344846Y-87028233D01*
X126342523Y-87023251D01*
X126211198Y-86835700D01*
X126049300Y-86673802D01*
X126044792Y-86670645D01*
X126044789Y-86670643D01*
X125875826Y-86552334D01*
X125861749Y-86542477D01*
X125856767Y-86540154D01*
X125856762Y-86540151D01*
X125659225Y-86448039D01*
X125659224Y-86448039D01*
X125654243Y-86445716D01*
X125648935Y-86444294D01*
X125648933Y-86444293D01*
X125438402Y-86387881D01*
X125438400Y-86387881D01*
X125433087Y-86386457D01*
X125205000Y-86366502D01*
X124976913Y-86386457D01*
X124971600Y-86387881D01*
X124971598Y-86387881D01*
X124761067Y-86444293D01*
X124761065Y-86444294D01*
X124755757Y-86445716D01*
X124750776Y-86448039D01*
X124750775Y-86448039D01*
X124553238Y-86540151D01*
X124553233Y-86540154D01*
X124548251Y-86542477D01*
X124534174Y-86552334D01*
X124365211Y-86670643D01*
X124365208Y-86670645D01*
X124360700Y-86673802D01*
X124198802Y-86835700D01*
X124067477Y-87023251D01*
X124065154Y-87028233D01*
X124065151Y-87028238D01*
X124049195Y-87062457D01*
X124002278Y-87115742D01*
X123934001Y-87135203D01*
X123866041Y-87114661D01*
X123820805Y-87062457D01*
X123804849Y-87028238D01*
X123804846Y-87028233D01*
X123802523Y-87023251D01*
X123671198Y-86835700D01*
X123509300Y-86673802D01*
X123504792Y-86670645D01*
X123504789Y-86670643D01*
X123335826Y-86552334D01*
X123321749Y-86542477D01*
X123316767Y-86540154D01*
X123316762Y-86540151D01*
X123119225Y-86448039D01*
X123119224Y-86448039D01*
X123114243Y-86445716D01*
X123108935Y-86444294D01*
X123108933Y-86444293D01*
X122898402Y-86387881D01*
X122898400Y-86387881D01*
X122893087Y-86386457D01*
X122665000Y-86366502D01*
X122436913Y-86386457D01*
X122431600Y-86387881D01*
X122431598Y-86387881D01*
X122221067Y-86444293D01*
X122221065Y-86444294D01*
X122215757Y-86445716D01*
X122210776Y-86448039D01*
X122210775Y-86448039D01*
X122013238Y-86540151D01*
X122013233Y-86540154D01*
X122008251Y-86542477D01*
X121994174Y-86552334D01*
X121825211Y-86670643D01*
X121825208Y-86670645D01*
X121820700Y-86673802D01*
X121658802Y-86835700D01*
X121527477Y-87023251D01*
X121525154Y-87028233D01*
X121525151Y-87028238D01*
X121509195Y-87062457D01*
X121462278Y-87115742D01*
X121394001Y-87135203D01*
X121326041Y-87114661D01*
X121280805Y-87062457D01*
X121264849Y-87028238D01*
X121264846Y-87028233D01*
X121262523Y-87023251D01*
X121131198Y-86835700D01*
X120969300Y-86673802D01*
X120964792Y-86670645D01*
X120964789Y-86670643D01*
X120795826Y-86552334D01*
X120781749Y-86542477D01*
X120776767Y-86540154D01*
X120776762Y-86540151D01*
X120579225Y-86448039D01*
X120579224Y-86448039D01*
X120574243Y-86445716D01*
X120568935Y-86444294D01*
X120568933Y-86444293D01*
X120358402Y-86387881D01*
X120358400Y-86387881D01*
X120353087Y-86386457D01*
X120125000Y-86366502D01*
X119896913Y-86386457D01*
X119891600Y-86387881D01*
X119891598Y-86387881D01*
X119681067Y-86444293D01*
X119681065Y-86444294D01*
X119675757Y-86445716D01*
X119670776Y-86448039D01*
X119670775Y-86448039D01*
X119473238Y-86540151D01*
X119473233Y-86540154D01*
X119468251Y-86542477D01*
X119454174Y-86552334D01*
X119306771Y-86655547D01*
X119239497Y-86678235D01*
X119170637Y-86660950D01*
X119122052Y-86609180D01*
X119108500Y-86552334D01*
X119108500Y-86041390D01*
X119108942Y-86030847D01*
X119112733Y-85985699D01*
X119113304Y-85978901D01*
X119102563Y-85898398D01*
X119102193Y-85895343D01*
X119094153Y-85821342D01*
X119093417Y-85814563D01*
X119091242Y-85808099D01*
X119090522Y-85804824D01*
X119090452Y-85804428D01*
X119090329Y-85804004D01*
X119089538Y-85800784D01*
X119088634Y-85794011D01*
X119060851Y-85717677D01*
X119059844Y-85714802D01*
X119053593Y-85696227D01*
X119033922Y-85637777D01*
X119030404Y-85631923D01*
X119029015Y-85628916D01*
X119028848Y-85628511D01*
X119028643Y-85628135D01*
X119027173Y-85625148D01*
X119024838Y-85618732D01*
X118981270Y-85550080D01*
X118979745Y-85547611D01*
X118937853Y-85477891D01*
X118933166Y-85472934D01*
X118931149Y-85470277D01*
X118930639Y-85469543D01*
X118927661Y-85465605D01*
X118924891Y-85461241D01*
X118921071Y-85456968D01*
X118867073Y-85402970D01*
X118864621Y-85400450D01*
X118814381Y-85347323D01*
X118809692Y-85342364D01*
X118804044Y-85338526D01*
X118798852Y-85334107D01*
X118799192Y-85333707D01*
X118791203Y-85327100D01*
X117314712Y-83850609D01*
X117280686Y-83788297D01*
X117285751Y-83717482D01*
X117286000Y-83716893D01*
X117286000Y-83708986D01*
X117794000Y-83708986D01*
X117797973Y-83722517D01*
X117805768Y-83723637D01*
X117922932Y-83689154D01*
X117934300Y-83684561D01*
X118102911Y-83596414D01*
X118113173Y-83589698D01*
X118261443Y-83470485D01*
X118270213Y-83461897D01*
X118392499Y-83316162D01*
X118399437Y-83306031D01*
X118491094Y-83139308D01*
X118495924Y-83128038D01*
X118553452Y-82946685D01*
X118556002Y-82934691D01*
X118572607Y-82786650D01*
X118573000Y-82779626D01*
X118573000Y-82772115D01*
X118568525Y-82756876D01*
X118567135Y-82755671D01*
X118559452Y-82754000D01*
X117812115Y-82754000D01*
X117796876Y-82758475D01*
X117795671Y-82759865D01*
X117794000Y-82767548D01*
X117794000Y-83708986D01*
X117286000Y-83708986D01*
X117286000Y-82946242D01*
X117286785Y-82932197D01*
X117303500Y-82783183D01*
X117303500Y-82372000D01*
X117323502Y-82303879D01*
X117377158Y-82257386D01*
X117429500Y-82246000D01*
X118554885Y-82246000D01*
X118570124Y-82241525D01*
X118571329Y-82240135D01*
X118573000Y-82232452D01*
X118573000Y-82227110D01*
X118572700Y-82220965D01*
X118558830Y-82079519D01*
X118556447Y-82067481D01*
X118501458Y-81885349D01*
X118496783Y-81874008D01*
X118454058Y-81793653D01*
X118439738Y-81724116D01*
X118465286Y-81657875D01*
X118522590Y-81615963D01*
X118565309Y-81608500D01*
X119092207Y-81608500D01*
X119160328Y-81628502D01*
X119181303Y-81645405D01*
X119415155Y-81879258D01*
X119643686Y-82107789D01*
X119650828Y-82115556D01*
X119680064Y-82150153D01*
X119680068Y-82150157D01*
X119684471Y-82155367D01*
X119689895Y-82159514D01*
X119689896Y-82159515D01*
X119748962Y-82204674D01*
X119751385Y-82206573D01*
X119794857Y-82241525D01*
X119814738Y-82257510D01*
X119820857Y-82260547D01*
X119823652Y-82262335D01*
X119824013Y-82262588D01*
X119824380Y-82262790D01*
X119827238Y-82264521D01*
X119832652Y-82268660D01*
X119906262Y-82302985D01*
X119909033Y-82304319D01*
X119981814Y-82340447D01*
X119988435Y-82342098D01*
X119991563Y-82343249D01*
X119991957Y-82343413D01*
X119992361Y-82343532D01*
X119995524Y-82344609D01*
X120001704Y-82347490D01*
X120080955Y-82365205D01*
X120083914Y-82365904D01*
X120162802Y-82385573D01*
X120169623Y-82385763D01*
X120172926Y-82386216D01*
X120173808Y-82386375D01*
X120178701Y-82387054D01*
X120183740Y-82388180D01*
X120189463Y-82388500D01*
X120265829Y-82388500D01*
X120269347Y-82388549D01*
X120342437Y-82390591D01*
X120342442Y-82390591D01*
X120349257Y-82390781D01*
X120355958Y-82389503D01*
X120362762Y-82388955D01*
X120362804Y-82389475D01*
X120373125Y-82388500D01*
X120405812Y-82388500D01*
X120473933Y-82408502D01*
X120494907Y-82425405D01*
X120605700Y-82536198D01*
X120610208Y-82539355D01*
X120610211Y-82539357D01*
X120688389Y-82594098D01*
X120793251Y-82667523D01*
X120798233Y-82669846D01*
X120798238Y-82669849D01*
X120832457Y-82685805D01*
X120885742Y-82732722D01*
X120905203Y-82800999D01*
X120884661Y-82868959D01*
X120832457Y-82914195D01*
X120798238Y-82930151D01*
X120798233Y-82930154D01*
X120793251Y-82932477D01*
X120781199Y-82940916D01*
X120610211Y-83060643D01*
X120610208Y-83060645D01*
X120605700Y-83063802D01*
X120443802Y-83225700D01*
X120440645Y-83230208D01*
X120440643Y-83230211D01*
X120401595Y-83285978D01*
X120312477Y-83413251D01*
X120310154Y-83418233D01*
X120310151Y-83418238D01*
X120273562Y-83496705D01*
X120215716Y-83620757D01*
X120214294Y-83626065D01*
X120214293Y-83626067D01*
X120175033Y-83772586D01*
X120156457Y-83841913D01*
X120136502Y-84070000D01*
X120156457Y-84298087D01*
X120157881Y-84303400D01*
X120157881Y-84303402D01*
X120195537Y-84443933D01*
X120215716Y-84519243D01*
X120218039Y-84524224D01*
X120218039Y-84524225D01*
X120310151Y-84721762D01*
X120310154Y-84721767D01*
X120312477Y-84726749D01*
X120369431Y-84808087D01*
X120430572Y-84895405D01*
X120443802Y-84914300D01*
X120605700Y-85076198D01*
X120610208Y-85079355D01*
X120610211Y-85079357D01*
X120663564Y-85116715D01*
X120793251Y-85207523D01*
X120798233Y-85209846D01*
X120798238Y-85209849D01*
X120978750Y-85294022D01*
X121000757Y-85304284D01*
X121006065Y-85305706D01*
X121006067Y-85305707D01*
X121216598Y-85362119D01*
X121216600Y-85362119D01*
X121221913Y-85363543D01*
X121450000Y-85383498D01*
X121678087Y-85363543D01*
X121683400Y-85362119D01*
X121683402Y-85362119D01*
X121893933Y-85305707D01*
X121893935Y-85305706D01*
X121899243Y-85304284D01*
X121921250Y-85294022D01*
X122101762Y-85209849D01*
X122101767Y-85209846D01*
X122106749Y-85207523D01*
X122236436Y-85116715D01*
X122289789Y-85079357D01*
X122289792Y-85079355D01*
X122294300Y-85076198D01*
X122456198Y-84914300D01*
X122469429Y-84895405D01*
X122530569Y-84808087D01*
X122587523Y-84726749D01*
X122589846Y-84721767D01*
X122589849Y-84721762D01*
X122681961Y-84524225D01*
X122681961Y-84524224D01*
X122684284Y-84519243D01*
X122704464Y-84443933D01*
X122742119Y-84303402D01*
X122742119Y-84303400D01*
X122743543Y-84298087D01*
X122763498Y-84070000D01*
X122743543Y-83841913D01*
X122724967Y-83772586D01*
X122685707Y-83626067D01*
X122685706Y-83626065D01*
X122684284Y-83620757D01*
X122626438Y-83496705D01*
X122589849Y-83418238D01*
X122589846Y-83418233D01*
X122587523Y-83413251D01*
X122498405Y-83285978D01*
X122459357Y-83230211D01*
X122459355Y-83230208D01*
X122456198Y-83225700D01*
X122294300Y-83063802D01*
X122289792Y-83060645D01*
X122289789Y-83060643D01*
X122118801Y-82940916D01*
X122106749Y-82932477D01*
X122101767Y-82930154D01*
X122101762Y-82930151D01*
X122067543Y-82914195D01*
X122014258Y-82867278D01*
X121994797Y-82799001D01*
X122015339Y-82731041D01*
X122067543Y-82685805D01*
X122101762Y-82669849D01*
X122101767Y-82669846D01*
X122106749Y-82667523D01*
X122211611Y-82594098D01*
X122289789Y-82539357D01*
X122289792Y-82539355D01*
X122294300Y-82536198D01*
X122456198Y-82374300D01*
X122460057Y-82368790D01*
X122549168Y-82241525D01*
X122587523Y-82186749D01*
X122589846Y-82181767D01*
X122589849Y-82181762D01*
X122681961Y-81984225D01*
X122681961Y-81984224D01*
X122684284Y-81979243D01*
X122738347Y-81777481D01*
X122742119Y-81763402D01*
X122742119Y-81763400D01*
X122743543Y-81758087D01*
X122763498Y-81530000D01*
X122743543Y-81301913D01*
X122742021Y-81296233D01*
X122685707Y-81086067D01*
X122685706Y-81086065D01*
X122684284Y-81080757D01*
X122664734Y-81038831D01*
X122589849Y-80878238D01*
X122589846Y-80878233D01*
X122587523Y-80873251D01*
X122511559Y-80764764D01*
X122459357Y-80690211D01*
X122459355Y-80690208D01*
X122456198Y-80685700D01*
X122294300Y-80523802D01*
X122289792Y-80520645D01*
X122289789Y-80520643D01*
X122211611Y-80465902D01*
X122106749Y-80392477D01*
X122101767Y-80390154D01*
X122101762Y-80390151D01*
X122067543Y-80374195D01*
X122014258Y-80327278D01*
X121994797Y-80259001D01*
X122015339Y-80191041D01*
X122067543Y-80145805D01*
X122101762Y-80129849D01*
X122101767Y-80129846D01*
X122106749Y-80127523D01*
X122211611Y-80054098D01*
X122289789Y-79999357D01*
X122289792Y-79999355D01*
X122294300Y-79996198D01*
X122324103Y-79966395D01*
X122386415Y-79932369D01*
X122457230Y-79937434D01*
X122502293Y-79966395D01*
X123132912Y-80597014D01*
X123135366Y-80599536D01*
X123184504Y-80651498D01*
X123190308Y-80657636D01*
X123195946Y-80661467D01*
X123201150Y-80665896D01*
X123200811Y-80666295D01*
X123208800Y-80672902D01*
X123258637Y-80722740D01*
X123300896Y-80764999D01*
X123300915Y-80765017D01*
X124643674Y-82107776D01*
X124650816Y-82115542D01*
X124684471Y-82155367D01*
X124749017Y-82204717D01*
X124751419Y-82206601D01*
X124809411Y-82253228D01*
X124809417Y-82253232D01*
X124814738Y-82257510D01*
X124820857Y-82260547D01*
X124823652Y-82262335D01*
X124824013Y-82262588D01*
X124824380Y-82262790D01*
X124827238Y-82264521D01*
X124832652Y-82268660D01*
X124906262Y-82302985D01*
X124909033Y-82304319D01*
X124981814Y-82340447D01*
X124988435Y-82342098D01*
X124991563Y-82343249D01*
X124991956Y-82343413D01*
X124992361Y-82343532D01*
X124995525Y-82344609D01*
X125001704Y-82347490D01*
X125075498Y-82363985D01*
X125081002Y-82365215D01*
X125083998Y-82365924D01*
X125108456Y-82372022D01*
X125162801Y-82385572D01*
X125169622Y-82385763D01*
X125172925Y-82386215D01*
X125173809Y-82386374D01*
X125178692Y-82387052D01*
X125183740Y-82388180D01*
X125189463Y-82388500D01*
X125265844Y-82388500D01*
X125269363Y-82388549D01*
X125349257Y-82390781D01*
X125355961Y-82389502D01*
X125362762Y-82388955D01*
X125362804Y-82389475D01*
X125373125Y-82388500D01*
X128025812Y-82388500D01*
X128093933Y-82408502D01*
X128114907Y-82425405D01*
X128225700Y-82536198D01*
X128230208Y-82539355D01*
X128230211Y-82539357D01*
X128308389Y-82594098D01*
X128413251Y-82667523D01*
X128418233Y-82669846D01*
X128418238Y-82669849D01*
X128452457Y-82685805D01*
X128505742Y-82732722D01*
X128525203Y-82800999D01*
X128504661Y-82868959D01*
X128452457Y-82914195D01*
X128418238Y-82930151D01*
X128418233Y-82930154D01*
X128413251Y-82932477D01*
X128401199Y-82940916D01*
X128230211Y-83060643D01*
X128230208Y-83060645D01*
X128225700Y-83063802D01*
X128063802Y-83225700D01*
X128060645Y-83230208D01*
X128060643Y-83230211D01*
X128021595Y-83285978D01*
X127932477Y-83413251D01*
X127930154Y-83418233D01*
X127930151Y-83418238D01*
X127893562Y-83496705D01*
X127835716Y-83620757D01*
X127834294Y-83626065D01*
X127834293Y-83626067D01*
X127795033Y-83772586D01*
X127776457Y-83841913D01*
X127756502Y-84070000D01*
X127776457Y-84298087D01*
X127777881Y-84303400D01*
X127777881Y-84303402D01*
X127815537Y-84443933D01*
X127835716Y-84519243D01*
X127838039Y-84524224D01*
X127838039Y-84524225D01*
X127930151Y-84721762D01*
X127930154Y-84721767D01*
X127932477Y-84726749D01*
X127989431Y-84808087D01*
X128050572Y-84895405D01*
X128063802Y-84914300D01*
X128225700Y-85076198D01*
X128230208Y-85079355D01*
X128230211Y-85079357D01*
X128283564Y-85116715D01*
X128413251Y-85207523D01*
X128418233Y-85209846D01*
X128418238Y-85209849D01*
X128598750Y-85294022D01*
X128620757Y-85304284D01*
X128626065Y-85305706D01*
X128626067Y-85305707D01*
X128836598Y-85362119D01*
X128836600Y-85362119D01*
X128841913Y-85363543D01*
X129070000Y-85383498D01*
X129298087Y-85363543D01*
X129303400Y-85362119D01*
X129303402Y-85362119D01*
X129513933Y-85305707D01*
X129513935Y-85305706D01*
X129519243Y-85304284D01*
X129541250Y-85294022D01*
X129721762Y-85209849D01*
X129721767Y-85209846D01*
X129726749Y-85207523D01*
X129856436Y-85116715D01*
X129909789Y-85079357D01*
X129909792Y-85079355D01*
X129914300Y-85076198D01*
X130076198Y-84914300D01*
X130079357Y-84909789D01*
X130082892Y-84905576D01*
X130084395Y-84906838D01*
X130133100Y-84867903D01*
X130180861Y-84858500D01*
X132205812Y-84858500D01*
X132273933Y-84878502D01*
X132294907Y-84895405D01*
X132405700Y-85006198D01*
X132410208Y-85009355D01*
X132410211Y-85009357D01*
X132488389Y-85064098D01*
X132593251Y-85137523D01*
X132598233Y-85139846D01*
X132598238Y-85139849D01*
X132795775Y-85231961D01*
X132800757Y-85234284D01*
X132806065Y-85235706D01*
X132806067Y-85235707D01*
X133016598Y-85292119D01*
X133016600Y-85292119D01*
X133021913Y-85293543D01*
X133250000Y-85313498D01*
X133478087Y-85293543D01*
X133483400Y-85292119D01*
X133483402Y-85292119D01*
X133693933Y-85235707D01*
X133693935Y-85235706D01*
X133699243Y-85234284D01*
X133704225Y-85231961D01*
X133901762Y-85139849D01*
X133901767Y-85139846D01*
X133906749Y-85137523D01*
X134011611Y-85064098D01*
X134089789Y-85009357D01*
X134089792Y-85009355D01*
X134094300Y-85006198D01*
X134256198Y-84844300D01*
X134387523Y-84656749D01*
X134389846Y-84651767D01*
X134389849Y-84651762D01*
X134423312Y-84580000D01*
X136436502Y-84580000D01*
X136456457Y-84808087D01*
X136457881Y-84813400D01*
X136457881Y-84813402D01*
X136510388Y-85009357D01*
X136515716Y-85029243D01*
X136518039Y-85034224D01*
X136518039Y-85034225D01*
X136610151Y-85231762D01*
X136610154Y-85231767D01*
X136612477Y-85236749D01*
X136672033Y-85321803D01*
X136728867Y-85402970D01*
X136743802Y-85424300D01*
X136905700Y-85586198D01*
X136910208Y-85589355D01*
X136910211Y-85589357D01*
X136966707Y-85628916D01*
X137093251Y-85717523D01*
X137098233Y-85719846D01*
X137098238Y-85719849D01*
X137295775Y-85811961D01*
X137300757Y-85814284D01*
X137306065Y-85815706D01*
X137306067Y-85815707D01*
X137516598Y-85872119D01*
X137516600Y-85872119D01*
X137521913Y-85873543D01*
X137750000Y-85893498D01*
X137978087Y-85873543D01*
X137983400Y-85872119D01*
X137983402Y-85872119D01*
X138193933Y-85815707D01*
X138193935Y-85815706D01*
X138199243Y-85814284D01*
X138204225Y-85811961D01*
X138401762Y-85719849D01*
X138401767Y-85719846D01*
X138406749Y-85717523D01*
X138533293Y-85628916D01*
X138589789Y-85589357D01*
X138589792Y-85589355D01*
X138594300Y-85586198D01*
X138705093Y-85475405D01*
X138767405Y-85441379D01*
X138794188Y-85438500D01*
X139172208Y-85438500D01*
X139240329Y-85458502D01*
X139261303Y-85475405D01*
X140104595Y-86318697D01*
X140138621Y-86381009D01*
X140141500Y-86407792D01*
X140141500Y-87958610D01*
X140141058Y-87969152D01*
X140136696Y-88021099D01*
X140137598Y-88027859D01*
X140137598Y-88027861D01*
X140147437Y-88101602D01*
X140147807Y-88104657D01*
X140151294Y-88136755D01*
X140156583Y-88185437D01*
X140158758Y-88191901D01*
X140159478Y-88195176D01*
X140159548Y-88195572D01*
X140159671Y-88195996D01*
X140160462Y-88199216D01*
X140161366Y-88205989D01*
X140189139Y-88282294D01*
X140190156Y-88285198D01*
X140194311Y-88297543D01*
X140216078Y-88362223D01*
X140219596Y-88368077D01*
X140220985Y-88371084D01*
X140221152Y-88371489D01*
X140221357Y-88371865D01*
X140222827Y-88374852D01*
X140225162Y-88381268D01*
X140268730Y-88449920D01*
X140270255Y-88452389D01*
X140312147Y-88522109D01*
X140316834Y-88527066D01*
X140318851Y-88529723D01*
X140319369Y-88530469D01*
X140322344Y-88534402D01*
X140325109Y-88538759D01*
X140328930Y-88543032D01*
X140382909Y-88597011D01*
X140385363Y-88599533D01*
X140440308Y-88657636D01*
X140445956Y-88661474D01*
X140451148Y-88665893D01*
X140450808Y-88666292D01*
X140458798Y-88672900D01*
X141363686Y-89577789D01*
X141370828Y-89585556D01*
X141400064Y-89620153D01*
X141400068Y-89620157D01*
X141404471Y-89625367D01*
X141409895Y-89629514D01*
X141409896Y-89629515D01*
X141468962Y-89674674D01*
X141471385Y-89676573D01*
X141523480Y-89718458D01*
X141534738Y-89727510D01*
X141540857Y-89730547D01*
X141543652Y-89732335D01*
X141544013Y-89732588D01*
X141544380Y-89732790D01*
X141547238Y-89734521D01*
X141552652Y-89738660D01*
X141626262Y-89772985D01*
X141629033Y-89774319D01*
X141701814Y-89810447D01*
X141708435Y-89812098D01*
X141711563Y-89813249D01*
X141711957Y-89813413D01*
X141712361Y-89813532D01*
X141715524Y-89814609D01*
X141721704Y-89817490D01*
X141796249Y-89834153D01*
X141800955Y-89835205D01*
X141803914Y-89835904D01*
X141882802Y-89855573D01*
X141889623Y-89855763D01*
X141892926Y-89856216D01*
X141893808Y-89856375D01*
X141898701Y-89857054D01*
X141903740Y-89858180D01*
X141909463Y-89858500D01*
X141985829Y-89858500D01*
X141989347Y-89858549D01*
X142062437Y-89860591D01*
X142062442Y-89860591D01*
X142069257Y-89860781D01*
X142075958Y-89859503D01*
X142082762Y-89858955D01*
X142082804Y-89859475D01*
X142093125Y-89858500D01*
X142738774Y-89858500D01*
X142806895Y-89878502D01*
X142833940Y-89901920D01*
X142899477Y-89977445D01*
X142903608Y-89980832D01*
X143073627Y-90120240D01*
X143073633Y-90120244D01*
X143077755Y-90123624D01*
X143082391Y-90126263D01*
X143082394Y-90126265D01*
X143191422Y-90188327D01*
X143278114Y-90237675D01*
X143494825Y-90316337D01*
X143500074Y-90317286D01*
X143500077Y-90317287D01*
X143717608Y-90356623D01*
X143717615Y-90356624D01*
X143721692Y-90357361D01*
X143739414Y-90358197D01*
X143744356Y-90358430D01*
X143744363Y-90358430D01*
X143745844Y-90358500D01*
X144207890Y-90358500D01*
X144274809Y-90352822D01*
X144374409Y-90344371D01*
X144374413Y-90344370D01*
X144379720Y-90343920D01*
X144384875Y-90342582D01*
X144384881Y-90342581D01*
X144597703Y-90287343D01*
X144597707Y-90287342D01*
X144602872Y-90286001D01*
X144607738Y-90283809D01*
X144607741Y-90283808D01*
X144808202Y-90193507D01*
X144813075Y-90191312D01*
X145004319Y-90062559D01*
X145024133Y-90043658D01*
X145101705Y-89969657D01*
X145171135Y-89903424D01*
X145204560Y-89858500D01*
X145305568Y-89722740D01*
X145308754Y-89718458D01*
X145330050Y-89676573D01*
X145410822Y-89517704D01*
X145413240Y-89512949D01*
X145430549Y-89457207D01*
X145480024Y-89297871D01*
X145481607Y-89292773D01*
X145511898Y-89064226D01*
X145503249Y-88833842D01*
X145455907Y-88608209D01*
X145424309Y-88528197D01*
X145373185Y-88398744D01*
X145373184Y-88398742D01*
X145371224Y-88393779D01*
X145357453Y-88371084D01*
X145254390Y-88201243D01*
X145251623Y-88196683D01*
X145171767Y-88104657D01*
X145104023Y-88026588D01*
X145104021Y-88026586D01*
X145100523Y-88022555D01*
X145064880Y-87993330D01*
X145024886Y-87934671D01*
X145022954Y-87863701D01*
X145059698Y-87802952D01*
X145078468Y-87788752D01*
X145218120Y-87702332D01*
X145224348Y-87698478D01*
X145349305Y-87573303D01*
X145416667Y-87464022D01*
X145438275Y-87428968D01*
X145438276Y-87428966D01*
X145442115Y-87422738D01*
X145497797Y-87254861D01*
X145508500Y-87150400D01*
X145508500Y-85849600D01*
X145505568Y-85821342D01*
X145498238Y-85750692D01*
X145498237Y-85750688D01*
X145497526Y-85743834D01*
X145491599Y-85726067D01*
X145443868Y-85583002D01*
X145441550Y-85576054D01*
X145348478Y-85425652D01*
X145223303Y-85300695D01*
X145217072Y-85296854D01*
X145078968Y-85211725D01*
X145078966Y-85211724D01*
X145072738Y-85207885D01*
X144912254Y-85154655D01*
X144911389Y-85154368D01*
X144911387Y-85154368D01*
X144904861Y-85152203D01*
X144898025Y-85151503D01*
X144898022Y-85151502D01*
X144854969Y-85147091D01*
X144800400Y-85141500D01*
X143199600Y-85141500D01*
X143196354Y-85141837D01*
X143196350Y-85141837D01*
X143100692Y-85151762D01*
X143100688Y-85151763D01*
X143093834Y-85152474D01*
X143087298Y-85154655D01*
X143087296Y-85154655D01*
X143017317Y-85178002D01*
X142926054Y-85208450D01*
X142775652Y-85301522D01*
X142650695Y-85426697D01*
X142646855Y-85432927D01*
X142646854Y-85432928D01*
X142575400Y-85548848D01*
X142557885Y-85577262D01*
X142555581Y-85584209D01*
X142511943Y-85715775D01*
X142502203Y-85745139D01*
X142491500Y-85849600D01*
X142491500Y-87150400D01*
X142491837Y-87153646D01*
X142491837Y-87153650D01*
X142500389Y-87236067D01*
X142502474Y-87256166D01*
X142558450Y-87423946D01*
X142651522Y-87574348D01*
X142776697Y-87699305D01*
X142922340Y-87789081D01*
X142969832Y-87841852D01*
X142981256Y-87911924D01*
X142952982Y-87977048D01*
X142943195Y-87987510D01*
X142828865Y-88096576D01*
X142826840Y-88099298D01*
X142767215Y-88136755D01*
X142732963Y-88141500D01*
X142407793Y-88141500D01*
X142339672Y-88121498D01*
X142318698Y-88104595D01*
X141895405Y-87681302D01*
X141861379Y-87618990D01*
X141858500Y-87592207D01*
X141858500Y-86041390D01*
X141858942Y-86030847D01*
X141862733Y-85985699D01*
X141863304Y-85978901D01*
X141852563Y-85898398D01*
X141852193Y-85895343D01*
X141844153Y-85821342D01*
X141843417Y-85814563D01*
X141841242Y-85808099D01*
X141840522Y-85804824D01*
X141840452Y-85804428D01*
X141840329Y-85804004D01*
X141839538Y-85800784D01*
X141838634Y-85794011D01*
X141810851Y-85717677D01*
X141809844Y-85714802D01*
X141803593Y-85696227D01*
X141783922Y-85637777D01*
X141780404Y-85631923D01*
X141779015Y-85628916D01*
X141778848Y-85628511D01*
X141778643Y-85628135D01*
X141777173Y-85625148D01*
X141774838Y-85618732D01*
X141731270Y-85550080D01*
X141729745Y-85547611D01*
X141687853Y-85477891D01*
X141683166Y-85472934D01*
X141681149Y-85470277D01*
X141680631Y-85469531D01*
X141677657Y-85465600D01*
X141674891Y-85461241D01*
X141671070Y-85456968D01*
X141669819Y-85455717D01*
X141669807Y-85455704D01*
X141617073Y-85402970D01*
X141614655Y-85400485D01*
X141559692Y-85342364D01*
X141554051Y-85338531D01*
X141548853Y-85334107D01*
X141549193Y-85333708D01*
X141541200Y-85327098D01*
X140216320Y-84002217D01*
X140209177Y-83994450D01*
X140179935Y-83959847D01*
X140175529Y-83954633D01*
X140111031Y-83905321D01*
X140108615Y-83903427D01*
X140050583Y-83856768D01*
X140050582Y-83856767D01*
X140045262Y-83852490D01*
X140039143Y-83849453D01*
X140036348Y-83847665D01*
X140035987Y-83847412D01*
X140035620Y-83847210D01*
X140032762Y-83845479D01*
X140027348Y-83841340D01*
X139953736Y-83807014D01*
X139950964Y-83805680D01*
X139884296Y-83772586D01*
X139878186Y-83769553D01*
X139871565Y-83767902D01*
X139868437Y-83766751D01*
X139868044Y-83766587D01*
X139867639Y-83766468D01*
X139864475Y-83765391D01*
X139858296Y-83762510D01*
X139779000Y-83744785D01*
X139776002Y-83744076D01*
X139703821Y-83726079D01*
X139703820Y-83726079D01*
X139697199Y-83724428D01*
X139690378Y-83724237D01*
X139687075Y-83723785D01*
X139686191Y-83723626D01*
X139681308Y-83722948D01*
X139676260Y-83721820D01*
X139670537Y-83721500D01*
X139594156Y-83721500D01*
X139590637Y-83721451D01*
X139510743Y-83719219D01*
X139504039Y-83720498D01*
X139497238Y-83721045D01*
X139497196Y-83720525D01*
X139486875Y-83721500D01*
X138794188Y-83721500D01*
X138726067Y-83701498D01*
X138705093Y-83684595D01*
X138594300Y-83573802D01*
X138589792Y-83570645D01*
X138589789Y-83570643D01*
X138484194Y-83496705D01*
X138406749Y-83442477D01*
X138401767Y-83440154D01*
X138401762Y-83440151D01*
X138204225Y-83348039D01*
X138204224Y-83348039D01*
X138199243Y-83345716D01*
X138193935Y-83344294D01*
X138193933Y-83344293D01*
X137983402Y-83287881D01*
X137983400Y-83287881D01*
X137978087Y-83286457D01*
X137750000Y-83266502D01*
X137521913Y-83286457D01*
X137516600Y-83287881D01*
X137516598Y-83287881D01*
X137306067Y-83344293D01*
X137306065Y-83344294D01*
X137300757Y-83345716D01*
X137295776Y-83348039D01*
X137295775Y-83348039D01*
X137098238Y-83440151D01*
X137098233Y-83440154D01*
X137093251Y-83442477D01*
X137015806Y-83496705D01*
X136910211Y-83570643D01*
X136910208Y-83570645D01*
X136905700Y-83573802D01*
X136743802Y-83735700D01*
X136740645Y-83740208D01*
X136740643Y-83740211D01*
X136722167Y-83766598D01*
X136612477Y-83923251D01*
X136610154Y-83928233D01*
X136610151Y-83928238D01*
X136546600Y-84064525D01*
X136515716Y-84130757D01*
X136514294Y-84136065D01*
X136514293Y-84136067D01*
X136457881Y-84346598D01*
X136456457Y-84351913D01*
X136436502Y-84580000D01*
X134423312Y-84580000D01*
X134481961Y-84454225D01*
X134481961Y-84454224D01*
X134484284Y-84449243D01*
X134524787Y-84298087D01*
X134542119Y-84233402D01*
X134542119Y-84233400D01*
X134543543Y-84228087D01*
X134563498Y-84000000D01*
X134543543Y-83771913D01*
X134542084Y-83766468D01*
X134485707Y-83556067D01*
X134485706Y-83556065D01*
X134484284Y-83550757D01*
X134462430Y-83503891D01*
X134389849Y-83348238D01*
X134389846Y-83348233D01*
X134387523Y-83343251D01*
X134256198Y-83155700D01*
X134094300Y-82993802D01*
X134089792Y-82990645D01*
X134089789Y-82990643D01*
X133916006Y-82868959D01*
X133906749Y-82862477D01*
X133901767Y-82860154D01*
X133901762Y-82860151D01*
X133704225Y-82768039D01*
X133704224Y-82768039D01*
X133699243Y-82765716D01*
X133693935Y-82764294D01*
X133693933Y-82764293D01*
X133673473Y-82758811D01*
X133616989Y-82726199D01*
X133262812Y-82372022D01*
X133248868Y-82364408D01*
X133247035Y-82364539D01*
X133240420Y-82368790D01*
X132883011Y-82726199D01*
X132826527Y-82758811D01*
X132806067Y-82764293D01*
X132806065Y-82764294D01*
X132800757Y-82765716D01*
X132795776Y-82768039D01*
X132795775Y-82768039D01*
X132598238Y-82860151D01*
X132598233Y-82860154D01*
X132593251Y-82862477D01*
X132583994Y-82868959D01*
X132410211Y-82990643D01*
X132410208Y-82990645D01*
X132405700Y-82993802D01*
X132294907Y-83104595D01*
X132232595Y-83138621D01*
X132205812Y-83141500D01*
X130044188Y-83141500D01*
X129976067Y-83121498D01*
X129955093Y-83104595D01*
X129914300Y-83063802D01*
X129909792Y-83060645D01*
X129909789Y-83060643D01*
X129738801Y-82940916D01*
X129726749Y-82932477D01*
X129721767Y-82930154D01*
X129721762Y-82930151D01*
X129687543Y-82914195D01*
X129634258Y-82867278D01*
X129614797Y-82799001D01*
X129635339Y-82731041D01*
X129687543Y-82685805D01*
X129721762Y-82669849D01*
X129721767Y-82669846D01*
X129726749Y-82667523D01*
X129831611Y-82594098D01*
X129909789Y-82539357D01*
X129909792Y-82539355D01*
X129914300Y-82536198D01*
X130076198Y-82374300D01*
X130080057Y-82368790D01*
X130169168Y-82241525D01*
X130207523Y-82186749D01*
X130209846Y-82181767D01*
X130209849Y-82181762D01*
X130292052Y-82005475D01*
X131937483Y-82005475D01*
X131956472Y-82222519D01*
X131958375Y-82233312D01*
X132014764Y-82443761D01*
X132018510Y-82454053D01*
X132110586Y-82651511D01*
X132116069Y-82661006D01*
X132152509Y-82713048D01*
X132162988Y-82721424D01*
X132176434Y-82714356D01*
X132877978Y-82012812D01*
X132884356Y-82001132D01*
X133614408Y-82001132D01*
X133614539Y-82002965D01*
X133618790Y-82009580D01*
X134324287Y-82715077D01*
X134336062Y-82721507D01*
X134348077Y-82712211D01*
X134383931Y-82661006D01*
X134389414Y-82651511D01*
X134481490Y-82454053D01*
X134485236Y-82443761D01*
X134541625Y-82233312D01*
X134543528Y-82222519D01*
X134562517Y-82005475D01*
X134562517Y-81994525D01*
X134543528Y-81777481D01*
X134541625Y-81766688D01*
X134485236Y-81556239D01*
X134481490Y-81545947D01*
X134389414Y-81348489D01*
X134383931Y-81338994D01*
X134347491Y-81286952D01*
X134337012Y-81278576D01*
X134323566Y-81285644D01*
X133622022Y-81987188D01*
X133614408Y-82001132D01*
X132884356Y-82001132D01*
X132885592Y-81998868D01*
X132885461Y-81997035D01*
X132881210Y-81990420D01*
X132175713Y-81284923D01*
X132163938Y-81278493D01*
X132151923Y-81287789D01*
X132116069Y-81338994D01*
X132110586Y-81348489D01*
X132018510Y-81545947D01*
X132014764Y-81556239D01*
X131958375Y-81766688D01*
X131956472Y-81777481D01*
X131937483Y-81994525D01*
X131937483Y-82005475D01*
X130292052Y-82005475D01*
X130301961Y-81984225D01*
X130301961Y-81984224D01*
X130304284Y-81979243D01*
X130358347Y-81777481D01*
X130362119Y-81763402D01*
X130362119Y-81763400D01*
X130363543Y-81758087D01*
X130383498Y-81530000D01*
X130363543Y-81301913D01*
X130362021Y-81296233D01*
X130305707Y-81086067D01*
X130305706Y-81086065D01*
X130304284Y-81080757D01*
X130284734Y-81038831D01*
X130226053Y-80912988D01*
X132528576Y-80912988D01*
X132535644Y-80926434D01*
X133237188Y-81627978D01*
X133251132Y-81635592D01*
X133252965Y-81635461D01*
X133259580Y-81631210D01*
X133965077Y-80925713D01*
X133971507Y-80913938D01*
X133962211Y-80901923D01*
X133911006Y-80866069D01*
X133901511Y-80860586D01*
X133704053Y-80768510D01*
X133693761Y-80764764D01*
X133483312Y-80708375D01*
X133472519Y-80706472D01*
X133255475Y-80687483D01*
X133244525Y-80687483D01*
X133027481Y-80706472D01*
X133016688Y-80708375D01*
X132806239Y-80764764D01*
X132795947Y-80768510D01*
X132598489Y-80860586D01*
X132588994Y-80866069D01*
X132536952Y-80902509D01*
X132528576Y-80912988D01*
X130226053Y-80912988D01*
X130209849Y-80878238D01*
X130209846Y-80878233D01*
X130207523Y-80873251D01*
X130131559Y-80764764D01*
X130079357Y-80690211D01*
X130079355Y-80690208D01*
X130076198Y-80685700D01*
X129914300Y-80523802D01*
X129909792Y-80520645D01*
X129909789Y-80520643D01*
X129831611Y-80465902D01*
X129726749Y-80392477D01*
X129721767Y-80390154D01*
X129721762Y-80390151D01*
X129687543Y-80374195D01*
X129634258Y-80327278D01*
X129614797Y-80259001D01*
X129635339Y-80191041D01*
X129687543Y-80145805D01*
X129721762Y-80129849D01*
X129721767Y-80129846D01*
X129726749Y-80127523D01*
X129831611Y-80054098D01*
X129909789Y-79999357D01*
X129909792Y-79999355D01*
X129914300Y-79996198D01*
X130076198Y-79834300D01*
X130082560Y-79825215D01*
X130160971Y-79713232D01*
X130207523Y-79646749D01*
X130209846Y-79641767D01*
X130209849Y-79641762D01*
X130301961Y-79444225D01*
X130301961Y-79444224D01*
X130304284Y-79439243D01*
X130363543Y-79218087D01*
X130383498Y-78990000D01*
X130363543Y-78761913D01*
X130357065Y-78737738D01*
X130305707Y-78546067D01*
X130305706Y-78546065D01*
X130304284Y-78540757D01*
X130276341Y-78480832D01*
X130209849Y-78338238D01*
X130209846Y-78338233D01*
X130207523Y-78333251D01*
X130076198Y-78145700D01*
X129914300Y-77983802D01*
X129909792Y-77980645D01*
X129909789Y-77980643D01*
X129831045Y-77925506D01*
X129726749Y-77852477D01*
X129721767Y-77850154D01*
X129721762Y-77850151D01*
X129687543Y-77834195D01*
X129634258Y-77787278D01*
X129614797Y-77719001D01*
X129635339Y-77651041D01*
X129687543Y-77605805D01*
X129721762Y-77589849D01*
X129721767Y-77589846D01*
X129726749Y-77587523D01*
X129868805Y-77488054D01*
X129909789Y-77459357D01*
X129909792Y-77459355D01*
X129914300Y-77456198D01*
X130076198Y-77294300D01*
X130089953Y-77274657D01*
X130140737Y-77202129D01*
X130207523Y-77106749D01*
X130209846Y-77101767D01*
X130209849Y-77101762D01*
X130301961Y-76904225D01*
X130301961Y-76904224D01*
X130304284Y-76899243D01*
X130306971Y-76889217D01*
X130362119Y-76683402D01*
X130362119Y-76683400D01*
X130363543Y-76678087D01*
X130383498Y-76450000D01*
X130363543Y-76221913D01*
X130361393Y-76213889D01*
X130305707Y-76006067D01*
X130305706Y-76006065D01*
X130304284Y-76000757D01*
X130271372Y-75930176D01*
X130209849Y-75798238D01*
X130209846Y-75798233D01*
X130207523Y-75793251D01*
X130134098Y-75688389D01*
X130079357Y-75610211D01*
X130079355Y-75610208D01*
X130076198Y-75605700D01*
X129914300Y-75443802D01*
X129909792Y-75440645D01*
X129909789Y-75440643D01*
X129778522Y-75348729D01*
X129726749Y-75312477D01*
X129721767Y-75310154D01*
X129721762Y-75310151D01*
X129524225Y-75218039D01*
X129524224Y-75218039D01*
X129519243Y-75215716D01*
X129513935Y-75214294D01*
X129513933Y-75214293D01*
X129303402Y-75157881D01*
X129303400Y-75157881D01*
X129298087Y-75156457D01*
X129070000Y-75136502D01*
X128841913Y-75156457D01*
X128836600Y-75157881D01*
X128836598Y-75157881D01*
X128626067Y-75214293D01*
X128626065Y-75214294D01*
X128620757Y-75215716D01*
X128615776Y-75218039D01*
X128615775Y-75218039D01*
X128418238Y-75310151D01*
X128418233Y-75310154D01*
X128413251Y-75312477D01*
X128408744Y-75315633D01*
X128408742Y-75315634D01*
X128306771Y-75387035D01*
X128239497Y-75409723D01*
X128170636Y-75392438D01*
X128122052Y-75340668D01*
X128108500Y-75283822D01*
X128108500Y-71984500D01*
X128128502Y-71916379D01*
X128182158Y-71869886D01*
X128234500Y-71858500D01*
X131035812Y-71858500D01*
X131103933Y-71878502D01*
X131124907Y-71895405D01*
X131235700Y-72006198D01*
X131240208Y-72009355D01*
X131240211Y-72009357D01*
X131318389Y-72064098D01*
X131423251Y-72137523D01*
X131428233Y-72139846D01*
X131428238Y-72139849D01*
X131625775Y-72231961D01*
X131630757Y-72234284D01*
X131636065Y-72235706D01*
X131636067Y-72235707D01*
X131846598Y-72292119D01*
X131846600Y-72292119D01*
X131851913Y-72293543D01*
X132080000Y-72313498D01*
X132308087Y-72293543D01*
X132313400Y-72292119D01*
X132313402Y-72292119D01*
X132523933Y-72235707D01*
X132523935Y-72235706D01*
X132529243Y-72234284D01*
X132534225Y-72231961D01*
X132731762Y-72139849D01*
X132731767Y-72139846D01*
X132736749Y-72137523D01*
X132841611Y-72064098D01*
X132919789Y-72009357D01*
X132919792Y-72009355D01*
X132924300Y-72006198D01*
X133086198Y-71844300D01*
X133217523Y-71656749D01*
X133219846Y-71651767D01*
X133219849Y-71651762D01*
X133311961Y-71454225D01*
X133311961Y-71454224D01*
X133314284Y-71449243D01*
X133332139Y-71382610D01*
X133372119Y-71233402D01*
X133372119Y-71233400D01*
X133373543Y-71228087D01*
X133389979Y-71040222D01*
X133405328Y-71000981D01*
X133394604Y-70984294D01*
X133389979Y-70959778D01*
X133389018Y-70948796D01*
X133373543Y-70771913D01*
X133336296Y-70632906D01*
X133337986Y-70561931D01*
X133377780Y-70503135D01*
X133443044Y-70475187D01*
X133513058Y-70486960D01*
X133547098Y-70511201D01*
X133604595Y-70568698D01*
X133638621Y-70631010D01*
X133641500Y-70657793D01*
X133641500Y-70948796D01*
X133625999Y-71001587D01*
X133639030Y-71026378D01*
X133641500Y-71051204D01*
X133641500Y-76208610D01*
X133641058Y-76219152D01*
X133636696Y-76271099D01*
X133637598Y-76277859D01*
X133637598Y-76277861D01*
X133647437Y-76351602D01*
X133647807Y-76354657D01*
X133656583Y-76435437D01*
X133658758Y-76441901D01*
X133659478Y-76445176D01*
X133659548Y-76445572D01*
X133659671Y-76445996D01*
X133660462Y-76449216D01*
X133661366Y-76455989D01*
X133684362Y-76519170D01*
X133689139Y-76532294D01*
X133690156Y-76535198D01*
X133696407Y-76553773D01*
X133716078Y-76612223D01*
X133719596Y-76618077D01*
X133720985Y-76621084D01*
X133721152Y-76621489D01*
X133721357Y-76621865D01*
X133722827Y-76624852D01*
X133725162Y-76631268D01*
X133768730Y-76699920D01*
X133770255Y-76702389D01*
X133812147Y-76772109D01*
X133816834Y-76777066D01*
X133818851Y-76779723D01*
X133819369Y-76780469D01*
X133822344Y-76784402D01*
X133825109Y-76788759D01*
X133828930Y-76793032D01*
X133882908Y-76847010D01*
X133885362Y-76849532D01*
X133940308Y-76907636D01*
X133945956Y-76911474D01*
X133951148Y-76915893D01*
X133950808Y-76916293D01*
X133958800Y-76922902D01*
X135786930Y-78751033D01*
X137613680Y-80577783D01*
X137620822Y-80585549D01*
X137654471Y-80625367D01*
X137659895Y-80629514D01*
X137659896Y-80629515D01*
X137688649Y-80651498D01*
X137714811Y-80671500D01*
X137718962Y-80674674D01*
X137721385Y-80676573D01*
X137773480Y-80718458D01*
X137784738Y-80727510D01*
X137790857Y-80730547D01*
X137793652Y-80732335D01*
X137794013Y-80732588D01*
X137794380Y-80732790D01*
X137797238Y-80734521D01*
X137802652Y-80738660D01*
X137858632Y-80764764D01*
X137876262Y-80772985D01*
X137879033Y-80774319D01*
X137951814Y-80810447D01*
X137958435Y-80812098D01*
X137961563Y-80813249D01*
X137961956Y-80813413D01*
X137962361Y-80813532D01*
X137965525Y-80814609D01*
X137971704Y-80817490D01*
X138045498Y-80833985D01*
X138051002Y-80835215D01*
X138054000Y-80835924D01*
X138132801Y-80855572D01*
X138139622Y-80855763D01*
X138142925Y-80856215D01*
X138143809Y-80856374D01*
X138148692Y-80857052D01*
X138153740Y-80858180D01*
X138159463Y-80858500D01*
X138235844Y-80858500D01*
X138239363Y-80858549D01*
X138319257Y-80860781D01*
X138325961Y-80859502D01*
X138332762Y-80858955D01*
X138332804Y-80859475D01*
X138343125Y-80858500D01*
X142763774Y-80858500D01*
X142831895Y-80878502D01*
X142858940Y-80901920D01*
X142924477Y-80977445D01*
X142928608Y-80980832D01*
X143098627Y-81120240D01*
X143098633Y-81120244D01*
X143102755Y-81123624D01*
X143107391Y-81126263D01*
X143107394Y-81126265D01*
X143186903Y-81171524D01*
X143303114Y-81237675D01*
X143519825Y-81316337D01*
X143525074Y-81317286D01*
X143525077Y-81317287D01*
X143742608Y-81356623D01*
X143742615Y-81356624D01*
X143746692Y-81357361D01*
X143764414Y-81358197D01*
X143769356Y-81358430D01*
X143769363Y-81358430D01*
X143770844Y-81358500D01*
X144182890Y-81358500D01*
X144249809Y-81352822D01*
X144349409Y-81344371D01*
X144349413Y-81344370D01*
X144354720Y-81343920D01*
X144359875Y-81342582D01*
X144359881Y-81342581D01*
X144572703Y-81287343D01*
X144572707Y-81287342D01*
X144577872Y-81286001D01*
X144582738Y-81283809D01*
X144582741Y-81283808D01*
X144783202Y-81193507D01*
X144788075Y-81191312D01*
X144979319Y-81062559D01*
X145004193Y-81038831D01*
X145122770Y-80925713D01*
X145146135Y-80903424D01*
X145160237Y-80884471D01*
X145280568Y-80722740D01*
X145283754Y-80718458D01*
X145288881Y-80708375D01*
X145377354Y-80534360D01*
X145388240Y-80512949D01*
X145393021Y-80497554D01*
X145455024Y-80297871D01*
X145456607Y-80292773D01*
X145468796Y-80200808D01*
X145486198Y-80069511D01*
X145486198Y-80069506D01*
X145486898Y-80064226D01*
X145485029Y-80014428D01*
X145478719Y-79846374D01*
X145478249Y-79833842D01*
X145430907Y-79608209D01*
X145428948Y-79603248D01*
X145348185Y-79398744D01*
X145348184Y-79398742D01*
X145346224Y-79393779D01*
X145226623Y-79196683D01*
X145161381Y-79121498D01*
X145079023Y-79026588D01*
X145079021Y-79026586D01*
X145075523Y-79022555D01*
X144995735Y-78957133D01*
X144901373Y-78879760D01*
X144901367Y-78879756D01*
X144897245Y-78876376D01*
X144865750Y-78858448D01*
X144816445Y-78807368D01*
X144802583Y-78737738D01*
X144828566Y-78671667D01*
X144857716Y-78644427D01*
X144893642Y-78620240D01*
X144979319Y-78562559D01*
X145002174Y-78540757D01*
X145125717Y-78422902D01*
X145146135Y-78403424D01*
X145283754Y-78218458D01*
X145293213Y-78199855D01*
X145376928Y-78035198D01*
X145388240Y-78012949D01*
X145396081Y-77987699D01*
X145455024Y-77797871D01*
X145456607Y-77792773D01*
X145460381Y-77764301D01*
X145486198Y-77569511D01*
X145486198Y-77569506D01*
X145486898Y-77564226D01*
X145486045Y-77541489D01*
X145479831Y-77375989D01*
X145478249Y-77333842D01*
X145430907Y-77108209D01*
X145381181Y-76982296D01*
X145348185Y-76898744D01*
X145348184Y-76898742D01*
X145346224Y-76893779D01*
X145226623Y-76696683D01*
X145169859Y-76631268D01*
X145079023Y-76526588D01*
X145079021Y-76526586D01*
X145075523Y-76522555D01*
X145039880Y-76493330D01*
X144999886Y-76434671D01*
X144997954Y-76363701D01*
X145034698Y-76302952D01*
X145053468Y-76288752D01*
X145193120Y-76202332D01*
X145199348Y-76198478D01*
X145324305Y-76073303D01*
X145387053Y-75971507D01*
X145413275Y-75928968D01*
X145413276Y-75928966D01*
X145417115Y-75922738D01*
X145472797Y-75754861D01*
X145483500Y-75650400D01*
X145483500Y-74349600D01*
X145481321Y-74328601D01*
X145473238Y-74250692D01*
X145473237Y-74250688D01*
X145472526Y-74243834D01*
X145442058Y-74152509D01*
X145418868Y-74083002D01*
X145416550Y-74076054D01*
X145323478Y-73925652D01*
X145198303Y-73800695D01*
X145157843Y-73775755D01*
X145053968Y-73711725D01*
X145053966Y-73711724D01*
X145047738Y-73707885D01*
X144887254Y-73654655D01*
X144886389Y-73654368D01*
X144886387Y-73654368D01*
X144879861Y-73652203D01*
X144873025Y-73651503D01*
X144873022Y-73651502D01*
X144829969Y-73647091D01*
X144775400Y-73641500D01*
X143224600Y-73641500D01*
X143221354Y-73641837D01*
X143221350Y-73641837D01*
X143125692Y-73651762D01*
X143125688Y-73651763D01*
X143118834Y-73652474D01*
X143112298Y-73654655D01*
X143112296Y-73654655D01*
X142980194Y-73698728D01*
X142951054Y-73708450D01*
X142800652Y-73801522D01*
X142675695Y-73926697D01*
X142671855Y-73932927D01*
X142671854Y-73932928D01*
X142620823Y-74015716D01*
X142582885Y-74077262D01*
X142580581Y-74084209D01*
X142543040Y-74197393D01*
X142527203Y-74245139D01*
X142516500Y-74349600D01*
X142516500Y-75650400D01*
X142516837Y-75653646D01*
X142516837Y-75653650D01*
X142523052Y-75713543D01*
X142527474Y-75756166D01*
X142529655Y-75762702D01*
X142529655Y-75762704D01*
X142541510Y-75798238D01*
X142583450Y-75923946D01*
X142676522Y-76074348D01*
X142801697Y-76199305D01*
X142807927Y-76203145D01*
X142807928Y-76203146D01*
X142829751Y-76216598D01*
X142947340Y-76289081D01*
X142994832Y-76341852D01*
X143006256Y-76411924D01*
X142977982Y-76477048D01*
X142968195Y-76487510D01*
X142853865Y-76596576D01*
X142716246Y-76781542D01*
X142713830Y-76786293D01*
X142713828Y-76786297D01*
X142682960Y-76847010D01*
X142611760Y-76987051D01*
X142610178Y-76992145D01*
X142610177Y-76992148D01*
X142567804Y-77128610D01*
X142543393Y-77207227D01*
X142542692Y-77212516D01*
X142521026Y-77375989D01*
X142513102Y-77435774D01*
X142521751Y-77666158D01*
X142522846Y-77671377D01*
X142531586Y-77713032D01*
X142569093Y-77891791D01*
X142571051Y-77896750D01*
X142571052Y-77896752D01*
X142649185Y-78094595D01*
X142653776Y-78106221D01*
X142656543Y-78110780D01*
X142656544Y-78110783D01*
X142711382Y-78201152D01*
X142773377Y-78303317D01*
X142776874Y-78307347D01*
X142863438Y-78407103D01*
X142924477Y-78477445D01*
X142928608Y-78480832D01*
X143098627Y-78620240D01*
X143098633Y-78620244D01*
X143102755Y-78623624D01*
X143134250Y-78641552D01*
X143183555Y-78692632D01*
X143197417Y-78762262D01*
X143171434Y-78828333D01*
X143142284Y-78855573D01*
X143020681Y-78937441D01*
X143016824Y-78941120D01*
X143016822Y-78941122D01*
X142971334Y-78984516D01*
X142853865Y-79096576D01*
X142851840Y-79099298D01*
X142792215Y-79136755D01*
X142757963Y-79141500D01*
X138657793Y-79141500D01*
X138589672Y-79121498D01*
X138568698Y-79104595D01*
X135395405Y-75931302D01*
X135361379Y-75868990D01*
X135358500Y-75842207D01*
X135358500Y-71930443D01*
X135378502Y-71862322D01*
X135432158Y-71815829D01*
X135502432Y-71805725D01*
X135567012Y-71835219D01*
X135598695Y-71877194D01*
X135610149Y-71901758D01*
X135610153Y-71901764D01*
X135612477Y-71906749D01*
X135743802Y-72094300D01*
X135854595Y-72205093D01*
X135888621Y-72267405D01*
X135891500Y-72294188D01*
X135891500Y-73378610D01*
X135891058Y-73389152D01*
X135886696Y-73441099D01*
X135887598Y-73447859D01*
X135887598Y-73447861D01*
X135897437Y-73521602D01*
X135897807Y-73524657D01*
X135906583Y-73605437D01*
X135908758Y-73611901D01*
X135909478Y-73615176D01*
X135909548Y-73615572D01*
X135909671Y-73615996D01*
X135910462Y-73619216D01*
X135911366Y-73625989D01*
X135921800Y-73654655D01*
X135939139Y-73702294D01*
X135940156Y-73705198D01*
X135942353Y-73711725D01*
X135966078Y-73782223D01*
X135969596Y-73788077D01*
X135970985Y-73791084D01*
X135971152Y-73791489D01*
X135971357Y-73791865D01*
X135972827Y-73794852D01*
X135975162Y-73801268D01*
X136018730Y-73869920D01*
X136020255Y-73872389D01*
X136062147Y-73942109D01*
X136066834Y-73947066D01*
X136068851Y-73949723D01*
X136069369Y-73950469D01*
X136072344Y-73954402D01*
X136075109Y-73958759D01*
X136078930Y-73963032D01*
X136132909Y-74017011D01*
X136135363Y-74019533D01*
X136190308Y-74077636D01*
X136195956Y-74081474D01*
X136201148Y-74085893D01*
X136200808Y-74086293D01*
X136208797Y-74092900D01*
X136402952Y-74287055D01*
X136436978Y-74349367D01*
X136439377Y-74387133D01*
X136436981Y-74414516D01*
X136436981Y-74414525D01*
X136436502Y-74420000D01*
X136456457Y-74648087D01*
X136515716Y-74869243D01*
X136518039Y-74874224D01*
X136518039Y-74874225D01*
X136610151Y-75071762D01*
X136610154Y-75071767D01*
X136612477Y-75076749D01*
X136670851Y-75160116D01*
X136737623Y-75255475D01*
X136743802Y-75264300D01*
X136905700Y-75426198D01*
X136910208Y-75429355D01*
X136910211Y-75429357D01*
X136971853Y-75472519D01*
X137093251Y-75557523D01*
X137098233Y-75559846D01*
X137098238Y-75559849D01*
X137295775Y-75651961D01*
X137300757Y-75654284D01*
X137306065Y-75655706D01*
X137306067Y-75655707D01*
X137516598Y-75712119D01*
X137516600Y-75712119D01*
X137521913Y-75713543D01*
X137750000Y-75733498D01*
X137978087Y-75713543D01*
X137983400Y-75712119D01*
X137983402Y-75712119D01*
X138193933Y-75655707D01*
X138193935Y-75655706D01*
X138199243Y-75654284D01*
X138204225Y-75651961D01*
X138401762Y-75559849D01*
X138401767Y-75559846D01*
X138406749Y-75557523D01*
X138528147Y-75472519D01*
X138589789Y-75429357D01*
X138589792Y-75429355D01*
X138594300Y-75426198D01*
X138756198Y-75264300D01*
X138762378Y-75255475D01*
X138829149Y-75160116D01*
X138887523Y-75076749D01*
X138889846Y-75071767D01*
X138889849Y-75071762D01*
X138981961Y-74874225D01*
X138981961Y-74874224D01*
X138984284Y-74869243D01*
X139043543Y-74648087D01*
X139063498Y-74420000D01*
X139043543Y-74191913D01*
X139042119Y-74186598D01*
X138985707Y-73976067D01*
X138985706Y-73976065D01*
X138984284Y-73970757D01*
X138977616Y-73956457D01*
X138889849Y-73768238D01*
X138889846Y-73768233D01*
X138887523Y-73763251D01*
X138802508Y-73641837D01*
X138759357Y-73580211D01*
X138759355Y-73580208D01*
X138756198Y-73575700D01*
X138594300Y-73413802D01*
X138589792Y-73410645D01*
X138589789Y-73410643D01*
X138511611Y-73355902D01*
X138406749Y-73282477D01*
X138401767Y-73280154D01*
X138401762Y-73280151D01*
X138204225Y-73188039D01*
X138204224Y-73188039D01*
X138199243Y-73185716D01*
X138193935Y-73184294D01*
X138193933Y-73184293D01*
X137983402Y-73127881D01*
X137983400Y-73127881D01*
X137978087Y-73126457D01*
X137750000Y-73106502D01*
X137744525Y-73106981D01*
X137739019Y-73106981D01*
X137739019Y-73105600D01*
X137675868Y-73092903D01*
X137624880Y-73043500D01*
X137608500Y-72981376D01*
X137608500Y-72294188D01*
X137628502Y-72226067D01*
X137645405Y-72205093D01*
X137756198Y-72094300D01*
X137887523Y-71906749D01*
X137889846Y-71901767D01*
X137889849Y-71901762D01*
X137981961Y-71704225D01*
X137981961Y-71704224D01*
X137984284Y-71699243D01*
X137994463Y-71661257D01*
X138042119Y-71483402D01*
X138042119Y-71483400D01*
X138043543Y-71478087D01*
X138063498Y-71250000D01*
X138043543Y-71021913D01*
X138039141Y-71005484D01*
X137985707Y-70806067D01*
X137985706Y-70806065D01*
X137984284Y-70800757D01*
X137935227Y-70695553D01*
X137889849Y-70598238D01*
X137889846Y-70598233D01*
X137887523Y-70593251D01*
X137813097Y-70486960D01*
X137759357Y-70410211D01*
X137759355Y-70410208D01*
X137756198Y-70405700D01*
X137689593Y-70339095D01*
X137655567Y-70276783D01*
X137660632Y-70205968D01*
X137689593Y-70160905D01*
X137756198Y-70094300D01*
X137772274Y-70071342D01*
X137884366Y-69911257D01*
X137887523Y-69906749D01*
X137889846Y-69901767D01*
X137889849Y-69901762D01*
X137981961Y-69704225D01*
X137981961Y-69704224D01*
X137984284Y-69699243D01*
X137996683Y-69652972D01*
X138042119Y-69483402D01*
X138042119Y-69483400D01*
X138043543Y-69478087D01*
X138063498Y-69250000D01*
X138043543Y-69021913D01*
X138036376Y-68995164D01*
X137985707Y-68806067D01*
X137985706Y-68806065D01*
X137984284Y-68800757D01*
X137903961Y-68628502D01*
X137889849Y-68598238D01*
X137889846Y-68598233D01*
X137887523Y-68593251D01*
X137756198Y-68405700D01*
X137594300Y-68243802D01*
X137589792Y-68240645D01*
X137589789Y-68240643D01*
X137511611Y-68185902D01*
X137406749Y-68112477D01*
X137401767Y-68110154D01*
X137401762Y-68110151D01*
X137204225Y-68018039D01*
X137204224Y-68018039D01*
X137199243Y-68015716D01*
X137193935Y-68014294D01*
X137193933Y-68014293D01*
X136983402Y-67957881D01*
X136983400Y-67957881D01*
X136978087Y-67956457D01*
X136750000Y-67936502D01*
X136521913Y-67956457D01*
X136516600Y-67957881D01*
X136516598Y-67957881D01*
X136306067Y-68014293D01*
X136306065Y-68014294D01*
X136300757Y-68015716D01*
X136295776Y-68018039D01*
X136295775Y-68018039D01*
X136098238Y-68110151D01*
X136098233Y-68110154D01*
X136093251Y-68112477D01*
X135988389Y-68185902D01*
X135910211Y-68240643D01*
X135910208Y-68240645D01*
X135905700Y-68243802D01*
X135743802Y-68405700D01*
X135612477Y-68593251D01*
X135610154Y-68598233D01*
X135610151Y-68598238D01*
X135596039Y-68628502D01*
X135515716Y-68800757D01*
X135514294Y-68806065D01*
X135514293Y-68806067D01*
X135463624Y-68995164D01*
X135456457Y-69021913D01*
X135436502Y-69250000D01*
X135456457Y-69478087D01*
X135457881Y-69483400D01*
X135457881Y-69483402D01*
X135503318Y-69652972D01*
X135515716Y-69699243D01*
X135518039Y-69704224D01*
X135518039Y-69704225D01*
X135610151Y-69901762D01*
X135610154Y-69901767D01*
X135612477Y-69906749D01*
X135615634Y-69911257D01*
X135727727Y-70071342D01*
X135743802Y-70094300D01*
X135810407Y-70160905D01*
X135844433Y-70223217D01*
X135839368Y-70294032D01*
X135810407Y-70339095D01*
X135743802Y-70405700D01*
X135740645Y-70410208D01*
X135740643Y-70410211D01*
X135686903Y-70486960D01*
X135612477Y-70593251D01*
X135610153Y-70598236D01*
X135610149Y-70598242D01*
X135598695Y-70622806D01*
X135551778Y-70676092D01*
X135483501Y-70695553D01*
X135415541Y-70675012D01*
X135369475Y-70620989D01*
X135358500Y-70569557D01*
X135358500Y-70291390D01*
X135358942Y-70280847D01*
X135362733Y-70235699D01*
X135363304Y-70228901D01*
X135359567Y-70200895D01*
X135352563Y-70148398D01*
X135352193Y-70145343D01*
X135347071Y-70098197D01*
X135343417Y-70064563D01*
X135341242Y-70058099D01*
X135340522Y-70054824D01*
X135340452Y-70054428D01*
X135340329Y-70054004D01*
X135339538Y-70050784D01*
X135338634Y-70044011D01*
X135310851Y-69967677D01*
X135309844Y-69964802D01*
X135303593Y-69946227D01*
X135283922Y-69887777D01*
X135280404Y-69881923D01*
X135279015Y-69878916D01*
X135278848Y-69878511D01*
X135278643Y-69878135D01*
X135277173Y-69875148D01*
X135274838Y-69868732D01*
X135231270Y-69800080D01*
X135229745Y-69797611D01*
X135187853Y-69727891D01*
X135183166Y-69722934D01*
X135181149Y-69720277D01*
X135180639Y-69719543D01*
X135177661Y-69715605D01*
X135174891Y-69711241D01*
X135171071Y-69706968D01*
X135117075Y-69652972D01*
X135114621Y-69650450D01*
X135064381Y-69597323D01*
X135059692Y-69592364D01*
X135054044Y-69588526D01*
X135048852Y-69584107D01*
X135049192Y-69583707D01*
X135041203Y-69577100D01*
X133347048Y-67882945D01*
X133313022Y-67820633D01*
X133310623Y-67782867D01*
X133313019Y-67755484D01*
X133313019Y-67755475D01*
X133313498Y-67750000D01*
X133293543Y-67521913D01*
X133234284Y-67300757D01*
X133231961Y-67295775D01*
X133139849Y-67098238D01*
X133139846Y-67098233D01*
X133137523Y-67093251D01*
X133027940Y-66936751D01*
X133009357Y-66910211D01*
X133009355Y-66910208D01*
X133006198Y-66905700D01*
X132844300Y-66743802D01*
X132839792Y-66740645D01*
X132839789Y-66740643D01*
X132761611Y-66685902D01*
X132656749Y-66612477D01*
X132651767Y-66610154D01*
X132651762Y-66610151D01*
X132454225Y-66518039D01*
X132454224Y-66518039D01*
X132449243Y-66515716D01*
X132443935Y-66514294D01*
X132443933Y-66514293D01*
X132233402Y-66457881D01*
X132233400Y-66457881D01*
X132228087Y-66456457D01*
X132000000Y-66436502D01*
X131771913Y-66456457D01*
X131766600Y-66457881D01*
X131766598Y-66457881D01*
X131556067Y-66514293D01*
X131556065Y-66514294D01*
X131550757Y-66515716D01*
X131545776Y-66518039D01*
X131545775Y-66518039D01*
X131348238Y-66610151D01*
X131348233Y-66610154D01*
X131343251Y-66612477D01*
X131238389Y-66685902D01*
X131160211Y-66740643D01*
X131160208Y-66740645D01*
X131155700Y-66743802D01*
X130993802Y-66905700D01*
X130990645Y-66910208D01*
X130990643Y-66910211D01*
X130972060Y-66936751D01*
X130862477Y-67093251D01*
X130860154Y-67098233D01*
X130860151Y-67098238D01*
X130768039Y-67295775D01*
X130765716Y-67300757D01*
X130706457Y-67521913D01*
X130686502Y-67750000D01*
X130706457Y-67978087D01*
X130765716Y-68199243D01*
X130768039Y-68204224D01*
X130768039Y-68204225D01*
X130860151Y-68401762D01*
X130860154Y-68401767D01*
X130862477Y-68406749D01*
X130993802Y-68594300D01*
X131155700Y-68756198D01*
X131160208Y-68759355D01*
X131160211Y-68759357D01*
X131219337Y-68800757D01*
X131343251Y-68887523D01*
X131348233Y-68889846D01*
X131348238Y-68889849D01*
X131507399Y-68964066D01*
X131550757Y-68984284D01*
X131556065Y-68985706D01*
X131556067Y-68985707D01*
X131766598Y-69042119D01*
X131766600Y-69042119D01*
X131771913Y-69043543D01*
X132000000Y-69063498D01*
X132005475Y-69063019D01*
X132005484Y-69063019D01*
X132032867Y-69060623D01*
X132102472Y-69074611D01*
X132132945Y-69097048D01*
X132568799Y-69532902D01*
X132602825Y-69595214D01*
X132597760Y-69666029D01*
X132555213Y-69722865D01*
X132488693Y-69747676D01*
X132447095Y-69743704D01*
X132308087Y-69706457D01*
X132080000Y-69686502D01*
X131851913Y-69706457D01*
X131846600Y-69707881D01*
X131846598Y-69707881D01*
X131636067Y-69764293D01*
X131636065Y-69764294D01*
X131630757Y-69765716D01*
X131625776Y-69768039D01*
X131625775Y-69768039D01*
X131428238Y-69860151D01*
X131428233Y-69860154D01*
X131423251Y-69862477D01*
X131360024Y-69906749D01*
X131240211Y-69990643D01*
X131240208Y-69990645D01*
X131235700Y-69993802D01*
X131124907Y-70104595D01*
X131062595Y-70138621D01*
X131035812Y-70141500D01*
X127657792Y-70141500D01*
X127589671Y-70121498D01*
X127568697Y-70104595D01*
X126109508Y-68645405D01*
X124636320Y-67172217D01*
X124629177Y-67164450D01*
X124599935Y-67129847D01*
X124595529Y-67124633D01*
X124531031Y-67075321D01*
X124528615Y-67073427D01*
X124470583Y-67026768D01*
X124470582Y-67026767D01*
X124465262Y-67022490D01*
X124459143Y-67019453D01*
X124456348Y-67017665D01*
X124455987Y-67017412D01*
X124455620Y-67017210D01*
X124452762Y-67015479D01*
X124447348Y-67011340D01*
X124373736Y-66977014D01*
X124370964Y-66975680D01*
X124304296Y-66942586D01*
X124298186Y-66939553D01*
X124291565Y-66937902D01*
X124288437Y-66936751D01*
X124288044Y-66936587D01*
X124287639Y-66936468D01*
X124284475Y-66935391D01*
X124278296Y-66932510D01*
X124199000Y-66914785D01*
X124196002Y-66914076D01*
X124123821Y-66896079D01*
X124123820Y-66896079D01*
X124117199Y-66894428D01*
X124110378Y-66894237D01*
X124107075Y-66893785D01*
X124106191Y-66893626D01*
X124101308Y-66892948D01*
X124096260Y-66891820D01*
X124090537Y-66891500D01*
X124014156Y-66891500D01*
X124010637Y-66891451D01*
X123930743Y-66889219D01*
X123924039Y-66890498D01*
X123917238Y-66891045D01*
X123917196Y-66890525D01*
X123906875Y-66891500D01*
X122884188Y-66891500D01*
X122816067Y-66871498D01*
X122795093Y-66854595D01*
X122684300Y-66743802D01*
X122679792Y-66740645D01*
X122679789Y-66740643D01*
X122601611Y-66685902D01*
X122496749Y-66612477D01*
X122491767Y-66610154D01*
X122491762Y-66610151D01*
X122294225Y-66518039D01*
X122294224Y-66518039D01*
X122289243Y-66515716D01*
X122283935Y-66514294D01*
X122283933Y-66514293D01*
X122073402Y-66457881D01*
X122073400Y-66457881D01*
X122068087Y-66456457D01*
X121840000Y-66436502D01*
X121611913Y-66456457D01*
X121606600Y-66457881D01*
X121606598Y-66457881D01*
X121396067Y-66514293D01*
X121396065Y-66514294D01*
X121390757Y-66515716D01*
X121385776Y-66518039D01*
X121385775Y-66518039D01*
X121188238Y-66610151D01*
X121188233Y-66610154D01*
X121183251Y-66612477D01*
X121078389Y-66685902D01*
X121000211Y-66740643D01*
X121000208Y-66740645D01*
X120995700Y-66743802D01*
X120833802Y-66905700D01*
X120830645Y-66910208D01*
X120830643Y-66910211D01*
X120812060Y-66936751D01*
X120702477Y-67093251D01*
X120700154Y-67098233D01*
X120700151Y-67098238D01*
X120608039Y-67295775D01*
X120605716Y-67300757D01*
X120546457Y-67521913D01*
X120526502Y-67750000D01*
X120546457Y-67978087D01*
X120605716Y-68199243D01*
X120608039Y-68204224D01*
X120608039Y-68204225D01*
X120700151Y-68401762D01*
X120700154Y-68401767D01*
X120702477Y-68406749D01*
X120833802Y-68594300D01*
X120995700Y-68756198D01*
X121000208Y-68759355D01*
X121000211Y-68759357D01*
X121059337Y-68800757D01*
X121183251Y-68887523D01*
X121188233Y-68889846D01*
X121188238Y-68889849D01*
X121347399Y-68964066D01*
X121390757Y-68984284D01*
X121396065Y-68985706D01*
X121396067Y-68985707D01*
X121606598Y-69042119D01*
X121606600Y-69042119D01*
X121611913Y-69043543D01*
X121840000Y-69063498D01*
X122068087Y-69043543D01*
X122073400Y-69042119D01*
X122073402Y-69042119D01*
X122283933Y-68985707D01*
X122283935Y-68985706D01*
X122289243Y-68984284D01*
X122332601Y-68964066D01*
X122491762Y-68889849D01*
X122491767Y-68889846D01*
X122496749Y-68887523D01*
X122620663Y-68800757D01*
X122679789Y-68759357D01*
X122679792Y-68759355D01*
X122684300Y-68756198D01*
X122795093Y-68645405D01*
X122857405Y-68611379D01*
X122884188Y-68608500D01*
X123592208Y-68608500D01*
X123660329Y-68628502D01*
X123681303Y-68645405D01*
X126354595Y-71318697D01*
X126388621Y-71381009D01*
X126391500Y-71407792D01*
X126391500Y-77128610D01*
X126391058Y-77139152D01*
X126386696Y-77191099D01*
X126387598Y-77197859D01*
X126387598Y-77197861D01*
X126397437Y-77271602D01*
X126397807Y-77274657D01*
X126406583Y-77355437D01*
X126408758Y-77361901D01*
X126409478Y-77365176D01*
X126409548Y-77365572D01*
X126409671Y-77365996D01*
X126410462Y-77369216D01*
X126411366Y-77375989D01*
X126439139Y-77452294D01*
X126440156Y-77455198D01*
X126466078Y-77532223D01*
X126469596Y-77538077D01*
X126470985Y-77541084D01*
X126471152Y-77541489D01*
X126471357Y-77541865D01*
X126472827Y-77544852D01*
X126475162Y-77551268D01*
X126518730Y-77619920D01*
X126520255Y-77622389D01*
X126562147Y-77692109D01*
X126566834Y-77697066D01*
X126568851Y-77699723D01*
X126569369Y-77700469D01*
X126572344Y-77704402D01*
X126575109Y-77708759D01*
X126578930Y-77713032D01*
X126632908Y-77767010D01*
X126635362Y-77769532D01*
X126690308Y-77827636D01*
X126695956Y-77831474D01*
X126701148Y-77835893D01*
X126700808Y-77836293D01*
X126708800Y-77842902D01*
X127722952Y-78857055D01*
X127756978Y-78919367D01*
X127759377Y-78957133D01*
X127756981Y-78984516D01*
X127756981Y-78984525D01*
X127756502Y-78990000D01*
X127776457Y-79218087D01*
X127835716Y-79439243D01*
X127838039Y-79444224D01*
X127838039Y-79444225D01*
X127930151Y-79641762D01*
X127930154Y-79641767D01*
X127932477Y-79646749D01*
X127979029Y-79713232D01*
X128057441Y-79825215D01*
X128063802Y-79834300D01*
X128225700Y-79996198D01*
X128230208Y-79999355D01*
X128230211Y-79999357D01*
X128308389Y-80054098D01*
X128413251Y-80127523D01*
X128418233Y-80129846D01*
X128418238Y-80129849D01*
X128452457Y-80145805D01*
X128505742Y-80192722D01*
X128525203Y-80260999D01*
X128504661Y-80328959D01*
X128452457Y-80374195D01*
X128418238Y-80390151D01*
X128418233Y-80390154D01*
X128413251Y-80392477D01*
X128308389Y-80465902D01*
X128230211Y-80520643D01*
X128230208Y-80520645D01*
X128225700Y-80523802D01*
X128114907Y-80634595D01*
X128052595Y-80668621D01*
X128025812Y-80671500D01*
X125687792Y-80671500D01*
X125619671Y-80651498D01*
X125598701Y-80634599D01*
X124645403Y-79681300D01*
X124611379Y-79618990D01*
X124608500Y-79592207D01*
X124608500Y-72871390D01*
X124608942Y-72860847D01*
X124612733Y-72815699D01*
X124613304Y-72808901D01*
X124602563Y-72728398D01*
X124602193Y-72725343D01*
X124594153Y-72651342D01*
X124593417Y-72644563D01*
X124591242Y-72638099D01*
X124590522Y-72634824D01*
X124590452Y-72634428D01*
X124590329Y-72634004D01*
X124589538Y-72630784D01*
X124588634Y-72624011D01*
X124560851Y-72547677D01*
X124559844Y-72544802D01*
X124553593Y-72526227D01*
X124533922Y-72467777D01*
X124530404Y-72461923D01*
X124529015Y-72458916D01*
X124528848Y-72458511D01*
X124528643Y-72458135D01*
X124527173Y-72455148D01*
X124524838Y-72448732D01*
X124481270Y-72380080D01*
X124479745Y-72377611D01*
X124437853Y-72307891D01*
X124433166Y-72302934D01*
X124431149Y-72300277D01*
X124430639Y-72299543D01*
X124427661Y-72295605D01*
X124424891Y-72291241D01*
X124421071Y-72286968D01*
X124367075Y-72232972D01*
X124364621Y-72230450D01*
X124314381Y-72177323D01*
X124309692Y-72172364D01*
X124304044Y-72168526D01*
X124298852Y-72164107D01*
X124299192Y-72163707D01*
X124291203Y-72157100D01*
X123267048Y-71132945D01*
X123233022Y-71070633D01*
X123230623Y-71032867D01*
X123233019Y-71005484D01*
X123233019Y-71005475D01*
X123233498Y-71000000D01*
X123213543Y-70771913D01*
X123187578Y-70675012D01*
X123155707Y-70556067D01*
X123155706Y-70556065D01*
X123154284Y-70550757D01*
X123124535Y-70486960D01*
X123059849Y-70348238D01*
X123059846Y-70348233D01*
X123057523Y-70343251D01*
X122931246Y-70162909D01*
X122929357Y-70160211D01*
X122929355Y-70160208D01*
X122926198Y-70155700D01*
X122764300Y-69993802D01*
X122759792Y-69990645D01*
X122759789Y-69990643D01*
X122639976Y-69906749D01*
X122576749Y-69862477D01*
X122571767Y-69860154D01*
X122571762Y-69860151D01*
X122374225Y-69768039D01*
X122374224Y-69768039D01*
X122369243Y-69765716D01*
X122363935Y-69764294D01*
X122363933Y-69764293D01*
X122153402Y-69707881D01*
X122153400Y-69707881D01*
X122148087Y-69706457D01*
X121920000Y-69686502D01*
X121691913Y-69706457D01*
X121686600Y-69707881D01*
X121686598Y-69707881D01*
X121476067Y-69764293D01*
X121476065Y-69764294D01*
X121470757Y-69765716D01*
X121465776Y-69768039D01*
X121465775Y-69768039D01*
X121268238Y-69860151D01*
X121268233Y-69860154D01*
X121263251Y-69862477D01*
X121200024Y-69906749D01*
X121080211Y-69990643D01*
X121080208Y-69990645D01*
X121075700Y-69993802D01*
X120913802Y-70155700D01*
X120910645Y-70160208D01*
X120910643Y-70160211D01*
X120908754Y-70162909D01*
X120782477Y-70343251D01*
X120780154Y-70348233D01*
X120780151Y-70348238D01*
X120715465Y-70486960D01*
X120685716Y-70550757D01*
X120684294Y-70556065D01*
X120684293Y-70556067D01*
X120652422Y-70675012D01*
X120626457Y-70771913D01*
X120606502Y-71000000D01*
X120626457Y-71228087D01*
X120627881Y-71233400D01*
X120627881Y-71233402D01*
X120667862Y-71382610D01*
X120685716Y-71449243D01*
X120688039Y-71454224D01*
X120688039Y-71454225D01*
X120780151Y-71651762D01*
X120780154Y-71651767D01*
X120782477Y-71656749D01*
X120913802Y-71844300D01*
X121075700Y-72006198D01*
X121080208Y-72009355D01*
X121080211Y-72009357D01*
X121158389Y-72064098D01*
X121263251Y-72137523D01*
X121268233Y-72139846D01*
X121268238Y-72139849D01*
X121465775Y-72231961D01*
X121470757Y-72234284D01*
X121476065Y-72235706D01*
X121476067Y-72235707D01*
X121686598Y-72292119D01*
X121686600Y-72292119D01*
X121691913Y-72293543D01*
X121920000Y-72313498D01*
X121925475Y-72313019D01*
X121925484Y-72313019D01*
X121952867Y-72310623D01*
X122022472Y-72324611D01*
X122052945Y-72347048D01*
X122854595Y-73148698D01*
X122888621Y-73211010D01*
X122891500Y-73237793D01*
X122891500Y-75280608D01*
X122871498Y-75348729D01*
X122817842Y-75395222D01*
X122747568Y-75405326D01*
X122682988Y-75375832D01*
X122664674Y-75356173D01*
X122618285Y-75294276D01*
X122605724Y-75281715D01*
X122503649Y-75205214D01*
X122488054Y-75196676D01*
X122367606Y-75151522D01*
X122352351Y-75147895D01*
X122301486Y-75142369D01*
X122294672Y-75142000D01*
X121722115Y-75142000D01*
X121706876Y-75146475D01*
X121705671Y-75147865D01*
X121704000Y-75155548D01*
X121704000Y-76578000D01*
X121683998Y-76646121D01*
X121630342Y-76692614D01*
X121578000Y-76704000D01*
X120160116Y-76704000D01*
X120144877Y-76708475D01*
X120143672Y-76709865D01*
X120142001Y-76717548D01*
X120142001Y-77294669D01*
X120142371Y-77301490D01*
X120147895Y-77352352D01*
X120151521Y-77367604D01*
X120196676Y-77488054D01*
X120205214Y-77503649D01*
X120281715Y-77605724D01*
X120294276Y-77618285D01*
X120396351Y-77694786D01*
X120411946Y-77703324D01*
X120532394Y-77748478D01*
X120547643Y-77752104D01*
X120551096Y-77752479D01*
X120553606Y-77753522D01*
X120555331Y-77753932D01*
X120555265Y-77754211D01*
X120616659Y-77779719D01*
X120657088Y-77838080D01*
X120659546Y-77909034D01*
X120623253Y-77970054D01*
X120611760Y-77979344D01*
X120610214Y-77980641D01*
X120605700Y-77983802D01*
X120494907Y-78094595D01*
X120432595Y-78128621D01*
X120405812Y-78131500D01*
X116897793Y-78131500D01*
X116829672Y-78111498D01*
X116808698Y-78094595D01*
X116145405Y-77431302D01*
X116111379Y-77368990D01*
X116108500Y-77342207D01*
X116108500Y-76336062D01*
X117028493Y-76336062D01*
X117037789Y-76348077D01*
X117088994Y-76383931D01*
X117098489Y-76389414D01*
X117295947Y-76481490D01*
X117306239Y-76485236D01*
X117516688Y-76541625D01*
X117527481Y-76543528D01*
X117744525Y-76562517D01*
X117755475Y-76562517D01*
X117972519Y-76543528D01*
X117983312Y-76541625D01*
X118193761Y-76485236D01*
X118204053Y-76481490D01*
X118401511Y-76389414D01*
X118411006Y-76383931D01*
X118463048Y-76347491D01*
X118471424Y-76337012D01*
X118464356Y-76323566D01*
X118318675Y-76177885D01*
X120142000Y-76177885D01*
X120146475Y-76193124D01*
X120147865Y-76194329D01*
X120155548Y-76196000D01*
X121177885Y-76196000D01*
X121193124Y-76191525D01*
X121194329Y-76190135D01*
X121196000Y-76182452D01*
X121196000Y-75160116D01*
X121191525Y-75144877D01*
X121190135Y-75143672D01*
X121182452Y-75142001D01*
X120605331Y-75142001D01*
X120598510Y-75142371D01*
X120547648Y-75147895D01*
X120532396Y-75151521D01*
X120411946Y-75196676D01*
X120396351Y-75205214D01*
X120294276Y-75281715D01*
X120281715Y-75294276D01*
X120205214Y-75396351D01*
X120196676Y-75411946D01*
X120151522Y-75532394D01*
X120147895Y-75547649D01*
X120142369Y-75598514D01*
X120142000Y-75605328D01*
X120142000Y-76177885D01*
X118318675Y-76177885D01*
X117762812Y-75622022D01*
X117748868Y-75614408D01*
X117747035Y-75614539D01*
X117740420Y-75618790D01*
X117034923Y-76324287D01*
X117028493Y-76336062D01*
X116108500Y-76336062D01*
X116108500Y-76294188D01*
X116128502Y-76226067D01*
X116145405Y-76205093D01*
X116256198Y-76094300D01*
X116266547Y-76079521D01*
X116376327Y-75922738D01*
X116387523Y-75906749D01*
X116389847Y-75901765D01*
X116391171Y-75899472D01*
X116442553Y-75850479D01*
X116512267Y-75837043D01*
X116578178Y-75863429D01*
X116609409Y-75899472D01*
X116616066Y-75911002D01*
X116652509Y-75963048D01*
X116662988Y-75971424D01*
X116676434Y-75964356D01*
X117377978Y-75262812D01*
X117384356Y-75251132D01*
X118114408Y-75251132D01*
X118114539Y-75252965D01*
X118118790Y-75259580D01*
X118824287Y-75965077D01*
X118836062Y-75971507D01*
X118848077Y-75962211D01*
X118883931Y-75911006D01*
X118889414Y-75901511D01*
X118981490Y-75704053D01*
X118985236Y-75693761D01*
X119041625Y-75483312D01*
X119043528Y-75472519D01*
X119062517Y-75255475D01*
X119062517Y-75244525D01*
X119043528Y-75027481D01*
X119041625Y-75016688D01*
X118985236Y-74806239D01*
X118981490Y-74795947D01*
X118889414Y-74598489D01*
X118883931Y-74588994D01*
X118847491Y-74536952D01*
X118837012Y-74528576D01*
X118823566Y-74535644D01*
X118122022Y-75237188D01*
X118114408Y-75251132D01*
X117384356Y-75251132D01*
X117385592Y-75248868D01*
X117385461Y-75247035D01*
X117381210Y-75240420D01*
X116675713Y-74534923D01*
X116663938Y-74528493D01*
X116651923Y-74537789D01*
X116616066Y-74588998D01*
X116609409Y-74600528D01*
X116558027Y-74649521D01*
X116488313Y-74662958D01*
X116422402Y-74636571D01*
X116391171Y-74600528D01*
X116389847Y-74598235D01*
X116387523Y-74593251D01*
X116266211Y-74420000D01*
X116259357Y-74410211D01*
X116259355Y-74410208D01*
X116256198Y-74405700D01*
X116094300Y-74243802D01*
X116089792Y-74240645D01*
X116089789Y-74240643D01*
X115978886Y-74162988D01*
X117028576Y-74162988D01*
X117035644Y-74176434D01*
X117737188Y-74877978D01*
X117751132Y-74885592D01*
X117752965Y-74885461D01*
X117759580Y-74881210D01*
X118465077Y-74175713D01*
X118471507Y-74163938D01*
X118462211Y-74151923D01*
X118411006Y-74116069D01*
X118401511Y-74110586D01*
X118204053Y-74018510D01*
X118193761Y-74014764D01*
X117983312Y-73958375D01*
X117972519Y-73956472D01*
X117755475Y-73937483D01*
X117744525Y-73937483D01*
X117527481Y-73956472D01*
X117516688Y-73958375D01*
X117306239Y-74014764D01*
X117295947Y-74018510D01*
X117098489Y-74110586D01*
X117088994Y-74116069D01*
X117036952Y-74152509D01*
X117028576Y-74162988D01*
X115978886Y-74162988D01*
X115963920Y-74152509D01*
X115906749Y-74112477D01*
X115901767Y-74110154D01*
X115901762Y-74110151D01*
X115704225Y-74018039D01*
X115704224Y-74018039D01*
X115699243Y-74015716D01*
X115693935Y-74014294D01*
X115693933Y-74014293D01*
X115483402Y-73957881D01*
X115483400Y-73957881D01*
X115478087Y-73956457D01*
X115250000Y-73936502D01*
X115021913Y-73956457D01*
X115016600Y-73957881D01*
X115016598Y-73957881D01*
X114806067Y-74014293D01*
X114806065Y-74014294D01*
X114800757Y-74015716D01*
X114795776Y-74018039D01*
X114795775Y-74018039D01*
X114598238Y-74110151D01*
X114598233Y-74110154D01*
X114593251Y-74112477D01*
X114536080Y-74152509D01*
X114410211Y-74240643D01*
X114410208Y-74240645D01*
X114405700Y-74243802D01*
X114243802Y-74405700D01*
X114240645Y-74410208D01*
X114240643Y-74410211D01*
X114233789Y-74420000D01*
X114112477Y-74593251D01*
X114110154Y-74598233D01*
X114110151Y-74598238D01*
X114086238Y-74649521D01*
X114015716Y-74800757D01*
X114014294Y-74806065D01*
X114014293Y-74806067D01*
X113993019Y-74885461D01*
X113956457Y-75021913D01*
X113936502Y-75250000D01*
X113956457Y-75478087D01*
X113957881Y-75483400D01*
X113957881Y-75483402D01*
X113995025Y-75622022D01*
X114015716Y-75699243D01*
X114018039Y-75704224D01*
X114018039Y-75704225D01*
X114110151Y-75901762D01*
X114110154Y-75901767D01*
X114112477Y-75906749D01*
X114151312Y-75962211D01*
X114233454Y-76079521D01*
X114243802Y-76094300D01*
X114354595Y-76205093D01*
X114388621Y-76267405D01*
X114391500Y-76294188D01*
X114391500Y-77708610D01*
X114391058Y-77719152D01*
X114386696Y-77771099D01*
X114387598Y-77777859D01*
X114387598Y-77777861D01*
X114397437Y-77851602D01*
X114397807Y-77854657D01*
X114406583Y-77935437D01*
X114408758Y-77941901D01*
X114409478Y-77945176D01*
X114409548Y-77945572D01*
X114409671Y-77945996D01*
X114410462Y-77949216D01*
X114411366Y-77955989D01*
X114439139Y-78032294D01*
X114440156Y-78035198D01*
X114466078Y-78112223D01*
X114469596Y-78118077D01*
X114470985Y-78121084D01*
X114471152Y-78121489D01*
X114471357Y-78121865D01*
X114472827Y-78124852D01*
X114475162Y-78131268D01*
X114518730Y-78199920D01*
X114520255Y-78202389D01*
X114562147Y-78272109D01*
X114566834Y-78277066D01*
X114568851Y-78279723D01*
X114569369Y-78280469D01*
X114572344Y-78284402D01*
X114575109Y-78288759D01*
X114578930Y-78293032D01*
X114632909Y-78347011D01*
X114635363Y-78349533D01*
X114690308Y-78407636D01*
X114695956Y-78411474D01*
X114701148Y-78415893D01*
X114700808Y-78416293D01*
X114708800Y-78422902D01*
X115853680Y-79567783D01*
X115860822Y-79575549D01*
X115894471Y-79615367D01*
X115899895Y-79619514D01*
X115899896Y-79619515D01*
X115958962Y-79664674D01*
X115961379Y-79666568D01*
X116024738Y-79717510D01*
X116030857Y-79720547D01*
X116033652Y-79722335D01*
X116034013Y-79722588D01*
X116034380Y-79722790D01*
X116037238Y-79724521D01*
X116042652Y-79728660D01*
X116116262Y-79762985D01*
X116119033Y-79764319D01*
X116191814Y-79800447D01*
X116198435Y-79802098D01*
X116201563Y-79803249D01*
X116201956Y-79803413D01*
X116202361Y-79803532D01*
X116205525Y-79804609D01*
X116211704Y-79807490D01*
X116285498Y-79823985D01*
X116291002Y-79825215D01*
X116293998Y-79825924D01*
X116309500Y-79829789D01*
X116372801Y-79845572D01*
X116379622Y-79845763D01*
X116382925Y-79846215D01*
X116383809Y-79846374D01*
X116388692Y-79847052D01*
X116393740Y-79848180D01*
X116398905Y-79848469D01*
X116404023Y-79849179D01*
X116403649Y-79851877D01*
X116459932Y-79871404D01*
X116503777Y-79927244D01*
X116510473Y-79997924D01*
X116477893Y-80061004D01*
X116464114Y-80073285D01*
X116461241Y-80075109D01*
X116456968Y-80078929D01*
X116402972Y-80132925D01*
X116400450Y-80135379D01*
X116342364Y-80190308D01*
X116338526Y-80195956D01*
X116334107Y-80201148D01*
X116333707Y-80200808D01*
X116327100Y-80208797D01*
X115692217Y-80843680D01*
X115684451Y-80850822D01*
X115644633Y-80884471D01*
X115640486Y-80889895D01*
X115640485Y-80889896D01*
X115595326Y-80948962D01*
X115593432Y-80951379D01*
X115542490Y-81014738D01*
X115539453Y-81020857D01*
X115537665Y-81023652D01*
X115537412Y-81024013D01*
X115537210Y-81024380D01*
X115535479Y-81027238D01*
X115531340Y-81032652D01*
X115508908Y-81080757D01*
X115497015Y-81106262D01*
X115495681Y-81109033D01*
X115487128Y-81126265D01*
X115464661Y-81171524D01*
X115416456Y-81223647D01*
X115351801Y-81241500D01*
X114426866Y-81241500D01*
X114364684Y-81248255D01*
X114228295Y-81299385D01*
X114111739Y-81386739D01*
X114024385Y-81503295D01*
X113973255Y-81639684D01*
X113966500Y-81701866D01*
X113966500Y-83298134D01*
X113973255Y-83360316D01*
X114024385Y-83496705D01*
X114099113Y-83596414D01*
X114111739Y-83613261D01*
X114110135Y-83614463D01*
X114138621Y-83666630D01*
X114141500Y-83693413D01*
X114141500Y-85125812D01*
X114121498Y-85193933D01*
X114104595Y-85214907D01*
X113993802Y-85325700D01*
X113990645Y-85330208D01*
X113990643Y-85330211D01*
X113953667Y-85383019D01*
X113862477Y-85513251D01*
X113860154Y-85518233D01*
X113860151Y-85518238D01*
X113808646Y-85628692D01*
X113765716Y-85720757D01*
X113764294Y-85726065D01*
X113764293Y-85726067D01*
X113718117Y-85898398D01*
X113706457Y-85941913D01*
X113686502Y-86170000D01*
X113706457Y-86398087D01*
X113707881Y-86403400D01*
X113707881Y-86403402D01*
X113763020Y-86609180D01*
X113765716Y-86619243D01*
X113768039Y-86624224D01*
X113768039Y-86624225D01*
X113860151Y-86821762D01*
X113860154Y-86821767D01*
X113862477Y-86826749D01*
X113993802Y-87014300D01*
X114155700Y-87176198D01*
X114160208Y-87179355D01*
X114160211Y-87179357D01*
X114226503Y-87225775D01*
X114343251Y-87307523D01*
X114348233Y-87309846D01*
X114348238Y-87309849D01*
X114464474Y-87364050D01*
X114550757Y-87404284D01*
X114556065Y-87405706D01*
X114556067Y-87405707D01*
X114766598Y-87462119D01*
X114766600Y-87462119D01*
X114771913Y-87463543D01*
X115000000Y-87483498D01*
X115228087Y-87463543D01*
X115233400Y-87462119D01*
X115233402Y-87462119D01*
X115443933Y-87405707D01*
X115443935Y-87405706D01*
X115449243Y-87404284D01*
X115535526Y-87364050D01*
X115651762Y-87309849D01*
X115651767Y-87309846D01*
X115656749Y-87307523D01*
X115773497Y-87225775D01*
X115839789Y-87179357D01*
X115839792Y-87179355D01*
X115844300Y-87176198D01*
X116006198Y-87014300D01*
X116137523Y-86826749D01*
X116139846Y-86821767D01*
X116139849Y-86821762D01*
X116231961Y-86624225D01*
X116231961Y-86624224D01*
X116234284Y-86619243D01*
X116236981Y-86609180D01*
X116292119Y-86403402D01*
X116292119Y-86403400D01*
X116293543Y-86398087D01*
X116313498Y-86170000D01*
X116293543Y-85941913D01*
X116281883Y-85898398D01*
X116235707Y-85726067D01*
X116235706Y-85726065D01*
X116234284Y-85720757D01*
X116191354Y-85628692D01*
X116139849Y-85518238D01*
X116139846Y-85518233D01*
X116137523Y-85513251D01*
X116006198Y-85325700D01*
X116003650Y-85323152D01*
X115975421Y-85258653D01*
X115986637Y-85188548D01*
X116033974Y-85135635D01*
X116102403Y-85116715D01*
X116170198Y-85137793D01*
X116189501Y-85153603D01*
X116773193Y-85737296D01*
X117354595Y-86318698D01*
X117388621Y-86381010D01*
X117391500Y-86407793D01*
X117391500Y-97208610D01*
X117391058Y-97219152D01*
X117386696Y-97271099D01*
X117387598Y-97277859D01*
X117387598Y-97277861D01*
X117397437Y-97351602D01*
X117397807Y-97354657D01*
X117406583Y-97435437D01*
X117408758Y-97441901D01*
X117409478Y-97445176D01*
X117409548Y-97445572D01*
X117409671Y-97445996D01*
X117410462Y-97449216D01*
X117411366Y-97455989D01*
X117439139Y-97532294D01*
X117440156Y-97535198D01*
X117466078Y-97612223D01*
X117469596Y-97618077D01*
X117470985Y-97621084D01*
X117471152Y-97621489D01*
X117471357Y-97621865D01*
X117472827Y-97624852D01*
X117475162Y-97631268D01*
X117518730Y-97699920D01*
X117520255Y-97702389D01*
X117562147Y-97772109D01*
X117566834Y-97777066D01*
X117568851Y-97779723D01*
X117569369Y-97780469D01*
X117572344Y-97784402D01*
X117575109Y-97788759D01*
X117578930Y-97793032D01*
X117632909Y-97847011D01*
X117635362Y-97849532D01*
X117690308Y-97907636D01*
X117695956Y-97911474D01*
X117701148Y-97915893D01*
X117700808Y-97916292D01*
X117708798Y-97922900D01*
X118604596Y-98818699D01*
X118638621Y-98881011D01*
X118641500Y-98907794D01*
X118641500Y-105458610D01*
X118641058Y-105469152D01*
X118636696Y-105521099D01*
X118637598Y-105527859D01*
X118637598Y-105527861D01*
X118647437Y-105601602D01*
X118647807Y-105604657D01*
X118656583Y-105685437D01*
X118658758Y-105691901D01*
X118659478Y-105695176D01*
X118659548Y-105695572D01*
X118659671Y-105695996D01*
X118660462Y-105699216D01*
X118661366Y-105705989D01*
X118689139Y-105782294D01*
X118690156Y-105785198D01*
X118716078Y-105862223D01*
X118719596Y-105868077D01*
X118720985Y-105871084D01*
X118721152Y-105871489D01*
X118721357Y-105871865D01*
X118722827Y-105874852D01*
X118725162Y-105881268D01*
X118768730Y-105949920D01*
X118770255Y-105952389D01*
X118812147Y-106022109D01*
X118816834Y-106027066D01*
X118818851Y-106029723D01*
X118819369Y-106030469D01*
X118822344Y-106034402D01*
X118825109Y-106038759D01*
X118828930Y-106043032D01*
X118882908Y-106097010D01*
X118885362Y-106099532D01*
X118940308Y-106157636D01*
X118945956Y-106161474D01*
X118951148Y-106165893D01*
X118950808Y-106166293D01*
X118958800Y-106172902D01*
X120165744Y-107379847D01*
X121363680Y-108577783D01*
X121370822Y-108585549D01*
X121404471Y-108625367D01*
X121409895Y-108629514D01*
X121409896Y-108629515D01*
X121468962Y-108674674D01*
X121471379Y-108676568D01*
X121534738Y-108727510D01*
X121540857Y-108730547D01*
X121543652Y-108732335D01*
X121544013Y-108732588D01*
X121544380Y-108732790D01*
X121547238Y-108734521D01*
X121552652Y-108738660D01*
X121626262Y-108772985D01*
X121629033Y-108774319D01*
X121701814Y-108810447D01*
X121708435Y-108812098D01*
X121711563Y-108813249D01*
X121711956Y-108813413D01*
X121712361Y-108813532D01*
X121715525Y-108814609D01*
X121721704Y-108817490D01*
X121795498Y-108833985D01*
X121801002Y-108835215D01*
X121804000Y-108835924D01*
X121882801Y-108855572D01*
X121889622Y-108855763D01*
X121892925Y-108856215D01*
X121893809Y-108856374D01*
X121898692Y-108857052D01*
X121903740Y-108858180D01*
X121909463Y-108858500D01*
X121985844Y-108858500D01*
X121989363Y-108858549D01*
X122069257Y-108860781D01*
X122075961Y-108859502D01*
X122082762Y-108858955D01*
X122082804Y-108859475D01*
X122093125Y-108858500D01*
X124015538Y-108858500D01*
X124083659Y-108878502D01*
X124130152Y-108932158D01*
X124140256Y-109002432D01*
X124119626Y-109055504D01*
X124112412Y-109066079D01*
X124006119Y-109221899D01*
X123908602Y-109431981D01*
X123846707Y-109655169D01*
X123822095Y-109885469D01*
X123822392Y-109890622D01*
X123822392Y-109890625D01*
X123831563Y-110049683D01*
X123815515Y-110118842D01*
X123794867Y-110146031D01*
X122756302Y-111184595D01*
X122693990Y-111218621D01*
X122667207Y-111221500D01*
X122544188Y-111221500D01*
X122476067Y-111201498D01*
X122455093Y-111184595D01*
X122344300Y-111073802D01*
X122339792Y-111070645D01*
X122339789Y-111070643D01*
X122225537Y-110990643D01*
X122156749Y-110942477D01*
X122151767Y-110940154D01*
X122151762Y-110940151D01*
X121954225Y-110848039D01*
X121954224Y-110848039D01*
X121949243Y-110845716D01*
X121943935Y-110844294D01*
X121943933Y-110844293D01*
X121733402Y-110787881D01*
X121733400Y-110787881D01*
X121728087Y-110786457D01*
X121500000Y-110766502D01*
X121271913Y-110786457D01*
X121266600Y-110787881D01*
X121266598Y-110787881D01*
X121056067Y-110844293D01*
X121056065Y-110844294D01*
X121050757Y-110845716D01*
X121045776Y-110848039D01*
X121045775Y-110848039D01*
X120848238Y-110940151D01*
X120848233Y-110940154D01*
X120843251Y-110942477D01*
X120774463Y-110990643D01*
X120660211Y-111070643D01*
X120660208Y-111070645D01*
X120655700Y-111073802D01*
X120493802Y-111235700D01*
X120490645Y-111240208D01*
X120490643Y-111240211D01*
X120469354Y-111270615D01*
X120362477Y-111423251D01*
X120360154Y-111428233D01*
X120360151Y-111428238D01*
X120305343Y-111545775D01*
X120265716Y-111630757D01*
X120206457Y-111851913D01*
X120186502Y-112080000D01*
X120206457Y-112308087D01*
X120207881Y-112313400D01*
X120207881Y-112313402D01*
X120211787Y-112327977D01*
X120265716Y-112529243D01*
X120268039Y-112534224D01*
X120268039Y-112534225D01*
X120360151Y-112731762D01*
X120360154Y-112731767D01*
X120362477Y-112736749D01*
X120389411Y-112775214D01*
X120402025Y-112793229D01*
X120424713Y-112860503D01*
X120407428Y-112929363D01*
X120355659Y-112977948D01*
X120298812Y-112991500D01*
X117986966Y-112991500D01*
X117918845Y-112971498D01*
X117872352Y-112917842D01*
X117862248Y-112847568D01*
X117891742Y-112782988D01*
X117911313Y-112764740D01*
X117916098Y-112761148D01*
X118161973Y-112576539D01*
X118427592Y-112327977D01*
X118664813Y-112052182D01*
X118798688Y-111857393D01*
X118868931Y-111755190D01*
X118868936Y-111755182D01*
X118870861Y-111752381D01*
X118872473Y-111749387D01*
X118872478Y-111749379D01*
X119041703Y-111435092D01*
X119043325Y-111432080D01*
X119180188Y-111095027D01*
X119190652Y-111058295D01*
X119225796Y-110934921D01*
X119279850Y-110745164D01*
X119341143Y-110386583D01*
X119343285Y-110351574D01*
X119363241Y-110025278D01*
X119363351Y-110023481D01*
X119363433Y-110000000D01*
X119343760Y-109636751D01*
X119284972Y-109277752D01*
X119187756Y-108927202D01*
X119183635Y-108916844D01*
X119070827Y-108633373D01*
X119053249Y-108589201D01*
X118974905Y-108441235D01*
X118884624Y-108270723D01*
X118884620Y-108270716D01*
X118883025Y-108267704D01*
X118881118Y-108264888D01*
X118881113Y-108264879D01*
X118680985Y-107969292D01*
X118679075Y-107966471D01*
X118443785Y-107689027D01*
X118179908Y-107438617D01*
X117955647Y-107267776D01*
X117893237Y-107220232D01*
X117893235Y-107220230D01*
X117890530Y-107218170D01*
X117887618Y-107216413D01*
X117887613Y-107216410D01*
X117581951Y-107032023D01*
X117581945Y-107032020D01*
X117579036Y-107030265D01*
X117249071Y-106877100D01*
X116904494Y-106760467D01*
X116895234Y-106758414D01*
X116820485Y-106741843D01*
X116549336Y-106681731D01*
X116382040Y-106663261D01*
X116191133Y-106642184D01*
X116191128Y-106642184D01*
X116187752Y-106641811D01*
X116184353Y-106641805D01*
X116184352Y-106641805D01*
X116012763Y-106641506D01*
X115823972Y-106641176D01*
X115688831Y-106655618D01*
X115465634Y-106679471D01*
X115465628Y-106679472D01*
X115462250Y-106679833D01*
X115106820Y-106757330D01*
X114761838Y-106872759D01*
X114431340Y-107024771D01*
X114119192Y-107211588D01*
X113829046Y-107431023D01*
X113564296Y-107680511D01*
X113328040Y-107957132D01*
X113326112Y-107959959D01*
X113326110Y-107959961D01*
X113238588Y-108088264D01*
X113183677Y-108133267D01*
X113113152Y-108141438D01*
X113049405Y-108110184D01*
X113012675Y-108049427D01*
X113008500Y-108017260D01*
X113008500Y-103897095D01*
X113992001Y-103897095D01*
X113992338Y-103903614D01*
X114002257Y-103999206D01*
X114005149Y-104012600D01*
X114056588Y-104166784D01*
X114062761Y-104179962D01*
X114148063Y-104317807D01*
X114157099Y-104329208D01*
X114271829Y-104443739D01*
X114283240Y-104452751D01*
X114421243Y-104537816D01*
X114434424Y-104543963D01*
X114588710Y-104595138D01*
X114602086Y-104598005D01*
X114696438Y-104607672D01*
X114702854Y-104608000D01*
X115227885Y-104608000D01*
X115243124Y-104603525D01*
X115244329Y-104602135D01*
X115246000Y-104594452D01*
X115246000Y-104589884D01*
X115754000Y-104589884D01*
X115758475Y-104605123D01*
X115759865Y-104606328D01*
X115767548Y-104607999D01*
X116297095Y-104607999D01*
X116303614Y-104607662D01*
X116399206Y-104597743D01*
X116412600Y-104594851D01*
X116566784Y-104543412D01*
X116579962Y-104537239D01*
X116717807Y-104451937D01*
X116729208Y-104442901D01*
X116843739Y-104328171D01*
X116852751Y-104316760D01*
X116937816Y-104178757D01*
X116943963Y-104165576D01*
X116995138Y-104011290D01*
X116998005Y-103997914D01*
X117007672Y-103903562D01*
X117008000Y-103897146D01*
X117008000Y-103522115D01*
X117003525Y-103506876D01*
X117002135Y-103505671D01*
X116994452Y-103504000D01*
X115772115Y-103504000D01*
X115756876Y-103508475D01*
X115755671Y-103509865D01*
X115754000Y-103517548D01*
X115754000Y-104589884D01*
X115246000Y-104589884D01*
X115246000Y-103522115D01*
X115241525Y-103506876D01*
X115240135Y-103505671D01*
X115232452Y-103504000D01*
X114010116Y-103504000D01*
X113994877Y-103508475D01*
X113993672Y-103509865D01*
X113992001Y-103517548D01*
X113992001Y-103897095D01*
X113008500Y-103897095D01*
X113008500Y-100685774D01*
X113988102Y-100685774D01*
X113988302Y-100691103D01*
X113988302Y-100691105D01*
X113989508Y-100723228D01*
X113996751Y-100916158D01*
X114044093Y-101141791D01*
X114046051Y-101146750D01*
X114046052Y-101146752D01*
X114096432Y-101274320D01*
X114128776Y-101356221D01*
X114248377Y-101553317D01*
X114251874Y-101557347D01*
X114368123Y-101691312D01*
X114399477Y-101727445D01*
X114412030Y-101737738D01*
X114435529Y-101757006D01*
X114475524Y-101815666D01*
X114477455Y-101886636D01*
X114440710Y-101947384D01*
X114421941Y-101961584D01*
X114282193Y-102048063D01*
X114270792Y-102057099D01*
X114156261Y-102171829D01*
X114147249Y-102183240D01*
X114062184Y-102321243D01*
X114056037Y-102334424D01*
X114004862Y-102488710D01*
X114001995Y-102502086D01*
X113992328Y-102596438D01*
X113992000Y-102602855D01*
X113992000Y-102977885D01*
X113996475Y-102993124D01*
X113997865Y-102994329D01*
X114005548Y-102996000D01*
X116989884Y-102996000D01*
X117005123Y-102991525D01*
X117006328Y-102990135D01*
X117007999Y-102982452D01*
X117007999Y-102602905D01*
X117007662Y-102596386D01*
X116997743Y-102500794D01*
X116994851Y-102487400D01*
X116943412Y-102333216D01*
X116937239Y-102320038D01*
X116851937Y-102182193D01*
X116842901Y-102170792D01*
X116728171Y-102056261D01*
X116716757Y-102047247D01*
X116577287Y-101961277D01*
X116529793Y-101908505D01*
X116518369Y-101838434D01*
X116546643Y-101773310D01*
X116556430Y-101762847D01*
X116556978Y-101762325D01*
X116671135Y-101653424D01*
X116808754Y-101468458D01*
X116839949Y-101407103D01*
X116864428Y-101358955D01*
X116913240Y-101262949D01*
X116919888Y-101241541D01*
X116980024Y-101047871D01*
X116981607Y-101042773D01*
X116987248Y-101000211D01*
X117011198Y-100819511D01*
X117011198Y-100819506D01*
X117011898Y-100814226D01*
X117003249Y-100583842D01*
X116955907Y-100358209D01*
X116871224Y-100143779D01*
X116751623Y-99946683D01*
X116710024Y-99898744D01*
X116604023Y-99776588D01*
X116604021Y-99776586D01*
X116600523Y-99772555D01*
X116513552Y-99701243D01*
X116426373Y-99629760D01*
X116426367Y-99629756D01*
X116422245Y-99626376D01*
X116417609Y-99623737D01*
X116417606Y-99623735D01*
X116250503Y-99528615D01*
X116221886Y-99512325D01*
X116005175Y-99433663D01*
X115999926Y-99432714D01*
X115999923Y-99432713D01*
X115782392Y-99393377D01*
X115782385Y-99393376D01*
X115778308Y-99392639D01*
X115760586Y-99391803D01*
X115755644Y-99391570D01*
X115755637Y-99391570D01*
X115754156Y-99391500D01*
X115292110Y-99391500D01*
X115225191Y-99397178D01*
X115125591Y-99405629D01*
X115125587Y-99405630D01*
X115120280Y-99406080D01*
X115115125Y-99407418D01*
X115115119Y-99407419D01*
X114902297Y-99462657D01*
X114902293Y-99462658D01*
X114897128Y-99463999D01*
X114892262Y-99466191D01*
X114892259Y-99466192D01*
X114783980Y-99514968D01*
X114686925Y-99558688D01*
X114495681Y-99687441D01*
X114328865Y-99846576D01*
X114191246Y-100031542D01*
X114188830Y-100036293D01*
X114188828Y-100036297D01*
X114149613Y-100113428D01*
X114086760Y-100237051D01*
X114085178Y-100242145D01*
X114085177Y-100242148D01*
X114023115Y-100442020D01*
X114018393Y-100457227D01*
X114017692Y-100462516D01*
X113989318Y-100676601D01*
X113988102Y-100685774D01*
X113008500Y-100685774D01*
X113008500Y-96330000D01*
X113686502Y-96330000D01*
X113706457Y-96558087D01*
X113707881Y-96563400D01*
X113707881Y-96563402D01*
X113755865Y-96742477D01*
X113765716Y-96779243D01*
X113768039Y-96784224D01*
X113768039Y-96784225D01*
X113860151Y-96981762D01*
X113860154Y-96981767D01*
X113862477Y-96986749D01*
X113915526Y-97062510D01*
X113975230Y-97147776D01*
X113993802Y-97174300D01*
X114155700Y-97336198D01*
X114160208Y-97339355D01*
X114160211Y-97339357D01*
X114177699Y-97351602D01*
X114343251Y-97467523D01*
X114348233Y-97469846D01*
X114348238Y-97469849D01*
X114485308Y-97533765D01*
X114550757Y-97564284D01*
X114556065Y-97565706D01*
X114556067Y-97565707D01*
X114766598Y-97622119D01*
X114766600Y-97622119D01*
X114771913Y-97623543D01*
X115000000Y-97643498D01*
X115228087Y-97623543D01*
X115233400Y-97622119D01*
X115233402Y-97622119D01*
X115443933Y-97565707D01*
X115443935Y-97565706D01*
X115449243Y-97564284D01*
X115514692Y-97533765D01*
X115651762Y-97469849D01*
X115651767Y-97469846D01*
X115656749Y-97467523D01*
X115822301Y-97351602D01*
X115839789Y-97339357D01*
X115839792Y-97339355D01*
X115844300Y-97336198D01*
X116006198Y-97174300D01*
X116024771Y-97147776D01*
X116084474Y-97062510D01*
X116137523Y-96986749D01*
X116139846Y-96981767D01*
X116139849Y-96981762D01*
X116231961Y-96784225D01*
X116231961Y-96784224D01*
X116234284Y-96779243D01*
X116244136Y-96742477D01*
X116292119Y-96563402D01*
X116292119Y-96563400D01*
X116293543Y-96558087D01*
X116313498Y-96330000D01*
X116293543Y-96101913D01*
X116290640Y-96091078D01*
X116235707Y-95886067D01*
X116235706Y-95886065D01*
X116234284Y-95880757D01*
X116227095Y-95865339D01*
X116139849Y-95678238D01*
X116139846Y-95678233D01*
X116137523Y-95673251D01*
X116006198Y-95485700D01*
X115844300Y-95323802D01*
X115839792Y-95320645D01*
X115839789Y-95320643D01*
X115761611Y-95265902D01*
X115656749Y-95192477D01*
X115651767Y-95190154D01*
X115651762Y-95190151D01*
X115454225Y-95098039D01*
X115454224Y-95098039D01*
X115449243Y-95095716D01*
X115443935Y-95094294D01*
X115443933Y-95094293D01*
X115233402Y-95037881D01*
X115233400Y-95037881D01*
X115228087Y-95036457D01*
X115000000Y-95016502D01*
X114771913Y-95036457D01*
X114766600Y-95037881D01*
X114766598Y-95037881D01*
X114556067Y-95094293D01*
X114556065Y-95094294D01*
X114550757Y-95095716D01*
X114545776Y-95098039D01*
X114545775Y-95098039D01*
X114348238Y-95190151D01*
X114348233Y-95190154D01*
X114343251Y-95192477D01*
X114238389Y-95265902D01*
X114160211Y-95320643D01*
X114160208Y-95320645D01*
X114155700Y-95323802D01*
X113993802Y-95485700D01*
X113862477Y-95673251D01*
X113860154Y-95678233D01*
X113860151Y-95678238D01*
X113772905Y-95865339D01*
X113765716Y-95880757D01*
X113764294Y-95886065D01*
X113764293Y-95886067D01*
X113709360Y-96091078D01*
X113706457Y-96101913D01*
X113686502Y-96330000D01*
X113008500Y-96330000D01*
X113008500Y-70233185D01*
X113028502Y-70165064D01*
X113082158Y-70118571D01*
X113152432Y-70108467D01*
X113217012Y-70137961D01*
X113239082Y-70162909D01*
X113278883Y-70222139D01*
X113313843Y-70274165D01*
X113548163Y-70552428D01*
X113632381Y-70632908D01*
X113808702Y-70801405D01*
X113808709Y-70801411D01*
X113811165Y-70803758D01*
X114099771Y-71025214D01*
X114102689Y-71026988D01*
X114407692Y-71212433D01*
X114407697Y-71212436D01*
X114410607Y-71214205D01*
X114413695Y-71215651D01*
X114413694Y-71215651D01*
X114736952Y-71367077D01*
X114736962Y-71367081D01*
X114740036Y-71368521D01*
X114743254Y-71369623D01*
X114743257Y-71369624D01*
X115080981Y-71485253D01*
X115080989Y-71485255D01*
X115084204Y-71486356D01*
X115439084Y-71566332D01*
X115492123Y-71572375D01*
X115797144Y-71607128D01*
X115797152Y-71607128D01*
X115800527Y-71607513D01*
X115803931Y-71607531D01*
X115803934Y-71607531D01*
X116002058Y-71608568D01*
X116164303Y-71609418D01*
X116167689Y-71609068D01*
X116167691Y-71609068D01*
X116522765Y-71572375D01*
X116522774Y-71572374D01*
X116526157Y-71572024D01*
X116529490Y-71571310D01*
X116529493Y-71571309D01*
X116639895Y-71547641D01*
X116881856Y-71495768D01*
X117227239Y-71381544D01*
X117230323Y-71380138D01*
X117230332Y-71380135D01*
X117555171Y-71232096D01*
X117558265Y-71230686D01*
X117602276Y-71204554D01*
X117868128Y-71046704D01*
X117868132Y-71046701D01*
X117871063Y-71044961D01*
X118161973Y-70826539D01*
X118427592Y-70577977D01*
X118664813Y-70302182D01*
X118800611Y-70104595D01*
X118868931Y-70005190D01*
X118868936Y-70005182D01*
X118870861Y-70002381D01*
X118872473Y-69999387D01*
X118872478Y-69999379D01*
X119018658Y-69727891D01*
X119043325Y-69682080D01*
X119180188Y-69345027D01*
X119279850Y-68995164D01*
X119341143Y-68636583D01*
X119341638Y-68628502D01*
X119363241Y-68275278D01*
X119363351Y-68273481D01*
X119363433Y-68250000D01*
X119343760Y-67886751D01*
X119284972Y-67527752D01*
X119187756Y-67177202D01*
X119185773Y-67172217D01*
X119075884Y-66896079D01*
X119053249Y-66839201D01*
X119001065Y-66740643D01*
X118884624Y-66520723D01*
X118884620Y-66520716D01*
X118883025Y-66517704D01*
X118881118Y-66514888D01*
X118881113Y-66514879D01*
X118680985Y-66219292D01*
X118679075Y-66216471D01*
X118443785Y-65939027D01*
X118179908Y-65688617D01*
X117912268Y-65484730D01*
X117870201Y-65427538D01*
X117865732Y-65356682D01*
X117900280Y-65294658D01*
X117962876Y-65261159D01*
X117988623Y-65258500D01*
X141512237Y-65258500D01*
X141580358Y-65278502D01*
G37*
%TD.AperFunction*%
%TD*%
M02*
