%TF.GenerationSoftware,KiCad,Pcbnew,(6.0.4)*%
%TF.CreationDate,2023-05-23T22:41:31+03:00*%
%TF.ProjectId,metronome,6d657472-6f6e-46f6-9d65-2e6b69636164,rev?*%
%TF.SameCoordinates,Original*%
%TF.FileFunction,Legend,Top*%
%TF.FilePolarity,Positive*%
%FSLAX46Y46*%
G04 Gerber Fmt 4.6, Leading zero omitted, Abs format (unit mm)*
G04 Created by KiCad (PCBNEW (6.0.4)) date 2023-05-23 22:41:31*
%MOMM*%
%LPD*%
G01*
G04 APERTURE LIST*
%ADD10C,0.225000*%
%ADD11C,0.300000*%
%ADD12C,0.120000*%
G04 APERTURE END LIST*
D10*
X141817678Y-102592857D02*
X141860535Y-102550000D01*
X141946250Y-102507142D01*
X142160535Y-102507142D01*
X142246250Y-102550000D01*
X142289107Y-102592857D01*
X142331964Y-102678571D01*
X142331964Y-102764285D01*
X142289107Y-102892857D01*
X141774821Y-103407142D01*
X142331964Y-103407142D01*
X141774821Y-100007142D02*
X142331964Y-100007142D01*
X142031964Y-100350000D01*
X142160535Y-100350000D01*
X142246250Y-100392857D01*
X142289107Y-100435714D01*
X142331964Y-100521428D01*
X142331964Y-100735714D01*
X142289107Y-100821428D01*
X142246250Y-100864285D01*
X142160535Y-100907142D01*
X141903392Y-100907142D01*
X141817678Y-100864285D01*
X141774821Y-100821428D01*
X142246250Y-97807142D02*
X142246250Y-98407142D01*
X142031964Y-97464285D02*
X141817678Y-98107142D01*
X142374821Y-98107142D01*
X141860535Y-95907142D02*
X141860535Y-95307142D01*
X141860535Y-95478571D02*
X141903392Y-95392857D01*
X141946250Y-95350000D01*
X142031964Y-95307142D01*
X142117678Y-95307142D01*
X141610535Y-77907142D02*
X141610535Y-77307142D01*
X141610535Y-77007142D02*
X141567678Y-77050000D01*
X141610535Y-77092857D01*
X141653392Y-77050000D01*
X141610535Y-77007142D01*
X141610535Y-77092857D01*
X142039107Y-77307142D02*
X142039107Y-77907142D01*
X142039107Y-77392857D02*
X142081964Y-77350000D01*
X142167678Y-77307142D01*
X142296250Y-77307142D01*
X142381964Y-77350000D01*
X142424821Y-77435714D01*
X142424821Y-77907142D01*
X141246250Y-88807142D02*
X141246250Y-89535714D01*
X141203392Y-89621428D01*
X141160535Y-89664285D01*
X141074821Y-89707142D01*
X140946250Y-89707142D01*
X140860535Y-89664285D01*
X141246250Y-89364285D02*
X141160535Y-89407142D01*
X140989107Y-89407142D01*
X140903392Y-89364285D01*
X140860535Y-89321428D01*
X140817678Y-89235714D01*
X140817678Y-88978571D01*
X140860535Y-88892857D01*
X140903392Y-88850000D01*
X140989107Y-88807142D01*
X141160535Y-88807142D01*
X141246250Y-88850000D01*
X141674821Y-88807142D02*
X141674821Y-89407142D01*
X141674821Y-88892857D02*
X141717678Y-88850000D01*
X141803392Y-88807142D01*
X141931964Y-88807142D01*
X142017678Y-88850000D01*
X142060535Y-88935714D01*
X142060535Y-89407142D01*
X142874821Y-89407142D02*
X142874821Y-88507142D01*
X142874821Y-89364285D02*
X142789107Y-89407142D01*
X142617678Y-89407142D01*
X142531964Y-89364285D01*
X142489107Y-89321428D01*
X142446250Y-89235714D01*
X142446250Y-88978571D01*
X142489107Y-88892857D01*
X142531964Y-88850000D01*
X142617678Y-88807142D01*
X142789107Y-88807142D01*
X142874821Y-88850000D01*
X140774821Y-86307142D02*
X140989107Y-86907142D01*
X141203392Y-86307142D01*
X141931964Y-86864285D02*
X141846250Y-86907142D01*
X141674821Y-86907142D01*
X141589107Y-86864285D01*
X141546250Y-86821428D01*
X141503392Y-86735714D01*
X141503392Y-86478571D01*
X141546250Y-86392857D01*
X141589107Y-86350000D01*
X141674821Y-86307142D01*
X141846250Y-86307142D01*
X141931964Y-86350000D01*
X142703392Y-86864285D02*
X142617678Y-86907142D01*
X142446250Y-86907142D01*
X142360535Y-86864285D01*
X142317678Y-86821428D01*
X142274821Y-86735714D01*
X142274821Y-86478571D01*
X142317678Y-86392857D01*
X142360535Y-86350000D01*
X142446250Y-86307142D01*
X142617678Y-86307142D01*
X142703392Y-86350000D01*
X141610535Y-75407142D02*
X141610535Y-74807142D01*
X141610535Y-74507142D02*
X141567678Y-74550000D01*
X141610535Y-74592857D01*
X141653392Y-74550000D01*
X141610535Y-74507142D01*
X141610535Y-74592857D01*
X142039107Y-74807142D02*
X142039107Y-75407142D01*
X142039107Y-74892857D02*
X142081964Y-74850000D01*
X142167678Y-74807142D01*
X142296250Y-74807142D01*
X142381964Y-74850000D01*
X142424821Y-74935714D01*
X142424821Y-75407142D01*
X140989107Y-80407142D02*
X140903392Y-80364285D01*
X140860535Y-80321428D01*
X140817678Y-80235714D01*
X140817678Y-79978571D01*
X140860535Y-79892857D01*
X140903392Y-79850000D01*
X140989107Y-79807142D01*
X141117678Y-79807142D01*
X141203392Y-79850000D01*
X141246250Y-79892857D01*
X141289107Y-79978571D01*
X141289107Y-80235714D01*
X141246250Y-80321428D01*
X141203392Y-80364285D01*
X141117678Y-80407142D01*
X140989107Y-80407142D01*
X142060535Y-79807142D02*
X142060535Y-80407142D01*
X141674821Y-79807142D02*
X141674821Y-80278571D01*
X141717678Y-80364285D01*
X141803392Y-80407142D01*
X141931964Y-80407142D01*
X142017678Y-80364285D01*
X142060535Y-80321428D01*
X142360535Y-79807142D02*
X142703392Y-79807142D01*
X142489107Y-79507142D02*
X142489107Y-80278571D01*
X142531964Y-80364285D01*
X142617678Y-80407142D01*
X142703392Y-80407142D01*
D11*
X138292857Y-81083571D02*
X137721428Y-81483571D01*
X138292857Y-81769285D02*
X137092857Y-81769285D01*
X137092857Y-81312142D01*
X137150000Y-81197857D01*
X137207142Y-81140714D01*
X137321428Y-81083571D01*
X137492857Y-81083571D01*
X137607142Y-81140714D01*
X137664285Y-81197857D01*
X137721428Y-81312142D01*
X137721428Y-81769285D01*
X138407142Y-80855000D02*
X138407142Y-79940714D01*
X137492857Y-79769285D02*
X138292857Y-79483571D01*
X137492857Y-79197857D01*
X138292857Y-78569285D02*
X138235714Y-78683571D01*
X138178571Y-78740714D01*
X138064285Y-78797857D01*
X137721428Y-78797857D01*
X137607142Y-78740714D01*
X137550000Y-78683571D01*
X137492857Y-78569285D01*
X137492857Y-78397857D01*
X137550000Y-78283571D01*
X137607142Y-78226428D01*
X137721428Y-78169285D01*
X138064285Y-78169285D01*
X138178571Y-78226428D01*
X138235714Y-78283571D01*
X138292857Y-78397857D01*
X138292857Y-78569285D01*
X138292857Y-77483571D02*
X138235714Y-77597857D01*
X138121428Y-77655000D01*
X137092857Y-77655000D01*
X124652142Y-112792857D02*
X124537857Y-112735714D01*
X124480714Y-112621428D01*
X124480714Y-111592857D01*
X125566428Y-112735714D02*
X125452142Y-112792857D01*
X125223571Y-112792857D01*
X125109285Y-112735714D01*
X125052142Y-112621428D01*
X125052142Y-112164285D01*
X125109285Y-112050000D01*
X125223571Y-111992857D01*
X125452142Y-111992857D01*
X125566428Y-112050000D01*
X125623571Y-112164285D01*
X125623571Y-112278571D01*
X125052142Y-112392857D01*
X126652142Y-112792857D02*
X126652142Y-111592857D01*
X126652142Y-112735714D02*
X126537857Y-112792857D01*
X126309285Y-112792857D01*
X126195000Y-112735714D01*
X126137857Y-112678571D01*
X126080714Y-112564285D01*
X126080714Y-112221428D01*
X126137857Y-112107142D01*
X126195000Y-112050000D01*
X126309285Y-111992857D01*
X126537857Y-111992857D01*
X126652142Y-112050000D01*
X126937857Y-112907142D02*
X127852142Y-112907142D01*
X128766428Y-112792857D02*
X128080714Y-112792857D01*
X128423571Y-112792857D02*
X128423571Y-111592857D01*
X128309285Y-111764285D01*
X128195000Y-111878571D01*
X128080714Y-111935714D01*
X138542857Y-109408571D02*
X137971428Y-109808571D01*
X138542857Y-110094285D02*
X137342857Y-110094285D01*
X137342857Y-109637142D01*
X137400000Y-109522857D01*
X137457142Y-109465714D01*
X137571428Y-109408571D01*
X137742857Y-109408571D01*
X137857142Y-109465714D01*
X137914285Y-109522857D01*
X137971428Y-109637142D01*
X137971428Y-110094285D01*
X138657142Y-109180000D02*
X138657142Y-108265714D01*
X138542857Y-107808571D02*
X138485714Y-107922857D01*
X138371428Y-107980000D01*
X137342857Y-107980000D01*
X138485714Y-106894285D02*
X138542857Y-107008571D01*
X138542857Y-107237142D01*
X138485714Y-107351428D01*
X138371428Y-107408571D01*
X137914285Y-107408571D01*
X137800000Y-107351428D01*
X137742857Y-107237142D01*
X137742857Y-107008571D01*
X137800000Y-106894285D01*
X137914285Y-106837142D01*
X138028571Y-106837142D01*
X138142857Y-107408571D01*
X138542857Y-105808571D02*
X137342857Y-105808571D01*
X138485714Y-105808571D02*
X138542857Y-105922857D01*
X138542857Y-106151428D01*
X138485714Y-106265714D01*
X138428571Y-106322857D01*
X138314285Y-106380000D01*
X137971428Y-106380000D01*
X137857142Y-106322857D01*
X137800000Y-106265714D01*
X137742857Y-106151428D01*
X137742857Y-105922857D01*
X137800000Y-105808571D01*
X138657142Y-105522857D02*
X138657142Y-104608571D01*
X138542857Y-104322857D02*
X137342857Y-104322857D01*
X138542857Y-103637142D01*
X137342857Y-103637142D01*
X140292857Y-82390714D02*
X140292857Y-83076428D01*
X140292857Y-82733571D02*
X139092857Y-82733571D01*
X139264285Y-82847857D01*
X139378571Y-82962142D01*
X139435714Y-83076428D01*
X139092857Y-81647857D02*
X139092857Y-81533571D01*
X139150000Y-81419285D01*
X139207142Y-81362142D01*
X139321428Y-81305000D01*
X139550000Y-81247857D01*
X139835714Y-81247857D01*
X140064285Y-81305000D01*
X140178571Y-81362142D01*
X140235714Y-81419285D01*
X140292857Y-81533571D01*
X140292857Y-81647857D01*
X140235714Y-81762142D01*
X140178571Y-81819285D01*
X140064285Y-81876428D01*
X139835714Y-81933571D01*
X139550000Y-81933571D01*
X139321428Y-81876428D01*
X139207142Y-81819285D01*
X139150000Y-81762142D01*
X139092857Y-81647857D01*
X139092857Y-80505000D02*
X139092857Y-80390714D01*
X139150000Y-80276428D01*
X139207142Y-80219285D01*
X139321428Y-80162142D01*
X139550000Y-80105000D01*
X139835714Y-80105000D01*
X140064285Y-80162142D01*
X140178571Y-80219285D01*
X140235714Y-80276428D01*
X140292857Y-80390714D01*
X140292857Y-80505000D01*
X140235714Y-80619285D01*
X140178571Y-80676428D01*
X140064285Y-80733571D01*
X139835714Y-80790714D01*
X139550000Y-80790714D01*
X139321428Y-80733571D01*
X139207142Y-80676428D01*
X139150000Y-80619285D01*
X139092857Y-80505000D01*
X140292857Y-79590714D02*
X139092857Y-79590714D01*
X139835714Y-79476428D02*
X140292857Y-79133571D01*
X139492857Y-79133571D02*
X139950000Y-79590714D01*
X139492857Y-77876428D02*
X139492857Y-77419285D01*
X140292857Y-77705000D02*
X139264285Y-77705000D01*
X139150000Y-77647857D01*
X139092857Y-77533571D01*
X139092857Y-77419285D01*
X140292857Y-77019285D02*
X139492857Y-77019285D01*
X139721428Y-77019285D02*
X139607142Y-76962142D01*
X139550000Y-76905000D01*
X139492857Y-76790714D01*
X139492857Y-76676428D01*
X140235714Y-75819285D02*
X140292857Y-75933571D01*
X140292857Y-76162142D01*
X140235714Y-76276428D01*
X140121428Y-76333571D01*
X139664285Y-76333571D01*
X139550000Y-76276428D01*
X139492857Y-76162142D01*
X139492857Y-75933571D01*
X139550000Y-75819285D01*
X139664285Y-75762142D01*
X139778571Y-75762142D01*
X139892857Y-76333571D01*
X139492857Y-74733571D02*
X140692857Y-74733571D01*
X140235714Y-74733571D02*
X140292857Y-74847857D01*
X140292857Y-75076428D01*
X140235714Y-75190714D01*
X140178571Y-75247857D01*
X140064285Y-75305000D01*
X139721428Y-75305000D01*
X139607142Y-75247857D01*
X139550000Y-75190714D01*
X139492857Y-75076428D01*
X139492857Y-74847857D01*
X139550000Y-74733571D01*
X139492857Y-74162142D02*
X140692857Y-74162142D01*
X139550000Y-74162142D02*
X139492857Y-74047857D01*
X139492857Y-73819285D01*
X139550000Y-73705000D01*
X139607142Y-73647857D01*
X139721428Y-73590714D01*
X140064285Y-73590714D01*
X140178571Y-73647857D01*
X140235714Y-73705000D01*
X140292857Y-73819285D01*
X140292857Y-74047857D01*
X140235714Y-74162142D01*
X140292857Y-72905000D02*
X140235714Y-73019285D01*
X140178571Y-73076428D01*
X140064285Y-73133571D01*
X139721428Y-73133571D01*
X139607142Y-73076428D01*
X139550000Y-73019285D01*
X139492857Y-72905000D01*
X139492857Y-72733571D01*
X139550000Y-72619285D01*
X139607142Y-72562142D01*
X139721428Y-72505000D01*
X140064285Y-72505000D01*
X140178571Y-72562142D01*
X140235714Y-72619285D01*
X140292857Y-72733571D01*
X140292857Y-72905000D01*
X139492857Y-72162142D02*
X139492857Y-71705000D01*
X139092857Y-71990714D02*
X140121428Y-71990714D01*
X140235714Y-71933571D01*
X140292857Y-71819285D01*
X140292857Y-71705000D01*
X140292857Y-105269285D02*
X139492857Y-105269285D01*
X139721428Y-105269285D02*
X139607142Y-105212142D01*
X139550000Y-105155000D01*
X139492857Y-105040714D01*
X139492857Y-104926428D01*
X140292857Y-104526428D02*
X139092857Y-104526428D01*
X140292857Y-104012142D02*
X139664285Y-104012142D01*
X139550000Y-104069285D01*
X139492857Y-104183571D01*
X139492857Y-104355000D01*
X139550000Y-104469285D01*
X139607142Y-104526428D01*
X139492857Y-103555000D02*
X140292857Y-103269285D01*
X139492857Y-102983571D02*
X140292857Y-103269285D01*
X140578571Y-103383571D01*
X140635714Y-103440714D01*
X140692857Y-103555000D01*
X139492857Y-102697857D02*
X139492857Y-102240714D01*
X139092857Y-102526428D02*
X140121428Y-102526428D01*
X140235714Y-102469285D01*
X140292857Y-102355000D01*
X140292857Y-102240714D01*
X140292857Y-101840714D02*
X139092857Y-101840714D01*
X140292857Y-101326428D02*
X139664285Y-101326428D01*
X139550000Y-101383571D01*
X139492857Y-101497857D01*
X139492857Y-101669285D01*
X139550000Y-101783571D01*
X139607142Y-101840714D01*
X140292857Y-100755000D02*
X139492857Y-100755000D01*
X139607142Y-100755000D02*
X139550000Y-100697857D01*
X139492857Y-100583571D01*
X139492857Y-100412142D01*
X139550000Y-100297857D01*
X139664285Y-100240714D01*
X140292857Y-100240714D01*
X139664285Y-100240714D02*
X139550000Y-100183571D01*
X139492857Y-100069285D01*
X139492857Y-99897857D01*
X139550000Y-99783571D01*
X139664285Y-99726428D01*
X140292857Y-99726428D01*
X140407142Y-99440714D02*
X140407142Y-98526428D01*
X140235714Y-98297857D02*
X140292857Y-98183571D01*
X140292857Y-97955000D01*
X140235714Y-97840714D01*
X140121428Y-97783571D01*
X140064285Y-97783571D01*
X139950000Y-97840714D01*
X139892857Y-97955000D01*
X139892857Y-98126428D01*
X139835714Y-98240714D01*
X139721428Y-98297857D01*
X139664285Y-98297857D01*
X139550000Y-98240714D01*
X139492857Y-98126428D01*
X139492857Y-97955000D01*
X139550000Y-97840714D01*
X139492857Y-97383571D02*
X140292857Y-97155000D01*
X139721428Y-96926428D01*
X140292857Y-96697857D01*
X139492857Y-96469285D01*
X140292857Y-96012142D02*
X139492857Y-96012142D01*
X139092857Y-96012142D02*
X139150000Y-96069285D01*
X139207142Y-96012142D01*
X139150000Y-95955000D01*
X139092857Y-96012142D01*
X139207142Y-96012142D01*
X139492857Y-95612142D02*
X139492857Y-95155000D01*
X139092857Y-95440714D02*
X140121428Y-95440714D01*
X140235714Y-95383571D01*
X140292857Y-95269285D01*
X140292857Y-95155000D01*
X140235714Y-94240714D02*
X140292857Y-94355000D01*
X140292857Y-94583571D01*
X140235714Y-94697857D01*
X140178571Y-94755000D01*
X140064285Y-94812142D01*
X139721428Y-94812142D01*
X139607142Y-94755000D01*
X139550000Y-94697857D01*
X139492857Y-94583571D01*
X139492857Y-94355000D01*
X139550000Y-94240714D01*
X140292857Y-93726428D02*
X139092857Y-93726428D01*
X140292857Y-93212142D02*
X139664285Y-93212142D01*
X139550000Y-93269285D01*
X139492857Y-93383571D01*
X139492857Y-93555000D01*
X139550000Y-93669285D01*
X139607142Y-93726428D01*
X136109285Y-67292857D02*
X135423571Y-67292857D01*
X135766428Y-67292857D02*
X135766428Y-66092857D01*
X135652142Y-66264285D01*
X135537857Y-66378571D01*
X135423571Y-66435714D01*
X136852142Y-66092857D02*
X136966428Y-66092857D01*
X137080714Y-66150000D01*
X137137857Y-66207142D01*
X137195000Y-66321428D01*
X137252142Y-66550000D01*
X137252142Y-66835714D01*
X137195000Y-67064285D01*
X137137857Y-67178571D01*
X137080714Y-67235714D01*
X136966428Y-67292857D01*
X136852142Y-67292857D01*
X136737857Y-67235714D01*
X136680714Y-67178571D01*
X136623571Y-67064285D01*
X136566428Y-66835714D01*
X136566428Y-66550000D01*
X136623571Y-66321428D01*
X136680714Y-66207142D01*
X136737857Y-66150000D01*
X136852142Y-66092857D01*
X138280714Y-66492857D02*
X138280714Y-67292857D01*
X137766428Y-66492857D02*
X137766428Y-67121428D01*
X137823571Y-67235714D01*
X137937857Y-67292857D01*
X138109285Y-67292857D01*
X138223571Y-67235714D01*
X138280714Y-67178571D01*
X115745000Y-72992857D02*
X115745000Y-73792857D01*
X115459285Y-72535714D02*
X115173571Y-73392857D01*
X115916428Y-73392857D01*
X116259285Y-72592857D02*
X117059285Y-72592857D01*
X116545000Y-73792857D01*
X118030714Y-72992857D02*
X118030714Y-73792857D01*
X117516428Y-72992857D02*
X117516428Y-73621428D01*
X117573571Y-73735714D01*
X117687857Y-73792857D01*
X117859285Y-73792857D01*
X117973571Y-73735714D01*
X118030714Y-73678571D01*
X140235714Y-91076428D02*
X140292857Y-90962142D01*
X140292857Y-90733571D01*
X140235714Y-90619285D01*
X140121428Y-90562142D01*
X140064285Y-90562142D01*
X139950000Y-90619285D01*
X139892857Y-90733571D01*
X139892857Y-90905000D01*
X139835714Y-91019285D01*
X139721428Y-91076428D01*
X139664285Y-91076428D01*
X139550000Y-91019285D01*
X139492857Y-90905000D01*
X139492857Y-90733571D01*
X139550000Y-90619285D01*
X139492857Y-90047857D02*
X140692857Y-90047857D01*
X139550000Y-90047857D02*
X139492857Y-89933571D01*
X139492857Y-89705000D01*
X139550000Y-89590714D01*
X139607142Y-89533571D01*
X139721428Y-89476428D01*
X140064285Y-89476428D01*
X140178571Y-89533571D01*
X140235714Y-89590714D01*
X140292857Y-89705000D01*
X140292857Y-89933571D01*
X140235714Y-90047857D01*
X140235714Y-88505000D02*
X140292857Y-88619285D01*
X140292857Y-88847857D01*
X140235714Y-88962142D01*
X140121428Y-89019285D01*
X139664285Y-89019285D01*
X139550000Y-88962142D01*
X139492857Y-88847857D01*
X139492857Y-88619285D01*
X139550000Y-88505000D01*
X139664285Y-88447857D01*
X139778571Y-88447857D01*
X139892857Y-89019285D01*
X140292857Y-87419285D02*
X139664285Y-87419285D01*
X139550000Y-87476428D01*
X139492857Y-87590714D01*
X139492857Y-87819285D01*
X139550000Y-87933571D01*
X140235714Y-87419285D02*
X140292857Y-87533571D01*
X140292857Y-87819285D01*
X140235714Y-87933571D01*
X140121428Y-87990714D01*
X140007142Y-87990714D01*
X139892857Y-87933571D01*
X139835714Y-87819285D01*
X139835714Y-87533571D01*
X139778571Y-87419285D01*
X140292857Y-86847857D02*
X139092857Y-86847857D01*
X139835714Y-86733571D02*
X140292857Y-86390714D01*
X139492857Y-86390714D02*
X139950000Y-86847857D01*
X140235714Y-85419285D02*
X140292857Y-85533571D01*
X140292857Y-85762142D01*
X140235714Y-85876428D01*
X140121428Y-85933571D01*
X139664285Y-85933571D01*
X139550000Y-85876428D01*
X139492857Y-85762142D01*
X139492857Y-85533571D01*
X139550000Y-85419285D01*
X139664285Y-85362142D01*
X139778571Y-85362142D01*
X139892857Y-85933571D01*
X140292857Y-84847857D02*
X139492857Y-84847857D01*
X139721428Y-84847857D02*
X139607142Y-84790714D01*
X139550000Y-84733571D01*
X139492857Y-84619285D01*
X139492857Y-84505000D01*
D10*
X117746250Y-103057142D02*
X117746250Y-103785714D01*
X117703392Y-103871428D01*
X117660535Y-103914285D01*
X117574821Y-103957142D01*
X117446250Y-103957142D01*
X117360535Y-103914285D01*
X117746250Y-103614285D02*
X117660535Y-103657142D01*
X117489107Y-103657142D01*
X117403392Y-103614285D01*
X117360535Y-103571428D01*
X117317678Y-103485714D01*
X117317678Y-103228571D01*
X117360535Y-103142857D01*
X117403392Y-103100000D01*
X117489107Y-103057142D01*
X117660535Y-103057142D01*
X117746250Y-103100000D01*
X118174821Y-103057142D02*
X118174821Y-103657142D01*
X118174821Y-103142857D02*
X118217678Y-103100000D01*
X118303392Y-103057142D01*
X118431964Y-103057142D01*
X118517678Y-103100000D01*
X118560535Y-103185714D01*
X118560535Y-103657142D01*
X119374821Y-103657142D02*
X119374821Y-102757142D01*
X119374821Y-103614285D02*
X119289107Y-103657142D01*
X119117678Y-103657142D01*
X119031964Y-103614285D01*
X118989107Y-103571428D01*
X118946250Y-103485714D01*
X118946250Y-103228571D01*
X118989107Y-103142857D01*
X119031964Y-103100000D01*
X119117678Y-103057142D01*
X119289107Y-103057142D01*
X119374821Y-103100000D01*
D11*
X125802857Y-82447857D02*
X125802857Y-83019285D01*
X124602857Y-83019285D01*
X125802857Y-82047857D02*
X124602857Y-82047857D01*
X125460000Y-81647857D01*
X124602857Y-81247857D01*
X125802857Y-81247857D01*
X124602857Y-80105000D02*
X124602857Y-80676428D01*
X125174285Y-80733571D01*
X125117142Y-80676428D01*
X125060000Y-80562142D01*
X125060000Y-80276428D01*
X125117142Y-80162142D01*
X125174285Y-80105000D01*
X125288571Y-80047857D01*
X125574285Y-80047857D01*
X125688571Y-80105000D01*
X125745714Y-80162142D01*
X125802857Y-80276428D01*
X125802857Y-80562142D01*
X125745714Y-80676428D01*
X125688571Y-80733571D01*
X124602857Y-78962142D02*
X124602857Y-79533571D01*
X125174285Y-79590714D01*
X125117142Y-79533571D01*
X125060000Y-79419285D01*
X125060000Y-79133571D01*
X125117142Y-79019285D01*
X125174285Y-78962142D01*
X125288571Y-78905000D01*
X125574285Y-78905000D01*
X125688571Y-78962142D01*
X125745714Y-79019285D01*
X125802857Y-79133571D01*
X125802857Y-79419285D01*
X125745714Y-79533571D01*
X125688571Y-79590714D01*
X124602857Y-77819285D02*
X124602857Y-78390714D01*
X125174285Y-78447857D01*
X125117142Y-78390714D01*
X125060000Y-78276428D01*
X125060000Y-77990714D01*
X125117142Y-77876428D01*
X125174285Y-77819285D01*
X125288571Y-77762142D01*
X125574285Y-77762142D01*
X125688571Y-77819285D01*
X125745714Y-77876428D01*
X125802857Y-77990714D01*
X125802857Y-78276428D01*
X125745714Y-78390714D01*
X125688571Y-78447857D01*
X114130714Y-80164285D02*
X114302142Y-80221428D01*
X114359285Y-80278571D01*
X114416428Y-80392857D01*
X114416428Y-80564285D01*
X114359285Y-80678571D01*
X114302142Y-80735714D01*
X114187857Y-80792857D01*
X113730714Y-80792857D01*
X113730714Y-79592857D01*
X114130714Y-79592857D01*
X114245000Y-79650000D01*
X114302142Y-79707142D01*
X114359285Y-79821428D01*
X114359285Y-79935714D01*
X114302142Y-80050000D01*
X114245000Y-80107142D01*
X114130714Y-80164285D01*
X113730714Y-80164285D01*
X114873571Y-80735714D02*
X115045000Y-80792857D01*
X115330714Y-80792857D01*
X115445000Y-80735714D01*
X115502142Y-80678571D01*
X115559285Y-80564285D01*
X115559285Y-80450000D01*
X115502142Y-80335714D01*
X115445000Y-80278571D01*
X115330714Y-80221428D01*
X115102142Y-80164285D01*
X114987857Y-80107142D01*
X114930714Y-80050000D01*
X114873571Y-79935714D01*
X114873571Y-79821428D01*
X114930714Y-79707142D01*
X114987857Y-79650000D01*
X115102142Y-79592857D01*
X115387857Y-79592857D01*
X115559285Y-79650000D01*
X116016428Y-79707142D02*
X116073571Y-79650000D01*
X116187857Y-79592857D01*
X116473571Y-79592857D01*
X116587857Y-79650000D01*
X116645000Y-79707142D01*
X116702142Y-79821428D01*
X116702142Y-79935714D01*
X116645000Y-80107142D01*
X115959285Y-80792857D01*
X116702142Y-80792857D01*
X117102142Y-79592857D02*
X117902142Y-79592857D01*
X117387857Y-80792857D01*
X118587857Y-79592857D02*
X118702142Y-79592857D01*
X118816428Y-79650000D01*
X118873571Y-79707142D01*
X118930714Y-79821428D01*
X118987857Y-80050000D01*
X118987857Y-80335714D01*
X118930714Y-80564285D01*
X118873571Y-80678571D01*
X118816428Y-80735714D01*
X118702142Y-80792857D01*
X118587857Y-80792857D01*
X118473571Y-80735714D01*
X118416428Y-80678571D01*
X118359285Y-80564285D01*
X118302142Y-80335714D01*
X118302142Y-80050000D01*
X118359285Y-79821428D01*
X118416428Y-79707142D01*
X118473571Y-79650000D01*
X118587857Y-79592857D01*
X128916428Y-71542857D02*
X128516428Y-70971428D01*
X128230714Y-71542857D02*
X128230714Y-70342857D01*
X128687857Y-70342857D01*
X128802142Y-70400000D01*
X128859285Y-70457142D01*
X128916428Y-70571428D01*
X128916428Y-70742857D01*
X128859285Y-70857142D01*
X128802142Y-70914285D01*
X128687857Y-70971428D01*
X128230714Y-70971428D01*
X129430714Y-71542857D02*
X129430714Y-70342857D01*
X129430714Y-70800000D02*
X129545000Y-70742857D01*
X129773571Y-70742857D01*
X129887857Y-70800000D01*
X129945000Y-70857142D01*
X130002142Y-70971428D01*
X130002142Y-71314285D01*
X129945000Y-71428571D01*
X129887857Y-71485714D01*
X129773571Y-71542857D01*
X129545000Y-71542857D01*
X129430714Y-71485714D01*
X125166428Y-91928571D02*
X125109285Y-91985714D01*
X124937857Y-92042857D01*
X124823571Y-92042857D01*
X124652142Y-91985714D01*
X124537857Y-91871428D01*
X124480714Y-91757142D01*
X124423571Y-91528571D01*
X124423571Y-91357142D01*
X124480714Y-91128571D01*
X124537857Y-91014285D01*
X124652142Y-90900000D01*
X124823571Y-90842857D01*
X124937857Y-90842857D01*
X125109285Y-90900000D01*
X125166428Y-90957142D01*
X125680714Y-92042857D02*
X125680714Y-90842857D01*
X125966428Y-90842857D01*
X126137857Y-90900000D01*
X126252142Y-91014285D01*
X126309285Y-91128571D01*
X126366428Y-91357142D01*
X126366428Y-91528571D01*
X126309285Y-91757142D01*
X126252142Y-91871428D01*
X126137857Y-91985714D01*
X125966428Y-92042857D01*
X125680714Y-92042857D01*
X127395000Y-91242857D02*
X127395000Y-92042857D01*
X127109285Y-90785714D02*
X126823571Y-91642857D01*
X127566428Y-91642857D01*
X128252142Y-90842857D02*
X128366428Y-90842857D01*
X128480714Y-90900000D01*
X128537857Y-90957142D01*
X128595000Y-91071428D01*
X128652142Y-91300000D01*
X128652142Y-91585714D01*
X128595000Y-91814285D01*
X128537857Y-91928571D01*
X128480714Y-91985714D01*
X128366428Y-92042857D01*
X128252142Y-92042857D01*
X128137857Y-91985714D01*
X128080714Y-91928571D01*
X128023571Y-91814285D01*
X127966428Y-91585714D01*
X127966428Y-91300000D01*
X128023571Y-91071428D01*
X128080714Y-90957142D01*
X128137857Y-90900000D01*
X128252142Y-90842857D01*
X129795000Y-92042857D02*
X129109285Y-92042857D01*
X129452142Y-92042857D02*
X129452142Y-90842857D01*
X129337857Y-91014285D01*
X129223571Y-91128571D01*
X129109285Y-91185714D01*
X130195000Y-90842857D02*
X130995000Y-90842857D01*
X130480714Y-92042857D01*
X131852142Y-91414285D02*
X132023571Y-91471428D01*
X132080714Y-91528571D01*
X132137857Y-91642857D01*
X132137857Y-91814285D01*
X132080714Y-91928571D01*
X132023571Y-91985714D01*
X131909285Y-92042857D01*
X131452142Y-92042857D01*
X131452142Y-90842857D01*
X131852142Y-90842857D01*
X131966428Y-90900000D01*
X132023571Y-90957142D01*
X132080714Y-91071428D01*
X132080714Y-91185714D01*
X132023571Y-91300000D01*
X131966428Y-91357142D01*
X131852142Y-91414285D01*
X131452142Y-91414285D01*
X132652142Y-91414285D02*
X133052142Y-91414285D01*
X133223571Y-92042857D02*
X132652142Y-92042857D01*
X132652142Y-90842857D01*
X133223571Y-90842857D01*
X125052142Y-67092857D02*
X124480714Y-67092857D01*
X124423571Y-67664285D01*
X124480714Y-67607142D01*
X124595000Y-67550000D01*
X124880714Y-67550000D01*
X124995000Y-67607142D01*
X125052142Y-67664285D01*
X125109285Y-67778571D01*
X125109285Y-68064285D01*
X125052142Y-68178571D01*
X124995000Y-68235714D01*
X124880714Y-68292857D01*
X124595000Y-68292857D01*
X124480714Y-68235714D01*
X124423571Y-68178571D01*
X125623571Y-68292857D02*
X125623571Y-67092857D01*
X125737857Y-67835714D02*
X126080714Y-68292857D01*
X126080714Y-67492857D02*
X125623571Y-67950000D01*
X127109285Y-67092857D02*
X126880714Y-67092857D01*
X126766428Y-67150000D01*
X126709285Y-67207142D01*
X126595000Y-67378571D01*
X126537857Y-67607142D01*
X126537857Y-68064285D01*
X126595000Y-68178571D01*
X126652142Y-68235714D01*
X126766428Y-68292857D01*
X126995000Y-68292857D01*
X127109285Y-68235714D01*
X127166428Y-68178571D01*
X127223571Y-68064285D01*
X127223571Y-67778571D01*
X127166428Y-67664285D01*
X127109285Y-67607142D01*
X126995000Y-67550000D01*
X126766428Y-67550000D01*
X126652142Y-67607142D01*
X126595000Y-67664285D01*
X126537857Y-67778571D01*
X116916428Y-77928571D02*
X116859285Y-77985714D01*
X116687857Y-78042857D01*
X116573571Y-78042857D01*
X116402142Y-77985714D01*
X116287857Y-77871428D01*
X116230714Y-77757142D01*
X116173571Y-77528571D01*
X116173571Y-77357142D01*
X116230714Y-77128571D01*
X116287857Y-77014285D01*
X116402142Y-76900000D01*
X116573571Y-76842857D01*
X116687857Y-76842857D01*
X116859285Y-76900000D01*
X116916428Y-76957142D01*
D10*
X117274821Y-100557142D02*
X117489107Y-101157142D01*
X117703392Y-100557142D01*
X118046250Y-101157142D02*
X118046250Y-100557142D01*
X118046250Y-100257142D02*
X118003392Y-100300000D01*
X118046250Y-100342857D01*
X118089107Y-100300000D01*
X118046250Y-100257142D01*
X118046250Y-100342857D01*
X118474821Y-100557142D02*
X118474821Y-101157142D01*
X118474821Y-100642857D02*
X118517678Y-100600000D01*
X118603392Y-100557142D01*
X118731964Y-100557142D01*
X118817678Y-100600000D01*
X118860535Y-100685714D01*
X118860535Y-101157142D01*
D11*
X131152142Y-112792857D02*
X131037857Y-112735714D01*
X130980714Y-112621428D01*
X130980714Y-111592857D01*
X132066428Y-112735714D02*
X131952142Y-112792857D01*
X131723571Y-112792857D01*
X131609285Y-112735714D01*
X131552142Y-112621428D01*
X131552142Y-112164285D01*
X131609285Y-112050000D01*
X131723571Y-111992857D01*
X131952142Y-111992857D01*
X132066428Y-112050000D01*
X132123571Y-112164285D01*
X132123571Y-112278571D01*
X131552142Y-112392857D01*
X133152142Y-112792857D02*
X133152142Y-111592857D01*
X133152142Y-112735714D02*
X133037857Y-112792857D01*
X132809285Y-112792857D01*
X132695000Y-112735714D01*
X132637857Y-112678571D01*
X132580714Y-112564285D01*
X132580714Y-112221428D01*
X132637857Y-112107142D01*
X132695000Y-112050000D01*
X132809285Y-111992857D01*
X133037857Y-111992857D01*
X133152142Y-112050000D01*
X133437857Y-112907142D02*
X134352142Y-112907142D01*
X134637857Y-112792857D02*
X134637857Y-111592857D01*
X135323571Y-112792857D01*
X135323571Y-111592857D01*
X115542857Y-92890714D02*
X115542857Y-93576428D01*
X115542857Y-93233571D02*
X114342857Y-93233571D01*
X114514285Y-93347857D01*
X114628571Y-93462142D01*
X114685714Y-93576428D01*
X114342857Y-92147857D02*
X114342857Y-92033571D01*
X114400000Y-91919285D01*
X114457142Y-91862142D01*
X114571428Y-91805000D01*
X114800000Y-91747857D01*
X115085714Y-91747857D01*
X115314285Y-91805000D01*
X115428571Y-91862142D01*
X115485714Y-91919285D01*
X115542857Y-92033571D01*
X115542857Y-92147857D01*
X115485714Y-92262142D01*
X115428571Y-92319285D01*
X115314285Y-92376428D01*
X115085714Y-92433571D01*
X114800000Y-92433571D01*
X114571428Y-92376428D01*
X114457142Y-92319285D01*
X114400000Y-92262142D01*
X114342857Y-92147857D01*
X115542857Y-91233571D02*
X114342857Y-91233571D01*
X115085714Y-91119285D02*
X115542857Y-90776428D01*
X114742857Y-90776428D02*
X115200000Y-91233571D01*
X124995000Y-70342857D02*
X124766428Y-70342857D01*
X124652142Y-70400000D01*
X124595000Y-70457142D01*
X124480714Y-70628571D01*
X124423571Y-70857142D01*
X124423571Y-71314285D01*
X124480714Y-71428571D01*
X124537857Y-71485714D01*
X124652142Y-71542857D01*
X124880714Y-71542857D01*
X124995000Y-71485714D01*
X125052142Y-71428571D01*
X125109285Y-71314285D01*
X125109285Y-71028571D01*
X125052142Y-70914285D01*
X124995000Y-70857142D01*
X124880714Y-70800000D01*
X124652142Y-70800000D01*
X124537857Y-70857142D01*
X124480714Y-70914285D01*
X124423571Y-71028571D01*
X125795000Y-70857142D02*
X125680714Y-70800000D01*
X125623571Y-70742857D01*
X125566428Y-70628571D01*
X125566428Y-70571428D01*
X125623571Y-70457142D01*
X125680714Y-70400000D01*
X125795000Y-70342857D01*
X126023571Y-70342857D01*
X126137857Y-70400000D01*
X126195000Y-70457142D01*
X126252142Y-70571428D01*
X126252142Y-70628571D01*
X126195000Y-70742857D01*
X126137857Y-70800000D01*
X126023571Y-70857142D01*
X125795000Y-70857142D01*
X125680714Y-70914285D01*
X125623571Y-70971428D01*
X125566428Y-71085714D01*
X125566428Y-71314285D01*
X125623571Y-71428571D01*
X125680714Y-71485714D01*
X125795000Y-71542857D01*
X126023571Y-71542857D01*
X126137857Y-71485714D01*
X126195000Y-71428571D01*
X126252142Y-71314285D01*
X126252142Y-71085714D01*
X126195000Y-70971428D01*
X126137857Y-70914285D01*
X126023571Y-70857142D01*
X126995000Y-70342857D02*
X127109285Y-70342857D01*
X127223571Y-70400000D01*
X127280714Y-70457142D01*
X127337857Y-70571428D01*
X127395000Y-70800000D01*
X127395000Y-71085714D01*
X127337857Y-71314285D01*
X127280714Y-71428571D01*
X127223571Y-71485714D01*
X127109285Y-71542857D01*
X126995000Y-71542857D01*
X126880714Y-71485714D01*
X126823571Y-71428571D01*
X126766428Y-71314285D01*
X126709285Y-71085714D01*
X126709285Y-70800000D01*
X126766428Y-70571428D01*
X126823571Y-70457142D01*
X126880714Y-70400000D01*
X126995000Y-70342857D01*
X122042857Y-109488571D02*
X121471428Y-109888571D01*
X122042857Y-110174285D02*
X120842857Y-110174285D01*
X120842857Y-109717142D01*
X120900000Y-109602857D01*
X120957142Y-109545714D01*
X121071428Y-109488571D01*
X121242857Y-109488571D01*
X121357142Y-109545714D01*
X121414285Y-109602857D01*
X121471428Y-109717142D01*
X121471428Y-110174285D01*
X122157142Y-109260000D02*
X122157142Y-108345714D01*
X122042857Y-107888571D02*
X121985714Y-108002857D01*
X121871428Y-108060000D01*
X120842857Y-108060000D01*
X121985714Y-106974285D02*
X122042857Y-107088571D01*
X122042857Y-107317142D01*
X121985714Y-107431428D01*
X121871428Y-107488571D01*
X121414285Y-107488571D01*
X121300000Y-107431428D01*
X121242857Y-107317142D01*
X121242857Y-107088571D01*
X121300000Y-106974285D01*
X121414285Y-106917142D01*
X121528571Y-106917142D01*
X121642857Y-107488571D01*
X122042857Y-105888571D02*
X120842857Y-105888571D01*
X121985714Y-105888571D02*
X122042857Y-106002857D01*
X122042857Y-106231428D01*
X121985714Y-106345714D01*
X121928571Y-106402857D01*
X121814285Y-106460000D01*
X121471428Y-106460000D01*
X121357142Y-106402857D01*
X121300000Y-106345714D01*
X121242857Y-106231428D01*
X121242857Y-106002857D01*
X121300000Y-105888571D01*
X122157142Y-105602857D02*
X122157142Y-104688571D01*
X122042857Y-103774285D02*
X122042857Y-104460000D01*
X122042857Y-104117142D02*
X120842857Y-104117142D01*
X121014285Y-104231428D01*
X121128571Y-104345714D01*
X121185714Y-104460000D01*
X131959285Y-78842857D02*
X132073571Y-78842857D01*
X132187857Y-78900000D01*
X132245000Y-78957142D01*
X132302142Y-79071428D01*
X132359285Y-79300000D01*
X132359285Y-79585714D01*
X132302142Y-79814285D01*
X132245000Y-79928571D01*
X132187857Y-79985714D01*
X132073571Y-80042857D01*
X131959285Y-80042857D01*
X131845000Y-79985714D01*
X131787857Y-79928571D01*
X131730714Y-79814285D01*
X131673571Y-79585714D01*
X131673571Y-79300000D01*
X131730714Y-79071428D01*
X131787857Y-78957142D01*
X131845000Y-78900000D01*
X131959285Y-78842857D01*
X132873571Y-79928571D02*
X132930714Y-79985714D01*
X132873571Y-80042857D01*
X132816428Y-79985714D01*
X132873571Y-79928571D01*
X132873571Y-80042857D01*
X134073571Y-80042857D02*
X133387857Y-80042857D01*
X133730714Y-80042857D02*
X133730714Y-78842857D01*
X133616428Y-79014285D01*
X133502142Y-79128571D01*
X133387857Y-79185714D01*
X135102142Y-79242857D02*
X135102142Y-80042857D01*
X134587857Y-79242857D02*
X134587857Y-79871428D01*
X134645000Y-79985714D01*
X134759285Y-80042857D01*
X134930714Y-80042857D01*
X135045000Y-79985714D01*
X135102142Y-79928571D01*
X128916428Y-68292857D02*
X128516428Y-67721428D01*
X128230714Y-68292857D02*
X128230714Y-67092857D01*
X128687857Y-67092857D01*
X128802142Y-67150000D01*
X128859285Y-67207142D01*
X128916428Y-67321428D01*
X128916428Y-67492857D01*
X128859285Y-67607142D01*
X128802142Y-67664285D01*
X128687857Y-67721428D01*
X128230714Y-67721428D01*
X129945000Y-68292857D02*
X129945000Y-67664285D01*
X129887857Y-67550000D01*
X129773571Y-67492857D01*
X129545000Y-67492857D01*
X129430714Y-67550000D01*
X129945000Y-68235714D02*
X129830714Y-68292857D01*
X129545000Y-68292857D01*
X129430714Y-68235714D01*
X129373571Y-68121428D01*
X129373571Y-68007142D01*
X129430714Y-67892857D01*
X129545000Y-67835714D01*
X129830714Y-67835714D01*
X129945000Y-67778571D01*
D12*
%TO.C,R3*%
X130270000Y-69630000D02*
X123730000Y-69630000D01*
X122960000Y-71000000D02*
X123730000Y-71000000D01*
X123730000Y-69630000D02*
X123730000Y-72370000D01*
X123730000Y-72370000D02*
X130270000Y-72370000D01*
X131040000Y-71000000D02*
X130270000Y-71000000D01*
X130270000Y-72370000D02*
X130270000Y-69630000D01*
%TO.C,J1*%
X141250000Y-90800000D02*
X141250000Y-87750000D01*
X146450000Y-83950000D02*
X145700000Y-83950000D01*
X145700000Y-87250000D02*
X145700000Y-88250000D01*
X146450000Y-89750000D02*
X145700000Y-89750000D01*
X144200000Y-83950000D02*
X144200000Y-84700000D01*
X146450000Y-85750000D02*
X146450000Y-83950000D01*
X145700000Y-88250000D02*
X146450000Y-88250000D01*
X144200000Y-84700000D02*
X141250000Y-84700000D01*
X146750000Y-83650000D02*
X145500000Y-83650000D01*
X145700000Y-83950000D02*
X145700000Y-85750000D01*
X146450000Y-91550000D02*
X146450000Y-89750000D01*
X145700000Y-85750000D02*
X146450000Y-85750000D01*
X146750000Y-84900000D02*
X146750000Y-83650000D01*
X146450000Y-88250000D02*
X146450000Y-87250000D01*
X140490000Y-91560000D02*
X146460000Y-91560000D01*
X145700000Y-89750000D02*
X145700000Y-91550000D01*
X140490000Y-83940000D02*
X140490000Y-91560000D01*
X146450000Y-87250000D02*
X145700000Y-87250000D01*
X145700000Y-91550000D02*
X146450000Y-91550000D01*
X144200000Y-91550000D02*
X144200000Y-90800000D01*
X141250000Y-84700000D02*
X141250000Y-87750000D01*
X146460000Y-91560000D02*
X146460000Y-83940000D01*
X144200000Y-90800000D02*
X141250000Y-90800000D01*
X146460000Y-83940000D02*
X140490000Y-83940000D01*
%TO.C,R1*%
X137750000Y-83540000D02*
X137750000Y-82770000D01*
X136380000Y-76230000D02*
X136380000Y-82770000D01*
X139120000Y-76230000D02*
X136380000Y-76230000D01*
X136380000Y-82770000D02*
X139120000Y-82770000D01*
X139120000Y-82770000D02*
X139120000Y-76230000D01*
X137750000Y-75460000D02*
X137750000Y-76230000D01*
%TO.C,J2*%
X113800000Y-98200000D02*
X113050000Y-98200000D01*
X118250000Y-105050000D02*
X118250000Y-102000000D01*
X113800000Y-105800000D02*
X113800000Y-104000000D01*
X119010000Y-105810000D02*
X119010000Y-98190000D01*
X112750000Y-106100000D02*
X114000000Y-106100000D01*
X113050000Y-104000000D02*
X113050000Y-105800000D01*
X115300000Y-98950000D02*
X118250000Y-98950000D01*
X113050000Y-105800000D02*
X113800000Y-105800000D01*
X113050000Y-100000000D02*
X113800000Y-100000000D01*
X115300000Y-105800000D02*
X115300000Y-105050000D01*
X112750000Y-104850000D02*
X112750000Y-106100000D01*
X113800000Y-104000000D02*
X113050000Y-104000000D01*
X113040000Y-105810000D02*
X119010000Y-105810000D01*
X118250000Y-98950000D02*
X118250000Y-102000000D01*
X119010000Y-98190000D02*
X113040000Y-98190000D01*
X113800000Y-100000000D02*
X113800000Y-98200000D01*
X113050000Y-102500000D02*
X113800000Y-102500000D01*
X113050000Y-98200000D02*
X113050000Y-100000000D01*
X115300000Y-98200000D02*
X115300000Y-98950000D01*
X113040000Y-98190000D02*
X113040000Y-105810000D01*
X115300000Y-105050000D02*
X118250000Y-105050000D01*
X113050000Y-101500000D02*
X113050000Y-102500000D01*
X113800000Y-102500000D02*
X113800000Y-101500000D01*
X113800000Y-101500000D02*
X113050000Y-101500000D01*
%TO.C,R10*%
X121500000Y-102960000D02*
X121500000Y-103730000D01*
X121500000Y-111040000D02*
X121500000Y-110270000D01*
X122870000Y-110270000D02*
X122870000Y-103730000D01*
X120130000Y-110270000D02*
X122870000Y-110270000D01*
X120130000Y-103730000D02*
X120130000Y-110270000D01*
X122870000Y-103730000D02*
X120130000Y-103730000D01*
%TO.C,C2*%
X139370000Y-70250000D02*
G75*
G03*
X139370000Y-70250000I-2620000J0D01*
G01*
%TO.C,C3*%
X135870000Y-83000000D02*
G75*
G03*
X135870000Y-83000000I-2620000J0D01*
G01*
%TO.C,C4*%
X119770000Y-75250000D02*
G75*
G03*
X119770000Y-75250000I-3270000J0D01*
G01*
%TO.C,D5*%
X127880000Y-103090000D02*
X130120000Y-103090000D01*
X127880000Y-103210000D02*
X130120000Y-103210000D01*
X130120000Y-99570000D02*
X127880000Y-99570000D01*
X127880000Y-103810000D02*
X130120000Y-103810000D01*
X127880000Y-102970000D02*
X130120000Y-102970000D01*
X129000000Y-104460000D02*
X129000000Y-103810000D01*
X129000000Y-98920000D02*
X129000000Y-99570000D01*
X130120000Y-103810000D02*
X130120000Y-99570000D01*
X127880000Y-99570000D02*
X127880000Y-103810000D01*
%TO.C,J3*%
X145700000Y-102250000D02*
X146450000Y-102250000D01*
X146450000Y-92950000D02*
X145700000Y-92950000D01*
X146450000Y-96250000D02*
X145700000Y-96250000D01*
X144200000Y-105550000D02*
X144200000Y-104800000D01*
X146750000Y-92650000D02*
X145500000Y-92650000D01*
X146450000Y-94750000D02*
X146450000Y-92950000D01*
X146750000Y-93900000D02*
X146750000Y-92650000D01*
X145700000Y-105550000D02*
X146450000Y-105550000D01*
X146450000Y-105550000D02*
X146450000Y-103750000D01*
X146460000Y-105560000D02*
X146460000Y-92940000D01*
X140490000Y-105560000D02*
X146460000Y-105560000D01*
X145700000Y-103750000D02*
X145700000Y-105550000D01*
X141250000Y-104800000D02*
X141250000Y-99250000D01*
X140490000Y-92940000D02*
X140490000Y-105560000D01*
X146460000Y-92940000D02*
X140490000Y-92940000D01*
X146450000Y-102250000D02*
X146450000Y-96250000D01*
X144200000Y-92950000D02*
X144200000Y-93700000D01*
X145700000Y-94750000D02*
X146450000Y-94750000D01*
X144200000Y-93700000D02*
X141250000Y-93700000D01*
X145700000Y-96250000D02*
X145700000Y-102250000D01*
X144200000Y-104800000D02*
X141250000Y-104800000D01*
X145700000Y-92950000D02*
X145700000Y-94750000D01*
X146450000Y-103750000D02*
X145700000Y-103750000D01*
X141250000Y-93700000D02*
X141250000Y-99250000D01*
%TO.C,D3*%
X133880000Y-103210000D02*
X136120000Y-103210000D01*
X133880000Y-99570000D02*
X133880000Y-103810000D01*
X136120000Y-103810000D02*
X136120000Y-99570000D01*
X136120000Y-99570000D02*
X133880000Y-99570000D01*
X133880000Y-103810000D02*
X136120000Y-103810000D01*
X135000000Y-104460000D02*
X135000000Y-103810000D01*
X133880000Y-102970000D02*
X136120000Y-102970000D01*
X135000000Y-98920000D02*
X135000000Y-99570000D01*
X133880000Y-103090000D02*
X136120000Y-103090000D01*
%TO.C,RV2*%
X145700000Y-82550000D02*
X146450000Y-82550000D01*
X145700000Y-75750000D02*
X145700000Y-79250000D01*
X145700000Y-79250000D02*
X146450000Y-79250000D01*
X141250000Y-73200000D02*
X141250000Y-77500000D01*
X146750000Y-73400000D02*
X146750000Y-72150000D01*
X141250000Y-81800000D02*
X141250000Y-77500000D01*
X146450000Y-80750000D02*
X145700000Y-80750000D01*
X140490000Y-72440000D02*
X140490000Y-82560000D01*
X146450000Y-74250000D02*
X146450000Y-72450000D01*
X144200000Y-82550000D02*
X144200000Y-81800000D01*
X146750000Y-72150000D02*
X145500000Y-72150000D01*
X144200000Y-81800000D02*
X141250000Y-81800000D01*
X146450000Y-72450000D02*
X145700000Y-72450000D01*
X146450000Y-82550000D02*
X146450000Y-80750000D01*
X146460000Y-72440000D02*
X140490000Y-72440000D01*
X146450000Y-79250000D02*
X146450000Y-75750000D01*
X144200000Y-73200000D02*
X141250000Y-73200000D01*
X140490000Y-82560000D02*
X146460000Y-82560000D01*
X146450000Y-75750000D02*
X145700000Y-75750000D01*
X145700000Y-80750000D02*
X145700000Y-82550000D01*
X144200000Y-72450000D02*
X144200000Y-73200000D01*
X145700000Y-74250000D02*
X146450000Y-74250000D01*
X145700000Y-72450000D02*
X145700000Y-74250000D01*
X146460000Y-82560000D02*
X146460000Y-72440000D01*
%TO.C,Q1*%
X114470000Y-84350000D02*
X118070000Y-84350000D01*
X118108478Y-84338478D02*
G75*
G03*
X116270000Y-79900000I-1838478J1838478D01*
G01*
X116270000Y-79899999D02*
G75*
G03*
X114431522Y-84338478I0J-2600001D01*
G01*
%TO.C,D7*%
X129065000Y-111465000D02*
X129065000Y-108375000D01*
X123515000Y-109919538D02*
G75*
G03*
X129065000Y-111464830I2990000J-462D01*
G01*
X129065000Y-108375170D02*
G75*
G03*
X123515000Y-109920462I-2560000J-1544830D01*
G01*
X129005000Y-109920000D02*
G75*
G03*
X129005000Y-109920000I-2500000J0D01*
G01*
%TO.C,U2*%
X118795000Y-92490000D02*
X118795000Y-94140000D01*
X118795000Y-94140000D02*
X139235000Y-94140000D01*
X139235000Y-94140000D02*
X139235000Y-88840000D01*
X139235000Y-88840000D02*
X118795000Y-88840000D01*
X118795000Y-88840000D02*
X118795000Y-90490000D01*
X118795000Y-92490000D02*
G75*
G03*
X118795000Y-90490000I0J1000000D01*
G01*
%TO.C,D4*%
X130880000Y-99570000D02*
X130880000Y-103810000D01*
X130880000Y-103090000D02*
X133120000Y-103090000D01*
X130880000Y-103810000D02*
X133120000Y-103810000D01*
X132000000Y-98920000D02*
X132000000Y-99570000D01*
X132000000Y-104460000D02*
X132000000Y-103810000D01*
X130880000Y-102970000D02*
X133120000Y-102970000D01*
X133120000Y-99570000D02*
X130880000Y-99570000D01*
X133120000Y-103810000D02*
X133120000Y-99570000D01*
X130880000Y-103210000D02*
X133120000Y-103210000D01*
%TO.C,R9*%
X139370000Y-103650000D02*
X136630000Y-103650000D01*
X138000000Y-102880000D02*
X138000000Y-103650000D01*
X139370000Y-110190000D02*
X139370000Y-103650000D01*
X138000000Y-110960000D02*
X138000000Y-110190000D01*
X136630000Y-103650000D02*
X136630000Y-110190000D01*
X136630000Y-110190000D02*
X139370000Y-110190000D01*
%TO.C,U1*%
X127910000Y-85400000D02*
X127910000Y-75120000D01*
X124260000Y-75120000D02*
X122610000Y-75120000D01*
X122610000Y-75120000D02*
X122610000Y-85400000D01*
X127910000Y-75120000D02*
X126260000Y-75120000D01*
X122610000Y-85400000D02*
X127910000Y-85400000D01*
X124260000Y-75120000D02*
G75*
G03*
X126260000Y-75120000I1000000J0D01*
G01*
%TO.C,R2*%
X123650000Y-66380000D02*
X123650000Y-69120000D01*
X130190000Y-69120000D02*
X130190000Y-66380000D01*
X122880000Y-67750000D02*
X123650000Y-67750000D01*
X130190000Y-66380000D02*
X123650000Y-66380000D01*
X130960000Y-67750000D02*
X130190000Y-67750000D01*
X123650000Y-69120000D02*
X130190000Y-69120000D01*
%TO.C,D6*%
X125620000Y-99570000D02*
X123380000Y-99570000D01*
X124500000Y-98920000D02*
X124500000Y-99570000D01*
X123380000Y-103210000D02*
X125620000Y-103210000D01*
X123380000Y-99570000D02*
X123380000Y-103810000D01*
X123380000Y-103810000D02*
X125620000Y-103810000D01*
X123380000Y-102970000D02*
X125620000Y-102970000D01*
X123380000Y-103090000D02*
X125620000Y-103090000D01*
X124500000Y-104460000D02*
X124500000Y-103810000D01*
X125620000Y-103810000D02*
X125620000Y-99570000D01*
%TO.C,D2*%
X130435000Y-108375000D02*
X130435000Y-111465000D01*
X135985000Y-109920462D02*
G75*
G03*
X130435000Y-108375170I-2990000J462D01*
G01*
X130435000Y-111464830D02*
G75*
G03*
X135985000Y-109919538I2560000J1544830D01*
G01*
X135495000Y-109920000D02*
G75*
G03*
X135495000Y-109920000I-2500000J0D01*
G01*
%TO.C,R4*%
X113630000Y-87980000D02*
X113630000Y-94520000D01*
X115000000Y-87210000D02*
X115000000Y-87980000D01*
X116370000Y-87980000D02*
X113630000Y-87980000D01*
X115000000Y-95290000D02*
X115000000Y-94520000D01*
X113630000Y-94520000D02*
X116370000Y-94520000D01*
X116370000Y-94520000D02*
X116370000Y-87980000D01*
%TD*%
M02*
