%TF.GenerationSoftware,KiCad,Pcbnew,(6.0.4)*%
%TF.CreationDate,2023-05-23T22:41:31+03:00*%
%TF.ProjectId,metronome,6d657472-6f6e-46f6-9d65-2e6b69636164,rev?*%
%TF.SameCoordinates,Original*%
%TF.FileFunction,Soldermask,Top*%
%TF.FilePolarity,Negative*%
%FSLAX46Y46*%
G04 Gerber Fmt 4.6, Leading zero omitted, Abs format (unit mm)*
G04 Created by KiCad (PCBNEW (6.0.4)) date 2023-05-23 22:41:31*
%MOMM*%
%LPD*%
G01*
G04 APERTURE LIST*
G04 Aperture macros list*
%AMRoundRect*
0 Rectangle with rounded corners*
0 $1 Rounding radius*
0 $2 $3 $4 $5 $6 $7 $8 $9 X,Y pos of 4 corners*
0 Add a 4 corners polygon primitive as box body*
4,1,4,$2,$3,$4,$5,$6,$7,$8,$9,$2,$3,0*
0 Add four circle primitives for the rounded corners*
1,1,$1+$1,$2,$3*
1,1,$1+$1,$4,$5*
1,1,$1+$1,$6,$7*
1,1,$1+$1,$8,$9*
0 Add four rect primitives between the rounded corners*
20,1,$1+$1,$2,$3,$4,$5,0*
20,1,$1+$1,$4,$5,$6,$7,0*
20,1,$1+$1,$6,$7,$8,$9,0*
20,1,$1+$1,$8,$9,$2,$3,0*%
G04 Aperture macros list end*
%ADD10C,1.600000*%
%ADD11O,1.600000X1.600000*%
%ADD12RoundRect,0.250000X-0.750000X0.600000X-0.750000X-0.600000X0.750000X-0.600000X0.750000X0.600000X0*%
%ADD13O,2.000000X1.700000*%
%ADD14RoundRect,0.250000X0.750000X-0.600000X0.750000X0.600000X-0.750000X0.600000X-0.750000X-0.600000X0*%
%ADD15C,5.700000*%
%ADD16R,1.600000X1.600000*%
%ADD17O,1.950000X1.700000*%
%ADD18RoundRect,0.250000X-0.725000X0.600000X-0.725000X-0.600000X0.725000X-0.600000X0.725000X0.600000X0*%
%ADD19R,1.050000X1.500000*%
%ADD20O,1.050000X1.500000*%
%ADD21R,1.800000X1.800000*%
%ADD22C,1.800000*%
G04 APERTURE END LIST*
D10*
%TO.C,R3*%
X132080000Y-71000000D03*
D11*
X121920000Y-71000000D03*
%TD*%
D12*
%TO.C,J1*%
X144000000Y-86500000D03*
D13*
X144000000Y-89000000D03*
%TD*%
D10*
%TO.C,R1*%
X137750000Y-74420000D03*
D11*
X137750000Y-84580000D03*
%TD*%
D14*
%TO.C,J2*%
X115500000Y-103250000D03*
D13*
X115500000Y-100750000D03*
%TD*%
D10*
%TO.C,R10*%
X121500000Y-112080000D03*
D11*
X121500000Y-101920000D03*
%TD*%
D15*
%TO.C,H2*%
X116000000Y-110000000D03*
%TD*%
D10*
%TO.C,C2*%
X136750000Y-69250000D03*
X136750000Y-71250000D03*
%TD*%
%TO.C,C3*%
X133250000Y-82000000D03*
X133250000Y-84000000D03*
%TD*%
%TO.C,C4*%
X117750000Y-75250000D03*
X115250000Y-75250000D03*
%TD*%
D15*
%TO.C,H3*%
X143500000Y-68250000D03*
%TD*%
D16*
%TO.C,D5*%
X129000000Y-105500000D03*
D11*
X129000000Y-97880000D03*
%TD*%
D17*
%TO.C,J3*%
X144000000Y-103000000D03*
X144000000Y-100500000D03*
X144000000Y-98000000D03*
D18*
X144000000Y-95500000D03*
%TD*%
D15*
%TO.C,H4*%
X116000000Y-68250000D03*
%TD*%
%TO.C,H1*%
X143500000Y-110000000D03*
%TD*%
D16*
%TO.C,D3*%
X135000000Y-105500000D03*
D11*
X135000000Y-97880000D03*
%TD*%
D18*
%TO.C,RV2*%
X144000000Y-75000000D03*
D17*
X144000000Y-77500000D03*
X144000000Y-80000000D03*
%TD*%
D19*
%TO.C,Q1*%
X115000000Y-82500000D03*
D20*
X116270000Y-82500000D03*
X117540000Y-82500000D03*
%TD*%
D21*
%TO.C,D7*%
X127775000Y-109920000D03*
D22*
X125235000Y-109920000D03*
%TD*%
D16*
%TO.C,U2*%
X120125000Y-95300000D03*
D11*
X122665000Y-95300000D03*
X125205000Y-95300000D03*
X127745000Y-95300000D03*
X130285000Y-95300000D03*
X132825000Y-95300000D03*
X135365000Y-95300000D03*
X137905000Y-95300000D03*
X137905000Y-87680000D03*
X135365000Y-87680000D03*
X132825000Y-87680000D03*
X130285000Y-87680000D03*
X127745000Y-87680000D03*
X125205000Y-87680000D03*
X122665000Y-87680000D03*
X120125000Y-87680000D03*
%TD*%
D16*
%TO.C,D4*%
X132000000Y-105500000D03*
D11*
X132000000Y-97880000D03*
%TD*%
D10*
%TO.C,R9*%
X138000000Y-112000000D03*
D11*
X138000000Y-101840000D03*
%TD*%
D16*
%TO.C,U1*%
X121450000Y-76450000D03*
D11*
X121450000Y-78990000D03*
X121450000Y-81530000D03*
X121450000Y-84070000D03*
X129070000Y-84070000D03*
X129070000Y-81530000D03*
X129070000Y-78990000D03*
X129070000Y-76450000D03*
%TD*%
D10*
%TO.C,R2*%
X132000000Y-67750000D03*
D11*
X121840000Y-67750000D03*
%TD*%
D16*
%TO.C,D6*%
X124500000Y-105500000D03*
D11*
X124500000Y-97880000D03*
%TD*%
D21*
%TO.C,D2*%
X131725000Y-109920000D03*
D22*
X134265000Y-109920000D03*
%TD*%
D10*
%TO.C,R4*%
X115000000Y-86170000D03*
D11*
X115000000Y-96330000D03*
%TD*%
M02*
