M48
; DRILL file {KiCad (6.0.4)} date Tue May 23 22:39:47 2023
; FORMAT={-:-/ absolute / metric / decimal}
; #@! TF.CreationDate,2023-05-23T22:39:47+03:00
; #@! TF.GenerationSoftware,Kicad,Pcbnew,(6.0.4)
; #@! TF.FileFunction,MixedPlating,1,2
FMAT,2
METRIC
; #@! TA.AperFunction,Plated,PTH,ComponentDrill
T1C0.750
; #@! TA.AperFunction,Plated,PTH,ComponentDrill
T2C0.800
; #@! TA.AperFunction,Plated,PTH,ComponentDrill
T3C0.900
; #@! TA.AperFunction,Plated,PTH,ComponentDrill
T4C0.950
; #@! TA.AperFunction,Plated,PTH,ComponentDrill
T5C1.000
; #@! TA.AperFunction,Plated,PTH,ComponentDrill
T6C3.200
%
G90
G05
T1
X115.0Y-82.5
X116.27Y-82.5
X117.54Y-82.5
T2
X115.0Y-86.17
X115.0Y-96.33
X115.25Y-75.25
X117.75Y-75.25
X120.125Y-87.68
X120.125Y-95.3
X121.45Y-76.45
X121.45Y-78.99
X121.45Y-81.53
X121.45Y-84.07
X121.5Y-101.92
X121.5Y-112.08
X121.84Y-67.75
X121.92Y-71.0
X122.665Y-87.68
X122.665Y-95.3
X124.5Y-97.88
X124.5Y-105.5
X125.205Y-87.68
X125.205Y-95.3
X127.745Y-87.68
X127.745Y-95.3
X129.0Y-97.88
X129.0Y-105.5
X129.07Y-76.45
X129.07Y-78.99
X129.07Y-81.53
X129.07Y-84.07
X130.285Y-87.68
X130.285Y-95.3
X132.0Y-67.75
X132.0Y-97.88
X132.0Y-105.5
X132.08Y-71.0
X132.825Y-87.68
X132.825Y-95.3
X133.25Y-82.0
X133.25Y-84.0
X135.0Y-97.88
X135.0Y-105.5
X135.365Y-87.68
X135.365Y-95.3
X136.75Y-69.25
X136.75Y-71.25
X137.75Y-74.42
X137.75Y-84.58
X137.905Y-87.68
X137.905Y-95.3
X138.0Y-101.84
X138.0Y-112.0
T3
X125.235Y-109.92
X127.775Y-109.92
X131.725Y-109.92
X134.265Y-109.92
T4
X144.0Y-75.0
X144.0Y-77.5
X144.0Y-80.0
X144.0Y-95.5
X144.0Y-98.0
X144.0Y-100.5
X144.0Y-103.0
T5
X115.5Y-100.75
X115.5Y-103.25
X144.0Y-86.5
X144.0Y-89.0
T6
X116.0Y-68.25
X116.0Y-110.0
X143.5Y-68.25
X143.5Y-110.0
T0
M30
