%TF.GenerationSoftware,KiCad,Pcbnew,6.0.4-6f826c9f35~116~ubuntu20.04.1*%
%TF.CreationDate,2022-06-04T11:43:05+03:00*%
%TF.ProjectId,metronome,6d657472-6f6e-46f6-9d65-2e6b69636164,rev?*%
%TF.SameCoordinates,Original*%
%TF.FileFunction,Copper,L2,Bot*%
%TF.FilePolarity,Positive*%
%FSLAX46Y46*%
G04 Gerber Fmt 4.6, Leading zero omitted, Abs format (unit mm)*
G04 Created by KiCad (PCBNEW 6.0.4-6f826c9f35~116~ubuntu20.04.1) date 2022-06-04 11:43:05*
%MOMM*%
%LPD*%
G01*
G04 APERTURE LIST*
G04 Aperture macros list*
%AMRoundRect*
0 Rectangle with rounded corners*
0 $1 Rounding radius*
0 $2 $3 $4 $5 $6 $7 $8 $9 X,Y pos of 4 corners*
0 Add a 4 corners polygon primitive as box body*
4,1,4,$2,$3,$4,$5,$6,$7,$8,$9,$2,$3,0*
0 Add four circle primitives for the rounded corners*
1,1,$1+$1,$2,$3*
1,1,$1+$1,$4,$5*
1,1,$1+$1,$6,$7*
1,1,$1+$1,$8,$9*
0 Add four rect primitives between the rounded corners*
20,1,$1+$1,$2,$3,$4,$5,0*
20,1,$1+$1,$4,$5,$6,$7,0*
20,1,$1+$1,$6,$7,$8,$9,0*
20,1,$1+$1,$8,$9,$2,$3,0*%
G04 Aperture macros list end*
%TA.AperFunction,ComponentPad*%
%ADD10C,1.600000*%
%TD*%
%TA.AperFunction,ComponentPad*%
%ADD11O,1.600000X1.600000*%
%TD*%
%TA.AperFunction,ComponentPad*%
%ADD12RoundRect,0.250000X0.750000X-0.600000X0.750000X0.600000X-0.750000X0.600000X-0.750000X-0.600000X0*%
%TD*%
%TA.AperFunction,ComponentPad*%
%ADD13O,2.000000X1.700000*%
%TD*%
%TA.AperFunction,ComponentPad*%
%ADD14RoundRect,0.250000X-0.750000X0.600000X-0.750000X-0.600000X0.750000X-0.600000X0.750000X0.600000X0*%
%TD*%
%TA.AperFunction,ComponentPad*%
%ADD15C,5.700000*%
%TD*%
%TA.AperFunction,ComponentPad*%
%ADD16R,1.600000X1.600000*%
%TD*%
%TA.AperFunction,ComponentPad*%
%ADD17RoundRect,0.250000X0.725000X-0.600000X0.725000X0.600000X-0.725000X0.600000X-0.725000X-0.600000X0*%
%TD*%
%TA.AperFunction,ComponentPad*%
%ADD18O,1.950000X1.700000*%
%TD*%
%TA.AperFunction,ComponentPad*%
%ADD19R,1.050000X1.500000*%
%TD*%
%TA.AperFunction,ComponentPad*%
%ADD20O,1.050000X1.500000*%
%TD*%
%TA.AperFunction,ComponentPad*%
%ADD21R,1.800000X1.800000*%
%TD*%
%TA.AperFunction,ComponentPad*%
%ADD22C,1.800000*%
%TD*%
%TA.AperFunction,Conductor*%
%ADD23C,0.700000*%
%TD*%
G04 APERTURE END LIST*
D10*
%TO.P,R3,1*%
%TO.N,Net-(R2-Pad2)*%
X132080000Y-71000000D03*
D11*
%TO.P,R3,2*%
%TO.N,Net-(C4-Pad2)*%
X121920000Y-71000000D03*
%TD*%
D12*
%TO.P,J1,1,Pin_1*%
%TO.N,VCC*%
X143000000Y-89000000D03*
D13*
%TO.P,J1,2,Pin_2*%
%TO.N,Net-(J1-Pad2)*%
X143000000Y-86500000D03*
%TD*%
D10*
%TO.P,R1,1*%
%TO.N,Net-(C2-Pad2)*%
X137750000Y-74420000D03*
D11*
%TO.P,R1,2*%
%TO.N,Net-(J1-Pad2)*%
X137750000Y-84580000D03*
%TD*%
D14*
%TO.P,J2,1,Pin_1*%
%TO.N,GND*%
X116750000Y-100750000D03*
D13*
%TO.P,J2,2,Pin_2*%
%TO.N,VCC*%
X116750000Y-103250000D03*
%TD*%
D10*
%TO.P,R10,1*%
%TO.N,Net-(R10-Pad1)*%
X121500000Y-112080000D03*
D11*
%TO.P,R10,2*%
%TO.N,Net-(D6-Pad1)*%
X121500000Y-101920000D03*
%TD*%
D15*
%TO.P,H2,1,1*%
%TO.N,unconnected-(H2-Pad1)*%
X116000000Y-110000000D03*
%TD*%
D10*
%TO.P,C2,1*%
%TO.N,Output*%
X136750000Y-69250000D03*
%TO.P,C2,2*%
%TO.N,Net-(C2-Pad2)*%
X136750000Y-71250000D03*
%TD*%
%TO.P,C3,1*%
%TO.N,GND*%
X133250000Y-82000000D03*
%TO.P,C3,2*%
%TO.N,Net-(C3-Pad2)*%
X133250000Y-84000000D03*
%TD*%
%TO.P,C4,1*%
%TO.N,GND*%
X117750000Y-75750000D03*
%TO.P,C4,2*%
%TO.N,Net-(C4-Pad2)*%
X115250000Y-75750000D03*
%TD*%
D15*
%TO.P,H3,1,1*%
%TO.N,unconnected-(H3-Pad1)*%
X143500000Y-68250000D03*
%TD*%
D16*
%TO.P,D5,1,K*%
%TO.N,Net-(D3-Pad1)*%
X129000000Y-105500000D03*
D11*
%TO.P,D5,2,A*%
%TO.N,Net-(D5-Pad2)*%
X129000000Y-97880000D03*
%TD*%
D15*
%TO.P,H4,1,1*%
%TO.N,unconnected-(H4-Pad1)*%
X116000000Y-68250000D03*
%TD*%
%TO.P,H1,1,1*%
%TO.N,unconnected-(H1-Pad1)*%
X143500000Y-110000000D03*
%TD*%
D16*
%TO.P,D3,1,K*%
%TO.N,Net-(D3-Pad1)*%
X135000000Y-105500000D03*
D11*
%TO.P,D3,2,A*%
%TO.N,Net-(D3-Pad2)*%
X135000000Y-97880000D03*
%TD*%
D17*
%TO.P,RV2,1,1*%
%TO.N,VCC*%
X143000000Y-80000000D03*
D18*
%TO.P,RV2,2,2*%
X143000000Y-77500000D03*
%TO.P,RV2,3,3*%
%TO.N,Net-(R2-Pad1)*%
X143000000Y-75000000D03*
%TD*%
D19*
%TO.P,Q1,1,D*%
%TO.N,Net-(R4-Pad1)*%
X115000000Y-82500000D03*
D20*
%TO.P,Q1,2,G*%
%TO.N,Output*%
X116270000Y-82500000D03*
%TO.P,Q1,3,S*%
%TO.N,GND*%
X117540000Y-82500000D03*
%TD*%
D21*
%TO.P,D7,1,K*%
%TO.N,Output*%
X127775000Y-109920000D03*
D22*
%TO.P,D7,2,A*%
%TO.N,Net-(R10-Pad1)*%
X125235000Y-109920000D03*
%TD*%
D17*
%TO.P,SW1,1,1*%
%TO.N,Net-(D4-Pad2)*%
X143000000Y-103000000D03*
D18*
%TO.P,SW1,2,2*%
%TO.N,Net-(D3-Pad2)*%
X143000000Y-100500000D03*
%TO.P,SW1,3,3*%
%TO.N,Net-(U2-Pad15)*%
X143000000Y-98000000D03*
%TO.P,SW1,4,4*%
%TO.N,Net-(SW1-Pad4)*%
X143000000Y-95500000D03*
%TD*%
D16*
%TO.P,U2,1,Q5*%
%TO.N,unconnected-(U2-Pad1)*%
X120125000Y-95300000D03*
D11*
%TO.P,U2,2,Q1*%
%TO.N,Net-(D5-Pad2)*%
X122665000Y-95300000D03*
%TO.P,U2,3,Q0*%
%TO.N,Net-(D6-Pad2)*%
X125205000Y-95300000D03*
%TO.P,U2,4,Q2*%
%TO.N,Net-(D4-Pad2)*%
X127745000Y-95300000D03*
%TO.P,U2,5,Q6*%
%TO.N,unconnected-(U2-Pad5)*%
X130285000Y-95300000D03*
%TO.P,U2,6,Q7*%
%TO.N,unconnected-(U2-Pad6)*%
X132825000Y-95300000D03*
%TO.P,U2,7,Q3*%
%TO.N,Net-(D3-Pad2)*%
X135365000Y-95300000D03*
%TO.P,U2,8,VSS*%
%TO.N,GND*%
X137905000Y-95300000D03*
%TO.P,U2,9,Q8*%
%TO.N,unconnected-(U2-Pad9)*%
X137905000Y-87680000D03*
%TO.P,U2,10,Q4*%
%TO.N,Net-(SW1-Pad4)*%
X135365000Y-87680000D03*
%TO.P,U2,11,Q9*%
%TO.N,unconnected-(U2-Pad11)*%
X132825000Y-87680000D03*
%TO.P,U2,12,Cout*%
%TO.N,unconnected-(U2-Pad12)*%
X130285000Y-87680000D03*
%TO.P,U2,13,CKEN*%
%TO.N,GND*%
X127745000Y-87680000D03*
%TO.P,U2,14,CLK*%
%TO.N,Net-(R4-Pad1)*%
X125205000Y-87680000D03*
%TO.P,U2,15,Reset*%
%TO.N,Net-(U2-Pad15)*%
X122665000Y-87680000D03*
%TO.P,U2,16,VDD*%
%TO.N,VCC*%
X120125000Y-87680000D03*
%TD*%
D16*
%TO.P,D4,1,K*%
%TO.N,Net-(D3-Pad1)*%
X132000000Y-105500000D03*
D11*
%TO.P,D4,2,A*%
%TO.N,Net-(D4-Pad2)*%
X132000000Y-97880000D03*
%TD*%
D10*
%TO.P,R9,1*%
%TO.N,Net-(R9-Pad1)*%
X138000000Y-112000000D03*
D11*
%TO.P,R9,2*%
%TO.N,Net-(D3-Pad1)*%
X138000000Y-101840000D03*
%TD*%
D16*
%TO.P,U1,1,GND*%
%TO.N,GND*%
X121450000Y-76450000D03*
D11*
%TO.P,U1,2,TR*%
%TO.N,Net-(C4-Pad2)*%
X121450000Y-78990000D03*
%TO.P,U1,3,Q*%
%TO.N,Output*%
X121450000Y-81530000D03*
%TO.P,U1,4,R*%
%TO.N,VCC*%
X121450000Y-84070000D03*
%TO.P,U1,5,CV*%
%TO.N,Net-(C3-Pad2)*%
X129070000Y-84070000D03*
%TO.P,U1,6,THR*%
%TO.N,Net-(C4-Pad2)*%
X129070000Y-81530000D03*
%TO.P,U1,7,DIS*%
%TO.N,Net-(R2-Pad2)*%
X129070000Y-78990000D03*
%TO.P,U1,8,VCC*%
%TO.N,VCC*%
X129070000Y-76450000D03*
%TD*%
D10*
%TO.P,R2,1*%
%TO.N,Net-(R2-Pad1)*%
X132000000Y-67750000D03*
D11*
%TO.P,R2,2*%
%TO.N,Net-(R2-Pad2)*%
X121840000Y-67750000D03*
%TD*%
D16*
%TO.P,D6,1,K*%
%TO.N,Net-(D6-Pad1)*%
X124500000Y-105500000D03*
D11*
%TO.P,D6,2,A*%
%TO.N,Net-(D6-Pad2)*%
X124500000Y-97880000D03*
%TD*%
D21*
%TO.P,D2,1,K*%
%TO.N,Output*%
X131725000Y-109920000D03*
D22*
%TO.P,D2,2,A*%
%TO.N,Net-(R9-Pad1)*%
X134265000Y-109920000D03*
%TD*%
D10*
%TO.P,R4,1*%
%TO.N,Net-(R4-Pad1)*%
X115000000Y-86170000D03*
D11*
%TO.P,R4,2*%
%TO.N,VCC*%
X115000000Y-96330000D03*
%TD*%
D23*
%TO.N,Output*%
X134500000Y-70250000D02*
X135500000Y-69250000D01*
X134500000Y-71750000D02*
X134500000Y-70250000D01*
X125500000Y-80000000D02*
X125500000Y-75500000D01*
X121450000Y-81530000D02*
X123970000Y-81530000D01*
X125500000Y-75500000D02*
X127250000Y-73750000D01*
X132500000Y-73750000D02*
X134500000Y-71750000D01*
X135500000Y-69250000D02*
X136750000Y-69250000D01*
X123970000Y-81530000D02*
X125500000Y-80000000D01*
X127250000Y-73750000D02*
X132500000Y-73750000D01*
%TO.N,Net-(D4-Pad2)*%
X139500000Y-99000000D02*
X140500000Y-100000000D01*
X141500000Y-103000000D02*
X143000000Y-103000000D01*
X136500000Y-100000000D02*
X137500000Y-99000000D01*
X131000000Y-98880000D02*
X131000000Y-100000000D01*
X128000000Y-100000000D02*
X131000000Y-100000000D01*
X132000000Y-97880000D02*
X131000000Y-98880000D01*
X127000000Y-99000000D02*
X128000000Y-100000000D01*
X131000000Y-100000000D02*
X136500000Y-100000000D01*
X137500000Y-99000000D02*
X139500000Y-99000000D01*
X140500000Y-102000000D02*
X141500000Y-103000000D01*
X127745000Y-95755000D02*
X127000000Y-96500000D01*
X127745000Y-95300000D02*
X127745000Y-95755000D01*
X140500000Y-100000000D02*
X140500000Y-102000000D01*
X127000000Y-96500000D02*
X127000000Y-99000000D01*
%TO.N,Net-(R4-Pad1)*%
X125250000Y-86750000D02*
X125250000Y-87635000D01*
X115000000Y-86170000D02*
X124670000Y-86170000D01*
X125250000Y-87635000D02*
X125205000Y-87680000D01*
X124670000Y-86170000D02*
X125250000Y-86750000D01*
%TO.N,Net-(U2-Pad15)*%
X142000000Y-98000000D02*
X143000000Y-98000000D01*
X140500000Y-94000000D02*
X140500000Y-96500000D01*
X122665000Y-89665000D02*
X124500000Y-91500000D01*
X122665000Y-87680000D02*
X122665000Y-89665000D01*
X140500000Y-96500000D02*
X142000000Y-98000000D01*
X124500000Y-91500000D02*
X138000000Y-91500000D01*
X138000000Y-91500000D02*
X140500000Y-94000000D01*
%TD*%
%TA.AperFunction,Conductor*%
%TO.N,VCC*%
G36*
X141580358Y-65278502D02*
G01*
X141626851Y-65332158D01*
X141636955Y-65402432D01*
X141607461Y-65467012D01*
X141588241Y-65484996D01*
X141329046Y-65681023D01*
X141064296Y-65930511D01*
X140828040Y-66207132D01*
X140623040Y-66507651D01*
X140616060Y-66520723D01*
X140496947Y-66743802D01*
X140451694Y-66828552D01*
X140450419Y-66831724D01*
X140450417Y-66831728D01*
X140321730Y-67151850D01*
X140316009Y-67166081D01*
X140217569Y-67516290D01*
X140157528Y-67875082D01*
X140136587Y-68238259D01*
X140136759Y-68241654D01*
X140136759Y-68241655D01*
X140154820Y-68598179D01*
X140154992Y-68601574D01*
X140155529Y-68604929D01*
X140155530Y-68604935D01*
X140179759Y-68756198D01*
X140212527Y-68960777D01*
X140308519Y-69311664D01*
X140309768Y-69314834D01*
X140430300Y-69620823D01*
X140441845Y-69650133D01*
X140443428Y-69653148D01*
X140609362Y-69969206D01*
X140609367Y-69969214D01*
X140610946Y-69972222D01*
X140612840Y-69975040D01*
X140612845Y-69975049D01*
X140785937Y-70232636D01*
X140813843Y-70274165D01*
X141048163Y-70552428D01*
X141175392Y-70674010D01*
X141308702Y-70801405D01*
X141308709Y-70801411D01*
X141311165Y-70803758D01*
X141599771Y-71025214D01*
X141602689Y-71026988D01*
X141907692Y-71212433D01*
X141907697Y-71212436D01*
X141910607Y-71214205D01*
X141913695Y-71215651D01*
X141913694Y-71215651D01*
X142236952Y-71367077D01*
X142236962Y-71367081D01*
X142240036Y-71368521D01*
X142243254Y-71369623D01*
X142243257Y-71369624D01*
X142580981Y-71485253D01*
X142580989Y-71485255D01*
X142584204Y-71486356D01*
X142939084Y-71566332D01*
X142992123Y-71572375D01*
X143297144Y-71607128D01*
X143297152Y-71607128D01*
X143300527Y-71607513D01*
X143303931Y-71607531D01*
X143303934Y-71607531D01*
X143502058Y-71608568D01*
X143664303Y-71609418D01*
X143667689Y-71609068D01*
X143667691Y-71609068D01*
X144022765Y-71572375D01*
X144022774Y-71572374D01*
X144026157Y-71572024D01*
X144029490Y-71571310D01*
X144029493Y-71571309D01*
X144139895Y-71547641D01*
X144381856Y-71495768D01*
X144727239Y-71381544D01*
X144730323Y-71380138D01*
X144730332Y-71380135D01*
X145055171Y-71232096D01*
X145058265Y-71230686D01*
X145360549Y-71051204D01*
X145368128Y-71046704D01*
X145368132Y-71046701D01*
X145371063Y-71044961D01*
X145661973Y-70826539D01*
X145927592Y-70577977D01*
X146164813Y-70302182D01*
X146261660Y-70161269D01*
X146316728Y-70116458D01*
X146387281Y-70108533D01*
X146450919Y-70140010D01*
X146487436Y-70200895D01*
X146491500Y-70232636D01*
X146491500Y-108017076D01*
X146471498Y-108085197D01*
X146417842Y-108131690D01*
X146347568Y-108141794D01*
X146282988Y-108112300D01*
X146261164Y-108087716D01*
X146180985Y-107969292D01*
X146179075Y-107966471D01*
X145943785Y-107689027D01*
X145679908Y-107438617D01*
X145390530Y-107218170D01*
X145387618Y-107216413D01*
X145387613Y-107216410D01*
X145081951Y-107032023D01*
X145081945Y-107032020D01*
X145079036Y-107030265D01*
X144749071Y-106877100D01*
X144404494Y-106760467D01*
X144395234Y-106758414D01*
X144320485Y-106741843D01*
X144049336Y-106681731D01*
X143882040Y-106663261D01*
X143691133Y-106642184D01*
X143691128Y-106642184D01*
X143687752Y-106641811D01*
X143684353Y-106641805D01*
X143684352Y-106641805D01*
X143512763Y-106641506D01*
X143323972Y-106641176D01*
X143188831Y-106655618D01*
X142965634Y-106679471D01*
X142965628Y-106679472D01*
X142962250Y-106679833D01*
X142606820Y-106757330D01*
X142261838Y-106872759D01*
X141931340Y-107024771D01*
X141619192Y-107211588D01*
X141329046Y-107431023D01*
X141064296Y-107680511D01*
X140828040Y-107957132D01*
X140623040Y-108257651D01*
X140621439Y-108260650D01*
X140456589Y-108569385D01*
X140451694Y-108578552D01*
X140450419Y-108581724D01*
X140450417Y-108581728D01*
X140318581Y-108909684D01*
X140316009Y-108916081D01*
X140315090Y-108919349D01*
X140315088Y-108919356D01*
X140228729Y-109226587D01*
X140217569Y-109266290D01*
X140157528Y-109625082D01*
X140136587Y-109988259D01*
X140154992Y-110351574D01*
X140155529Y-110354929D01*
X140155530Y-110354935D01*
X140168407Y-110435329D01*
X140212527Y-110710777D01*
X140308519Y-111061664D01*
X140441845Y-111400133D01*
X140456955Y-111428914D01*
X140609362Y-111719206D01*
X140609367Y-111719214D01*
X140610946Y-111722222D01*
X140612840Y-111725040D01*
X140612845Y-111725049D01*
X140701777Y-111857393D01*
X140813843Y-112024165D01*
X141048163Y-112302428D01*
X141074899Y-112327977D01*
X141308702Y-112551405D01*
X141308709Y-112551411D01*
X141311165Y-112553758D01*
X141549643Y-112736749D01*
X141587161Y-112765538D01*
X141629028Y-112822876D01*
X141633250Y-112893747D01*
X141598486Y-112955650D01*
X141535773Y-112988931D01*
X141510457Y-112991500D01*
X139145171Y-112991500D01*
X139077050Y-112971498D01*
X139030557Y-112917842D01*
X139020453Y-112847568D01*
X139041958Y-112793229D01*
X139049129Y-112782988D01*
X139137523Y-112656749D01*
X139139846Y-112651767D01*
X139139849Y-112651762D01*
X139231961Y-112454225D01*
X139231961Y-112454224D01*
X139234284Y-112449243D01*
X139266153Y-112330309D01*
X139292119Y-112233402D01*
X139292119Y-112233400D01*
X139293543Y-112228087D01*
X139313498Y-112000000D01*
X139293543Y-111771913D01*
X139289062Y-111755190D01*
X139235707Y-111556067D01*
X139235706Y-111556065D01*
X139234284Y-111550757D01*
X139180349Y-111435092D01*
X139139849Y-111348238D01*
X139139846Y-111348233D01*
X139137523Y-111343251D01*
X139059486Y-111231803D01*
X139009357Y-111160211D01*
X139009355Y-111160208D01*
X139006198Y-111155700D01*
X138844300Y-110993802D01*
X138839792Y-110990645D01*
X138839789Y-110990643D01*
X138742413Y-110922460D01*
X138656749Y-110862477D01*
X138651767Y-110860154D01*
X138651762Y-110860151D01*
X138454225Y-110768039D01*
X138454224Y-110768039D01*
X138449243Y-110765716D01*
X138443935Y-110764294D01*
X138443933Y-110764293D01*
X138233402Y-110707881D01*
X138233400Y-110707881D01*
X138228087Y-110706457D01*
X138000000Y-110686502D01*
X137771913Y-110706457D01*
X137766600Y-110707881D01*
X137766598Y-110707881D01*
X137556067Y-110764293D01*
X137556065Y-110764294D01*
X137550757Y-110765716D01*
X137545776Y-110768039D01*
X137545775Y-110768039D01*
X137348238Y-110860151D01*
X137348233Y-110860154D01*
X137343251Y-110862477D01*
X137257587Y-110922460D01*
X137160211Y-110990643D01*
X137160208Y-110990645D01*
X137155700Y-110993802D01*
X136993802Y-111155700D01*
X136990645Y-111160208D01*
X136990643Y-111160211D01*
X136940514Y-111231803D01*
X136862477Y-111343251D01*
X136860154Y-111348233D01*
X136860151Y-111348238D01*
X136819651Y-111435092D01*
X136765716Y-111550757D01*
X136764294Y-111556065D01*
X136764293Y-111556067D01*
X136710938Y-111755190D01*
X136706457Y-111771913D01*
X136686502Y-112000000D01*
X136706457Y-112228087D01*
X136707881Y-112233400D01*
X136707881Y-112233402D01*
X136733848Y-112330309D01*
X136765716Y-112449243D01*
X136768039Y-112454224D01*
X136768039Y-112454225D01*
X136860151Y-112651762D01*
X136860154Y-112651767D01*
X136862477Y-112656749D01*
X136950871Y-112782988D01*
X136958042Y-112793229D01*
X136980730Y-112860503D01*
X136963445Y-112929363D01*
X136911676Y-112977948D01*
X136854829Y-112991500D01*
X122701188Y-112991500D01*
X122633067Y-112971498D01*
X122586574Y-112917842D01*
X122576470Y-112847568D01*
X122597975Y-112793229D01*
X122610589Y-112775214D01*
X122637523Y-112736749D01*
X122639846Y-112731767D01*
X122639849Y-112731762D01*
X122731961Y-112534225D01*
X122731961Y-112534224D01*
X122734284Y-112529243D01*
X122788214Y-112327977D01*
X122792119Y-112313402D01*
X122792119Y-112313400D01*
X122793543Y-112308087D01*
X122813498Y-112080000D01*
X122793543Y-111851913D01*
X122734284Y-111630757D01*
X122694657Y-111545775D01*
X122639849Y-111428238D01*
X122639846Y-111428233D01*
X122637523Y-111423251D01*
X122530646Y-111270615D01*
X122509357Y-111240211D01*
X122509355Y-111240208D01*
X122506198Y-111235700D01*
X122344300Y-111073802D01*
X122339792Y-111070645D01*
X122339789Y-111070643D01*
X122225537Y-110990643D01*
X122156749Y-110942477D01*
X122151767Y-110940154D01*
X122151762Y-110940151D01*
X121954225Y-110848039D01*
X121954224Y-110848039D01*
X121949243Y-110845716D01*
X121943935Y-110844294D01*
X121943933Y-110844293D01*
X121733402Y-110787881D01*
X121733400Y-110787881D01*
X121728087Y-110786457D01*
X121500000Y-110766502D01*
X121271913Y-110786457D01*
X121266600Y-110787881D01*
X121266598Y-110787881D01*
X121056067Y-110844293D01*
X121056065Y-110844294D01*
X121050757Y-110845716D01*
X121045776Y-110848039D01*
X121045775Y-110848039D01*
X120848238Y-110940151D01*
X120848233Y-110940154D01*
X120843251Y-110942477D01*
X120774463Y-110990643D01*
X120660211Y-111070643D01*
X120660208Y-111070645D01*
X120655700Y-111073802D01*
X120493802Y-111235700D01*
X120490645Y-111240208D01*
X120490643Y-111240211D01*
X120469354Y-111270615D01*
X120362477Y-111423251D01*
X120360154Y-111428233D01*
X120360151Y-111428238D01*
X120305343Y-111545775D01*
X120265716Y-111630757D01*
X120206457Y-111851913D01*
X120186502Y-112080000D01*
X120206457Y-112308087D01*
X120207881Y-112313400D01*
X120207881Y-112313402D01*
X120211787Y-112327977D01*
X120265716Y-112529243D01*
X120268039Y-112534224D01*
X120268039Y-112534225D01*
X120360151Y-112731762D01*
X120360154Y-112731767D01*
X120362477Y-112736749D01*
X120389411Y-112775214D01*
X120402025Y-112793229D01*
X120424713Y-112860503D01*
X120407428Y-112929363D01*
X120355659Y-112977948D01*
X120298812Y-112991500D01*
X117986966Y-112991500D01*
X117918845Y-112971498D01*
X117872352Y-112917842D01*
X117862248Y-112847568D01*
X117891742Y-112782988D01*
X117911313Y-112764740D01*
X117942590Y-112741257D01*
X118161973Y-112576539D01*
X118427592Y-112327977D01*
X118664813Y-112052182D01*
X118798688Y-111857393D01*
X118868931Y-111755190D01*
X118868936Y-111755182D01*
X118870861Y-111752381D01*
X118872473Y-111749387D01*
X118872478Y-111749379D01*
X119041703Y-111435092D01*
X119043325Y-111432080D01*
X119180188Y-111095027D01*
X119190652Y-111058295D01*
X119225796Y-110934921D01*
X119279850Y-110745164D01*
X119331171Y-110444922D01*
X119340571Y-110389930D01*
X119340571Y-110389928D01*
X119341143Y-110386583D01*
X119343285Y-110351574D01*
X119363241Y-110025278D01*
X119363351Y-110023481D01*
X119363433Y-110000000D01*
X119357230Y-109885469D01*
X123822095Y-109885469D01*
X123822392Y-109890622D01*
X123822392Y-109890625D01*
X123828759Y-110001045D01*
X123835427Y-110116697D01*
X123836564Y-110121743D01*
X123836565Y-110121749D01*
X123868741Y-110264523D01*
X123886346Y-110342642D01*
X123888288Y-110347424D01*
X123888289Y-110347428D01*
X123971540Y-110552450D01*
X123973484Y-110557237D01*
X124094501Y-110754719D01*
X124246147Y-110929784D01*
X124424349Y-111077730D01*
X124624322Y-111194584D01*
X124840694Y-111277209D01*
X124845760Y-111278240D01*
X124845761Y-111278240D01*
X124898846Y-111289040D01*
X125067656Y-111323385D01*
X125197089Y-111328131D01*
X125293949Y-111331683D01*
X125293953Y-111331683D01*
X125299113Y-111331872D01*
X125304233Y-111331216D01*
X125304235Y-111331216D01*
X125378166Y-111321745D01*
X125528847Y-111302442D01*
X125533795Y-111300957D01*
X125533802Y-111300956D01*
X125745747Y-111237369D01*
X125750690Y-111235886D01*
X125755324Y-111233616D01*
X125954049Y-111136262D01*
X125954052Y-111136260D01*
X125958684Y-111133991D01*
X126147243Y-110999494D01*
X126192309Y-110954585D01*
X126254681Y-110920669D01*
X126325487Y-110925857D01*
X126382249Y-110968503D01*
X126399231Y-110999607D01*
X126424385Y-111066705D01*
X126511739Y-111183261D01*
X126628295Y-111270615D01*
X126764684Y-111321745D01*
X126826866Y-111328500D01*
X128723134Y-111328500D01*
X128785316Y-111321745D01*
X128921705Y-111270615D01*
X129038261Y-111183261D01*
X129125615Y-111066705D01*
X129176745Y-110930316D01*
X129183500Y-110868134D01*
X130316500Y-110868134D01*
X130323255Y-110930316D01*
X130374385Y-111066705D01*
X130461739Y-111183261D01*
X130578295Y-111270615D01*
X130714684Y-111321745D01*
X130776866Y-111328500D01*
X132673134Y-111328500D01*
X132735316Y-111321745D01*
X132871705Y-111270615D01*
X132988261Y-111183261D01*
X133075615Y-111066705D01*
X133100180Y-111001178D01*
X133142822Y-110944414D01*
X133209383Y-110919714D01*
X133278732Y-110934921D01*
X133298647Y-110948464D01*
X133363724Y-111002492D01*
X133454349Y-111077730D01*
X133654322Y-111194584D01*
X133870694Y-111277209D01*
X133875760Y-111278240D01*
X133875761Y-111278240D01*
X133928846Y-111289040D01*
X134097656Y-111323385D01*
X134227089Y-111328131D01*
X134323949Y-111331683D01*
X134323953Y-111331683D01*
X134329113Y-111331872D01*
X134334233Y-111331216D01*
X134334235Y-111331216D01*
X134408166Y-111321745D01*
X134558847Y-111302442D01*
X134563795Y-111300957D01*
X134563802Y-111300956D01*
X134775747Y-111237369D01*
X134780690Y-111235886D01*
X134785324Y-111233616D01*
X134984049Y-111136262D01*
X134984052Y-111136260D01*
X134988684Y-111133991D01*
X135177243Y-110999494D01*
X135341303Y-110836005D01*
X135476458Y-110647917D01*
X135523641Y-110552450D01*
X135576784Y-110444922D01*
X135576785Y-110444920D01*
X135579078Y-110440280D01*
X135646408Y-110218671D01*
X135676640Y-109989041D01*
X135676742Y-109984860D01*
X135678245Y-109923365D01*
X135678245Y-109923361D01*
X135678327Y-109920000D01*
X135672032Y-109843434D01*
X135659773Y-109694318D01*
X135659772Y-109694312D01*
X135659349Y-109689167D01*
X135602925Y-109464533D01*
X135600866Y-109459797D01*
X135512630Y-109256868D01*
X135512628Y-109256865D01*
X135510570Y-109252131D01*
X135384764Y-109057665D01*
X135228887Y-108886358D01*
X135224836Y-108883159D01*
X135224832Y-108883155D01*
X135051177Y-108746011D01*
X135051172Y-108746008D01*
X135047123Y-108742810D01*
X135042607Y-108740317D01*
X135042604Y-108740315D01*
X134848879Y-108633373D01*
X134848875Y-108633371D01*
X134844355Y-108630876D01*
X134839486Y-108629152D01*
X134839482Y-108629150D01*
X134630903Y-108555288D01*
X134630899Y-108555287D01*
X134626028Y-108553562D01*
X134620935Y-108552655D01*
X134620932Y-108552654D01*
X134403095Y-108513851D01*
X134403089Y-108513850D01*
X134398006Y-108512945D01*
X134325096Y-108512054D01*
X134171581Y-108510179D01*
X134171579Y-108510179D01*
X134166411Y-108510116D01*
X133937464Y-108545150D01*
X133717314Y-108617106D01*
X133712726Y-108619494D01*
X133712722Y-108619496D01*
X133516461Y-108721663D01*
X133511872Y-108724052D01*
X133507739Y-108727155D01*
X133507736Y-108727157D01*
X133359319Y-108838592D01*
X133326655Y-108863117D01*
X133309170Y-108881414D01*
X133247646Y-108916844D01*
X133176733Y-108913387D01*
X133118947Y-108872141D01*
X133100094Y-108838592D01*
X133078768Y-108781705D01*
X133078767Y-108781703D01*
X133075615Y-108773295D01*
X132988261Y-108656739D01*
X132871705Y-108569385D01*
X132735316Y-108518255D01*
X132673134Y-108511500D01*
X130776866Y-108511500D01*
X130714684Y-108518255D01*
X130578295Y-108569385D01*
X130461739Y-108656739D01*
X130374385Y-108773295D01*
X130323255Y-108909684D01*
X130316500Y-108971866D01*
X130316500Y-110868134D01*
X129183500Y-110868134D01*
X129183500Y-108971866D01*
X129176745Y-108909684D01*
X129125615Y-108773295D01*
X129038261Y-108656739D01*
X128921705Y-108569385D01*
X128785316Y-108518255D01*
X128723134Y-108511500D01*
X126826866Y-108511500D01*
X126764684Y-108518255D01*
X126628295Y-108569385D01*
X126511739Y-108656739D01*
X126424385Y-108773295D01*
X126421233Y-108781703D01*
X126421232Y-108781705D01*
X126400538Y-108836906D01*
X126357897Y-108893671D01*
X126291335Y-108918371D01*
X126221986Y-108903164D01*
X126199167Y-108886666D01*
X126198887Y-108886358D01*
X126066373Y-108781705D01*
X126021177Y-108746011D01*
X126021172Y-108746008D01*
X126017123Y-108742810D01*
X126012607Y-108740317D01*
X126012604Y-108740315D01*
X125818879Y-108633373D01*
X125818875Y-108633371D01*
X125814355Y-108630876D01*
X125809486Y-108629152D01*
X125809482Y-108629150D01*
X125600903Y-108555288D01*
X125600899Y-108555287D01*
X125596028Y-108553562D01*
X125590935Y-108552655D01*
X125590932Y-108552654D01*
X125373095Y-108513851D01*
X125373089Y-108513850D01*
X125368006Y-108512945D01*
X125295096Y-108512054D01*
X125141581Y-108510179D01*
X125141579Y-108510179D01*
X125136411Y-108510116D01*
X124907464Y-108545150D01*
X124687314Y-108617106D01*
X124682726Y-108619494D01*
X124682722Y-108619496D01*
X124486461Y-108721663D01*
X124481872Y-108724052D01*
X124477739Y-108727155D01*
X124477736Y-108727157D01*
X124329319Y-108838592D01*
X124296655Y-108863117D01*
X124136639Y-109030564D01*
X124133725Y-109034836D01*
X124133724Y-109034837D01*
X124118152Y-109057665D01*
X124006119Y-109221899D01*
X123908602Y-109431981D01*
X123846707Y-109655169D01*
X123822095Y-109885469D01*
X119357230Y-109885469D01*
X119343760Y-109636751D01*
X119284972Y-109277752D01*
X119187756Y-108927202D01*
X119183912Y-108917540D01*
X119070827Y-108633373D01*
X119053249Y-108589201D01*
X118991281Y-108472164D01*
X118884624Y-108270723D01*
X118884620Y-108270716D01*
X118883025Y-108267704D01*
X118881118Y-108264888D01*
X118881113Y-108264879D01*
X118680985Y-107969292D01*
X118679075Y-107966471D01*
X118443785Y-107689027D01*
X118179908Y-107438617D01*
X117890530Y-107218170D01*
X117887618Y-107216413D01*
X117887613Y-107216410D01*
X117581951Y-107032023D01*
X117581945Y-107032020D01*
X117579036Y-107030265D01*
X117249071Y-106877100D01*
X116904494Y-106760467D01*
X116895234Y-106758414D01*
X116820485Y-106741843D01*
X116549336Y-106681731D01*
X116382040Y-106663261D01*
X116191133Y-106642184D01*
X116191128Y-106642184D01*
X116187752Y-106641811D01*
X116184353Y-106641805D01*
X116184352Y-106641805D01*
X116012763Y-106641506D01*
X115823972Y-106641176D01*
X115688831Y-106655618D01*
X115465634Y-106679471D01*
X115465628Y-106679472D01*
X115462250Y-106679833D01*
X115106820Y-106757330D01*
X114761838Y-106872759D01*
X114431340Y-107024771D01*
X114119192Y-107211588D01*
X113829046Y-107431023D01*
X113564296Y-107680511D01*
X113328040Y-107957132D01*
X113326112Y-107959959D01*
X113326110Y-107959961D01*
X113238588Y-108088264D01*
X113183677Y-108133267D01*
X113113152Y-108141438D01*
X113049405Y-108110184D01*
X113012675Y-108049427D01*
X113008500Y-108017260D01*
X113008500Y-106348134D01*
X123191500Y-106348134D01*
X123198255Y-106410316D01*
X123249385Y-106546705D01*
X123336739Y-106663261D01*
X123453295Y-106750615D01*
X123589684Y-106801745D01*
X123651866Y-106808500D01*
X125348134Y-106808500D01*
X125410316Y-106801745D01*
X125546705Y-106750615D01*
X125663261Y-106663261D01*
X125750615Y-106546705D01*
X125801745Y-106410316D01*
X125808500Y-106348134D01*
X127691500Y-106348134D01*
X127698255Y-106410316D01*
X127749385Y-106546705D01*
X127836739Y-106663261D01*
X127953295Y-106750615D01*
X128089684Y-106801745D01*
X128151866Y-106808500D01*
X129848134Y-106808500D01*
X129910316Y-106801745D01*
X130046705Y-106750615D01*
X130163261Y-106663261D01*
X130250615Y-106546705D01*
X130301745Y-106410316D01*
X130308500Y-106348134D01*
X130691500Y-106348134D01*
X130698255Y-106410316D01*
X130749385Y-106546705D01*
X130836739Y-106663261D01*
X130953295Y-106750615D01*
X131089684Y-106801745D01*
X131151866Y-106808500D01*
X132848134Y-106808500D01*
X132910316Y-106801745D01*
X133046705Y-106750615D01*
X133163261Y-106663261D01*
X133250615Y-106546705D01*
X133301745Y-106410316D01*
X133308500Y-106348134D01*
X133691500Y-106348134D01*
X133698255Y-106410316D01*
X133749385Y-106546705D01*
X133836739Y-106663261D01*
X133953295Y-106750615D01*
X134089684Y-106801745D01*
X134151866Y-106808500D01*
X135848134Y-106808500D01*
X135910316Y-106801745D01*
X136046705Y-106750615D01*
X136163261Y-106663261D01*
X136250615Y-106546705D01*
X136301745Y-106410316D01*
X136308500Y-106348134D01*
X136308500Y-104651866D01*
X136301745Y-104589684D01*
X136250615Y-104453295D01*
X136163261Y-104336739D01*
X136046705Y-104249385D01*
X135910316Y-104198255D01*
X135848134Y-104191500D01*
X134151866Y-104191500D01*
X134089684Y-104198255D01*
X133953295Y-104249385D01*
X133836739Y-104336739D01*
X133749385Y-104453295D01*
X133698255Y-104589684D01*
X133691500Y-104651866D01*
X133691500Y-106348134D01*
X133308500Y-106348134D01*
X133308500Y-104651866D01*
X133301745Y-104589684D01*
X133250615Y-104453295D01*
X133163261Y-104336739D01*
X133046705Y-104249385D01*
X132910316Y-104198255D01*
X132848134Y-104191500D01*
X131151866Y-104191500D01*
X131089684Y-104198255D01*
X130953295Y-104249385D01*
X130836739Y-104336739D01*
X130749385Y-104453295D01*
X130698255Y-104589684D01*
X130691500Y-104651866D01*
X130691500Y-106348134D01*
X130308500Y-106348134D01*
X130308500Y-104651866D01*
X130301745Y-104589684D01*
X130250615Y-104453295D01*
X130163261Y-104336739D01*
X130046705Y-104249385D01*
X129910316Y-104198255D01*
X129848134Y-104191500D01*
X128151866Y-104191500D01*
X128089684Y-104198255D01*
X127953295Y-104249385D01*
X127836739Y-104336739D01*
X127749385Y-104453295D01*
X127698255Y-104589684D01*
X127691500Y-104651866D01*
X127691500Y-106348134D01*
X125808500Y-106348134D01*
X125808500Y-104651866D01*
X125801745Y-104589684D01*
X125750615Y-104453295D01*
X125663261Y-104336739D01*
X125546705Y-104249385D01*
X125410316Y-104198255D01*
X125348134Y-104191500D01*
X123651866Y-104191500D01*
X123589684Y-104198255D01*
X123453295Y-104249385D01*
X123336739Y-104336739D01*
X123249385Y-104453295D01*
X123198255Y-104589684D01*
X123191500Y-104651866D01*
X123191500Y-106348134D01*
X113008500Y-106348134D01*
X113008500Y-103518580D01*
X115268752Y-103518580D01*
X115293477Y-103636421D01*
X115296537Y-103646617D01*
X115377263Y-103851029D01*
X115381994Y-103860561D01*
X115496016Y-104048462D01*
X115502280Y-104057052D01*
X115646327Y-104223052D01*
X115653958Y-104230472D01*
X115823911Y-104369826D01*
X115832678Y-104375850D01*
X116023682Y-104484576D01*
X116033346Y-104489041D01*
X116239941Y-104564031D01*
X116250208Y-104566802D01*
X116467655Y-104606123D01*
X116475884Y-104607056D01*
X116480376Y-104607268D01*
X116493124Y-104603525D01*
X116494329Y-104602135D01*
X116496000Y-104594452D01*
X116496000Y-104585970D01*
X117004000Y-104585970D01*
X117008310Y-104600648D01*
X117020193Y-104602711D01*
X117124325Y-104593876D01*
X117134797Y-104592086D01*
X117347535Y-104536870D01*
X117357575Y-104533335D01*
X117557970Y-104443063D01*
X117567256Y-104437894D01*
X117749575Y-104315150D01*
X117757870Y-104308481D01*
X117916900Y-104156772D01*
X117923941Y-104148814D01*
X118055141Y-103972475D01*
X118060745Y-103963438D01*
X118160357Y-103767516D01*
X118164357Y-103757665D01*
X118229534Y-103547760D01*
X118231817Y-103537376D01*
X118233861Y-103521957D01*
X118231665Y-103507793D01*
X118218478Y-103504000D01*
X117022115Y-103504000D01*
X117006876Y-103508475D01*
X117005671Y-103509865D01*
X117004000Y-103517548D01*
X117004000Y-104585970D01*
X116496000Y-104585970D01*
X116496000Y-103522115D01*
X116491525Y-103506876D01*
X116490135Y-103505671D01*
X116482452Y-103504000D01*
X115283808Y-103504000D01*
X115270277Y-103507973D01*
X115268752Y-103518580D01*
X113008500Y-103518580D01*
X113008500Y-101400400D01*
X115241500Y-101400400D01*
X115241837Y-101403646D01*
X115241837Y-101403650D01*
X115249076Y-101473412D01*
X115252474Y-101506166D01*
X115308450Y-101673946D01*
X115401522Y-101824348D01*
X115526697Y-101949305D01*
X115532927Y-101953145D01*
X115532928Y-101953146D01*
X115558896Y-101969153D01*
X115672258Y-102039030D01*
X115672780Y-102039352D01*
X115720273Y-102092124D01*
X115731697Y-102162196D01*
X115703423Y-102227320D01*
X115693636Y-102237782D01*
X115583094Y-102343234D01*
X115576059Y-102351186D01*
X115444859Y-102527525D01*
X115439255Y-102536562D01*
X115339643Y-102732484D01*
X115335643Y-102742335D01*
X115270466Y-102952240D01*
X115268183Y-102962624D01*
X115266139Y-102978043D01*
X115268335Y-102992207D01*
X115281522Y-102996000D01*
X118216192Y-102996000D01*
X118229723Y-102992027D01*
X118231248Y-102981420D01*
X118206523Y-102863579D01*
X118203463Y-102853383D01*
X118122737Y-102648971D01*
X118118006Y-102639439D01*
X118003984Y-102451538D01*
X117997720Y-102442948D01*
X117853673Y-102276948D01*
X117846044Y-102269530D01*
X117814431Y-102243609D01*
X117774436Y-102184949D01*
X117772504Y-102113979D01*
X117809248Y-102053230D01*
X117828018Y-102039030D01*
X117968120Y-101952332D01*
X117974348Y-101948478D01*
X118002776Y-101920000D01*
X120186502Y-101920000D01*
X120206457Y-102148087D01*
X120207881Y-102153400D01*
X120207881Y-102153402D01*
X120260878Y-102351186D01*
X120265716Y-102369243D01*
X120268039Y-102374224D01*
X120268039Y-102374225D01*
X120360151Y-102571762D01*
X120360154Y-102571767D01*
X120362477Y-102576749D01*
X120493802Y-102764300D01*
X120655700Y-102926198D01*
X120660208Y-102929355D01*
X120660211Y-102929357D01*
X120724491Y-102974366D01*
X120843251Y-103057523D01*
X120848233Y-103059846D01*
X120848238Y-103059849D01*
X121045775Y-103151961D01*
X121050757Y-103154284D01*
X121056065Y-103155706D01*
X121056067Y-103155707D01*
X121266598Y-103212119D01*
X121266600Y-103212119D01*
X121271913Y-103213543D01*
X121500000Y-103233498D01*
X121728087Y-103213543D01*
X121733400Y-103212119D01*
X121733402Y-103212119D01*
X121943933Y-103155707D01*
X121943935Y-103155706D01*
X121949243Y-103154284D01*
X121954225Y-103151961D01*
X122151762Y-103059849D01*
X122151767Y-103059846D01*
X122156749Y-103057523D01*
X122275509Y-102974366D01*
X122339789Y-102929357D01*
X122339792Y-102929355D01*
X122344300Y-102926198D01*
X122506198Y-102764300D01*
X122637523Y-102576749D01*
X122639846Y-102571767D01*
X122639849Y-102571762D01*
X122731961Y-102374225D01*
X122731961Y-102374224D01*
X122734284Y-102369243D01*
X122739123Y-102351186D01*
X122792119Y-102153402D01*
X122792119Y-102153400D01*
X122793543Y-102148087D01*
X122813498Y-101920000D01*
X122793543Y-101691913D01*
X122790398Y-101680176D01*
X122735707Y-101476067D01*
X122735706Y-101476065D01*
X122734284Y-101470757D01*
X122702992Y-101403650D01*
X122639849Y-101268238D01*
X122639846Y-101268233D01*
X122637523Y-101263251D01*
X122564098Y-101158389D01*
X122509357Y-101080211D01*
X122509355Y-101080208D01*
X122506198Y-101075700D01*
X122344300Y-100913802D01*
X122339792Y-100910645D01*
X122339789Y-100910643D01*
X122243780Y-100843417D01*
X122156749Y-100782477D01*
X122151767Y-100780154D01*
X122151762Y-100780151D01*
X121954225Y-100688039D01*
X121954224Y-100688039D01*
X121949243Y-100685716D01*
X121943935Y-100684294D01*
X121943933Y-100684293D01*
X121733402Y-100627881D01*
X121733400Y-100627881D01*
X121728087Y-100626457D01*
X121500000Y-100606502D01*
X121271913Y-100626457D01*
X121266600Y-100627881D01*
X121266598Y-100627881D01*
X121056067Y-100684293D01*
X121056065Y-100684294D01*
X121050757Y-100685716D01*
X121045776Y-100688039D01*
X121045775Y-100688039D01*
X120848238Y-100780151D01*
X120848233Y-100780154D01*
X120843251Y-100782477D01*
X120756220Y-100843417D01*
X120660211Y-100910643D01*
X120660208Y-100910645D01*
X120655700Y-100913802D01*
X120493802Y-101075700D01*
X120490645Y-101080208D01*
X120490643Y-101080211D01*
X120435902Y-101158389D01*
X120362477Y-101263251D01*
X120360154Y-101268233D01*
X120360151Y-101268238D01*
X120297008Y-101403650D01*
X120265716Y-101470757D01*
X120264294Y-101476065D01*
X120264293Y-101476067D01*
X120209602Y-101680176D01*
X120206457Y-101691913D01*
X120186502Y-101920000D01*
X118002776Y-101920000D01*
X118099305Y-101823303D01*
X118109537Y-101806704D01*
X118188275Y-101678968D01*
X118188276Y-101678966D01*
X118192115Y-101672738D01*
X118247797Y-101504861D01*
X118258500Y-101400400D01*
X118258500Y-100099600D01*
X118258163Y-100096350D01*
X118248238Y-100000692D01*
X118248237Y-100000688D01*
X118247526Y-99993834D01*
X118242545Y-99978902D01*
X118193868Y-99833002D01*
X118191550Y-99826054D01*
X118098478Y-99675652D01*
X117973303Y-99550695D01*
X117962899Y-99544282D01*
X117828968Y-99461725D01*
X117828966Y-99461724D01*
X117822738Y-99457885D01*
X117662254Y-99404655D01*
X117661389Y-99404368D01*
X117661387Y-99404368D01*
X117654861Y-99402203D01*
X117648025Y-99401503D01*
X117648022Y-99401502D01*
X117604969Y-99397091D01*
X117550400Y-99391500D01*
X115949600Y-99391500D01*
X115946354Y-99391837D01*
X115946350Y-99391837D01*
X115850692Y-99401762D01*
X115850688Y-99401763D01*
X115843834Y-99402474D01*
X115837298Y-99404655D01*
X115837296Y-99404655D01*
X115739025Y-99437441D01*
X115676054Y-99458450D01*
X115525652Y-99551522D01*
X115400695Y-99676697D01*
X115396855Y-99682927D01*
X115396854Y-99682928D01*
X115328381Y-99794012D01*
X115307885Y-99827262D01*
X115305581Y-99834209D01*
X115254886Y-99987051D01*
X115252203Y-99995139D01*
X115241500Y-100099600D01*
X115241500Y-101400400D01*
X113008500Y-101400400D01*
X113008500Y-96596522D01*
X113717273Y-96596522D01*
X113764764Y-96773761D01*
X113768510Y-96784053D01*
X113860586Y-96981511D01*
X113866069Y-96991007D01*
X113991028Y-97169467D01*
X113998084Y-97177875D01*
X114152125Y-97331916D01*
X114160533Y-97338972D01*
X114338993Y-97463931D01*
X114348489Y-97469414D01*
X114545947Y-97561490D01*
X114556239Y-97565236D01*
X114728503Y-97611394D01*
X114742599Y-97611058D01*
X114746000Y-97603116D01*
X114746000Y-97597967D01*
X115254000Y-97597967D01*
X115257973Y-97611498D01*
X115266522Y-97612727D01*
X115443761Y-97565236D01*
X115454053Y-97561490D01*
X115651511Y-97469414D01*
X115661007Y-97463931D01*
X115839467Y-97338972D01*
X115847875Y-97331916D01*
X116001916Y-97177875D01*
X116008972Y-97169467D01*
X116133931Y-96991007D01*
X116139414Y-96981511D01*
X116231490Y-96784053D01*
X116235236Y-96773761D01*
X116281394Y-96601497D01*
X116281058Y-96587401D01*
X116273116Y-96584000D01*
X115272115Y-96584000D01*
X115256876Y-96588475D01*
X115255671Y-96589865D01*
X115254000Y-96597548D01*
X115254000Y-97597967D01*
X114746000Y-97597967D01*
X114746000Y-96602115D01*
X114741525Y-96586876D01*
X114740135Y-96585671D01*
X114732452Y-96584000D01*
X113732033Y-96584000D01*
X113718502Y-96587973D01*
X113717273Y-96596522D01*
X113008500Y-96596522D01*
X113008500Y-96058503D01*
X113718606Y-96058503D01*
X113718942Y-96072599D01*
X113726884Y-96076000D01*
X114727885Y-96076000D01*
X114743124Y-96071525D01*
X114744329Y-96070135D01*
X114746000Y-96062452D01*
X114746000Y-96057885D01*
X115254000Y-96057885D01*
X115258475Y-96073124D01*
X115259865Y-96074329D01*
X115267548Y-96076000D01*
X116267967Y-96076000D01*
X116281498Y-96072027D01*
X116282727Y-96063478D01*
X116235236Y-95886239D01*
X116231490Y-95875947D01*
X116139414Y-95678489D01*
X116133931Y-95668993D01*
X116008972Y-95490533D01*
X116001916Y-95482125D01*
X115847875Y-95328084D01*
X115839467Y-95321028D01*
X115661007Y-95196069D01*
X115651511Y-95190586D01*
X115454053Y-95098510D01*
X115443761Y-95094764D01*
X115271497Y-95048606D01*
X115257401Y-95048942D01*
X115254000Y-95056884D01*
X115254000Y-96057885D01*
X114746000Y-96057885D01*
X114746000Y-95062033D01*
X114742027Y-95048502D01*
X114733478Y-95047273D01*
X114556239Y-95094764D01*
X114545947Y-95098510D01*
X114348489Y-95190586D01*
X114338993Y-95196069D01*
X114160533Y-95321028D01*
X114152125Y-95328084D01*
X113998084Y-95482125D01*
X113991028Y-95490533D01*
X113866069Y-95668993D01*
X113860586Y-95678489D01*
X113768510Y-95875947D01*
X113764764Y-95886239D01*
X113718606Y-96058503D01*
X113008500Y-96058503D01*
X113008500Y-87946522D01*
X118842273Y-87946522D01*
X118889764Y-88123761D01*
X118893510Y-88134053D01*
X118985586Y-88331511D01*
X118991069Y-88341007D01*
X119116028Y-88519467D01*
X119123084Y-88527875D01*
X119277125Y-88681916D01*
X119285533Y-88688972D01*
X119463993Y-88813931D01*
X119473489Y-88819414D01*
X119670947Y-88911490D01*
X119681239Y-88915236D01*
X119853503Y-88961394D01*
X119867599Y-88961058D01*
X119871000Y-88953116D01*
X119871000Y-87952115D01*
X119866525Y-87936876D01*
X119865135Y-87935671D01*
X119857452Y-87934000D01*
X118857033Y-87934000D01*
X118843502Y-87937973D01*
X118842273Y-87946522D01*
X113008500Y-87946522D01*
X113008500Y-86170000D01*
X113686502Y-86170000D01*
X113706457Y-86398087D01*
X113707881Y-86403400D01*
X113707881Y-86403402D01*
X113745558Y-86544011D01*
X113765716Y-86619243D01*
X113768039Y-86624224D01*
X113768039Y-86624225D01*
X113860151Y-86821762D01*
X113860154Y-86821767D01*
X113862477Y-86826749D01*
X113993802Y-87014300D01*
X114155700Y-87176198D01*
X114160208Y-87179355D01*
X114160211Y-87179357D01*
X114216053Y-87218458D01*
X114343251Y-87307523D01*
X114348233Y-87309846D01*
X114348238Y-87309849D01*
X114464474Y-87364050D01*
X114550757Y-87404284D01*
X114556065Y-87405706D01*
X114556067Y-87405707D01*
X114766598Y-87462119D01*
X114766600Y-87462119D01*
X114771913Y-87463543D01*
X115000000Y-87483498D01*
X115228087Y-87463543D01*
X115233400Y-87462119D01*
X115233402Y-87462119D01*
X115443933Y-87405707D01*
X115443935Y-87405706D01*
X115449243Y-87404284D01*
X115535526Y-87364050D01*
X115651762Y-87309849D01*
X115651767Y-87309846D01*
X115656749Y-87307523D01*
X115783947Y-87218458D01*
X115839789Y-87179357D01*
X115839792Y-87179355D01*
X115844300Y-87176198D01*
X115955093Y-87065405D01*
X116017405Y-87031379D01*
X116044188Y-87028500D01*
X118787801Y-87028500D01*
X118855922Y-87048502D01*
X118902415Y-87102158D01*
X118912519Y-87172432D01*
X118901995Y-87207752D01*
X118893510Y-87225947D01*
X118889764Y-87236239D01*
X118843606Y-87408503D01*
X118843942Y-87422599D01*
X118851884Y-87426000D01*
X120253000Y-87426000D01*
X120321121Y-87446002D01*
X120367614Y-87499658D01*
X120379000Y-87552000D01*
X120379000Y-88947967D01*
X120382973Y-88961498D01*
X120391522Y-88962727D01*
X120568761Y-88915236D01*
X120579053Y-88911490D01*
X120776511Y-88819414D01*
X120786007Y-88813931D01*
X120964467Y-88688972D01*
X120972875Y-88681916D01*
X121126916Y-88527875D01*
X121133972Y-88519467D01*
X121258931Y-88341007D01*
X121264414Y-88331511D01*
X121280529Y-88296951D01*
X121327446Y-88243666D01*
X121395723Y-88224205D01*
X121463683Y-88244747D01*
X121508919Y-88296951D01*
X121525151Y-88331762D01*
X121525154Y-88331767D01*
X121527477Y-88336749D01*
X121658802Y-88524300D01*
X121769595Y-88635093D01*
X121803621Y-88697405D01*
X121806500Y-88724188D01*
X121806500Y-89623610D01*
X121806058Y-89634152D01*
X121801696Y-89686099D01*
X121802598Y-89692859D01*
X121802598Y-89692861D01*
X121812437Y-89766602D01*
X121812807Y-89769657D01*
X121821583Y-89850437D01*
X121823758Y-89856901D01*
X121824478Y-89860176D01*
X121824548Y-89860572D01*
X121824671Y-89860996D01*
X121825462Y-89864216D01*
X121826366Y-89870989D01*
X121854139Y-89947294D01*
X121855156Y-89950198D01*
X121881078Y-90027223D01*
X121884596Y-90033077D01*
X121885985Y-90036084D01*
X121886152Y-90036489D01*
X121886357Y-90036865D01*
X121887827Y-90039852D01*
X121890162Y-90046268D01*
X121933730Y-90114920D01*
X121935255Y-90117389D01*
X121977147Y-90187109D01*
X121981834Y-90192066D01*
X121983851Y-90194723D01*
X121984369Y-90195469D01*
X121987344Y-90199402D01*
X121990109Y-90203759D01*
X121993930Y-90208032D01*
X122047908Y-90262010D01*
X122050362Y-90264532D01*
X122105308Y-90322636D01*
X122110956Y-90326474D01*
X122116148Y-90330893D01*
X122115808Y-90331293D01*
X122123800Y-90337902D01*
X123863680Y-92077783D01*
X123870822Y-92085549D01*
X123904471Y-92125367D01*
X123909895Y-92129514D01*
X123909896Y-92129515D01*
X123968962Y-92174674D01*
X123971379Y-92176568D01*
X124034738Y-92227510D01*
X124040857Y-92230547D01*
X124043652Y-92232335D01*
X124044013Y-92232588D01*
X124044380Y-92232790D01*
X124047238Y-92234521D01*
X124052652Y-92238660D01*
X124126262Y-92272985D01*
X124129033Y-92274319D01*
X124201814Y-92310447D01*
X124208435Y-92312098D01*
X124211563Y-92313249D01*
X124211956Y-92313413D01*
X124212361Y-92313532D01*
X124215525Y-92314609D01*
X124221704Y-92317490D01*
X124295498Y-92333985D01*
X124301002Y-92335215D01*
X124304000Y-92335924D01*
X124382801Y-92355572D01*
X124389622Y-92355763D01*
X124392925Y-92356215D01*
X124393809Y-92356374D01*
X124398692Y-92357052D01*
X124403740Y-92358180D01*
X124409463Y-92358500D01*
X124485844Y-92358500D01*
X124489363Y-92358549D01*
X124569257Y-92360781D01*
X124575961Y-92359502D01*
X124582762Y-92358955D01*
X124582804Y-92359475D01*
X124593125Y-92358500D01*
X137592208Y-92358500D01*
X137660329Y-92378502D01*
X137681303Y-92395405D01*
X139604595Y-94318698D01*
X139638621Y-94381010D01*
X139641500Y-94407793D01*
X139641500Y-96458610D01*
X139641058Y-96469152D01*
X139636696Y-96521099D01*
X139637598Y-96527859D01*
X139637598Y-96527861D01*
X139647437Y-96601602D01*
X139647807Y-96604657D01*
X139649868Y-96623624D01*
X139656583Y-96685437D01*
X139658758Y-96691901D01*
X139659478Y-96695176D01*
X139659548Y-96695572D01*
X139659671Y-96695996D01*
X139660462Y-96699216D01*
X139661366Y-96705989D01*
X139687361Y-96777410D01*
X139689139Y-96782294D01*
X139690156Y-96785198D01*
X139716078Y-96862223D01*
X139719596Y-96868077D01*
X139720985Y-96871084D01*
X139721152Y-96871489D01*
X139721357Y-96871865D01*
X139722827Y-96874852D01*
X139725162Y-96881268D01*
X139768730Y-96949920D01*
X139770255Y-96952389D01*
X139812147Y-97022109D01*
X139816834Y-97027066D01*
X139818851Y-97029723D01*
X139819369Y-97030469D01*
X139822344Y-97034402D01*
X139825109Y-97038759D01*
X139828930Y-97043032D01*
X139882908Y-97097010D01*
X139885362Y-97099532D01*
X139940308Y-97157636D01*
X139945950Y-97161471D01*
X139951148Y-97165894D01*
X139950811Y-97166290D01*
X139958802Y-97172904D01*
X141363674Y-98577776D01*
X141370816Y-98585542D01*
X141404471Y-98625367D01*
X141409890Y-98629510D01*
X141409892Y-98629512D01*
X141469008Y-98674710D01*
X141471429Y-98676609D01*
X141529418Y-98723232D01*
X141534738Y-98727509D01*
X141540850Y-98730543D01*
X141543644Y-98732330D01*
X141544004Y-98732582D01*
X141544373Y-98732785D01*
X141547234Y-98734517D01*
X141552652Y-98738660D01*
X141621690Y-98770853D01*
X141626277Y-98772992D01*
X141629048Y-98774326D01*
X141701814Y-98810447D01*
X141708435Y-98812098D01*
X141711563Y-98813249D01*
X141711955Y-98813412D01*
X141712362Y-98813532D01*
X141715522Y-98814608D01*
X141721704Y-98817490D01*
X141760582Y-98826180D01*
X141822699Y-98860561D01*
X141828259Y-98866563D01*
X141848039Y-98889357D01*
X141917282Y-98969153D01*
X141924477Y-98977445D01*
X141928608Y-98980832D01*
X142098627Y-99120240D01*
X142098633Y-99120244D01*
X142102755Y-99123624D01*
X142134250Y-99141552D01*
X142183555Y-99192632D01*
X142197417Y-99262262D01*
X142171434Y-99328333D01*
X142142284Y-99355573D01*
X142020681Y-99437441D01*
X142016824Y-99441120D01*
X142016822Y-99441122D01*
X141972144Y-99483743D01*
X141853865Y-99596576D01*
X141716246Y-99781542D01*
X141713830Y-99786293D01*
X141713828Y-99786297D01*
X141675655Y-99861379D01*
X141611760Y-99987051D01*
X141608329Y-99998100D01*
X141569030Y-100057224D01*
X141504002Y-100085716D01*
X141433892Y-100074529D01*
X141380960Y-100027214D01*
X141363104Y-99977401D01*
X141352563Y-99898396D01*
X141352193Y-99895341D01*
X141345420Y-99833002D01*
X141343417Y-99814563D01*
X141341239Y-99808092D01*
X141340527Y-99804852D01*
X141340450Y-99804417D01*
X141340334Y-99804017D01*
X141339537Y-99800774D01*
X141338635Y-99794012D01*
X141310839Y-99717644D01*
X141309841Y-99714794D01*
X141296669Y-99675652D01*
X141283922Y-99637777D01*
X141280409Y-99631930D01*
X141279007Y-99628896D01*
X141278847Y-99628508D01*
X141278636Y-99628121D01*
X141277172Y-99625146D01*
X141274838Y-99618733D01*
X141231333Y-99550180D01*
X141229715Y-99547561D01*
X141191369Y-99483743D01*
X141187853Y-99477891D01*
X141183160Y-99472928D01*
X141181150Y-99470280D01*
X141180627Y-99469527D01*
X141177654Y-99465596D01*
X141174891Y-99461242D01*
X141171071Y-99456968D01*
X141117075Y-99402972D01*
X141114621Y-99400450D01*
X141101931Y-99387031D01*
X141059692Y-99342364D01*
X141054044Y-99338526D01*
X141048852Y-99334107D01*
X141049192Y-99333707D01*
X141041203Y-99327100D01*
X140136320Y-98422217D01*
X140129177Y-98414450D01*
X140099935Y-98379847D01*
X140095529Y-98374633D01*
X140031031Y-98325321D01*
X140028615Y-98323427D01*
X139970583Y-98276768D01*
X139970582Y-98276767D01*
X139965262Y-98272490D01*
X139959143Y-98269453D01*
X139956348Y-98267665D01*
X139955987Y-98267412D01*
X139955620Y-98267210D01*
X139952762Y-98265479D01*
X139947348Y-98261340D01*
X139873736Y-98227014D01*
X139870964Y-98225680D01*
X139869921Y-98225162D01*
X139798186Y-98189553D01*
X139791565Y-98187902D01*
X139788437Y-98186751D01*
X139788044Y-98186587D01*
X139787639Y-98186468D01*
X139784475Y-98185391D01*
X139778296Y-98182510D01*
X139699000Y-98164785D01*
X139696002Y-98164076D01*
X139623821Y-98146079D01*
X139623820Y-98146079D01*
X139617199Y-98144428D01*
X139610378Y-98144237D01*
X139607075Y-98143785D01*
X139606191Y-98143626D01*
X139601308Y-98142948D01*
X139596260Y-98141820D01*
X139590537Y-98141500D01*
X139514156Y-98141500D01*
X139510637Y-98141451D01*
X139430743Y-98139219D01*
X139424039Y-98140498D01*
X139417238Y-98141045D01*
X139417196Y-98140525D01*
X139406875Y-98141500D01*
X137541391Y-98141500D01*
X137530848Y-98141058D01*
X137530693Y-98141045D01*
X137478902Y-98136696D01*
X137472142Y-98137598D01*
X137472139Y-98137598D01*
X137398395Y-98147437D01*
X137395341Y-98147807D01*
X137355980Y-98152083D01*
X137314563Y-98156583D01*
X137308092Y-98158761D01*
X137304852Y-98159473D01*
X137304417Y-98159550D01*
X137304017Y-98159666D01*
X137300774Y-98160463D01*
X137294012Y-98161365D01*
X137217644Y-98189161D01*
X137214823Y-98190149D01*
X137137777Y-98216078D01*
X137131930Y-98219591D01*
X137128896Y-98220993D01*
X137128508Y-98221153D01*
X137128121Y-98221364D01*
X137125146Y-98222828D01*
X137118733Y-98225162D01*
X137112969Y-98228820D01*
X137050180Y-98268667D01*
X137047561Y-98270285D01*
X136977891Y-98312147D01*
X136972928Y-98316840D01*
X136970280Y-98318850D01*
X136969527Y-98319373D01*
X136965596Y-98322346D01*
X136961242Y-98325109D01*
X136956968Y-98328929D01*
X136902972Y-98382925D01*
X136900450Y-98385379D01*
X136842364Y-98440308D01*
X136838526Y-98445956D01*
X136834107Y-98451148D01*
X136833707Y-98450808D01*
X136827100Y-98458797D01*
X136181302Y-99104595D01*
X136118990Y-99138621D01*
X136092207Y-99141500D01*
X135879312Y-99141500D01*
X135811191Y-99121498D01*
X135764698Y-99067842D01*
X135754594Y-98997568D01*
X135784088Y-98932988D01*
X135807041Y-98912287D01*
X135839789Y-98889357D01*
X135839792Y-98889355D01*
X135844300Y-98886198D01*
X136006198Y-98724300D01*
X136040922Y-98674710D01*
X136092041Y-98601704D01*
X136137523Y-98536749D01*
X136139846Y-98531767D01*
X136139849Y-98531762D01*
X136231961Y-98334225D01*
X136231961Y-98334224D01*
X136234284Y-98329243D01*
X136235843Y-98323427D01*
X136292119Y-98113402D01*
X136292119Y-98113400D01*
X136293543Y-98108087D01*
X136313498Y-97880000D01*
X136293543Y-97651913D01*
X136282596Y-97611058D01*
X136235707Y-97436067D01*
X136235706Y-97436065D01*
X136234284Y-97430757D01*
X136214914Y-97389217D01*
X136139849Y-97228238D01*
X136139846Y-97228233D01*
X136137523Y-97223251D01*
X136049128Y-97097010D01*
X136009357Y-97040211D01*
X136009355Y-97040208D01*
X136006198Y-97035700D01*
X135844300Y-96873802D01*
X135839792Y-96870645D01*
X135839789Y-96870643D01*
X135724347Y-96789810D01*
X135706638Y-96777409D01*
X135662310Y-96721953D01*
X135655001Y-96651334D01*
X135687032Y-96587973D01*
X135746296Y-96552490D01*
X135814243Y-96534284D01*
X135826291Y-96528666D01*
X136016762Y-96439849D01*
X136016767Y-96439846D01*
X136021749Y-96437523D01*
X136151450Y-96346705D01*
X136204789Y-96309357D01*
X136204792Y-96309355D01*
X136209300Y-96306198D01*
X136371198Y-96144300D01*
X136502523Y-95956749D01*
X136504846Y-95951767D01*
X136504849Y-95951762D01*
X136520805Y-95917543D01*
X136567722Y-95864258D01*
X136635999Y-95844797D01*
X136703959Y-95865339D01*
X136749195Y-95917543D01*
X136765151Y-95951762D01*
X136765154Y-95951767D01*
X136767477Y-95956749D01*
X136898802Y-96144300D01*
X137060700Y-96306198D01*
X137065208Y-96309355D01*
X137065211Y-96309357D01*
X137118550Y-96346705D01*
X137248251Y-96437523D01*
X137253233Y-96439846D01*
X137253238Y-96439849D01*
X137443709Y-96528666D01*
X137455757Y-96534284D01*
X137461065Y-96535706D01*
X137461067Y-96535707D01*
X137671598Y-96592119D01*
X137671600Y-96592119D01*
X137676913Y-96593543D01*
X137905000Y-96613498D01*
X138133087Y-96593543D01*
X138138400Y-96592119D01*
X138138402Y-96592119D01*
X138348933Y-96535707D01*
X138348935Y-96535706D01*
X138354243Y-96534284D01*
X138366291Y-96528666D01*
X138556762Y-96439849D01*
X138556767Y-96439846D01*
X138561749Y-96437523D01*
X138691450Y-96346705D01*
X138744789Y-96309357D01*
X138744792Y-96309355D01*
X138749300Y-96306198D01*
X138911198Y-96144300D01*
X139042523Y-95956749D01*
X139044846Y-95951767D01*
X139044849Y-95951762D01*
X139136961Y-95754225D01*
X139136961Y-95754224D01*
X139139284Y-95749243D01*
X139187444Y-95569511D01*
X139197119Y-95533402D01*
X139197119Y-95533400D01*
X139198543Y-95528087D01*
X139218498Y-95300000D01*
X139198543Y-95071913D01*
X139189582Y-95038471D01*
X139140707Y-94856067D01*
X139140706Y-94856065D01*
X139139284Y-94850757D01*
X139067439Y-94696683D01*
X139044849Y-94648238D01*
X139044846Y-94648233D01*
X139042523Y-94643251D01*
X138969098Y-94538389D01*
X138914357Y-94460211D01*
X138914355Y-94460208D01*
X138911198Y-94455700D01*
X138749300Y-94293802D01*
X138744792Y-94290645D01*
X138744789Y-94290643D01*
X138594606Y-94185484D01*
X138561749Y-94162477D01*
X138556767Y-94160154D01*
X138556762Y-94160151D01*
X138359225Y-94068039D01*
X138359224Y-94068039D01*
X138354243Y-94065716D01*
X138348935Y-94064294D01*
X138348933Y-94064293D01*
X138138402Y-94007881D01*
X138138400Y-94007881D01*
X138133087Y-94006457D01*
X137905000Y-93986502D01*
X137676913Y-94006457D01*
X137671600Y-94007881D01*
X137671598Y-94007881D01*
X137461067Y-94064293D01*
X137461065Y-94064294D01*
X137455757Y-94065716D01*
X137450776Y-94068039D01*
X137450775Y-94068039D01*
X137253238Y-94160151D01*
X137253233Y-94160154D01*
X137248251Y-94162477D01*
X137215394Y-94185484D01*
X137065211Y-94290643D01*
X137065208Y-94290645D01*
X137060700Y-94293802D01*
X136898802Y-94455700D01*
X136895645Y-94460208D01*
X136895643Y-94460211D01*
X136840902Y-94538389D01*
X136767477Y-94643251D01*
X136765154Y-94648233D01*
X136765151Y-94648238D01*
X136749195Y-94682457D01*
X136702278Y-94735742D01*
X136634001Y-94755203D01*
X136566041Y-94734661D01*
X136520805Y-94682457D01*
X136504849Y-94648238D01*
X136504846Y-94648233D01*
X136502523Y-94643251D01*
X136429098Y-94538389D01*
X136374357Y-94460211D01*
X136374355Y-94460208D01*
X136371198Y-94455700D01*
X136209300Y-94293802D01*
X136204792Y-94290645D01*
X136204789Y-94290643D01*
X136054606Y-94185484D01*
X136021749Y-94162477D01*
X136016767Y-94160154D01*
X136016762Y-94160151D01*
X135819225Y-94068039D01*
X135819224Y-94068039D01*
X135814243Y-94065716D01*
X135808935Y-94064294D01*
X135808933Y-94064293D01*
X135598402Y-94007881D01*
X135598400Y-94007881D01*
X135593087Y-94006457D01*
X135365000Y-93986502D01*
X135136913Y-94006457D01*
X135131600Y-94007881D01*
X135131598Y-94007881D01*
X134921067Y-94064293D01*
X134921065Y-94064294D01*
X134915757Y-94065716D01*
X134910776Y-94068039D01*
X134910775Y-94068039D01*
X134713238Y-94160151D01*
X134713233Y-94160154D01*
X134708251Y-94162477D01*
X134675394Y-94185484D01*
X134525211Y-94290643D01*
X134525208Y-94290645D01*
X134520700Y-94293802D01*
X134358802Y-94455700D01*
X134355645Y-94460208D01*
X134355643Y-94460211D01*
X134300902Y-94538389D01*
X134227477Y-94643251D01*
X134225154Y-94648233D01*
X134225151Y-94648238D01*
X134209195Y-94682457D01*
X134162278Y-94735742D01*
X134094001Y-94755203D01*
X134026041Y-94734661D01*
X133980805Y-94682457D01*
X133964849Y-94648238D01*
X133964846Y-94648233D01*
X133962523Y-94643251D01*
X133889098Y-94538389D01*
X133834357Y-94460211D01*
X133834355Y-94460208D01*
X133831198Y-94455700D01*
X133669300Y-94293802D01*
X133664792Y-94290645D01*
X133664789Y-94290643D01*
X133514606Y-94185484D01*
X133481749Y-94162477D01*
X133476767Y-94160154D01*
X133476762Y-94160151D01*
X133279225Y-94068039D01*
X133279224Y-94068039D01*
X133274243Y-94065716D01*
X133268935Y-94064294D01*
X133268933Y-94064293D01*
X133058402Y-94007881D01*
X133058400Y-94007881D01*
X133053087Y-94006457D01*
X132825000Y-93986502D01*
X132596913Y-94006457D01*
X132591600Y-94007881D01*
X132591598Y-94007881D01*
X132381067Y-94064293D01*
X132381065Y-94064294D01*
X132375757Y-94065716D01*
X132370776Y-94068039D01*
X132370775Y-94068039D01*
X132173238Y-94160151D01*
X132173233Y-94160154D01*
X132168251Y-94162477D01*
X132135394Y-94185484D01*
X131985211Y-94290643D01*
X131985208Y-94290645D01*
X131980700Y-94293802D01*
X131818802Y-94455700D01*
X131815645Y-94460208D01*
X131815643Y-94460211D01*
X131760902Y-94538389D01*
X131687477Y-94643251D01*
X131685154Y-94648233D01*
X131685151Y-94648238D01*
X131669195Y-94682457D01*
X131622278Y-94735742D01*
X131554001Y-94755203D01*
X131486041Y-94734661D01*
X131440805Y-94682457D01*
X131424849Y-94648238D01*
X131424846Y-94648233D01*
X131422523Y-94643251D01*
X131349098Y-94538389D01*
X131294357Y-94460211D01*
X131294355Y-94460208D01*
X131291198Y-94455700D01*
X131129300Y-94293802D01*
X131124792Y-94290645D01*
X131124789Y-94290643D01*
X130974606Y-94185484D01*
X130941749Y-94162477D01*
X130936767Y-94160154D01*
X130936762Y-94160151D01*
X130739225Y-94068039D01*
X130739224Y-94068039D01*
X130734243Y-94065716D01*
X130728935Y-94064294D01*
X130728933Y-94064293D01*
X130518402Y-94007881D01*
X130518400Y-94007881D01*
X130513087Y-94006457D01*
X130285000Y-93986502D01*
X130056913Y-94006457D01*
X130051600Y-94007881D01*
X130051598Y-94007881D01*
X129841067Y-94064293D01*
X129841065Y-94064294D01*
X129835757Y-94065716D01*
X129830776Y-94068039D01*
X129830775Y-94068039D01*
X129633238Y-94160151D01*
X129633233Y-94160154D01*
X129628251Y-94162477D01*
X129595394Y-94185484D01*
X129445211Y-94290643D01*
X129445208Y-94290645D01*
X129440700Y-94293802D01*
X129278802Y-94455700D01*
X129275645Y-94460208D01*
X129275643Y-94460211D01*
X129220902Y-94538389D01*
X129147477Y-94643251D01*
X129145154Y-94648233D01*
X129145151Y-94648238D01*
X129129195Y-94682457D01*
X129082278Y-94735742D01*
X129014001Y-94755203D01*
X128946041Y-94734661D01*
X128900805Y-94682457D01*
X128884849Y-94648238D01*
X128884846Y-94648233D01*
X128882523Y-94643251D01*
X128809098Y-94538389D01*
X128754357Y-94460211D01*
X128754355Y-94460208D01*
X128751198Y-94455700D01*
X128589300Y-94293802D01*
X128584792Y-94290645D01*
X128584789Y-94290643D01*
X128434606Y-94185484D01*
X128401749Y-94162477D01*
X128396767Y-94160154D01*
X128396762Y-94160151D01*
X128199225Y-94068039D01*
X128199224Y-94068039D01*
X128194243Y-94065716D01*
X128188935Y-94064294D01*
X128188933Y-94064293D01*
X127978402Y-94007881D01*
X127978400Y-94007881D01*
X127973087Y-94006457D01*
X127745000Y-93986502D01*
X127516913Y-94006457D01*
X127511600Y-94007881D01*
X127511598Y-94007881D01*
X127301067Y-94064293D01*
X127301065Y-94064294D01*
X127295757Y-94065716D01*
X127290776Y-94068039D01*
X127290775Y-94068039D01*
X127093238Y-94160151D01*
X127093233Y-94160154D01*
X127088251Y-94162477D01*
X127055394Y-94185484D01*
X126905211Y-94290643D01*
X126905208Y-94290645D01*
X126900700Y-94293802D01*
X126738802Y-94455700D01*
X126735645Y-94460208D01*
X126735643Y-94460211D01*
X126680902Y-94538389D01*
X126607477Y-94643251D01*
X126605154Y-94648233D01*
X126605151Y-94648238D01*
X126589195Y-94682457D01*
X126542278Y-94735742D01*
X126474001Y-94755203D01*
X126406041Y-94734661D01*
X126360805Y-94682457D01*
X126344849Y-94648238D01*
X126344846Y-94648233D01*
X126342523Y-94643251D01*
X126269098Y-94538389D01*
X126214357Y-94460211D01*
X126214355Y-94460208D01*
X126211198Y-94455700D01*
X126049300Y-94293802D01*
X126044792Y-94290645D01*
X126044789Y-94290643D01*
X125894606Y-94185484D01*
X125861749Y-94162477D01*
X125856767Y-94160154D01*
X125856762Y-94160151D01*
X125659225Y-94068039D01*
X125659224Y-94068039D01*
X125654243Y-94065716D01*
X125648935Y-94064294D01*
X125648933Y-94064293D01*
X125438402Y-94007881D01*
X125438400Y-94007881D01*
X125433087Y-94006457D01*
X125205000Y-93986502D01*
X124976913Y-94006457D01*
X124971600Y-94007881D01*
X124971598Y-94007881D01*
X124761067Y-94064293D01*
X124761065Y-94064294D01*
X124755757Y-94065716D01*
X124750776Y-94068039D01*
X124750775Y-94068039D01*
X124553238Y-94160151D01*
X124553233Y-94160154D01*
X124548251Y-94162477D01*
X124515394Y-94185484D01*
X124365211Y-94290643D01*
X124365208Y-94290645D01*
X124360700Y-94293802D01*
X124198802Y-94455700D01*
X124195645Y-94460208D01*
X124195643Y-94460211D01*
X124140902Y-94538389D01*
X124067477Y-94643251D01*
X124065154Y-94648233D01*
X124065151Y-94648238D01*
X124049195Y-94682457D01*
X124002278Y-94735742D01*
X123934001Y-94755203D01*
X123866041Y-94734661D01*
X123820805Y-94682457D01*
X123804849Y-94648238D01*
X123804846Y-94648233D01*
X123802523Y-94643251D01*
X123729098Y-94538389D01*
X123674357Y-94460211D01*
X123674355Y-94460208D01*
X123671198Y-94455700D01*
X123509300Y-94293802D01*
X123504792Y-94290645D01*
X123504789Y-94290643D01*
X123354606Y-94185484D01*
X123321749Y-94162477D01*
X123316767Y-94160154D01*
X123316762Y-94160151D01*
X123119225Y-94068039D01*
X123119224Y-94068039D01*
X123114243Y-94065716D01*
X123108935Y-94064294D01*
X123108933Y-94064293D01*
X122898402Y-94007881D01*
X122898400Y-94007881D01*
X122893087Y-94006457D01*
X122665000Y-93986502D01*
X122436913Y-94006457D01*
X122431600Y-94007881D01*
X122431598Y-94007881D01*
X122221067Y-94064293D01*
X122221065Y-94064294D01*
X122215757Y-94065716D01*
X122210776Y-94068039D01*
X122210775Y-94068039D01*
X122013238Y-94160151D01*
X122013233Y-94160154D01*
X122008251Y-94162477D01*
X121975394Y-94185484D01*
X121825211Y-94290643D01*
X121825208Y-94290645D01*
X121820700Y-94293802D01*
X121658802Y-94455700D01*
X121655643Y-94460211D01*
X121652108Y-94464424D01*
X121650974Y-94463473D01*
X121600929Y-94503471D01*
X121530310Y-94510776D01*
X121466951Y-94478742D01*
X121430970Y-94417538D01*
X121427918Y-94400483D01*
X121426745Y-94389684D01*
X121375615Y-94253295D01*
X121288261Y-94136739D01*
X121171705Y-94049385D01*
X121035316Y-93998255D01*
X120973134Y-93991500D01*
X119276866Y-93991500D01*
X119214684Y-93998255D01*
X119078295Y-94049385D01*
X118961739Y-94136739D01*
X118874385Y-94253295D01*
X118823255Y-94389684D01*
X118816500Y-94451866D01*
X118816500Y-96148134D01*
X118823255Y-96210316D01*
X118874385Y-96346705D01*
X118961739Y-96463261D01*
X119078295Y-96550615D01*
X119214684Y-96601745D01*
X119276866Y-96608500D01*
X120973134Y-96608500D01*
X121035316Y-96601745D01*
X121171705Y-96550615D01*
X121288261Y-96463261D01*
X121375615Y-96346705D01*
X121426745Y-96210316D01*
X121427917Y-96199526D01*
X121428803Y-96197394D01*
X121429425Y-96194778D01*
X121429848Y-96194879D01*
X121455155Y-96133965D01*
X121513517Y-96093537D01*
X121584471Y-96091078D01*
X121645490Y-96127371D01*
X121652489Y-96136031D01*
X121655643Y-96139789D01*
X121658802Y-96144300D01*
X121820700Y-96306198D01*
X121825208Y-96309355D01*
X121825211Y-96309357D01*
X121878550Y-96346705D01*
X122008251Y-96437523D01*
X122013233Y-96439846D01*
X122013238Y-96439849D01*
X122203709Y-96528666D01*
X122215757Y-96534284D01*
X122221065Y-96535706D01*
X122221067Y-96535707D01*
X122431598Y-96592119D01*
X122431600Y-96592119D01*
X122436913Y-96593543D01*
X122665000Y-96613498D01*
X122893087Y-96593543D01*
X122898400Y-96592119D01*
X122898402Y-96592119D01*
X123108933Y-96535707D01*
X123108935Y-96535706D01*
X123114243Y-96534284D01*
X123126291Y-96528666D01*
X123316762Y-96439849D01*
X123316767Y-96439846D01*
X123321749Y-96437523D01*
X123451450Y-96346705D01*
X123504789Y-96309357D01*
X123504792Y-96309355D01*
X123509300Y-96306198D01*
X123671198Y-96144300D01*
X123802523Y-95956749D01*
X123804846Y-95951767D01*
X123804849Y-95951762D01*
X123820805Y-95917543D01*
X123867722Y-95864258D01*
X123935999Y-95844797D01*
X124003959Y-95865339D01*
X124049195Y-95917543D01*
X124065151Y-95951762D01*
X124065154Y-95951767D01*
X124067477Y-95956749D01*
X124198802Y-96144300D01*
X124360700Y-96306198D01*
X124365208Y-96309355D01*
X124365211Y-96309357D01*
X124423058Y-96349862D01*
X124467386Y-96405320D01*
X124474695Y-96475939D01*
X124442664Y-96539299D01*
X124381462Y-96575284D01*
X124361772Y-96578595D01*
X124331841Y-96581214D01*
X124277394Y-96585977D01*
X124277389Y-96585978D01*
X124271913Y-96586457D01*
X124266600Y-96587881D01*
X124266598Y-96587881D01*
X124056067Y-96644293D01*
X124056065Y-96644294D01*
X124050757Y-96645716D01*
X124045776Y-96648039D01*
X124045775Y-96648039D01*
X123848238Y-96740151D01*
X123848233Y-96740154D01*
X123843251Y-96742477D01*
X123775653Y-96789810D01*
X123660211Y-96870643D01*
X123660208Y-96870645D01*
X123655700Y-96873802D01*
X123493802Y-97035700D01*
X123490645Y-97040208D01*
X123490643Y-97040211D01*
X123450872Y-97097010D01*
X123362477Y-97223251D01*
X123360154Y-97228233D01*
X123360151Y-97228238D01*
X123285086Y-97389217D01*
X123265716Y-97430757D01*
X123264294Y-97436065D01*
X123264293Y-97436067D01*
X123217404Y-97611058D01*
X123206457Y-97651913D01*
X123186502Y-97880000D01*
X123206457Y-98108087D01*
X123207881Y-98113400D01*
X123207881Y-98113402D01*
X123264158Y-98323427D01*
X123265716Y-98329243D01*
X123268039Y-98334224D01*
X123268039Y-98334225D01*
X123360151Y-98531762D01*
X123360154Y-98531767D01*
X123362477Y-98536749D01*
X123407959Y-98601704D01*
X123459079Y-98674710D01*
X123493802Y-98724300D01*
X123655700Y-98886198D01*
X123660208Y-98889355D01*
X123660211Y-98889357D01*
X123680301Y-98903424D01*
X123843251Y-99017523D01*
X123848233Y-99019846D01*
X123848238Y-99019849D01*
X124045775Y-99111961D01*
X124050757Y-99114284D01*
X124056065Y-99115706D01*
X124056067Y-99115707D01*
X124266598Y-99172119D01*
X124266600Y-99172119D01*
X124271913Y-99173543D01*
X124500000Y-99193498D01*
X124728087Y-99173543D01*
X124733400Y-99172119D01*
X124733402Y-99172119D01*
X124943933Y-99115707D01*
X124943935Y-99115706D01*
X124949243Y-99114284D01*
X124954225Y-99111961D01*
X125151762Y-99019849D01*
X125151767Y-99019846D01*
X125156749Y-99017523D01*
X125319699Y-98903424D01*
X125339789Y-98889357D01*
X125339792Y-98889355D01*
X125344300Y-98886198D01*
X125506198Y-98724300D01*
X125540922Y-98674710D01*
X125592041Y-98601704D01*
X125637523Y-98536749D01*
X125639846Y-98531767D01*
X125639849Y-98531762D01*
X125731961Y-98334225D01*
X125731961Y-98334224D01*
X125734284Y-98329243D01*
X125735843Y-98323427D01*
X125792119Y-98113402D01*
X125792119Y-98113400D01*
X125793543Y-98108087D01*
X125813498Y-97880000D01*
X125793543Y-97651913D01*
X125782596Y-97611058D01*
X125735707Y-97436067D01*
X125735706Y-97436065D01*
X125734284Y-97430757D01*
X125714914Y-97389217D01*
X125639849Y-97228238D01*
X125639846Y-97228233D01*
X125637523Y-97223251D01*
X125549128Y-97097010D01*
X125509357Y-97040211D01*
X125509355Y-97040208D01*
X125506198Y-97035700D01*
X125344300Y-96873802D01*
X125339792Y-96870645D01*
X125339789Y-96870643D01*
X125281942Y-96830138D01*
X125237614Y-96774680D01*
X125230305Y-96704061D01*
X125262336Y-96640701D01*
X125323538Y-96604716D01*
X125343228Y-96601405D01*
X125374743Y-96598647D01*
X125427606Y-96594023D01*
X125427611Y-96594022D01*
X125433087Y-96593543D01*
X125438400Y-96592119D01*
X125438402Y-96592119D01*
X125648933Y-96535707D01*
X125648935Y-96535706D01*
X125654243Y-96534284D01*
X125666291Y-96528666D01*
X125856762Y-96439849D01*
X125856767Y-96439846D01*
X125861749Y-96437523D01*
X125911639Y-96402590D01*
X125943229Y-96380470D01*
X126010503Y-96357782D01*
X126079364Y-96375067D01*
X126127948Y-96426837D01*
X126141500Y-96483683D01*
X126141500Y-96485844D01*
X126141451Y-96489363D01*
X126139219Y-96569257D01*
X126140498Y-96575961D01*
X126141045Y-96582762D01*
X126140525Y-96582804D01*
X126141500Y-96593125D01*
X126141500Y-98958610D01*
X126141058Y-98969152D01*
X126136696Y-99021099D01*
X126137598Y-99027859D01*
X126137598Y-99027861D01*
X126147437Y-99101602D01*
X126147807Y-99104657D01*
X126156583Y-99185437D01*
X126158758Y-99191901D01*
X126159478Y-99195176D01*
X126159548Y-99195572D01*
X126159671Y-99195996D01*
X126160462Y-99199216D01*
X126161366Y-99205989D01*
X126177009Y-99248967D01*
X126189139Y-99282294D01*
X126190156Y-99285198D01*
X126216078Y-99362223D01*
X126219596Y-99368077D01*
X126220985Y-99371084D01*
X126221152Y-99371489D01*
X126221357Y-99371865D01*
X126222827Y-99374852D01*
X126225162Y-99381268D01*
X126268730Y-99449920D01*
X126270255Y-99452389D01*
X126312147Y-99522109D01*
X126316834Y-99527066D01*
X126318851Y-99529723D01*
X126319369Y-99530469D01*
X126322344Y-99534402D01*
X126325109Y-99538759D01*
X126328930Y-99543032D01*
X126382909Y-99597011D01*
X126385363Y-99599533D01*
X126440308Y-99657636D01*
X126445956Y-99661474D01*
X126451148Y-99665893D01*
X126450808Y-99666292D01*
X126458798Y-99672900D01*
X127363686Y-100577789D01*
X127370828Y-100585556D01*
X127400064Y-100620153D01*
X127400068Y-100620157D01*
X127404471Y-100625367D01*
X127409895Y-100629514D01*
X127409896Y-100629515D01*
X127468962Y-100674674D01*
X127471379Y-100676568D01*
X127534738Y-100727510D01*
X127540857Y-100730547D01*
X127543652Y-100732335D01*
X127544013Y-100732588D01*
X127544380Y-100732790D01*
X127547238Y-100734521D01*
X127552652Y-100738660D01*
X127626262Y-100772985D01*
X127629033Y-100774319D01*
X127701814Y-100810447D01*
X127708435Y-100812098D01*
X127711563Y-100813249D01*
X127711957Y-100813413D01*
X127712361Y-100813532D01*
X127715524Y-100814609D01*
X127721704Y-100817490D01*
X127800955Y-100835205D01*
X127803914Y-100835904D01*
X127882802Y-100855573D01*
X127889623Y-100855763D01*
X127892926Y-100856216D01*
X127893808Y-100856375D01*
X127898701Y-100857054D01*
X127903740Y-100858180D01*
X127909463Y-100858500D01*
X127985829Y-100858500D01*
X127989347Y-100858549D01*
X128062437Y-100860591D01*
X128062442Y-100860591D01*
X128069257Y-100860781D01*
X128075958Y-100859503D01*
X128082762Y-100858955D01*
X128082804Y-100859475D01*
X128093125Y-100858500D01*
X130918990Y-100858500D01*
X130939569Y-100860192D01*
X130945058Y-100861101D01*
X130945061Y-100861101D01*
X130951795Y-100862216D01*
X130958611Y-100861859D01*
X130958615Y-100861859D01*
X131019393Y-100858673D01*
X131025988Y-100858500D01*
X136458610Y-100858500D01*
X136469152Y-100858942D01*
X136521099Y-100863304D01*
X136527859Y-100862402D01*
X136527861Y-100862402D01*
X136601602Y-100852563D01*
X136604657Y-100852193D01*
X136636889Y-100848691D01*
X136685437Y-100843417D01*
X136691901Y-100841242D01*
X136695176Y-100840522D01*
X136695572Y-100840452D01*
X136695996Y-100840329D01*
X136699216Y-100839538D01*
X136705989Y-100838634D01*
X136782323Y-100810851D01*
X136785198Y-100809844D01*
X136855754Y-100786099D01*
X136862223Y-100783922D01*
X136862402Y-100783814D01*
X136930119Y-100773768D01*
X136994831Y-100802971D01*
X137033483Y-100862525D01*
X137033801Y-100933520D01*
X137001842Y-100987660D01*
X136993802Y-100995700D01*
X136990645Y-101000208D01*
X136990643Y-101000211D01*
X136976353Y-101020619D01*
X136862477Y-101183251D01*
X136860154Y-101188233D01*
X136860151Y-101188238D01*
X136804610Y-101307347D01*
X136765716Y-101390757D01*
X136764294Y-101396065D01*
X136764293Y-101396067D01*
X136733040Y-101512704D01*
X136706457Y-101611913D01*
X136686502Y-101840000D01*
X136706457Y-102068087D01*
X136707881Y-102073400D01*
X136707881Y-102073402D01*
X136762422Y-102276948D01*
X136765716Y-102289243D01*
X136768039Y-102294224D01*
X136768039Y-102294225D01*
X136860151Y-102491762D01*
X136860154Y-102491767D01*
X136862477Y-102496749D01*
X136891893Y-102538759D01*
X136985820Y-102672900D01*
X136993802Y-102684300D01*
X137155700Y-102846198D01*
X137160208Y-102849355D01*
X137160211Y-102849357D01*
X137238389Y-102904098D01*
X137343251Y-102977523D01*
X137348233Y-102979846D01*
X137348238Y-102979849D01*
X137545775Y-103071961D01*
X137550757Y-103074284D01*
X137556065Y-103075706D01*
X137556067Y-103075707D01*
X137766598Y-103132119D01*
X137766600Y-103132119D01*
X137771913Y-103133543D01*
X138000000Y-103153498D01*
X138228087Y-103133543D01*
X138233400Y-103132119D01*
X138233402Y-103132119D01*
X138443933Y-103075707D01*
X138443935Y-103075706D01*
X138449243Y-103074284D01*
X138454225Y-103071961D01*
X138651762Y-102979849D01*
X138651767Y-102979846D01*
X138656749Y-102977523D01*
X138761611Y-102904098D01*
X138839789Y-102849357D01*
X138839792Y-102849355D01*
X138844300Y-102846198D01*
X139006198Y-102684300D01*
X139014181Y-102672900D01*
X139108107Y-102538759D01*
X139137523Y-102496749D01*
X139139846Y-102491767D01*
X139139849Y-102491762D01*
X139231961Y-102294225D01*
X139231961Y-102294224D01*
X139234284Y-102289243D01*
X139237579Y-102276948D01*
X139292119Y-102073402D01*
X139292119Y-102073400D01*
X139293543Y-102068087D01*
X139313498Y-101840000D01*
X139293543Y-101611913D01*
X139266960Y-101512704D01*
X139235707Y-101396067D01*
X139235706Y-101396065D01*
X139234284Y-101390757D01*
X139195390Y-101307347D01*
X139139849Y-101188238D01*
X139139846Y-101188233D01*
X139137523Y-101183251D01*
X139023647Y-101020619D01*
X139009357Y-101000211D01*
X139009355Y-101000208D01*
X139006198Y-100995700D01*
X138844300Y-100833802D01*
X138839792Y-100830645D01*
X138839789Y-100830643D01*
X138712538Y-100741541D01*
X138656749Y-100702477D01*
X138651767Y-100700154D01*
X138651762Y-100700151D01*
X138454225Y-100608039D01*
X138454224Y-100608039D01*
X138449243Y-100605716D01*
X138443935Y-100604294D01*
X138443933Y-100604293D01*
X138233402Y-100547881D01*
X138233400Y-100547881D01*
X138228087Y-100546457D01*
X138000000Y-100526502D01*
X137771913Y-100546457D01*
X137766600Y-100547881D01*
X137766598Y-100547881D01*
X137556067Y-100604293D01*
X137556065Y-100604294D01*
X137550757Y-100605716D01*
X137545776Y-100608039D01*
X137545775Y-100608039D01*
X137369502Y-100690236D01*
X137299310Y-100700897D01*
X137234497Y-100671917D01*
X137195641Y-100612497D01*
X137195078Y-100541503D01*
X137227157Y-100486945D01*
X137818699Y-99895404D01*
X137881011Y-99861379D01*
X137907794Y-99858500D01*
X139092207Y-99858500D01*
X139160328Y-99878502D01*
X139181303Y-99895405D01*
X139604596Y-100318699D01*
X139638621Y-100381011D01*
X139641500Y-100407794D01*
X139641500Y-101958610D01*
X139641058Y-101969152D01*
X139636696Y-102021099D01*
X139637598Y-102027859D01*
X139637598Y-102027861D01*
X139647437Y-102101602D01*
X139647807Y-102104657D01*
X139656583Y-102185437D01*
X139658758Y-102191901D01*
X139659478Y-102195176D01*
X139659548Y-102195572D01*
X139659671Y-102195996D01*
X139660462Y-102199216D01*
X139661366Y-102205989D01*
X139684493Y-102269530D01*
X139689139Y-102282294D01*
X139690156Y-102285198D01*
X139693194Y-102294225D01*
X139716078Y-102362223D01*
X139719596Y-102368077D01*
X139720985Y-102371084D01*
X139721152Y-102371489D01*
X139721357Y-102371865D01*
X139722827Y-102374852D01*
X139725162Y-102381268D01*
X139768730Y-102449920D01*
X139770255Y-102452389D01*
X139812147Y-102522109D01*
X139816834Y-102527066D01*
X139818851Y-102529723D01*
X139819369Y-102530469D01*
X139822344Y-102534402D01*
X139825109Y-102538759D01*
X139828930Y-102543032D01*
X139882909Y-102597011D01*
X139885363Y-102599533D01*
X139940308Y-102657636D01*
X139945956Y-102661474D01*
X139951148Y-102665893D01*
X139950808Y-102666292D01*
X139958798Y-102672900D01*
X140863686Y-103577789D01*
X140870828Y-103585556D01*
X140900064Y-103620153D01*
X140900068Y-103620157D01*
X140904471Y-103625367D01*
X140909895Y-103629514D01*
X140909896Y-103629515D01*
X140968962Y-103674674D01*
X140971379Y-103676568D01*
X141034738Y-103727510D01*
X141040857Y-103730547D01*
X141043652Y-103732335D01*
X141044013Y-103732588D01*
X141044380Y-103732790D01*
X141047238Y-103734521D01*
X141052652Y-103738660D01*
X141114534Y-103767516D01*
X141126262Y-103772985D01*
X141129033Y-103774319D01*
X141201814Y-103810447D01*
X141208435Y-103812098D01*
X141211563Y-103813249D01*
X141211957Y-103813413D01*
X141212361Y-103813532D01*
X141215524Y-103814609D01*
X141221704Y-103817490D01*
X141300955Y-103835205D01*
X141303914Y-103835904D01*
X141382802Y-103855573D01*
X141389623Y-103855763D01*
X141392926Y-103856216D01*
X141393808Y-103856375D01*
X141398701Y-103857054D01*
X141403740Y-103858180D01*
X141409463Y-103858500D01*
X141473613Y-103858500D01*
X141541734Y-103878502D01*
X141582184Y-103924730D01*
X141583450Y-103923946D01*
X141676522Y-104074348D01*
X141801697Y-104199305D01*
X141807927Y-104203145D01*
X141807928Y-104203146D01*
X141945090Y-104287694D01*
X141952262Y-104292115D01*
X142021711Y-104315150D01*
X142113611Y-104345632D01*
X142113613Y-104345632D01*
X142120139Y-104347797D01*
X142126975Y-104348497D01*
X142126978Y-104348498D01*
X142170031Y-104352909D01*
X142224600Y-104358500D01*
X143775400Y-104358500D01*
X143778646Y-104358163D01*
X143778650Y-104358163D01*
X143874308Y-104348238D01*
X143874312Y-104348237D01*
X143881166Y-104347526D01*
X143887702Y-104345345D01*
X143887704Y-104345345D01*
X144019806Y-104301272D01*
X144048946Y-104291550D01*
X144199348Y-104198478D01*
X144205946Y-104191869D01*
X144319134Y-104078483D01*
X144324305Y-104073303D01*
X144417115Y-103922738D01*
X144446148Y-103835205D01*
X144470632Y-103761389D01*
X144470632Y-103761387D01*
X144472797Y-103754861D01*
X144475059Y-103732790D01*
X144483172Y-103653598D01*
X144483500Y-103650400D01*
X144483500Y-102349600D01*
X144483163Y-102346350D01*
X144473238Y-102250692D01*
X144473237Y-102250688D01*
X144472526Y-102243834D01*
X144467017Y-102227320D01*
X144418868Y-102083002D01*
X144416550Y-102076054D01*
X144323478Y-101925652D01*
X144198303Y-101800695D01*
X144052660Y-101710919D01*
X144005168Y-101658148D01*
X143993744Y-101588076D01*
X144022018Y-101522952D01*
X144031805Y-101512490D01*
X144142278Y-101407103D01*
X144146135Y-101403424D01*
X144150779Y-101397183D01*
X144224010Y-101298757D01*
X144283754Y-101218458D01*
X144388240Y-101012949D01*
X144392196Y-101000211D01*
X144455024Y-100797871D01*
X144456607Y-100792773D01*
X144472008Y-100676573D01*
X144486198Y-100569511D01*
X144486198Y-100569506D01*
X144486898Y-100564226D01*
X144486285Y-100547881D01*
X144478449Y-100339173D01*
X144478249Y-100333842D01*
X144430907Y-100108209D01*
X144410772Y-100057224D01*
X144348185Y-99898744D01*
X144348184Y-99898742D01*
X144346224Y-99893779D01*
X144305861Y-99827262D01*
X144229390Y-99701243D01*
X144226623Y-99696683D01*
X144142321Y-99599533D01*
X144079023Y-99526588D01*
X144079021Y-99526586D01*
X144075523Y-99522555D01*
X144001336Y-99461725D01*
X143901373Y-99379760D01*
X143901367Y-99379756D01*
X143897245Y-99376376D01*
X143865750Y-99358448D01*
X143816445Y-99307368D01*
X143802583Y-99237738D01*
X143828566Y-99171667D01*
X143857716Y-99144427D01*
X143916788Y-99104657D01*
X143979319Y-99062559D01*
X144024091Y-99019849D01*
X144078710Y-98967744D01*
X144146135Y-98903424D01*
X144283754Y-98718458D01*
X144321409Y-98644397D01*
X144378675Y-98531762D01*
X144388240Y-98512949D01*
X144407536Y-98450808D01*
X144455024Y-98297871D01*
X144456607Y-98292773D01*
X144459295Y-98272490D01*
X144486198Y-98069511D01*
X144486198Y-98069506D01*
X144486898Y-98064226D01*
X144478249Y-97833842D01*
X144430907Y-97608209D01*
X144373929Y-97463931D01*
X144348185Y-97398744D01*
X144348184Y-97398742D01*
X144346224Y-97393779D01*
X144226623Y-97196683D01*
X144142320Y-97099532D01*
X144079023Y-97026588D01*
X144079021Y-97026586D01*
X144075523Y-97022555D01*
X143986859Y-96949855D01*
X143901373Y-96879760D01*
X143901367Y-96879756D01*
X143897245Y-96876376D01*
X143865750Y-96858448D01*
X143816445Y-96807368D01*
X143802583Y-96737738D01*
X143828566Y-96671667D01*
X143857716Y-96644427D01*
X143904368Y-96613019D01*
X143979319Y-96562559D01*
X143988536Y-96553767D01*
X144079904Y-96466605D01*
X144146135Y-96403424D01*
X144283754Y-96218458D01*
X144292217Y-96201814D01*
X144357033Y-96074329D01*
X144388240Y-96012949D01*
X144400230Y-95974337D01*
X144455024Y-95797871D01*
X144456607Y-95792773D01*
X144471754Y-95678489D01*
X144486198Y-95569511D01*
X144486198Y-95569506D01*
X144486898Y-95564226D01*
X144478249Y-95333842D01*
X144430907Y-95108209D01*
X144425597Y-95094764D01*
X144348185Y-94898744D01*
X144348184Y-94898742D01*
X144346224Y-94893779D01*
X144317095Y-94845775D01*
X144229390Y-94701243D01*
X144226623Y-94696683D01*
X144180257Y-94643251D01*
X144079023Y-94526588D01*
X144079021Y-94526586D01*
X144075523Y-94522555D01*
X144004627Y-94464424D01*
X143901373Y-94379760D01*
X143901367Y-94379756D01*
X143897245Y-94376376D01*
X143892609Y-94373737D01*
X143892606Y-94373735D01*
X143701529Y-94264968D01*
X143696886Y-94262325D01*
X143480175Y-94183663D01*
X143474926Y-94182714D01*
X143474923Y-94182713D01*
X143257392Y-94143377D01*
X143257385Y-94143376D01*
X143253308Y-94142639D01*
X143235586Y-94141803D01*
X143230644Y-94141570D01*
X143230637Y-94141570D01*
X143229156Y-94141500D01*
X142817110Y-94141500D01*
X142750191Y-94147178D01*
X142650591Y-94155629D01*
X142650587Y-94155630D01*
X142645280Y-94156080D01*
X142640125Y-94157418D01*
X142640119Y-94157419D01*
X142427297Y-94212657D01*
X142427293Y-94212658D01*
X142422128Y-94213999D01*
X142417262Y-94216191D01*
X142417259Y-94216192D01*
X142308980Y-94264968D01*
X142211925Y-94308688D01*
X142020681Y-94437441D01*
X142016824Y-94441120D01*
X142016822Y-94441122D01*
X141951464Y-94503471D01*
X141853865Y-94596576D01*
X141716246Y-94781542D01*
X141713830Y-94786293D01*
X141713828Y-94786297D01*
X141664003Y-94884296D01*
X141611760Y-94987051D01*
X141604831Y-95009364D01*
X141565530Y-95068487D01*
X141500501Y-95096978D01*
X141430391Y-95085788D01*
X141377461Y-95038471D01*
X141358500Y-94971998D01*
X141358500Y-94041390D01*
X141358942Y-94030847D01*
X141363304Y-93978901D01*
X141352563Y-93898398D01*
X141352193Y-93895343D01*
X141344153Y-93821342D01*
X141343417Y-93814563D01*
X141341242Y-93808099D01*
X141340522Y-93804824D01*
X141340452Y-93804428D01*
X141340329Y-93804004D01*
X141339538Y-93800784D01*
X141338634Y-93794011D01*
X141310851Y-93717677D01*
X141309844Y-93714802D01*
X141303593Y-93696227D01*
X141283922Y-93637777D01*
X141280404Y-93631923D01*
X141279015Y-93628916D01*
X141278848Y-93628511D01*
X141278643Y-93628135D01*
X141277173Y-93625148D01*
X141274838Y-93618732D01*
X141231270Y-93550080D01*
X141229745Y-93547611D01*
X141187853Y-93477891D01*
X141183166Y-93472934D01*
X141181149Y-93470277D01*
X141180639Y-93469543D01*
X141177661Y-93465605D01*
X141174891Y-93461241D01*
X141171071Y-93456968D01*
X141117075Y-93402972D01*
X141114621Y-93400450D01*
X141064381Y-93347323D01*
X141059692Y-93342364D01*
X141054044Y-93338526D01*
X141048852Y-93334107D01*
X141049192Y-93333707D01*
X141041203Y-93327100D01*
X138636320Y-90922217D01*
X138629177Y-90914450D01*
X138599935Y-90879847D01*
X138595529Y-90874633D01*
X138531031Y-90825321D01*
X138528615Y-90823427D01*
X138470583Y-90776768D01*
X138470582Y-90776767D01*
X138465262Y-90772490D01*
X138459143Y-90769453D01*
X138456348Y-90767665D01*
X138455987Y-90767412D01*
X138455620Y-90767210D01*
X138452762Y-90765479D01*
X138447348Y-90761340D01*
X138373736Y-90727014D01*
X138370964Y-90725680D01*
X138304296Y-90692586D01*
X138298186Y-90689553D01*
X138291565Y-90687902D01*
X138288437Y-90686751D01*
X138288044Y-90686587D01*
X138287639Y-90686468D01*
X138284475Y-90685391D01*
X138278296Y-90682510D01*
X138199000Y-90664785D01*
X138196002Y-90664076D01*
X138123821Y-90646079D01*
X138123820Y-90646079D01*
X138117199Y-90644428D01*
X138110378Y-90644237D01*
X138107075Y-90643785D01*
X138106191Y-90643626D01*
X138101308Y-90642948D01*
X138096260Y-90641820D01*
X138090537Y-90641500D01*
X138014156Y-90641500D01*
X138010637Y-90641451D01*
X137930743Y-90639219D01*
X137924039Y-90640498D01*
X137917238Y-90641045D01*
X137917196Y-90640525D01*
X137906875Y-90641500D01*
X124907793Y-90641500D01*
X124839672Y-90621498D01*
X124818698Y-90604595D01*
X123861198Y-89647095D01*
X141492001Y-89647095D01*
X141492338Y-89653614D01*
X141502257Y-89749206D01*
X141505149Y-89762600D01*
X141556588Y-89916784D01*
X141562761Y-89929962D01*
X141648063Y-90067807D01*
X141657099Y-90079208D01*
X141771829Y-90193739D01*
X141783240Y-90202751D01*
X141921243Y-90287816D01*
X141934424Y-90293963D01*
X142088710Y-90345138D01*
X142102086Y-90348005D01*
X142196438Y-90357672D01*
X142202854Y-90358000D01*
X142727885Y-90358000D01*
X142743124Y-90353525D01*
X142744329Y-90352135D01*
X142746000Y-90344452D01*
X142746000Y-90339884D01*
X143254000Y-90339884D01*
X143258475Y-90355123D01*
X143259865Y-90356328D01*
X143267548Y-90357999D01*
X143797095Y-90357999D01*
X143803614Y-90357662D01*
X143899206Y-90347743D01*
X143912600Y-90344851D01*
X144066784Y-90293412D01*
X144079962Y-90287239D01*
X144217807Y-90201937D01*
X144229208Y-90192901D01*
X144343739Y-90078171D01*
X144352751Y-90066760D01*
X144437816Y-89928757D01*
X144443963Y-89915576D01*
X144495138Y-89761290D01*
X144498005Y-89747914D01*
X144507672Y-89653562D01*
X144508000Y-89647146D01*
X144508000Y-89272115D01*
X144503525Y-89256876D01*
X144502135Y-89255671D01*
X144494452Y-89254000D01*
X143272115Y-89254000D01*
X143256876Y-89258475D01*
X143255671Y-89259865D01*
X143254000Y-89267548D01*
X143254000Y-90339884D01*
X142746000Y-90339884D01*
X142746000Y-89272115D01*
X142741525Y-89256876D01*
X142740135Y-89255671D01*
X142732452Y-89254000D01*
X141510116Y-89254000D01*
X141494877Y-89258475D01*
X141493672Y-89259865D01*
X141492001Y-89267548D01*
X141492001Y-89647095D01*
X123861198Y-89647095D01*
X123560405Y-89346302D01*
X123526379Y-89283990D01*
X123523500Y-89257207D01*
X123523500Y-88724188D01*
X123543502Y-88656067D01*
X123560405Y-88635093D01*
X123671198Y-88524300D01*
X123802523Y-88336749D01*
X123804846Y-88331767D01*
X123804849Y-88331762D01*
X123820805Y-88297543D01*
X123867722Y-88244258D01*
X123935999Y-88224797D01*
X124003959Y-88245339D01*
X124049195Y-88297543D01*
X124065151Y-88331762D01*
X124065154Y-88331767D01*
X124067477Y-88336749D01*
X124198802Y-88524300D01*
X124360700Y-88686198D01*
X124365208Y-88689355D01*
X124365211Y-88689357D01*
X124376705Y-88697405D01*
X124548251Y-88817523D01*
X124553233Y-88819846D01*
X124553238Y-88819849D01*
X124749765Y-88911490D01*
X124755757Y-88914284D01*
X124761065Y-88915706D01*
X124761067Y-88915707D01*
X124971598Y-88972119D01*
X124971600Y-88972119D01*
X124976913Y-88973543D01*
X125205000Y-88993498D01*
X125433087Y-88973543D01*
X125438400Y-88972119D01*
X125438402Y-88972119D01*
X125648933Y-88915707D01*
X125648935Y-88915706D01*
X125654243Y-88914284D01*
X125660235Y-88911490D01*
X125856762Y-88819849D01*
X125856767Y-88819846D01*
X125861749Y-88817523D01*
X126033295Y-88697405D01*
X126044789Y-88689357D01*
X126044792Y-88689355D01*
X126049300Y-88686198D01*
X126211198Y-88524300D01*
X126342523Y-88336749D01*
X126344846Y-88331767D01*
X126344849Y-88331762D01*
X126360805Y-88297543D01*
X126407722Y-88244258D01*
X126475999Y-88224797D01*
X126543959Y-88245339D01*
X126589195Y-88297543D01*
X126605151Y-88331762D01*
X126605154Y-88331767D01*
X126607477Y-88336749D01*
X126738802Y-88524300D01*
X126900700Y-88686198D01*
X126905208Y-88689355D01*
X126905211Y-88689357D01*
X126916705Y-88697405D01*
X127088251Y-88817523D01*
X127093233Y-88819846D01*
X127093238Y-88819849D01*
X127289765Y-88911490D01*
X127295757Y-88914284D01*
X127301065Y-88915706D01*
X127301067Y-88915707D01*
X127511598Y-88972119D01*
X127511600Y-88972119D01*
X127516913Y-88973543D01*
X127745000Y-88993498D01*
X127973087Y-88973543D01*
X127978400Y-88972119D01*
X127978402Y-88972119D01*
X128188933Y-88915707D01*
X128188935Y-88915706D01*
X128194243Y-88914284D01*
X128200235Y-88911490D01*
X128396762Y-88819849D01*
X128396767Y-88819846D01*
X128401749Y-88817523D01*
X128573295Y-88697405D01*
X128584789Y-88689357D01*
X128584792Y-88689355D01*
X128589300Y-88686198D01*
X128751198Y-88524300D01*
X128882523Y-88336749D01*
X128884846Y-88331767D01*
X128884849Y-88331762D01*
X128900805Y-88297543D01*
X128947722Y-88244258D01*
X129015999Y-88224797D01*
X129083959Y-88245339D01*
X129129195Y-88297543D01*
X129145151Y-88331762D01*
X129145154Y-88331767D01*
X129147477Y-88336749D01*
X129278802Y-88524300D01*
X129440700Y-88686198D01*
X129445208Y-88689355D01*
X129445211Y-88689357D01*
X129456705Y-88697405D01*
X129628251Y-88817523D01*
X129633233Y-88819846D01*
X129633238Y-88819849D01*
X129829765Y-88911490D01*
X129835757Y-88914284D01*
X129841065Y-88915706D01*
X129841067Y-88915707D01*
X130051598Y-88972119D01*
X130051600Y-88972119D01*
X130056913Y-88973543D01*
X130285000Y-88993498D01*
X130513087Y-88973543D01*
X130518400Y-88972119D01*
X130518402Y-88972119D01*
X130728933Y-88915707D01*
X130728935Y-88915706D01*
X130734243Y-88914284D01*
X130740235Y-88911490D01*
X130936762Y-88819849D01*
X130936767Y-88819846D01*
X130941749Y-88817523D01*
X131113295Y-88697405D01*
X131124789Y-88689357D01*
X131124792Y-88689355D01*
X131129300Y-88686198D01*
X131291198Y-88524300D01*
X131422523Y-88336749D01*
X131424846Y-88331767D01*
X131424849Y-88331762D01*
X131440805Y-88297543D01*
X131487722Y-88244258D01*
X131555999Y-88224797D01*
X131623959Y-88245339D01*
X131669195Y-88297543D01*
X131685151Y-88331762D01*
X131685154Y-88331767D01*
X131687477Y-88336749D01*
X131818802Y-88524300D01*
X131980700Y-88686198D01*
X131985208Y-88689355D01*
X131985211Y-88689357D01*
X131996705Y-88697405D01*
X132168251Y-88817523D01*
X132173233Y-88819846D01*
X132173238Y-88819849D01*
X132369765Y-88911490D01*
X132375757Y-88914284D01*
X132381065Y-88915706D01*
X132381067Y-88915707D01*
X132591598Y-88972119D01*
X132591600Y-88972119D01*
X132596913Y-88973543D01*
X132825000Y-88993498D01*
X133053087Y-88973543D01*
X133058400Y-88972119D01*
X133058402Y-88972119D01*
X133268933Y-88915707D01*
X133268935Y-88915706D01*
X133274243Y-88914284D01*
X133280235Y-88911490D01*
X133476762Y-88819849D01*
X133476767Y-88819846D01*
X133481749Y-88817523D01*
X133653295Y-88697405D01*
X133664789Y-88689357D01*
X133664792Y-88689355D01*
X133669300Y-88686198D01*
X133831198Y-88524300D01*
X133962523Y-88336749D01*
X133964846Y-88331767D01*
X133964849Y-88331762D01*
X133980805Y-88297543D01*
X134027722Y-88244258D01*
X134095999Y-88224797D01*
X134163959Y-88245339D01*
X134209195Y-88297543D01*
X134225151Y-88331762D01*
X134225154Y-88331767D01*
X134227477Y-88336749D01*
X134358802Y-88524300D01*
X134520700Y-88686198D01*
X134525208Y-88689355D01*
X134525211Y-88689357D01*
X134536705Y-88697405D01*
X134708251Y-88817523D01*
X134713233Y-88819846D01*
X134713238Y-88819849D01*
X134909765Y-88911490D01*
X134915757Y-88914284D01*
X134921065Y-88915706D01*
X134921067Y-88915707D01*
X135131598Y-88972119D01*
X135131600Y-88972119D01*
X135136913Y-88973543D01*
X135365000Y-88993498D01*
X135593087Y-88973543D01*
X135598400Y-88972119D01*
X135598402Y-88972119D01*
X135808933Y-88915707D01*
X135808935Y-88915706D01*
X135814243Y-88914284D01*
X135820235Y-88911490D01*
X136016762Y-88819849D01*
X136016767Y-88819846D01*
X136021749Y-88817523D01*
X136193295Y-88697405D01*
X136204789Y-88689357D01*
X136204792Y-88689355D01*
X136209300Y-88686198D01*
X136371198Y-88524300D01*
X136502523Y-88336749D01*
X136504846Y-88331767D01*
X136504849Y-88331762D01*
X136520805Y-88297543D01*
X136567722Y-88244258D01*
X136635999Y-88224797D01*
X136703959Y-88245339D01*
X136749195Y-88297543D01*
X136765151Y-88331762D01*
X136765154Y-88331767D01*
X136767477Y-88336749D01*
X136898802Y-88524300D01*
X137060700Y-88686198D01*
X137065208Y-88689355D01*
X137065211Y-88689357D01*
X137076705Y-88697405D01*
X137248251Y-88817523D01*
X137253233Y-88819846D01*
X137253238Y-88819849D01*
X137449765Y-88911490D01*
X137455757Y-88914284D01*
X137461065Y-88915706D01*
X137461067Y-88915707D01*
X137671598Y-88972119D01*
X137671600Y-88972119D01*
X137676913Y-88973543D01*
X137905000Y-88993498D01*
X138133087Y-88973543D01*
X138138400Y-88972119D01*
X138138402Y-88972119D01*
X138348933Y-88915707D01*
X138348935Y-88915706D01*
X138354243Y-88914284D01*
X138360235Y-88911490D01*
X138556762Y-88819849D01*
X138556767Y-88819846D01*
X138561749Y-88817523D01*
X138733295Y-88697405D01*
X138744789Y-88689357D01*
X138744792Y-88689355D01*
X138749300Y-88686198D01*
X138911198Y-88524300D01*
X139042523Y-88336749D01*
X139044846Y-88331767D01*
X139044849Y-88331762D01*
X139136961Y-88134225D01*
X139136961Y-88134224D01*
X139139284Y-88129243D01*
X139198543Y-87908087D01*
X139218498Y-87680000D01*
X139198543Y-87451913D01*
X139159854Y-87307523D01*
X139140707Y-87236067D01*
X139140706Y-87236065D01*
X139139284Y-87230757D01*
X139083340Y-87110783D01*
X139044849Y-87028238D01*
X139044846Y-87028233D01*
X139042523Y-87023251D01*
X138953947Y-86896752D01*
X138914357Y-86840211D01*
X138914355Y-86840208D01*
X138911198Y-86835700D01*
X138749300Y-86673802D01*
X138744792Y-86670645D01*
X138744789Y-86670643D01*
X138593291Y-86564563D01*
X138561749Y-86542477D01*
X138556767Y-86540154D01*
X138556762Y-86540151D01*
X138359225Y-86448039D01*
X138359224Y-86448039D01*
X138354243Y-86445716D01*
X138348935Y-86444294D01*
X138348933Y-86444293D01*
X138317140Y-86435774D01*
X141488102Y-86435774D01*
X141488302Y-86441103D01*
X141488302Y-86441105D01*
X141489301Y-86467706D01*
X141496751Y-86666158D01*
X141497846Y-86671377D01*
X141503202Y-86696904D01*
X141544093Y-86891791D01*
X141546051Y-86896750D01*
X141546052Y-86896752D01*
X141611493Y-87062457D01*
X141628776Y-87106221D01*
X141631543Y-87110780D01*
X141631544Y-87110783D01*
X141668874Y-87172301D01*
X141748377Y-87303317D01*
X141751874Y-87307347D01*
X141887414Y-87463543D01*
X141899477Y-87477445D01*
X141903608Y-87480832D01*
X141935529Y-87507006D01*
X141975524Y-87565666D01*
X141977455Y-87636636D01*
X141940710Y-87697384D01*
X141921941Y-87711584D01*
X141782193Y-87798063D01*
X141770792Y-87807099D01*
X141656261Y-87921829D01*
X141647249Y-87933240D01*
X141562184Y-88071243D01*
X141556037Y-88084424D01*
X141504862Y-88238710D01*
X141501995Y-88252086D01*
X141492328Y-88346438D01*
X141492000Y-88352855D01*
X141492000Y-88727885D01*
X141496475Y-88743124D01*
X141497865Y-88744329D01*
X141505548Y-88746000D01*
X144489884Y-88746000D01*
X144505123Y-88741525D01*
X144506328Y-88740135D01*
X144507999Y-88732452D01*
X144507999Y-88352905D01*
X144507662Y-88346386D01*
X144497743Y-88250794D01*
X144494851Y-88237400D01*
X144443412Y-88083216D01*
X144437239Y-88070038D01*
X144351937Y-87932193D01*
X144342901Y-87920792D01*
X144228171Y-87806261D01*
X144216757Y-87797247D01*
X144077287Y-87711277D01*
X144029793Y-87658505D01*
X144018369Y-87588434D01*
X144046643Y-87523310D01*
X144056430Y-87512847D01*
X144089991Y-87480832D01*
X144171135Y-87403424D01*
X144308754Y-87218458D01*
X144314198Y-87207752D01*
X144395164Y-87048502D01*
X144413240Y-87012949D01*
X144449321Y-86896752D01*
X144480024Y-86797871D01*
X144481607Y-86792773D01*
X144488984Y-86737116D01*
X144511198Y-86569511D01*
X144511198Y-86569506D01*
X144511898Y-86564226D01*
X144511534Y-86554515D01*
X144503449Y-86339173D01*
X144503249Y-86333842D01*
X144455907Y-86108209D01*
X144451608Y-86097323D01*
X144373185Y-85898744D01*
X144373184Y-85898742D01*
X144371224Y-85893779D01*
X144358945Y-85873543D01*
X144254390Y-85701243D01*
X144251623Y-85696683D01*
X144164755Y-85596576D01*
X144104023Y-85526588D01*
X144104021Y-85526586D01*
X144100523Y-85522555D01*
X144058970Y-85488484D01*
X143926373Y-85379760D01*
X143926367Y-85379756D01*
X143922245Y-85376376D01*
X143917609Y-85373737D01*
X143917606Y-85373735D01*
X143726529Y-85264968D01*
X143721886Y-85262325D01*
X143505175Y-85183663D01*
X143499926Y-85182714D01*
X143499923Y-85182713D01*
X143282392Y-85143377D01*
X143282385Y-85143376D01*
X143278308Y-85142639D01*
X143260586Y-85141803D01*
X143255644Y-85141570D01*
X143255637Y-85141570D01*
X143254156Y-85141500D01*
X142792110Y-85141500D01*
X142725191Y-85147178D01*
X142625591Y-85155629D01*
X142625587Y-85155630D01*
X142620280Y-85156080D01*
X142615125Y-85157418D01*
X142615119Y-85157419D01*
X142402297Y-85212657D01*
X142402293Y-85212658D01*
X142397128Y-85213999D01*
X142392262Y-85216191D01*
X142392259Y-85216192D01*
X142283980Y-85264968D01*
X142186925Y-85308688D01*
X141995681Y-85437441D01*
X141828865Y-85596576D01*
X141691246Y-85781542D01*
X141688830Y-85786293D01*
X141688828Y-85786297D01*
X141645194Y-85872119D01*
X141586760Y-85987051D01*
X141585178Y-85992145D01*
X141585177Y-85992148D01*
X141536023Y-86150450D01*
X141518393Y-86207227D01*
X141517692Y-86212516D01*
X141494450Y-86387881D01*
X141488102Y-86435774D01*
X138317140Y-86435774D01*
X138138402Y-86387881D01*
X138138400Y-86387881D01*
X138133087Y-86386457D01*
X137905000Y-86366502D01*
X137676913Y-86386457D01*
X137671600Y-86387881D01*
X137671598Y-86387881D01*
X137461067Y-86444293D01*
X137461065Y-86444294D01*
X137455757Y-86445716D01*
X137450776Y-86448039D01*
X137450775Y-86448039D01*
X137253238Y-86540151D01*
X137253233Y-86540154D01*
X137248251Y-86542477D01*
X137216709Y-86564563D01*
X137065211Y-86670643D01*
X137065208Y-86670645D01*
X137060700Y-86673802D01*
X136898802Y-86835700D01*
X136895645Y-86840208D01*
X136895643Y-86840211D01*
X136856053Y-86896752D01*
X136767477Y-87023251D01*
X136765154Y-87028233D01*
X136765151Y-87028238D01*
X136749195Y-87062457D01*
X136702278Y-87115742D01*
X136634001Y-87135203D01*
X136566041Y-87114661D01*
X136520805Y-87062457D01*
X136504849Y-87028238D01*
X136504846Y-87028233D01*
X136502523Y-87023251D01*
X136413947Y-86896752D01*
X136374357Y-86840211D01*
X136374355Y-86840208D01*
X136371198Y-86835700D01*
X136209300Y-86673802D01*
X136204792Y-86670645D01*
X136204789Y-86670643D01*
X136053291Y-86564563D01*
X136021749Y-86542477D01*
X136016767Y-86540154D01*
X136016762Y-86540151D01*
X135819225Y-86448039D01*
X135819224Y-86448039D01*
X135814243Y-86445716D01*
X135808935Y-86444294D01*
X135808933Y-86444293D01*
X135598402Y-86387881D01*
X135598400Y-86387881D01*
X135593087Y-86386457D01*
X135365000Y-86366502D01*
X135136913Y-86386457D01*
X135131600Y-86387881D01*
X135131598Y-86387881D01*
X134921067Y-86444293D01*
X134921065Y-86444294D01*
X134915757Y-86445716D01*
X134910776Y-86448039D01*
X134910775Y-86448039D01*
X134713238Y-86540151D01*
X134713233Y-86540154D01*
X134708251Y-86542477D01*
X134676709Y-86564563D01*
X134525211Y-86670643D01*
X134525208Y-86670645D01*
X134520700Y-86673802D01*
X134358802Y-86835700D01*
X134355645Y-86840208D01*
X134355643Y-86840211D01*
X134316053Y-86896752D01*
X134227477Y-87023251D01*
X134225154Y-87028233D01*
X134225151Y-87028238D01*
X134209195Y-87062457D01*
X134162278Y-87115742D01*
X134094001Y-87135203D01*
X134026041Y-87114661D01*
X133980805Y-87062457D01*
X133964849Y-87028238D01*
X133964846Y-87028233D01*
X133962523Y-87023251D01*
X133873947Y-86896752D01*
X133834357Y-86840211D01*
X133834355Y-86840208D01*
X133831198Y-86835700D01*
X133669300Y-86673802D01*
X133664792Y-86670645D01*
X133664789Y-86670643D01*
X133513291Y-86564563D01*
X133481749Y-86542477D01*
X133476767Y-86540154D01*
X133476762Y-86540151D01*
X133279225Y-86448039D01*
X133279224Y-86448039D01*
X133274243Y-86445716D01*
X133268935Y-86444294D01*
X133268933Y-86444293D01*
X133058402Y-86387881D01*
X133058400Y-86387881D01*
X133053087Y-86386457D01*
X132825000Y-86366502D01*
X132596913Y-86386457D01*
X132591600Y-86387881D01*
X132591598Y-86387881D01*
X132381067Y-86444293D01*
X132381065Y-86444294D01*
X132375757Y-86445716D01*
X132370776Y-86448039D01*
X132370775Y-86448039D01*
X132173238Y-86540151D01*
X132173233Y-86540154D01*
X132168251Y-86542477D01*
X132136709Y-86564563D01*
X131985211Y-86670643D01*
X131985208Y-86670645D01*
X131980700Y-86673802D01*
X131818802Y-86835700D01*
X131815645Y-86840208D01*
X131815643Y-86840211D01*
X131776053Y-86896752D01*
X131687477Y-87023251D01*
X131685154Y-87028233D01*
X131685151Y-87028238D01*
X131669195Y-87062457D01*
X131622278Y-87115742D01*
X131554001Y-87135203D01*
X131486041Y-87114661D01*
X131440805Y-87062457D01*
X131424849Y-87028238D01*
X131424846Y-87028233D01*
X131422523Y-87023251D01*
X131333947Y-86896752D01*
X131294357Y-86840211D01*
X131294355Y-86840208D01*
X131291198Y-86835700D01*
X131129300Y-86673802D01*
X131124792Y-86670645D01*
X131124789Y-86670643D01*
X130973291Y-86564563D01*
X130941749Y-86542477D01*
X130936767Y-86540154D01*
X130936762Y-86540151D01*
X130739225Y-86448039D01*
X130739224Y-86448039D01*
X130734243Y-86445716D01*
X130728935Y-86444294D01*
X130728933Y-86444293D01*
X130518402Y-86387881D01*
X130518400Y-86387881D01*
X130513087Y-86386457D01*
X130285000Y-86366502D01*
X130056913Y-86386457D01*
X130051600Y-86387881D01*
X130051598Y-86387881D01*
X129841067Y-86444293D01*
X129841065Y-86444294D01*
X129835757Y-86445716D01*
X129830776Y-86448039D01*
X129830775Y-86448039D01*
X129633238Y-86540151D01*
X129633233Y-86540154D01*
X129628251Y-86542477D01*
X129596709Y-86564563D01*
X129445211Y-86670643D01*
X129445208Y-86670645D01*
X129440700Y-86673802D01*
X129278802Y-86835700D01*
X129275645Y-86840208D01*
X129275643Y-86840211D01*
X129236053Y-86896752D01*
X129147477Y-87023251D01*
X129145154Y-87028233D01*
X129145151Y-87028238D01*
X129129195Y-87062457D01*
X129082278Y-87115742D01*
X129014001Y-87135203D01*
X128946041Y-87114661D01*
X128900805Y-87062457D01*
X128884849Y-87028238D01*
X128884846Y-87028233D01*
X128882523Y-87023251D01*
X128793947Y-86896752D01*
X128754357Y-86840211D01*
X128754355Y-86840208D01*
X128751198Y-86835700D01*
X128589300Y-86673802D01*
X128584792Y-86670645D01*
X128584789Y-86670643D01*
X128433291Y-86564563D01*
X128401749Y-86542477D01*
X128396767Y-86540154D01*
X128396762Y-86540151D01*
X128199225Y-86448039D01*
X128199224Y-86448039D01*
X128194243Y-86445716D01*
X128188935Y-86444294D01*
X128188933Y-86444293D01*
X127978402Y-86387881D01*
X127978400Y-86387881D01*
X127973087Y-86386457D01*
X127745000Y-86366502D01*
X127516913Y-86386457D01*
X127511600Y-86387881D01*
X127511598Y-86387881D01*
X127301067Y-86444293D01*
X127301065Y-86444294D01*
X127295757Y-86445716D01*
X127290776Y-86448039D01*
X127290775Y-86448039D01*
X127093238Y-86540151D01*
X127093233Y-86540154D01*
X127088251Y-86542477D01*
X127056709Y-86564563D01*
X126905211Y-86670643D01*
X126905208Y-86670645D01*
X126900700Y-86673802D01*
X126738802Y-86835700D01*
X126735645Y-86840208D01*
X126735643Y-86840211D01*
X126696053Y-86896752D01*
X126607477Y-87023251D01*
X126605154Y-87028233D01*
X126605151Y-87028238D01*
X126589195Y-87062457D01*
X126542278Y-87115742D01*
X126474001Y-87135203D01*
X126406041Y-87114661D01*
X126360805Y-87062457D01*
X126344849Y-87028238D01*
X126344846Y-87028233D01*
X126342523Y-87023251D01*
X126253947Y-86896752D01*
X126214357Y-86840211D01*
X126214355Y-86840208D01*
X126211198Y-86835700D01*
X126144833Y-86769335D01*
X126110807Y-86707023D01*
X126109035Y-86696904D01*
X126102563Y-86648398D01*
X126102193Y-86645343D01*
X126094153Y-86571342D01*
X126093417Y-86564563D01*
X126091242Y-86558099D01*
X126090522Y-86554824D01*
X126090452Y-86554428D01*
X126090329Y-86554004D01*
X126089538Y-86550784D01*
X126088634Y-86544011D01*
X126060851Y-86467677D01*
X126059844Y-86464802D01*
X126039180Y-86403402D01*
X126033922Y-86387777D01*
X126030404Y-86381923D01*
X126029015Y-86378916D01*
X126028848Y-86378511D01*
X126028643Y-86378135D01*
X126027173Y-86375148D01*
X126024838Y-86368732D01*
X125981270Y-86300080D01*
X125979745Y-86297611D01*
X125937853Y-86227891D01*
X125933166Y-86222934D01*
X125931149Y-86220277D01*
X125930639Y-86219543D01*
X125927661Y-86215605D01*
X125924891Y-86211241D01*
X125921071Y-86206968D01*
X125867075Y-86152972D01*
X125864621Y-86150450D01*
X125829611Y-86113428D01*
X125809692Y-86092364D01*
X125804044Y-86088526D01*
X125798852Y-86084107D01*
X125799192Y-86083707D01*
X125791203Y-86077100D01*
X125306320Y-85592217D01*
X125299177Y-85584450D01*
X125269935Y-85549847D01*
X125265529Y-85544633D01*
X125201031Y-85495321D01*
X125198615Y-85493427D01*
X125140583Y-85446768D01*
X125140582Y-85446767D01*
X125135262Y-85442490D01*
X125129143Y-85439453D01*
X125126348Y-85437665D01*
X125125987Y-85437412D01*
X125125620Y-85437210D01*
X125122762Y-85435479D01*
X125117348Y-85431340D01*
X125043736Y-85397014D01*
X125040964Y-85395680D01*
X124974296Y-85362586D01*
X124968186Y-85359553D01*
X124961565Y-85357902D01*
X124958437Y-85356751D01*
X124958044Y-85356587D01*
X124957639Y-85356468D01*
X124954475Y-85355391D01*
X124948296Y-85352510D01*
X124869000Y-85334785D01*
X124866002Y-85334076D01*
X124793821Y-85316079D01*
X124793820Y-85316079D01*
X124787199Y-85314428D01*
X124780378Y-85314237D01*
X124777075Y-85313785D01*
X124776191Y-85313626D01*
X124771308Y-85312948D01*
X124766260Y-85311820D01*
X124760537Y-85311500D01*
X124684156Y-85311500D01*
X124680637Y-85311451D01*
X124600743Y-85309219D01*
X124594039Y-85310498D01*
X124587238Y-85311045D01*
X124587196Y-85310525D01*
X124576875Y-85311500D01*
X122357003Y-85311500D01*
X122288882Y-85291498D01*
X122242389Y-85237842D01*
X122232285Y-85167568D01*
X122261779Y-85102988D01*
X122284733Y-85082286D01*
X122289470Y-85078970D01*
X122297875Y-85071916D01*
X122451916Y-84917875D01*
X122458972Y-84909467D01*
X122583931Y-84731007D01*
X122589414Y-84721511D01*
X122681490Y-84524053D01*
X122685236Y-84513761D01*
X122731394Y-84341497D01*
X122731058Y-84327401D01*
X122723116Y-84324000D01*
X120182033Y-84324000D01*
X120168502Y-84327973D01*
X120167273Y-84336522D01*
X120214764Y-84513761D01*
X120218510Y-84524053D01*
X120310586Y-84721511D01*
X120316069Y-84731007D01*
X120441028Y-84909467D01*
X120448084Y-84917875D01*
X120602125Y-85071916D01*
X120610530Y-85078970D01*
X120615267Y-85082286D01*
X120659596Y-85137743D01*
X120666905Y-85208362D01*
X120634875Y-85271723D01*
X120573674Y-85307708D01*
X120542997Y-85311500D01*
X116044188Y-85311500D01*
X115976067Y-85291498D01*
X115955093Y-85274595D01*
X115844300Y-85163802D01*
X115839792Y-85160645D01*
X115839789Y-85160643D01*
X115723700Y-85079357D01*
X115656749Y-85032477D01*
X115651767Y-85030154D01*
X115651762Y-85030151D01*
X115454225Y-84938039D01*
X115454224Y-84938039D01*
X115449243Y-84935716D01*
X115443935Y-84934294D01*
X115443933Y-84934293D01*
X115233402Y-84877881D01*
X115233400Y-84877881D01*
X115228087Y-84876457D01*
X115000000Y-84856502D01*
X114771913Y-84876457D01*
X114766600Y-84877881D01*
X114766598Y-84877881D01*
X114556067Y-84934293D01*
X114556065Y-84934294D01*
X114550757Y-84935716D01*
X114545776Y-84938039D01*
X114545775Y-84938039D01*
X114348238Y-85030151D01*
X114348233Y-85030154D01*
X114343251Y-85032477D01*
X114276300Y-85079357D01*
X114160211Y-85160643D01*
X114160208Y-85160645D01*
X114155700Y-85163802D01*
X113993802Y-85325700D01*
X113990645Y-85330208D01*
X113990643Y-85330211D01*
X113960167Y-85373735D01*
X113862477Y-85513251D01*
X113860154Y-85518233D01*
X113860151Y-85518238D01*
X113823622Y-85596576D01*
X113765716Y-85720757D01*
X113764294Y-85726065D01*
X113764293Y-85726067D01*
X113718024Y-85898744D01*
X113706457Y-85941913D01*
X113686502Y-86170000D01*
X113008500Y-86170000D01*
X113008500Y-84070000D01*
X127756502Y-84070000D01*
X127776457Y-84298087D01*
X127777881Y-84303400D01*
X127777881Y-84303402D01*
X127815537Y-84443933D01*
X127835716Y-84519243D01*
X127838039Y-84524224D01*
X127838039Y-84524225D01*
X127930151Y-84721762D01*
X127930154Y-84721767D01*
X127932477Y-84726749D01*
X127989431Y-84808087D01*
X128036969Y-84875978D01*
X128063802Y-84914300D01*
X128225700Y-85076198D01*
X128230208Y-85079355D01*
X128230211Y-85079357D01*
X128263960Y-85102988D01*
X128413251Y-85207523D01*
X128418233Y-85209846D01*
X128418238Y-85209849D01*
X128598750Y-85294022D01*
X128620757Y-85304284D01*
X128626065Y-85305706D01*
X128626067Y-85305707D01*
X128836598Y-85362119D01*
X128836600Y-85362119D01*
X128841913Y-85363543D01*
X129070000Y-85383498D01*
X129298087Y-85363543D01*
X129303400Y-85362119D01*
X129303402Y-85362119D01*
X129513933Y-85305707D01*
X129513935Y-85305706D01*
X129519243Y-85304284D01*
X129541250Y-85294022D01*
X129721762Y-85209849D01*
X129721767Y-85209846D01*
X129726749Y-85207523D01*
X129876040Y-85102988D01*
X129909789Y-85079357D01*
X129909792Y-85079355D01*
X129914300Y-85076198D01*
X130076198Y-84914300D01*
X130103032Y-84875978D01*
X130150569Y-84808087D01*
X130207523Y-84726749D01*
X130209846Y-84721767D01*
X130209849Y-84721762D01*
X130301961Y-84524225D01*
X130301961Y-84524224D01*
X130304284Y-84519243D01*
X130324464Y-84443933D01*
X130362119Y-84303402D01*
X130362119Y-84303400D01*
X130363543Y-84298087D01*
X130383498Y-84070000D01*
X130377374Y-84000000D01*
X131936502Y-84000000D01*
X131956457Y-84228087D01*
X131957881Y-84233400D01*
X131957881Y-84233402D01*
X131983222Y-84327973D01*
X132015716Y-84449243D01*
X132018039Y-84454224D01*
X132018039Y-84454225D01*
X132110151Y-84651762D01*
X132110154Y-84651767D01*
X132112477Y-84656749D01*
X132243802Y-84844300D01*
X132405700Y-85006198D01*
X132410208Y-85009355D01*
X132410211Y-85009357D01*
X132447739Y-85035634D01*
X132593251Y-85137523D01*
X132598233Y-85139846D01*
X132598238Y-85139849D01*
X132795775Y-85231961D01*
X132800757Y-85234284D01*
X132806065Y-85235706D01*
X132806067Y-85235707D01*
X133016598Y-85292119D01*
X133016600Y-85292119D01*
X133021913Y-85293543D01*
X133250000Y-85313498D01*
X133478087Y-85293543D01*
X133483400Y-85292119D01*
X133483402Y-85292119D01*
X133693933Y-85235707D01*
X133693935Y-85235706D01*
X133699243Y-85234284D01*
X133704225Y-85231961D01*
X133901762Y-85139849D01*
X133901767Y-85139846D01*
X133906749Y-85137523D01*
X134052261Y-85035634D01*
X134089789Y-85009357D01*
X134089792Y-85009355D01*
X134094300Y-85006198D01*
X134256198Y-84844300D01*
X134387523Y-84656749D01*
X134389846Y-84651767D01*
X134389849Y-84651762D01*
X134423312Y-84580000D01*
X136436502Y-84580000D01*
X136456457Y-84808087D01*
X136457881Y-84813400D01*
X136457881Y-84813402D01*
X136510388Y-85009357D01*
X136515716Y-85029243D01*
X136518039Y-85034224D01*
X136518039Y-85034225D01*
X136610151Y-85231762D01*
X136610154Y-85231767D01*
X136612477Y-85236749D01*
X136666307Y-85313626D01*
X136714897Y-85383019D01*
X136743802Y-85424300D01*
X136905700Y-85586198D01*
X136910208Y-85589355D01*
X136910211Y-85589357D01*
X136988389Y-85644098D01*
X137093251Y-85717523D01*
X137098233Y-85719846D01*
X137098238Y-85719849D01*
X137221358Y-85777260D01*
X137300757Y-85814284D01*
X137306065Y-85815706D01*
X137306067Y-85815707D01*
X137516598Y-85872119D01*
X137516600Y-85872119D01*
X137521913Y-85873543D01*
X137750000Y-85893498D01*
X137978087Y-85873543D01*
X137983400Y-85872119D01*
X137983402Y-85872119D01*
X138193933Y-85815707D01*
X138193935Y-85815706D01*
X138199243Y-85814284D01*
X138278642Y-85777260D01*
X138401762Y-85719849D01*
X138401767Y-85719846D01*
X138406749Y-85717523D01*
X138511611Y-85644098D01*
X138589789Y-85589357D01*
X138589792Y-85589355D01*
X138594300Y-85586198D01*
X138756198Y-85424300D01*
X138785104Y-85383019D01*
X138833693Y-85313626D01*
X138887523Y-85236749D01*
X138889846Y-85231767D01*
X138889849Y-85231762D01*
X138981961Y-85034225D01*
X138981961Y-85034224D01*
X138984284Y-85029243D01*
X138989613Y-85009357D01*
X139042119Y-84813402D01*
X139042119Y-84813400D01*
X139043543Y-84808087D01*
X139063498Y-84580000D01*
X139043543Y-84351913D01*
X139036064Y-84324000D01*
X138985707Y-84136067D01*
X138985706Y-84136065D01*
X138984284Y-84130757D01*
X138953400Y-84064525D01*
X138889849Y-83928238D01*
X138889846Y-83928233D01*
X138887523Y-83923251D01*
X138772163Y-83758500D01*
X138759357Y-83740211D01*
X138759355Y-83740208D01*
X138756198Y-83735700D01*
X138594300Y-83573802D01*
X138589792Y-83570645D01*
X138589789Y-83570643D01*
X138484194Y-83496705D01*
X138406749Y-83442477D01*
X138401767Y-83440154D01*
X138401762Y-83440151D01*
X138204225Y-83348039D01*
X138204224Y-83348039D01*
X138199243Y-83345716D01*
X138193935Y-83344294D01*
X138193933Y-83344293D01*
X137983402Y-83287881D01*
X137983400Y-83287881D01*
X137978087Y-83286457D01*
X137750000Y-83266502D01*
X137521913Y-83286457D01*
X137516600Y-83287881D01*
X137516598Y-83287881D01*
X137306067Y-83344293D01*
X137306065Y-83344294D01*
X137300757Y-83345716D01*
X137295776Y-83348039D01*
X137295775Y-83348039D01*
X137098238Y-83440151D01*
X137098233Y-83440154D01*
X137093251Y-83442477D01*
X137015806Y-83496705D01*
X136910211Y-83570643D01*
X136910208Y-83570645D01*
X136905700Y-83573802D01*
X136743802Y-83735700D01*
X136740645Y-83740208D01*
X136740643Y-83740211D01*
X136727837Y-83758500D01*
X136612477Y-83923251D01*
X136610154Y-83928233D01*
X136610151Y-83928238D01*
X136546600Y-84064525D01*
X136515716Y-84130757D01*
X136514294Y-84136065D01*
X136514293Y-84136067D01*
X136463936Y-84324000D01*
X136456457Y-84351913D01*
X136436502Y-84580000D01*
X134423312Y-84580000D01*
X134481961Y-84454225D01*
X134481961Y-84454224D01*
X134484284Y-84449243D01*
X134516779Y-84327973D01*
X134542119Y-84233402D01*
X134542119Y-84233400D01*
X134543543Y-84228087D01*
X134563498Y-84000000D01*
X134543543Y-83771913D01*
X134535778Y-83742934D01*
X134485707Y-83556067D01*
X134485706Y-83556065D01*
X134484284Y-83550757D01*
X134462430Y-83503891D01*
X134389849Y-83348238D01*
X134389846Y-83348233D01*
X134387523Y-83343251D01*
X134256198Y-83155700D01*
X134189593Y-83089095D01*
X134155567Y-83026783D01*
X134160632Y-82955968D01*
X134189593Y-82910905D01*
X134256198Y-82844300D01*
X134270733Y-82823543D01*
X134366984Y-82686081D01*
X134387523Y-82656749D01*
X134389846Y-82651767D01*
X134389849Y-82651762D01*
X134481961Y-82454225D01*
X134481961Y-82454224D01*
X134484284Y-82449243D01*
X134490672Y-82425405D01*
X134542119Y-82233402D01*
X134542119Y-82233400D01*
X134543543Y-82228087D01*
X134563498Y-82000000D01*
X134543543Y-81771913D01*
X134542119Y-81766598D01*
X134485707Y-81556067D01*
X134485706Y-81556065D01*
X134484284Y-81550757D01*
X134481961Y-81545775D01*
X134389849Y-81348238D01*
X134389846Y-81348233D01*
X134387523Y-81343251D01*
X134282833Y-81193739D01*
X134259357Y-81160211D01*
X134259355Y-81160208D01*
X134256198Y-81155700D01*
X134094300Y-80993802D01*
X134089792Y-80990645D01*
X134089789Y-80990643D01*
X133982582Y-80915576D01*
X133906749Y-80862477D01*
X133901767Y-80860154D01*
X133901762Y-80860151D01*
X133704225Y-80768039D01*
X133704224Y-80768039D01*
X133699243Y-80765716D01*
X133693935Y-80764294D01*
X133693933Y-80764293D01*
X133483402Y-80707881D01*
X133483400Y-80707881D01*
X133478087Y-80706457D01*
X133250000Y-80686502D01*
X133021913Y-80706457D01*
X133016600Y-80707881D01*
X133016598Y-80707881D01*
X132806067Y-80764293D01*
X132806065Y-80764294D01*
X132800757Y-80765716D01*
X132795776Y-80768039D01*
X132795775Y-80768039D01*
X132598238Y-80860151D01*
X132598233Y-80860154D01*
X132593251Y-80862477D01*
X132517418Y-80915576D01*
X132410211Y-80990643D01*
X132410208Y-80990645D01*
X132405700Y-80993802D01*
X132243802Y-81155700D01*
X132240645Y-81160208D01*
X132240643Y-81160211D01*
X132217167Y-81193739D01*
X132112477Y-81343251D01*
X132110154Y-81348233D01*
X132110151Y-81348238D01*
X132018039Y-81545775D01*
X132015716Y-81550757D01*
X132014294Y-81556065D01*
X132014293Y-81556067D01*
X131957881Y-81766598D01*
X131956457Y-81771913D01*
X131936502Y-82000000D01*
X131956457Y-82228087D01*
X131957881Y-82233400D01*
X131957881Y-82233402D01*
X132009329Y-82425405D01*
X132015716Y-82449243D01*
X132018039Y-82454224D01*
X132018039Y-82454225D01*
X132110151Y-82651762D01*
X132110154Y-82651767D01*
X132112477Y-82656749D01*
X132133016Y-82686081D01*
X132229268Y-82823543D01*
X132243802Y-82844300D01*
X132310407Y-82910905D01*
X132344433Y-82973217D01*
X132339368Y-83044032D01*
X132310407Y-83089095D01*
X132243802Y-83155700D01*
X132112477Y-83343251D01*
X132110154Y-83348233D01*
X132110151Y-83348238D01*
X132037570Y-83503891D01*
X132015716Y-83550757D01*
X132014294Y-83556065D01*
X132014293Y-83556067D01*
X131964222Y-83742934D01*
X131956457Y-83771913D01*
X131936502Y-84000000D01*
X130377374Y-84000000D01*
X130363543Y-83841913D01*
X130346255Y-83777393D01*
X130305707Y-83626067D01*
X130305706Y-83626065D01*
X130304284Y-83620757D01*
X130293129Y-83596835D01*
X130209849Y-83418238D01*
X130209846Y-83418233D01*
X130207523Y-83413251D01*
X130118405Y-83285978D01*
X130079357Y-83230211D01*
X130079355Y-83230208D01*
X130076198Y-83225700D01*
X129914300Y-83063802D01*
X129909792Y-83060645D01*
X129909789Y-83060643D01*
X129823182Y-83000000D01*
X129726749Y-82932477D01*
X129721767Y-82930154D01*
X129721762Y-82930151D01*
X129687543Y-82914195D01*
X129634258Y-82867278D01*
X129614797Y-82799001D01*
X129635339Y-82731041D01*
X129687543Y-82685805D01*
X129721762Y-82669849D01*
X129721767Y-82669846D01*
X129726749Y-82667523D01*
X129831611Y-82594098D01*
X129909789Y-82539357D01*
X129909792Y-82539355D01*
X129914300Y-82536198D01*
X130076198Y-82374300D01*
X130080166Y-82368634D01*
X130174856Y-82233402D01*
X130207523Y-82186749D01*
X130209846Y-82181767D01*
X130209849Y-82181762D01*
X130301961Y-81984225D01*
X130301961Y-81984224D01*
X130304284Y-81979243D01*
X130332533Y-81873819D01*
X130362119Y-81763402D01*
X130362119Y-81763400D01*
X130363543Y-81758087D01*
X130383498Y-81530000D01*
X130363543Y-81301913D01*
X130350944Y-81254894D01*
X130305707Y-81086067D01*
X130305706Y-81086065D01*
X130304284Y-81080757D01*
X130301961Y-81075775D01*
X130209849Y-80878238D01*
X130209846Y-80878233D01*
X130207523Y-80873251D01*
X130119761Y-80747914D01*
X130079357Y-80690211D01*
X130079355Y-80690208D01*
X130076198Y-80685700D01*
X130037593Y-80647095D01*
X141517001Y-80647095D01*
X141517338Y-80653614D01*
X141527257Y-80749206D01*
X141530149Y-80762600D01*
X141581588Y-80916784D01*
X141587761Y-80929962D01*
X141673063Y-81067807D01*
X141682099Y-81079208D01*
X141796829Y-81193739D01*
X141808240Y-81202751D01*
X141946243Y-81287816D01*
X141959424Y-81293963D01*
X142113710Y-81345138D01*
X142127086Y-81348005D01*
X142221438Y-81357672D01*
X142227854Y-81358000D01*
X142727885Y-81358000D01*
X142743124Y-81353525D01*
X142744329Y-81352135D01*
X142746000Y-81344452D01*
X142746000Y-81339884D01*
X143254000Y-81339884D01*
X143258475Y-81355123D01*
X143259865Y-81356328D01*
X143267548Y-81357999D01*
X143772095Y-81357999D01*
X143778614Y-81357662D01*
X143874206Y-81347743D01*
X143887600Y-81344851D01*
X144041784Y-81293412D01*
X144054962Y-81287239D01*
X144192807Y-81201937D01*
X144204208Y-81192901D01*
X144318739Y-81078171D01*
X144327751Y-81066760D01*
X144412816Y-80928757D01*
X144418963Y-80915576D01*
X144470138Y-80761290D01*
X144473005Y-80747914D01*
X144482672Y-80653562D01*
X144483000Y-80647146D01*
X144483000Y-80272115D01*
X144478525Y-80256876D01*
X144477135Y-80255671D01*
X144469452Y-80254000D01*
X143272115Y-80254000D01*
X143256876Y-80258475D01*
X143255671Y-80259865D01*
X143254000Y-80267548D01*
X143254000Y-81339884D01*
X142746000Y-81339884D01*
X142746000Y-80272115D01*
X142741525Y-80256876D01*
X142740135Y-80255671D01*
X142732452Y-80254000D01*
X141535116Y-80254000D01*
X141519877Y-80258475D01*
X141518672Y-80259865D01*
X141517001Y-80267548D01*
X141517001Y-80647095D01*
X130037593Y-80647095D01*
X129914300Y-80523802D01*
X129909792Y-80520645D01*
X129909789Y-80520643D01*
X129796288Y-80441169D01*
X129726749Y-80392477D01*
X129721767Y-80390154D01*
X129721762Y-80390151D01*
X129687543Y-80374195D01*
X129634258Y-80327278D01*
X129614797Y-80259001D01*
X129635339Y-80191041D01*
X129687543Y-80145805D01*
X129721762Y-80129849D01*
X129721767Y-80129846D01*
X129726749Y-80127523D01*
X129888632Y-80014171D01*
X129909789Y-79999357D01*
X129909792Y-79999355D01*
X129914300Y-79996198D01*
X130076198Y-79834300D01*
X130150711Y-79727885D01*
X141517000Y-79727885D01*
X141521475Y-79743124D01*
X141522865Y-79744329D01*
X141530548Y-79746000D01*
X142727885Y-79746000D01*
X142743124Y-79741525D01*
X142744329Y-79740135D01*
X142746000Y-79732452D01*
X142746000Y-79727885D01*
X143254000Y-79727885D01*
X143258475Y-79743124D01*
X143259865Y-79744329D01*
X143267548Y-79746000D01*
X144464884Y-79746000D01*
X144480123Y-79741525D01*
X144481328Y-79740135D01*
X144482999Y-79732452D01*
X144482999Y-79352905D01*
X144482662Y-79346386D01*
X144472743Y-79250794D01*
X144469851Y-79237400D01*
X144418412Y-79083216D01*
X144412239Y-79070038D01*
X144326937Y-78932193D01*
X144317901Y-78920792D01*
X144203171Y-78806261D01*
X144191760Y-78797249D01*
X144051846Y-78711005D01*
X144004353Y-78658233D01*
X143992929Y-78588161D01*
X144021203Y-78523037D01*
X144030990Y-78512576D01*
X144141900Y-78406772D01*
X144148941Y-78398814D01*
X144280141Y-78222475D01*
X144285745Y-78213438D01*
X144385357Y-78017516D01*
X144389357Y-78007665D01*
X144454534Y-77797760D01*
X144456817Y-77787376D01*
X144458861Y-77771957D01*
X144456665Y-77757793D01*
X144443478Y-77754000D01*
X143272115Y-77754000D01*
X143256876Y-77758475D01*
X143255671Y-77759865D01*
X143254000Y-77767548D01*
X143254000Y-79727885D01*
X142746000Y-79727885D01*
X142746000Y-77772115D01*
X142741525Y-77756876D01*
X142740135Y-77755671D01*
X142732452Y-77754000D01*
X141558808Y-77754000D01*
X141545277Y-77757973D01*
X141543752Y-77768580D01*
X141568477Y-77886421D01*
X141571537Y-77896617D01*
X141652263Y-78101029D01*
X141656994Y-78110561D01*
X141771016Y-78298462D01*
X141777280Y-78307052D01*
X141921327Y-78473052D01*
X141928956Y-78480470D01*
X141960978Y-78506726D01*
X142000973Y-78565385D01*
X142002906Y-78636355D01*
X141966162Y-78697104D01*
X141947391Y-78711305D01*
X141807193Y-78798063D01*
X141795792Y-78807099D01*
X141681261Y-78921829D01*
X141672249Y-78933240D01*
X141587184Y-79071243D01*
X141581037Y-79084424D01*
X141529862Y-79238710D01*
X141526995Y-79252086D01*
X141517328Y-79346438D01*
X141517000Y-79352855D01*
X141517000Y-79727885D01*
X130150711Y-79727885D01*
X130207523Y-79646749D01*
X130209846Y-79641767D01*
X130209849Y-79641762D01*
X130301961Y-79444225D01*
X130301961Y-79444224D01*
X130304284Y-79439243D01*
X130327419Y-79352905D01*
X130362119Y-79223402D01*
X130362119Y-79223400D01*
X130363543Y-79218087D01*
X130383498Y-78990000D01*
X130363543Y-78761913D01*
X130349902Y-78711005D01*
X130305707Y-78546067D01*
X130305706Y-78546065D01*
X130304284Y-78540757D01*
X130272713Y-78473052D01*
X130209849Y-78338238D01*
X130209846Y-78338233D01*
X130207523Y-78333251D01*
X130076198Y-78145700D01*
X129914300Y-77983802D01*
X129909792Y-77980645D01*
X129909789Y-77980643D01*
X129831611Y-77925902D01*
X129726749Y-77852477D01*
X129721767Y-77850154D01*
X129721762Y-77850151D01*
X129686951Y-77833919D01*
X129633666Y-77787002D01*
X129614205Y-77718725D01*
X129634747Y-77650765D01*
X129686951Y-77605529D01*
X129721511Y-77589414D01*
X129731007Y-77583931D01*
X129909467Y-77458972D01*
X129917875Y-77451916D01*
X130071916Y-77297875D01*
X130078972Y-77289467D01*
X130203931Y-77111007D01*
X130209414Y-77101511D01*
X130301490Y-76904053D01*
X130305236Y-76893761D01*
X130351394Y-76721497D01*
X130351058Y-76707401D01*
X130343116Y-76704000D01*
X127802033Y-76704000D01*
X127788502Y-76707973D01*
X127787273Y-76716522D01*
X127834764Y-76893761D01*
X127838510Y-76904053D01*
X127930586Y-77101511D01*
X127936069Y-77111007D01*
X128061028Y-77289467D01*
X128068084Y-77297875D01*
X128222125Y-77451916D01*
X128230533Y-77458972D01*
X128408993Y-77583931D01*
X128418489Y-77589414D01*
X128453049Y-77605529D01*
X128506334Y-77652446D01*
X128525795Y-77720723D01*
X128505253Y-77788683D01*
X128453049Y-77833919D01*
X128418238Y-77850151D01*
X128418233Y-77850154D01*
X128413251Y-77852477D01*
X128308389Y-77925902D01*
X128230211Y-77980643D01*
X128230208Y-77980645D01*
X128225700Y-77983802D01*
X128063802Y-78145700D01*
X127932477Y-78333251D01*
X127930154Y-78338233D01*
X127930151Y-78338238D01*
X127867287Y-78473052D01*
X127835716Y-78540757D01*
X127834294Y-78546065D01*
X127834293Y-78546067D01*
X127790098Y-78711005D01*
X127776457Y-78761913D01*
X127756502Y-78990000D01*
X127776457Y-79218087D01*
X127777881Y-79223400D01*
X127777881Y-79223402D01*
X127812582Y-79352905D01*
X127835716Y-79439243D01*
X127838039Y-79444224D01*
X127838039Y-79444225D01*
X127930151Y-79641762D01*
X127930154Y-79641767D01*
X127932477Y-79646749D01*
X128063802Y-79834300D01*
X128225700Y-79996198D01*
X128230208Y-79999355D01*
X128230211Y-79999357D01*
X128251368Y-80014171D01*
X128413251Y-80127523D01*
X128418233Y-80129846D01*
X128418238Y-80129849D01*
X128452457Y-80145805D01*
X128505742Y-80192722D01*
X128525203Y-80260999D01*
X128504661Y-80328959D01*
X128452457Y-80374195D01*
X128418238Y-80390151D01*
X128418233Y-80390154D01*
X128413251Y-80392477D01*
X128343712Y-80441169D01*
X128230211Y-80520643D01*
X128230208Y-80520645D01*
X128225700Y-80523802D01*
X128063802Y-80685700D01*
X128060645Y-80690208D01*
X128060643Y-80690211D01*
X128020239Y-80747914D01*
X127932477Y-80873251D01*
X127930154Y-80878233D01*
X127930151Y-80878238D01*
X127838039Y-81075775D01*
X127835716Y-81080757D01*
X127834294Y-81086065D01*
X127834293Y-81086067D01*
X127789056Y-81254894D01*
X127776457Y-81301913D01*
X127756502Y-81530000D01*
X127776457Y-81758087D01*
X127777881Y-81763400D01*
X127777881Y-81763402D01*
X127807468Y-81873819D01*
X127835716Y-81979243D01*
X127838039Y-81984224D01*
X127838039Y-81984225D01*
X127930151Y-82181762D01*
X127930154Y-82181767D01*
X127932477Y-82186749D01*
X127965144Y-82233402D01*
X128059835Y-82368634D01*
X128063802Y-82374300D01*
X128225700Y-82536198D01*
X128230208Y-82539355D01*
X128230211Y-82539357D01*
X128308389Y-82594098D01*
X128413251Y-82667523D01*
X128418233Y-82669846D01*
X128418238Y-82669849D01*
X128452457Y-82685805D01*
X128505742Y-82732722D01*
X128525203Y-82800999D01*
X128504661Y-82868959D01*
X128452457Y-82914195D01*
X128418238Y-82930151D01*
X128418233Y-82930154D01*
X128413251Y-82932477D01*
X128316818Y-83000000D01*
X128230211Y-83060643D01*
X128230208Y-83060645D01*
X128225700Y-83063802D01*
X128063802Y-83225700D01*
X128060645Y-83230208D01*
X128060643Y-83230211D01*
X128021595Y-83285978D01*
X127932477Y-83413251D01*
X127930154Y-83418233D01*
X127930151Y-83418238D01*
X127846871Y-83596835D01*
X127835716Y-83620757D01*
X127834294Y-83626065D01*
X127834293Y-83626067D01*
X127793745Y-83777393D01*
X127776457Y-83841913D01*
X127756502Y-84070000D01*
X113008500Y-84070000D01*
X113008500Y-83298134D01*
X113966500Y-83298134D01*
X113973255Y-83360316D01*
X114024385Y-83496705D01*
X114111739Y-83613261D01*
X114228295Y-83700615D01*
X114364684Y-83751745D01*
X114426866Y-83758500D01*
X115573134Y-83758500D01*
X115635316Y-83751745D01*
X115688511Y-83731803D01*
X115763296Y-83703768D01*
X115763299Y-83703766D01*
X115771705Y-83700615D01*
X115778894Y-83695227D01*
X115779137Y-83695094D01*
X115848494Y-83679924D01*
X115876907Y-83685248D01*
X116061180Y-83742290D01*
X116067305Y-83742934D01*
X116067306Y-83742934D01*
X116256622Y-83762832D01*
X116256623Y-83762832D01*
X116262750Y-83763476D01*
X116346014Y-83755898D01*
X116458457Y-83745665D01*
X116458460Y-83745664D01*
X116464596Y-83745106D01*
X116470502Y-83743368D01*
X116470506Y-83743367D01*
X116653120Y-83689620D01*
X116653119Y-83689620D01*
X116659029Y-83687881D01*
X116664486Y-83685028D01*
X116664489Y-83685027D01*
X116776940Y-83626239D01*
X116838460Y-83594077D01*
X116838462Y-83594077D01*
X116838645Y-83593981D01*
X116838663Y-83594016D01*
X116904441Y-83574111D01*
X116965409Y-83589271D01*
X117137565Y-83682356D01*
X117206733Y-83703767D01*
X117325293Y-83740468D01*
X117325296Y-83740469D01*
X117331180Y-83742290D01*
X117337305Y-83742934D01*
X117337306Y-83742934D01*
X117526622Y-83762832D01*
X117526623Y-83762832D01*
X117532750Y-83763476D01*
X117616014Y-83755898D01*
X117728457Y-83745665D01*
X117728460Y-83745664D01*
X117734596Y-83745106D01*
X117740502Y-83743368D01*
X117740506Y-83743367D01*
X117923120Y-83689620D01*
X117923119Y-83689620D01*
X117929029Y-83687881D01*
X117934486Y-83685028D01*
X117934489Y-83685027D01*
X118046940Y-83626239D01*
X118108645Y-83593981D01*
X118266601Y-83466981D01*
X118396881Y-83311719D01*
X118399845Y-83306327D01*
X118399848Y-83306323D01*
X118491556Y-83139506D01*
X118494523Y-83134109D01*
X118555807Y-82940916D01*
X118558774Y-82914471D01*
X118568973Y-82823543D01*
X118573500Y-82783183D01*
X118573500Y-82223996D01*
X118558723Y-82073287D01*
X118500142Y-81879258D01*
X118404990Y-81700302D01*
X118276890Y-81543237D01*
X118272141Y-81539308D01*
X118260890Y-81530000D01*
X120136502Y-81530000D01*
X120156457Y-81758087D01*
X120157881Y-81763400D01*
X120157881Y-81763402D01*
X120187468Y-81873819D01*
X120215716Y-81979243D01*
X120218039Y-81984224D01*
X120218039Y-81984225D01*
X120310151Y-82181762D01*
X120310154Y-82181767D01*
X120312477Y-82186749D01*
X120345144Y-82233402D01*
X120439835Y-82368634D01*
X120443802Y-82374300D01*
X120605700Y-82536198D01*
X120610208Y-82539355D01*
X120610211Y-82539357D01*
X120688389Y-82594098D01*
X120793251Y-82667523D01*
X120798233Y-82669846D01*
X120798238Y-82669849D01*
X120833049Y-82686081D01*
X120886334Y-82732998D01*
X120905795Y-82801275D01*
X120885253Y-82869235D01*
X120833049Y-82914471D01*
X120798489Y-82930586D01*
X120788993Y-82936069D01*
X120610533Y-83061028D01*
X120602125Y-83068084D01*
X120448084Y-83222125D01*
X120441028Y-83230533D01*
X120316069Y-83408993D01*
X120310586Y-83418489D01*
X120218510Y-83615947D01*
X120214764Y-83626239D01*
X120168606Y-83798503D01*
X120168942Y-83812599D01*
X120176884Y-83816000D01*
X122717967Y-83816000D01*
X122731498Y-83812027D01*
X122732727Y-83803478D01*
X122685236Y-83626239D01*
X122681490Y-83615947D01*
X122589414Y-83418489D01*
X122583931Y-83408993D01*
X122458972Y-83230533D01*
X122451916Y-83222125D01*
X122297875Y-83068084D01*
X122289467Y-83061028D01*
X122111007Y-82936069D01*
X122101511Y-82930586D01*
X122066951Y-82914471D01*
X122013666Y-82867554D01*
X121994205Y-82799277D01*
X122014747Y-82731317D01*
X122066951Y-82686081D01*
X122101762Y-82669849D01*
X122101767Y-82669846D01*
X122106749Y-82667523D01*
X122211611Y-82594098D01*
X122289789Y-82539357D01*
X122289792Y-82539355D01*
X122294300Y-82536198D01*
X122405093Y-82425405D01*
X122467405Y-82391379D01*
X122494188Y-82388500D01*
X123928610Y-82388500D01*
X123939152Y-82388942D01*
X123991099Y-82393304D01*
X123997859Y-82392402D01*
X123997861Y-82392402D01*
X124071602Y-82382563D01*
X124074657Y-82382193D01*
X124111437Y-82378197D01*
X124155437Y-82373417D01*
X124161901Y-82371242D01*
X124165176Y-82370522D01*
X124165572Y-82370452D01*
X124165996Y-82370329D01*
X124169216Y-82369538D01*
X124175989Y-82368634D01*
X124252323Y-82340851D01*
X124255198Y-82339844D01*
X124273773Y-82333593D01*
X124332223Y-82313922D01*
X124338077Y-82310404D01*
X124341084Y-82309015D01*
X124341489Y-82308848D01*
X124341865Y-82308643D01*
X124344852Y-82307173D01*
X124351268Y-82304838D01*
X124419920Y-82261270D01*
X124422389Y-82259745D01*
X124492109Y-82217853D01*
X124497066Y-82213166D01*
X124499723Y-82211149D01*
X124500469Y-82210631D01*
X124504402Y-82207656D01*
X124508759Y-82204891D01*
X124513032Y-82201070D01*
X124567010Y-82147092D01*
X124569532Y-82144638D01*
X124570303Y-82143909D01*
X124627636Y-82089692D01*
X124631474Y-82084044D01*
X124635893Y-82078852D01*
X124636293Y-82079192D01*
X124642902Y-82071200D01*
X125358980Y-81355123D01*
X126077783Y-80636320D01*
X126085550Y-80629177D01*
X126120153Y-80599935D01*
X126125367Y-80595529D01*
X126174679Y-80531031D01*
X126176573Y-80528615D01*
X126177310Y-80527699D01*
X126227510Y-80465262D01*
X126230547Y-80459143D01*
X126232335Y-80456348D01*
X126232588Y-80455987D01*
X126232790Y-80455620D01*
X126234521Y-80452762D01*
X126238660Y-80447348D01*
X126272986Y-80373736D01*
X126274320Y-80370964D01*
X126307414Y-80304296D01*
X126310447Y-80298186D01*
X126312098Y-80291565D01*
X126313249Y-80288437D01*
X126313413Y-80288043D01*
X126313532Y-80287639D01*
X126314609Y-80284476D01*
X126317490Y-80278296D01*
X126335205Y-80199048D01*
X126335912Y-80196053D01*
X126348441Y-80145805D01*
X126355573Y-80117199D01*
X126355763Y-80110377D01*
X126356217Y-80107067D01*
X126356373Y-80106202D01*
X126357053Y-80101303D01*
X126358180Y-80096260D01*
X126358500Y-80090537D01*
X126358500Y-80014171D01*
X126358549Y-80010653D01*
X126360591Y-79937563D01*
X126360591Y-79937558D01*
X126360781Y-79930743D01*
X126359503Y-79924042D01*
X126358955Y-79917238D01*
X126359475Y-79917196D01*
X126358500Y-79906875D01*
X126358500Y-76178503D01*
X127788606Y-76178503D01*
X127788942Y-76192599D01*
X127796884Y-76196000D01*
X128797885Y-76196000D01*
X128813124Y-76191525D01*
X128814329Y-76190135D01*
X128816000Y-76182452D01*
X128816000Y-76177885D01*
X129324000Y-76177885D01*
X129328475Y-76193124D01*
X129329865Y-76194329D01*
X129337548Y-76196000D01*
X130337967Y-76196000D01*
X130351498Y-76192027D01*
X130352727Y-76183478D01*
X130305236Y-76006239D01*
X130301490Y-75995947D01*
X130209414Y-75798489D01*
X130203931Y-75788993D01*
X130078972Y-75610533D01*
X130071916Y-75602125D01*
X129917875Y-75448084D01*
X129909467Y-75441028D01*
X129731007Y-75316069D01*
X129721511Y-75310586D01*
X129524053Y-75218510D01*
X129513761Y-75214764D01*
X129341497Y-75168606D01*
X129327401Y-75168942D01*
X129324000Y-75176884D01*
X129324000Y-76177885D01*
X128816000Y-76177885D01*
X128816000Y-75182033D01*
X128812027Y-75168502D01*
X128803478Y-75167273D01*
X128626239Y-75214764D01*
X128615947Y-75218510D01*
X128418489Y-75310586D01*
X128408993Y-75316069D01*
X128230533Y-75441028D01*
X128222125Y-75448084D01*
X128068084Y-75602125D01*
X128061028Y-75610533D01*
X127936069Y-75788993D01*
X127930586Y-75798489D01*
X127838510Y-75995947D01*
X127834764Y-76006239D01*
X127788606Y-76178503D01*
X126358500Y-76178503D01*
X126358500Y-75907792D01*
X126378502Y-75839671D01*
X126395405Y-75818697D01*
X127568698Y-74645405D01*
X127631010Y-74611379D01*
X127657793Y-74608500D01*
X132458610Y-74608500D01*
X132469152Y-74608942D01*
X132521099Y-74613304D01*
X132527859Y-74612402D01*
X132527861Y-74612402D01*
X132601602Y-74602563D01*
X132604657Y-74602193D01*
X132636889Y-74598691D01*
X132685437Y-74593417D01*
X132691901Y-74591242D01*
X132695176Y-74590522D01*
X132695572Y-74590452D01*
X132695996Y-74590329D01*
X132699216Y-74589538D01*
X132705989Y-74588634D01*
X132782323Y-74560851D01*
X132785198Y-74559844D01*
X132803773Y-74553593D01*
X132862223Y-74533922D01*
X132868077Y-74530404D01*
X132871084Y-74529015D01*
X132871489Y-74528848D01*
X132871865Y-74528643D01*
X132874852Y-74527173D01*
X132881268Y-74524838D01*
X132949920Y-74481270D01*
X132952389Y-74479745D01*
X133022109Y-74437853D01*
X133027066Y-74433166D01*
X133029723Y-74431149D01*
X133030469Y-74430631D01*
X133034402Y-74427656D01*
X133038759Y-74424891D01*
X133043032Y-74421070D01*
X133044102Y-74420000D01*
X136436502Y-74420000D01*
X136456457Y-74648087D01*
X136457881Y-74653400D01*
X136457881Y-74653402D01*
X136472304Y-74707227D01*
X136515716Y-74869243D01*
X136518039Y-74874224D01*
X136518039Y-74874225D01*
X136610151Y-75071762D01*
X136610154Y-75071767D01*
X136612477Y-75076749D01*
X136743802Y-75264300D01*
X136905700Y-75426198D01*
X136910208Y-75429355D01*
X136910211Y-75429357D01*
X136926879Y-75441028D01*
X137093251Y-75557523D01*
X137098233Y-75559846D01*
X137098238Y-75559849D01*
X137207468Y-75610783D01*
X137300757Y-75654284D01*
X137306065Y-75655706D01*
X137306067Y-75655707D01*
X137516598Y-75712119D01*
X137516600Y-75712119D01*
X137521913Y-75713543D01*
X137750000Y-75733498D01*
X137978087Y-75713543D01*
X137983400Y-75712119D01*
X137983402Y-75712119D01*
X138193933Y-75655707D01*
X138193935Y-75655706D01*
X138199243Y-75654284D01*
X138292532Y-75610783D01*
X138401762Y-75559849D01*
X138401767Y-75559846D01*
X138406749Y-75557523D01*
X138573121Y-75441028D01*
X138589789Y-75429357D01*
X138589792Y-75429355D01*
X138594300Y-75426198D01*
X138756198Y-75264300D01*
X138887523Y-75076749D01*
X138889846Y-75071767D01*
X138889849Y-75071762D01*
X138953261Y-74935774D01*
X141513102Y-74935774D01*
X141513302Y-74941103D01*
X141513302Y-74941105D01*
X141516817Y-75034738D01*
X141521751Y-75166158D01*
X141522846Y-75171377D01*
X141525082Y-75182033D01*
X141569093Y-75391791D01*
X141571051Y-75396750D01*
X141571052Y-75396752D01*
X141650715Y-75598469D01*
X141653776Y-75606221D01*
X141773377Y-75803317D01*
X141776874Y-75807347D01*
X141920279Y-75972607D01*
X141924477Y-75977445D01*
X141928608Y-75980832D01*
X142098627Y-76120240D01*
X142098633Y-76120244D01*
X142102755Y-76123624D01*
X142107398Y-76126267D01*
X142134735Y-76141829D01*
X142184041Y-76192912D01*
X142197902Y-76262542D01*
X142171918Y-76328613D01*
X142142768Y-76355851D01*
X142025422Y-76434852D01*
X142017130Y-76441519D01*
X141858100Y-76593228D01*
X141851059Y-76601186D01*
X141719859Y-76777525D01*
X141714255Y-76786562D01*
X141614643Y-76982484D01*
X141610643Y-76992335D01*
X141545466Y-77202240D01*
X141543183Y-77212624D01*
X141541139Y-77228043D01*
X141543335Y-77242207D01*
X141556522Y-77246000D01*
X144441192Y-77246000D01*
X144454723Y-77242027D01*
X144456248Y-77231420D01*
X144431523Y-77113579D01*
X144428463Y-77103383D01*
X144347737Y-76898971D01*
X144343006Y-76889439D01*
X144228984Y-76701538D01*
X144222720Y-76692948D01*
X144078673Y-76526948D01*
X144071042Y-76519528D01*
X143901089Y-76380174D01*
X143892326Y-76374152D01*
X143865289Y-76358762D01*
X143815982Y-76307680D01*
X143802120Y-76238049D01*
X143828103Y-76171978D01*
X143857253Y-76144739D01*
X143910532Y-76108869D01*
X143979319Y-76062559D01*
X144146135Y-75903424D01*
X144283754Y-75718458D01*
X144388240Y-75512949D01*
X144396109Y-75487609D01*
X144455024Y-75297871D01*
X144456607Y-75292773D01*
X144460979Y-75259789D01*
X144486198Y-75069511D01*
X144486198Y-75069506D01*
X144486898Y-75064226D01*
X144486696Y-75058831D01*
X144480947Y-74905700D01*
X144478249Y-74833842D01*
X144430907Y-74608209D01*
X144428677Y-74602563D01*
X144348185Y-74398744D01*
X144348184Y-74398742D01*
X144346224Y-74393779D01*
X144226623Y-74196683D01*
X144139755Y-74096576D01*
X144079023Y-74026588D01*
X144079021Y-74026586D01*
X144075523Y-74022555D01*
X144006275Y-73965775D01*
X143901373Y-73879760D01*
X143901367Y-73879756D01*
X143897245Y-73876376D01*
X143892609Y-73873737D01*
X143892606Y-73873735D01*
X143701529Y-73764968D01*
X143696886Y-73762325D01*
X143480175Y-73683663D01*
X143474926Y-73682714D01*
X143474923Y-73682713D01*
X143257392Y-73643377D01*
X143257385Y-73643376D01*
X143253308Y-73642639D01*
X143235586Y-73641803D01*
X143230644Y-73641570D01*
X143230637Y-73641570D01*
X143229156Y-73641500D01*
X142817110Y-73641500D01*
X142750191Y-73647178D01*
X142650591Y-73655629D01*
X142650587Y-73655630D01*
X142645280Y-73656080D01*
X142640125Y-73657418D01*
X142640119Y-73657419D01*
X142427297Y-73712657D01*
X142427293Y-73712658D01*
X142422128Y-73713999D01*
X142417262Y-73716191D01*
X142417259Y-73716192D01*
X142312792Y-73763251D01*
X142211925Y-73808688D01*
X142020681Y-73937441D01*
X142016824Y-73941120D01*
X142016822Y-73941122D01*
X141947464Y-74007287D01*
X141853865Y-74096576D01*
X141716246Y-74281542D01*
X141713830Y-74286293D01*
X141713828Y-74286297D01*
X141699551Y-74314379D01*
X141611760Y-74487051D01*
X141610178Y-74492145D01*
X141610177Y-74492148D01*
X141563458Y-74642607D01*
X141543393Y-74707227D01*
X141542692Y-74712516D01*
X141516532Y-74909896D01*
X141513102Y-74935774D01*
X138953261Y-74935774D01*
X138981961Y-74874225D01*
X138981961Y-74874224D01*
X138984284Y-74869243D01*
X139027697Y-74707227D01*
X139042119Y-74653402D01*
X139042119Y-74653400D01*
X139043543Y-74648087D01*
X139063498Y-74420000D01*
X139043543Y-74191913D01*
X139019144Y-74100854D01*
X138985707Y-73976067D01*
X138985706Y-73976065D01*
X138984284Y-73970757D01*
X138940274Y-73876376D01*
X138889849Y-73768238D01*
X138889846Y-73768233D01*
X138887523Y-73763251D01*
X138756198Y-73575700D01*
X138594300Y-73413802D01*
X138589792Y-73410645D01*
X138589789Y-73410643D01*
X138511611Y-73355902D01*
X138406749Y-73282477D01*
X138401767Y-73280154D01*
X138401762Y-73280151D01*
X138204225Y-73188039D01*
X138204224Y-73188039D01*
X138199243Y-73185716D01*
X138193935Y-73184294D01*
X138193933Y-73184293D01*
X137983402Y-73127881D01*
X137983400Y-73127881D01*
X137978087Y-73126457D01*
X137750000Y-73106502D01*
X137521913Y-73126457D01*
X137516600Y-73127881D01*
X137516598Y-73127881D01*
X137306067Y-73184293D01*
X137306065Y-73184294D01*
X137300757Y-73185716D01*
X137295776Y-73188039D01*
X137295775Y-73188039D01*
X137098238Y-73280151D01*
X137098233Y-73280154D01*
X137093251Y-73282477D01*
X136988389Y-73355902D01*
X136910211Y-73410643D01*
X136910208Y-73410645D01*
X136905700Y-73413802D01*
X136743802Y-73575700D01*
X136612477Y-73763251D01*
X136610154Y-73768233D01*
X136610151Y-73768238D01*
X136559726Y-73876376D01*
X136515716Y-73970757D01*
X136514294Y-73976065D01*
X136514293Y-73976067D01*
X136480856Y-74100854D01*
X136456457Y-74191913D01*
X136436502Y-74420000D01*
X133044102Y-74420000D01*
X133097010Y-74367092D01*
X133099532Y-74364638D01*
X133152680Y-74314379D01*
X133152682Y-74314377D01*
X133157636Y-74309692D01*
X133161471Y-74304050D01*
X133165894Y-74298852D01*
X133166290Y-74299189D01*
X133172904Y-74291198D01*
X135077776Y-72386326D01*
X135085543Y-72379183D01*
X135120154Y-72349934D01*
X135125367Y-72345529D01*
X135174717Y-72280983D01*
X135176601Y-72278581D01*
X135223228Y-72220589D01*
X135223232Y-72220583D01*
X135227510Y-72215262D01*
X135230547Y-72209143D01*
X135232335Y-72206348D01*
X135232588Y-72205987D01*
X135232790Y-72205620D01*
X135234521Y-72202762D01*
X135238660Y-72197348D01*
X135272986Y-72123736D01*
X135274320Y-72120964D01*
X135307414Y-72054296D01*
X135310447Y-72048186D01*
X135312098Y-72041565D01*
X135313249Y-72038437D01*
X135313413Y-72038044D01*
X135313532Y-72037639D01*
X135314609Y-72034475D01*
X135317490Y-72028296D01*
X135335215Y-71948998D01*
X135335924Y-71946001D01*
X135352574Y-71879224D01*
X135388462Y-71817966D01*
X135451772Y-71785835D01*
X135522403Y-71793033D01*
X135577930Y-71837274D01*
X135589026Y-71856458D01*
X135610149Y-71901758D01*
X135610153Y-71901764D01*
X135612477Y-71906749D01*
X135642060Y-71948998D01*
X135711513Y-72048186D01*
X135743802Y-72094300D01*
X135905700Y-72256198D01*
X135910208Y-72259355D01*
X135910211Y-72259357D01*
X135941125Y-72281003D01*
X136093251Y-72387523D01*
X136098233Y-72389846D01*
X136098238Y-72389849D01*
X136263901Y-72467098D01*
X136300757Y-72484284D01*
X136306065Y-72485706D01*
X136306067Y-72485707D01*
X136516598Y-72542119D01*
X136516600Y-72542119D01*
X136521913Y-72543543D01*
X136750000Y-72563498D01*
X136978087Y-72543543D01*
X136983400Y-72542119D01*
X136983402Y-72542119D01*
X137193933Y-72485707D01*
X137193935Y-72485706D01*
X137199243Y-72484284D01*
X137236099Y-72467098D01*
X137401762Y-72389849D01*
X137401767Y-72389846D01*
X137406749Y-72387523D01*
X137558875Y-72281003D01*
X137589789Y-72259357D01*
X137589792Y-72259355D01*
X137594300Y-72256198D01*
X137756198Y-72094300D01*
X137788488Y-72048186D01*
X137857940Y-71948998D01*
X137887523Y-71906749D01*
X137889846Y-71901767D01*
X137889849Y-71901762D01*
X137981961Y-71704225D01*
X137981961Y-71704224D01*
X137984284Y-71699243D01*
X137994463Y-71661257D01*
X138042119Y-71483402D01*
X138042119Y-71483400D01*
X138043543Y-71478087D01*
X138063498Y-71250000D01*
X138043543Y-71021913D01*
X138042119Y-71016598D01*
X137985707Y-70806067D01*
X137985706Y-70806065D01*
X137984284Y-70800757D01*
X137968356Y-70766598D01*
X137889849Y-70598238D01*
X137889846Y-70598233D01*
X137887523Y-70593251D01*
X137756198Y-70405700D01*
X137689593Y-70339095D01*
X137655567Y-70276783D01*
X137660632Y-70205968D01*
X137689593Y-70160905D01*
X137756198Y-70094300D01*
X137887523Y-69906749D01*
X137889846Y-69901767D01*
X137889849Y-69901762D01*
X137981961Y-69704225D01*
X137981961Y-69704224D01*
X137984284Y-69699243D01*
X138043543Y-69478087D01*
X138063498Y-69250000D01*
X138043543Y-69021913D01*
X138036376Y-68995164D01*
X137985707Y-68806067D01*
X137985706Y-68806065D01*
X137984284Y-68800757D01*
X137937836Y-68701148D01*
X137889849Y-68598238D01*
X137889846Y-68598233D01*
X137887523Y-68593251D01*
X137780327Y-68440159D01*
X137759357Y-68410211D01*
X137759355Y-68410208D01*
X137756198Y-68405700D01*
X137594300Y-68243802D01*
X137589792Y-68240645D01*
X137589789Y-68240643D01*
X137511611Y-68185902D01*
X137406749Y-68112477D01*
X137401767Y-68110154D01*
X137401762Y-68110151D01*
X137204225Y-68018039D01*
X137204224Y-68018039D01*
X137199243Y-68015716D01*
X137193935Y-68014294D01*
X137193933Y-68014293D01*
X136983402Y-67957881D01*
X136983400Y-67957881D01*
X136978087Y-67956457D01*
X136750000Y-67936502D01*
X136521913Y-67956457D01*
X136516600Y-67957881D01*
X136516598Y-67957881D01*
X136306067Y-68014293D01*
X136306065Y-68014294D01*
X136300757Y-68015716D01*
X136295776Y-68018039D01*
X136295775Y-68018039D01*
X136098238Y-68110151D01*
X136098233Y-68110154D01*
X136093251Y-68112477D01*
X135988389Y-68185902D01*
X135910211Y-68240643D01*
X135910208Y-68240645D01*
X135905700Y-68243802D01*
X135794907Y-68354595D01*
X135732595Y-68388621D01*
X135705812Y-68391500D01*
X135541391Y-68391500D01*
X135530848Y-68391058D01*
X135478902Y-68386696D01*
X135472142Y-68387598D01*
X135472139Y-68387598D01*
X135398395Y-68397437D01*
X135395341Y-68397807D01*
X135358939Y-68401762D01*
X135314563Y-68406583D01*
X135308092Y-68408761D01*
X135304852Y-68409473D01*
X135304417Y-68409550D01*
X135304017Y-68409666D01*
X135300774Y-68410463D01*
X135294012Y-68411365D01*
X135217644Y-68439161D01*
X135214823Y-68440149D01*
X135137777Y-68466078D01*
X135131930Y-68469591D01*
X135128896Y-68470993D01*
X135128508Y-68471153D01*
X135128121Y-68471364D01*
X135125146Y-68472828D01*
X135118733Y-68475162D01*
X135112969Y-68478820D01*
X135050180Y-68518667D01*
X135047561Y-68520285D01*
X134977891Y-68562147D01*
X134972928Y-68566840D01*
X134970280Y-68568850D01*
X134969527Y-68569373D01*
X134965596Y-68572346D01*
X134961242Y-68575109D01*
X134956968Y-68578929D01*
X134902972Y-68632925D01*
X134900450Y-68635379D01*
X134842364Y-68690308D01*
X134838526Y-68695956D01*
X134834107Y-68701148D01*
X134833707Y-68700808D01*
X134827100Y-68708797D01*
X133922217Y-69613680D01*
X133914451Y-69620822D01*
X133874633Y-69654471D01*
X133870486Y-69659895D01*
X133870485Y-69659896D01*
X133825326Y-69718962D01*
X133823427Y-69721385D01*
X133778638Y-69777092D01*
X133772490Y-69784738D01*
X133769453Y-69790857D01*
X133767665Y-69793652D01*
X133767412Y-69794013D01*
X133767210Y-69794380D01*
X133765479Y-69797238D01*
X133761340Y-69802652D01*
X133758459Y-69808831D01*
X133727015Y-69876262D01*
X133725681Y-69879033D01*
X133689553Y-69951814D01*
X133687902Y-69958435D01*
X133686751Y-69961563D01*
X133686587Y-69961956D01*
X133686468Y-69962361D01*
X133685391Y-69965525D01*
X133682510Y-69971704D01*
X133681023Y-69978358D01*
X133664785Y-70051002D01*
X133664076Y-70053998D01*
X133644428Y-70132801D01*
X133644237Y-70139622D01*
X133643785Y-70142925D01*
X133643626Y-70143809D01*
X133642948Y-70148692D01*
X133641820Y-70153740D01*
X133641500Y-70159463D01*
X133641500Y-70235844D01*
X133641451Y-70239363D01*
X133639219Y-70319257D01*
X133640498Y-70325961D01*
X133641045Y-70332762D01*
X133640525Y-70332804D01*
X133641500Y-70343125D01*
X133641500Y-70948796D01*
X133625999Y-71001587D01*
X133639030Y-71026378D01*
X133641500Y-71051204D01*
X133641500Y-71342208D01*
X133621498Y-71410329D01*
X133604595Y-71431303D01*
X133547098Y-71488800D01*
X133484786Y-71522826D01*
X133413971Y-71517761D01*
X133357135Y-71475214D01*
X133332324Y-71408694D01*
X133336296Y-71367094D01*
X133372119Y-71233402D01*
X133372119Y-71233400D01*
X133373543Y-71228087D01*
X133389979Y-71040222D01*
X133405328Y-71000981D01*
X133394604Y-70984294D01*
X133389979Y-70959778D01*
X133389018Y-70948796D01*
X133373543Y-70771913D01*
X133325670Y-70593251D01*
X133315707Y-70556067D01*
X133315706Y-70556065D01*
X133314284Y-70550757D01*
X133248747Y-70410211D01*
X133219849Y-70348238D01*
X133219846Y-70348233D01*
X133217523Y-70343251D01*
X133091246Y-70162909D01*
X133089357Y-70160211D01*
X133089355Y-70160208D01*
X133086198Y-70155700D01*
X132924300Y-69993802D01*
X132919792Y-69990645D01*
X132919789Y-69990643D01*
X132799976Y-69906749D01*
X132736749Y-69862477D01*
X132731767Y-69860154D01*
X132731762Y-69860151D01*
X132534225Y-69768039D01*
X132534224Y-69768039D01*
X132529243Y-69765716D01*
X132523935Y-69764294D01*
X132523933Y-69764293D01*
X132313402Y-69707881D01*
X132313400Y-69707881D01*
X132308087Y-69706457D01*
X132080000Y-69686502D01*
X131851913Y-69706457D01*
X131846600Y-69707881D01*
X131846598Y-69707881D01*
X131636067Y-69764293D01*
X131636065Y-69764294D01*
X131630757Y-69765716D01*
X131625776Y-69768039D01*
X131625775Y-69768039D01*
X131428238Y-69860151D01*
X131428233Y-69860154D01*
X131423251Y-69862477D01*
X131360024Y-69906749D01*
X131240211Y-69990643D01*
X131240208Y-69990645D01*
X131235700Y-69993802D01*
X131073802Y-70155700D01*
X131070645Y-70160208D01*
X131070643Y-70160211D01*
X131068754Y-70162909D01*
X130942477Y-70343251D01*
X130940154Y-70348233D01*
X130940151Y-70348238D01*
X130911253Y-70410211D01*
X130845716Y-70550757D01*
X130844294Y-70556065D01*
X130844293Y-70556067D01*
X130834330Y-70593251D01*
X130786457Y-70771913D01*
X130766502Y-71000000D01*
X130786457Y-71228087D01*
X130787881Y-71233400D01*
X130787881Y-71233402D01*
X130827862Y-71382610D01*
X130845716Y-71449243D01*
X130848039Y-71454224D01*
X130848039Y-71454225D01*
X130940151Y-71651762D01*
X130940154Y-71651767D01*
X130942477Y-71656749D01*
X130959278Y-71680743D01*
X131055363Y-71817966D01*
X131073802Y-71844300D01*
X131235700Y-72006198D01*
X131240208Y-72009355D01*
X131240211Y-72009357D01*
X131281742Y-72038437D01*
X131423251Y-72137523D01*
X131428233Y-72139846D01*
X131428238Y-72139849D01*
X131625775Y-72231961D01*
X131630757Y-72234284D01*
X131636065Y-72235706D01*
X131636067Y-72235707D01*
X131846598Y-72292119D01*
X131846600Y-72292119D01*
X131851913Y-72293543D01*
X132080000Y-72313498D01*
X132308087Y-72293543D01*
X132447094Y-72256296D01*
X132518069Y-72257986D01*
X132576865Y-72297780D01*
X132604813Y-72363044D01*
X132593040Y-72433058D01*
X132568799Y-72467098D01*
X132181302Y-72854595D01*
X132118990Y-72888621D01*
X132092207Y-72891500D01*
X127291391Y-72891500D01*
X127280848Y-72891058D01*
X127228902Y-72886696D01*
X127222142Y-72887598D01*
X127222141Y-72887598D01*
X127148397Y-72897438D01*
X127145340Y-72897808D01*
X127071343Y-72905846D01*
X127071339Y-72905847D01*
X127064563Y-72906583D01*
X127058100Y-72908758D01*
X127054824Y-72909478D01*
X127054428Y-72909548D01*
X127054004Y-72909671D01*
X127050784Y-72910462D01*
X127044011Y-72911366D01*
X126967677Y-72939149D01*
X126964802Y-72940156D01*
X126946227Y-72946407D01*
X126887777Y-72966078D01*
X126881923Y-72969596D01*
X126878916Y-72970985D01*
X126878511Y-72971152D01*
X126878135Y-72971357D01*
X126875148Y-72972827D01*
X126868732Y-72975162D01*
X126800080Y-73018730D01*
X126797611Y-73020255D01*
X126727891Y-73062147D01*
X126722934Y-73066834D01*
X126720277Y-73068851D01*
X126719543Y-73069361D01*
X126715605Y-73072339D01*
X126711241Y-73075109D01*
X126706968Y-73078929D01*
X126652972Y-73132925D01*
X126650450Y-73135379D01*
X126592364Y-73190308D01*
X126588526Y-73195956D01*
X126584107Y-73201148D01*
X126583707Y-73200808D01*
X126577100Y-73208797D01*
X124922217Y-74863680D01*
X124914451Y-74870822D01*
X124874633Y-74904471D01*
X124870486Y-74909895D01*
X124870485Y-74909896D01*
X124825326Y-74968962D01*
X124823432Y-74971379D01*
X124772490Y-75034738D01*
X124769453Y-75040857D01*
X124767665Y-75043652D01*
X124767412Y-75044013D01*
X124767210Y-75044380D01*
X124765479Y-75047238D01*
X124761340Y-75052652D01*
X124744509Y-75088747D01*
X124727015Y-75126262D01*
X124725681Y-75129033D01*
X124689553Y-75201814D01*
X124687902Y-75208435D01*
X124686751Y-75211563D01*
X124686587Y-75211956D01*
X124686468Y-75212361D01*
X124685391Y-75215525D01*
X124682510Y-75221704D01*
X124681023Y-75228358D01*
X124664785Y-75301002D01*
X124664076Y-75303998D01*
X124644428Y-75382801D01*
X124644237Y-75389622D01*
X124643785Y-75392925D01*
X124643626Y-75393809D01*
X124642948Y-75398692D01*
X124641820Y-75403740D01*
X124641500Y-75409463D01*
X124641500Y-75485844D01*
X124641451Y-75489363D01*
X124639219Y-75569257D01*
X124640498Y-75575961D01*
X124641045Y-75582762D01*
X124640525Y-75582804D01*
X124641500Y-75593125D01*
X124641500Y-79592207D01*
X124621498Y-79660328D01*
X124604595Y-79681302D01*
X123651302Y-80634595D01*
X123588990Y-80668621D01*
X123562207Y-80671500D01*
X122494188Y-80671500D01*
X122426067Y-80651498D01*
X122405093Y-80634595D01*
X122294300Y-80523802D01*
X122289792Y-80520645D01*
X122289789Y-80520643D01*
X122176288Y-80441169D01*
X122106749Y-80392477D01*
X122101767Y-80390154D01*
X122101762Y-80390151D01*
X122067543Y-80374195D01*
X122014258Y-80327278D01*
X121994797Y-80259001D01*
X122015339Y-80191041D01*
X122067543Y-80145805D01*
X122101762Y-80129849D01*
X122101767Y-80129846D01*
X122106749Y-80127523D01*
X122268632Y-80014171D01*
X122289789Y-79999357D01*
X122289792Y-79999355D01*
X122294300Y-79996198D01*
X122456198Y-79834300D01*
X122587523Y-79646749D01*
X122589846Y-79641767D01*
X122589849Y-79641762D01*
X122681961Y-79444225D01*
X122681961Y-79444224D01*
X122684284Y-79439243D01*
X122707419Y-79352905D01*
X122742119Y-79223402D01*
X122742119Y-79223400D01*
X122743543Y-79218087D01*
X122763498Y-78990000D01*
X122743543Y-78761913D01*
X122729902Y-78711005D01*
X122685707Y-78546067D01*
X122685706Y-78546065D01*
X122684284Y-78540757D01*
X122652713Y-78473052D01*
X122589849Y-78338238D01*
X122589846Y-78338233D01*
X122587523Y-78333251D01*
X122456198Y-78145700D01*
X122294300Y-77983802D01*
X122289789Y-77980643D01*
X122285576Y-77977108D01*
X122286527Y-77975974D01*
X122246529Y-77925929D01*
X122239224Y-77855310D01*
X122271258Y-77791951D01*
X122332462Y-77755970D01*
X122349517Y-77752918D01*
X122360316Y-77751745D01*
X122496705Y-77700615D01*
X122613261Y-77613261D01*
X122700615Y-77496705D01*
X122751745Y-77360316D01*
X122758500Y-77298134D01*
X122758500Y-75601866D01*
X122751745Y-75539684D01*
X122700615Y-75403295D01*
X122613261Y-75286739D01*
X122496705Y-75199385D01*
X122360316Y-75148255D01*
X122298134Y-75141500D01*
X120601866Y-75141500D01*
X120539684Y-75148255D01*
X120403295Y-75199385D01*
X120286739Y-75286739D01*
X120199385Y-75403295D01*
X120148255Y-75539684D01*
X120141500Y-75601866D01*
X120141500Y-77298134D01*
X120148255Y-77360316D01*
X120199385Y-77496705D01*
X120286739Y-77613261D01*
X120403295Y-77700615D01*
X120539684Y-77751745D01*
X120550474Y-77752917D01*
X120552606Y-77753803D01*
X120555222Y-77754425D01*
X120555121Y-77754848D01*
X120616035Y-77780155D01*
X120656463Y-77838517D01*
X120658922Y-77909471D01*
X120622629Y-77970490D01*
X120613969Y-77977489D01*
X120610207Y-77980646D01*
X120605700Y-77983802D01*
X120443802Y-78145700D01*
X120312477Y-78333251D01*
X120310154Y-78338233D01*
X120310151Y-78338238D01*
X120247287Y-78473052D01*
X120215716Y-78540757D01*
X120214294Y-78546065D01*
X120214293Y-78546067D01*
X120170098Y-78711005D01*
X120156457Y-78761913D01*
X120136502Y-78990000D01*
X120156457Y-79218087D01*
X120157881Y-79223400D01*
X120157881Y-79223402D01*
X120192582Y-79352905D01*
X120215716Y-79439243D01*
X120218039Y-79444224D01*
X120218039Y-79444225D01*
X120310151Y-79641762D01*
X120310154Y-79641767D01*
X120312477Y-79646749D01*
X120443802Y-79834300D01*
X120605700Y-79996198D01*
X120610208Y-79999355D01*
X120610211Y-79999357D01*
X120631368Y-80014171D01*
X120793251Y-80127523D01*
X120798233Y-80129846D01*
X120798238Y-80129849D01*
X120832457Y-80145805D01*
X120885742Y-80192722D01*
X120905203Y-80260999D01*
X120884661Y-80328959D01*
X120832457Y-80374195D01*
X120798238Y-80390151D01*
X120798233Y-80390154D01*
X120793251Y-80392477D01*
X120723712Y-80441169D01*
X120610211Y-80520643D01*
X120610208Y-80520645D01*
X120605700Y-80523802D01*
X120443802Y-80685700D01*
X120440645Y-80690208D01*
X120440643Y-80690211D01*
X120400239Y-80747914D01*
X120312477Y-80873251D01*
X120310154Y-80878233D01*
X120310151Y-80878238D01*
X120218039Y-81075775D01*
X120215716Y-81080757D01*
X120214294Y-81086065D01*
X120214293Y-81086067D01*
X120169056Y-81254894D01*
X120156457Y-81301913D01*
X120136502Y-81530000D01*
X118260890Y-81530000D01*
X118125472Y-81417973D01*
X118125469Y-81417971D01*
X118120722Y-81414044D01*
X117942435Y-81317644D01*
X117844213Y-81287239D01*
X117754707Y-81259532D01*
X117754704Y-81259531D01*
X117748820Y-81257710D01*
X117742695Y-81257066D01*
X117742694Y-81257066D01*
X117553378Y-81237168D01*
X117553377Y-81237168D01*
X117547250Y-81236524D01*
X117463986Y-81244102D01*
X117351543Y-81254335D01*
X117351540Y-81254336D01*
X117345404Y-81254894D01*
X117339498Y-81256632D01*
X117339494Y-81256633D01*
X117204947Y-81296233D01*
X117150971Y-81312119D01*
X117145514Y-81314972D01*
X117145511Y-81314973D01*
X117091420Y-81343251D01*
X116971540Y-81405923D01*
X116971538Y-81405923D01*
X116971355Y-81406019D01*
X116971337Y-81405984D01*
X116905559Y-81425889D01*
X116844591Y-81410729D01*
X116835815Y-81405984D01*
X116672435Y-81317644D01*
X116574213Y-81287239D01*
X116484707Y-81259532D01*
X116484704Y-81259531D01*
X116478820Y-81257710D01*
X116472695Y-81257066D01*
X116472694Y-81257066D01*
X116283378Y-81237168D01*
X116283377Y-81237168D01*
X116277250Y-81236524D01*
X116193986Y-81244102D01*
X116081543Y-81254335D01*
X116081540Y-81254336D01*
X116075404Y-81254894D01*
X116069498Y-81256632D01*
X116069494Y-81256633D01*
X115886879Y-81310380D01*
X115886877Y-81310381D01*
X115885493Y-81310788D01*
X115880971Y-81312119D01*
X115880718Y-81311260D01*
X115815338Y-81317714D01*
X115778594Y-81304548D01*
X115771705Y-81299385D01*
X115763304Y-81296236D01*
X115763301Y-81296234D01*
X115651534Y-81254335D01*
X115635316Y-81248255D01*
X115573134Y-81241500D01*
X114426866Y-81241500D01*
X114364684Y-81248255D01*
X114228295Y-81299385D01*
X114111739Y-81386739D01*
X114024385Y-81503295D01*
X113973255Y-81639684D01*
X113966500Y-81701866D01*
X113966500Y-83298134D01*
X113008500Y-83298134D01*
X113008500Y-75750000D01*
X113936502Y-75750000D01*
X113956457Y-75978087D01*
X113957881Y-75983400D01*
X113957881Y-75983402D01*
X114014020Y-76192912D01*
X114015716Y-76199243D01*
X114018039Y-76204224D01*
X114018039Y-76204225D01*
X114110151Y-76401762D01*
X114110154Y-76401767D01*
X114112477Y-76406749D01*
X114243802Y-76594300D01*
X114405700Y-76756198D01*
X114410208Y-76759355D01*
X114410211Y-76759357D01*
X114436158Y-76777525D01*
X114593251Y-76887523D01*
X114598233Y-76889846D01*
X114598238Y-76889849D01*
X114795775Y-76981961D01*
X114800757Y-76984284D01*
X114806065Y-76985706D01*
X114806067Y-76985707D01*
X115016598Y-77042119D01*
X115016600Y-77042119D01*
X115021913Y-77043543D01*
X115250000Y-77063498D01*
X115478087Y-77043543D01*
X115483400Y-77042119D01*
X115483402Y-77042119D01*
X115693933Y-76985707D01*
X115693935Y-76985706D01*
X115699243Y-76984284D01*
X115704225Y-76981961D01*
X115901762Y-76889849D01*
X115901767Y-76889846D01*
X115906749Y-76887523D01*
X116063842Y-76777525D01*
X116089789Y-76759357D01*
X116089792Y-76759355D01*
X116094300Y-76756198D01*
X116256198Y-76594300D01*
X116387523Y-76406749D01*
X116389846Y-76401767D01*
X116390882Y-76399973D01*
X116442266Y-76350981D01*
X116511979Y-76337546D01*
X116577890Y-76363934D01*
X116609118Y-76399973D01*
X116610154Y-76401767D01*
X116612477Y-76406749D01*
X116743802Y-76594300D01*
X116905700Y-76756198D01*
X116910208Y-76759355D01*
X116910211Y-76759357D01*
X116936158Y-76777525D01*
X117093251Y-76887523D01*
X117098233Y-76889846D01*
X117098238Y-76889849D01*
X117295775Y-76981961D01*
X117300757Y-76984284D01*
X117306065Y-76985706D01*
X117306067Y-76985707D01*
X117516598Y-77042119D01*
X117516600Y-77042119D01*
X117521913Y-77043543D01*
X117750000Y-77063498D01*
X117978087Y-77043543D01*
X117983400Y-77042119D01*
X117983402Y-77042119D01*
X118193933Y-76985707D01*
X118193935Y-76985706D01*
X118199243Y-76984284D01*
X118204225Y-76981961D01*
X118401762Y-76889849D01*
X118401767Y-76889846D01*
X118406749Y-76887523D01*
X118563842Y-76777525D01*
X118589789Y-76759357D01*
X118589792Y-76759355D01*
X118594300Y-76756198D01*
X118756198Y-76594300D01*
X118887523Y-76406749D01*
X118889846Y-76401767D01*
X118889849Y-76401762D01*
X118981961Y-76204225D01*
X118981961Y-76204224D01*
X118984284Y-76199243D01*
X118985981Y-76192912D01*
X119042119Y-75983402D01*
X119042119Y-75983400D01*
X119043543Y-75978087D01*
X119063498Y-75750000D01*
X119043543Y-75521913D01*
X119041141Y-75512949D01*
X118985707Y-75306067D01*
X118985706Y-75306065D01*
X118984284Y-75300757D01*
X118981961Y-75295775D01*
X118889849Y-75098238D01*
X118889846Y-75098233D01*
X118887523Y-75093251D01*
X118777256Y-74935774D01*
X118759357Y-74910211D01*
X118759355Y-74910208D01*
X118756198Y-74905700D01*
X118594300Y-74743802D01*
X118589792Y-74740645D01*
X118589789Y-74740643D01*
X118511611Y-74685902D01*
X118406749Y-74612477D01*
X118401767Y-74610154D01*
X118401762Y-74610151D01*
X118204225Y-74518039D01*
X118204224Y-74518039D01*
X118199243Y-74515716D01*
X118193935Y-74514294D01*
X118193933Y-74514293D01*
X117983402Y-74457881D01*
X117983400Y-74457881D01*
X117978087Y-74456457D01*
X117750000Y-74436502D01*
X117521913Y-74456457D01*
X117516600Y-74457881D01*
X117516598Y-74457881D01*
X117306067Y-74514293D01*
X117306065Y-74514294D01*
X117300757Y-74515716D01*
X117295776Y-74518039D01*
X117295775Y-74518039D01*
X117098238Y-74610151D01*
X117098233Y-74610154D01*
X117093251Y-74612477D01*
X116988389Y-74685902D01*
X116910211Y-74740643D01*
X116910208Y-74740645D01*
X116905700Y-74743802D01*
X116743802Y-74905700D01*
X116740645Y-74910208D01*
X116740643Y-74910211D01*
X116697809Y-74971385D01*
X116612477Y-75093251D01*
X116610154Y-75098233D01*
X116609118Y-75100027D01*
X116557734Y-75149019D01*
X116488021Y-75162454D01*
X116422110Y-75136066D01*
X116390882Y-75100027D01*
X116389846Y-75098233D01*
X116387523Y-75093251D01*
X116302191Y-74971385D01*
X116259357Y-74910211D01*
X116259355Y-74910208D01*
X116256198Y-74905700D01*
X116094300Y-74743802D01*
X116089792Y-74740645D01*
X116089789Y-74740643D01*
X116011611Y-74685902D01*
X115906749Y-74612477D01*
X115901767Y-74610154D01*
X115901762Y-74610151D01*
X115704225Y-74518039D01*
X115704224Y-74518039D01*
X115699243Y-74515716D01*
X115693935Y-74514294D01*
X115693933Y-74514293D01*
X115483402Y-74457881D01*
X115483400Y-74457881D01*
X115478087Y-74456457D01*
X115250000Y-74436502D01*
X115021913Y-74456457D01*
X115016600Y-74457881D01*
X115016598Y-74457881D01*
X114806067Y-74514293D01*
X114806065Y-74514294D01*
X114800757Y-74515716D01*
X114795776Y-74518039D01*
X114795775Y-74518039D01*
X114598238Y-74610151D01*
X114598233Y-74610154D01*
X114593251Y-74612477D01*
X114488389Y-74685902D01*
X114410211Y-74740643D01*
X114410208Y-74740645D01*
X114405700Y-74743802D01*
X114243802Y-74905700D01*
X114240645Y-74910208D01*
X114240643Y-74910211D01*
X114222744Y-74935774D01*
X114112477Y-75093251D01*
X114110154Y-75098233D01*
X114110151Y-75098238D01*
X114018039Y-75295775D01*
X114015716Y-75300757D01*
X114014294Y-75306065D01*
X114014293Y-75306067D01*
X113958859Y-75512949D01*
X113956457Y-75521913D01*
X113936502Y-75750000D01*
X113008500Y-75750000D01*
X113008500Y-70233185D01*
X113028502Y-70165064D01*
X113082158Y-70118571D01*
X113152432Y-70108467D01*
X113217012Y-70137961D01*
X113239082Y-70162909D01*
X113285937Y-70232636D01*
X113313843Y-70274165D01*
X113548163Y-70552428D01*
X113675392Y-70674010D01*
X113808702Y-70801405D01*
X113808709Y-70801411D01*
X113811165Y-70803758D01*
X114099771Y-71025214D01*
X114102689Y-71026988D01*
X114407692Y-71212433D01*
X114407697Y-71212436D01*
X114410607Y-71214205D01*
X114413695Y-71215651D01*
X114413694Y-71215651D01*
X114736952Y-71367077D01*
X114736962Y-71367081D01*
X114740036Y-71368521D01*
X114743254Y-71369623D01*
X114743257Y-71369624D01*
X115080981Y-71485253D01*
X115080989Y-71485255D01*
X115084204Y-71486356D01*
X115439084Y-71566332D01*
X115492123Y-71572375D01*
X115797144Y-71607128D01*
X115797152Y-71607128D01*
X115800527Y-71607513D01*
X115803931Y-71607531D01*
X115803934Y-71607531D01*
X116002058Y-71608568D01*
X116164303Y-71609418D01*
X116167689Y-71609068D01*
X116167691Y-71609068D01*
X116522765Y-71572375D01*
X116522774Y-71572374D01*
X116526157Y-71572024D01*
X116529490Y-71571310D01*
X116529493Y-71571309D01*
X116639895Y-71547641D01*
X116881856Y-71495768D01*
X117227239Y-71381544D01*
X117230323Y-71380138D01*
X117230332Y-71380135D01*
X117555171Y-71232096D01*
X117558265Y-71230686D01*
X117860549Y-71051204D01*
X117868128Y-71046704D01*
X117868132Y-71046701D01*
X117871063Y-71044961D01*
X117930945Y-71000000D01*
X120606502Y-71000000D01*
X120626457Y-71228087D01*
X120627881Y-71233400D01*
X120627881Y-71233402D01*
X120667862Y-71382610D01*
X120685716Y-71449243D01*
X120688039Y-71454224D01*
X120688039Y-71454225D01*
X120780151Y-71651762D01*
X120780154Y-71651767D01*
X120782477Y-71656749D01*
X120799278Y-71680743D01*
X120895363Y-71817966D01*
X120913802Y-71844300D01*
X121075700Y-72006198D01*
X121080208Y-72009355D01*
X121080211Y-72009357D01*
X121121742Y-72038437D01*
X121263251Y-72137523D01*
X121268233Y-72139846D01*
X121268238Y-72139849D01*
X121465775Y-72231961D01*
X121470757Y-72234284D01*
X121476065Y-72235706D01*
X121476067Y-72235707D01*
X121686598Y-72292119D01*
X121686600Y-72292119D01*
X121691913Y-72293543D01*
X121920000Y-72313498D01*
X122148087Y-72293543D01*
X122153400Y-72292119D01*
X122153402Y-72292119D01*
X122363933Y-72235707D01*
X122363935Y-72235706D01*
X122369243Y-72234284D01*
X122374225Y-72231961D01*
X122571762Y-72139849D01*
X122571767Y-72139846D01*
X122576749Y-72137523D01*
X122718258Y-72038437D01*
X122759789Y-72009357D01*
X122759792Y-72009355D01*
X122764300Y-72006198D01*
X122926198Y-71844300D01*
X122944638Y-71817966D01*
X123040722Y-71680743D01*
X123057523Y-71656749D01*
X123059846Y-71651767D01*
X123059849Y-71651762D01*
X123151961Y-71454225D01*
X123151961Y-71454224D01*
X123154284Y-71449243D01*
X123172139Y-71382610D01*
X123212119Y-71233402D01*
X123212119Y-71233400D01*
X123213543Y-71228087D01*
X123233498Y-71000000D01*
X123213543Y-70771913D01*
X123165670Y-70593251D01*
X123155707Y-70556067D01*
X123155706Y-70556065D01*
X123154284Y-70550757D01*
X123088747Y-70410211D01*
X123059849Y-70348238D01*
X123059846Y-70348233D01*
X123057523Y-70343251D01*
X122931246Y-70162909D01*
X122929357Y-70160211D01*
X122929355Y-70160208D01*
X122926198Y-70155700D01*
X122764300Y-69993802D01*
X122759792Y-69990645D01*
X122759789Y-69990643D01*
X122639976Y-69906749D01*
X122576749Y-69862477D01*
X122571767Y-69860154D01*
X122571762Y-69860151D01*
X122374225Y-69768039D01*
X122374224Y-69768039D01*
X122369243Y-69765716D01*
X122363935Y-69764294D01*
X122363933Y-69764293D01*
X122153402Y-69707881D01*
X122153400Y-69707881D01*
X122148087Y-69706457D01*
X121920000Y-69686502D01*
X121691913Y-69706457D01*
X121686600Y-69707881D01*
X121686598Y-69707881D01*
X121476067Y-69764293D01*
X121476065Y-69764294D01*
X121470757Y-69765716D01*
X121465776Y-69768039D01*
X121465775Y-69768039D01*
X121268238Y-69860151D01*
X121268233Y-69860154D01*
X121263251Y-69862477D01*
X121200024Y-69906749D01*
X121080211Y-69990643D01*
X121080208Y-69990645D01*
X121075700Y-69993802D01*
X120913802Y-70155700D01*
X120910645Y-70160208D01*
X120910643Y-70160211D01*
X120908754Y-70162909D01*
X120782477Y-70343251D01*
X120780154Y-70348233D01*
X120780151Y-70348238D01*
X120751253Y-70410211D01*
X120685716Y-70550757D01*
X120684294Y-70556065D01*
X120684293Y-70556067D01*
X120674330Y-70593251D01*
X120626457Y-70771913D01*
X120606502Y-71000000D01*
X117930945Y-71000000D01*
X118161973Y-70826539D01*
X118427592Y-70577977D01*
X118664813Y-70302182D01*
X118797950Y-70108467D01*
X118868931Y-70005190D01*
X118868936Y-70005182D01*
X118870861Y-70002381D01*
X118872473Y-69999387D01*
X118872478Y-69999379D01*
X119023466Y-69718962D01*
X119043325Y-69682080D01*
X119180188Y-69345027D01*
X119279850Y-68995164D01*
X119341143Y-68636583D01*
X119343285Y-68601574D01*
X119363241Y-68275278D01*
X119363351Y-68273481D01*
X119363433Y-68250000D01*
X119343760Y-67886751D01*
X119321366Y-67750000D01*
X120526502Y-67750000D01*
X120546457Y-67978087D01*
X120605716Y-68199243D01*
X120608039Y-68204224D01*
X120608039Y-68204225D01*
X120700151Y-68401762D01*
X120700154Y-68401767D01*
X120702477Y-68406749D01*
X120752942Y-68478820D01*
X120815982Y-68568850D01*
X120833802Y-68594300D01*
X120995700Y-68756198D01*
X121000208Y-68759355D01*
X121000211Y-68759357D01*
X121059337Y-68800757D01*
X121183251Y-68887523D01*
X121188233Y-68889846D01*
X121188238Y-68889849D01*
X121347399Y-68964066D01*
X121390757Y-68984284D01*
X121396065Y-68985706D01*
X121396067Y-68985707D01*
X121606598Y-69042119D01*
X121606600Y-69042119D01*
X121611913Y-69043543D01*
X121840000Y-69063498D01*
X122068087Y-69043543D01*
X122073400Y-69042119D01*
X122073402Y-69042119D01*
X122283933Y-68985707D01*
X122283935Y-68985706D01*
X122289243Y-68984284D01*
X122332601Y-68964066D01*
X122491762Y-68889849D01*
X122491767Y-68889846D01*
X122496749Y-68887523D01*
X122620663Y-68800757D01*
X122679789Y-68759357D01*
X122679792Y-68759355D01*
X122684300Y-68756198D01*
X122846198Y-68594300D01*
X122864019Y-68568850D01*
X122927058Y-68478820D01*
X122977523Y-68406749D01*
X122979846Y-68401767D01*
X122979849Y-68401762D01*
X123071961Y-68204225D01*
X123071961Y-68204224D01*
X123074284Y-68199243D01*
X123133543Y-67978087D01*
X123153498Y-67750000D01*
X130686502Y-67750000D01*
X130706457Y-67978087D01*
X130765716Y-68199243D01*
X130768039Y-68204224D01*
X130768039Y-68204225D01*
X130860151Y-68401762D01*
X130860154Y-68401767D01*
X130862477Y-68406749D01*
X130912942Y-68478820D01*
X130975982Y-68568850D01*
X130993802Y-68594300D01*
X131155700Y-68756198D01*
X131160208Y-68759355D01*
X131160211Y-68759357D01*
X131219337Y-68800757D01*
X131343251Y-68887523D01*
X131348233Y-68889846D01*
X131348238Y-68889849D01*
X131507399Y-68964066D01*
X131550757Y-68984284D01*
X131556065Y-68985706D01*
X131556067Y-68985707D01*
X131766598Y-69042119D01*
X131766600Y-69042119D01*
X131771913Y-69043543D01*
X132000000Y-69063498D01*
X132228087Y-69043543D01*
X132233400Y-69042119D01*
X132233402Y-69042119D01*
X132443933Y-68985707D01*
X132443935Y-68985706D01*
X132449243Y-68984284D01*
X132492601Y-68964066D01*
X132651762Y-68889849D01*
X132651767Y-68889846D01*
X132656749Y-68887523D01*
X132780663Y-68800757D01*
X132839789Y-68759357D01*
X132839792Y-68759355D01*
X132844300Y-68756198D01*
X133006198Y-68594300D01*
X133024019Y-68568850D01*
X133087058Y-68478820D01*
X133137523Y-68406749D01*
X133139846Y-68401767D01*
X133139849Y-68401762D01*
X133231961Y-68204225D01*
X133231961Y-68204224D01*
X133234284Y-68199243D01*
X133293543Y-67978087D01*
X133313498Y-67750000D01*
X133293543Y-67521913D01*
X133234284Y-67300757D01*
X133231961Y-67295775D01*
X133139849Y-67098238D01*
X133139846Y-67098233D01*
X133137523Y-67093251D01*
X133006198Y-66905700D01*
X132844300Y-66743802D01*
X132839792Y-66740645D01*
X132839789Y-66740643D01*
X132761611Y-66685902D01*
X132656749Y-66612477D01*
X132651767Y-66610154D01*
X132651762Y-66610151D01*
X132454225Y-66518039D01*
X132454224Y-66518039D01*
X132449243Y-66515716D01*
X132443935Y-66514294D01*
X132443933Y-66514293D01*
X132233402Y-66457881D01*
X132233400Y-66457881D01*
X132228087Y-66456457D01*
X132000000Y-66436502D01*
X131771913Y-66456457D01*
X131766600Y-66457881D01*
X131766598Y-66457881D01*
X131556067Y-66514293D01*
X131556065Y-66514294D01*
X131550757Y-66515716D01*
X131545776Y-66518039D01*
X131545775Y-66518039D01*
X131348238Y-66610151D01*
X131348233Y-66610154D01*
X131343251Y-66612477D01*
X131238389Y-66685902D01*
X131160211Y-66740643D01*
X131160208Y-66740645D01*
X131155700Y-66743802D01*
X130993802Y-66905700D01*
X130862477Y-67093251D01*
X130860154Y-67098233D01*
X130860151Y-67098238D01*
X130768039Y-67295775D01*
X130765716Y-67300757D01*
X130706457Y-67521913D01*
X130686502Y-67750000D01*
X123153498Y-67750000D01*
X123133543Y-67521913D01*
X123074284Y-67300757D01*
X123071961Y-67295775D01*
X122979849Y-67098238D01*
X122979846Y-67098233D01*
X122977523Y-67093251D01*
X122846198Y-66905700D01*
X122684300Y-66743802D01*
X122679792Y-66740645D01*
X122679789Y-66740643D01*
X122601611Y-66685902D01*
X122496749Y-66612477D01*
X122491767Y-66610154D01*
X122491762Y-66610151D01*
X122294225Y-66518039D01*
X122294224Y-66518039D01*
X122289243Y-66515716D01*
X122283935Y-66514294D01*
X122283933Y-66514293D01*
X122073402Y-66457881D01*
X122073400Y-66457881D01*
X122068087Y-66456457D01*
X121840000Y-66436502D01*
X121611913Y-66456457D01*
X121606600Y-66457881D01*
X121606598Y-66457881D01*
X121396067Y-66514293D01*
X121396065Y-66514294D01*
X121390757Y-66515716D01*
X121385776Y-66518039D01*
X121385775Y-66518039D01*
X121188238Y-66610151D01*
X121188233Y-66610154D01*
X121183251Y-66612477D01*
X121078389Y-66685902D01*
X121000211Y-66740643D01*
X121000208Y-66740645D01*
X120995700Y-66743802D01*
X120833802Y-66905700D01*
X120702477Y-67093251D01*
X120700154Y-67098233D01*
X120700151Y-67098238D01*
X120608039Y-67295775D01*
X120605716Y-67300757D01*
X120546457Y-67521913D01*
X120526502Y-67750000D01*
X119321366Y-67750000D01*
X119284972Y-67527752D01*
X119187756Y-67177202D01*
X119183331Y-67166081D01*
X119054508Y-66842365D01*
X119053249Y-66839201D01*
X119001065Y-66740643D01*
X118884624Y-66520723D01*
X118884620Y-66520716D01*
X118883025Y-66517704D01*
X118881118Y-66514888D01*
X118881113Y-66514879D01*
X118680985Y-66219292D01*
X118679075Y-66216471D01*
X118443785Y-65939027D01*
X118179908Y-65688617D01*
X117912268Y-65484730D01*
X117870201Y-65427538D01*
X117865732Y-65356682D01*
X117900280Y-65294658D01*
X117962876Y-65261159D01*
X117988623Y-65258500D01*
X141512237Y-65258500D01*
X141580358Y-65278502D01*
G37*
%TD.AperFunction*%
%TD*%
M02*
